<svg viewBox="0 0 288 187" fill="none" xmlns="http://www.w3.org/2000/svg">
<path d="M262 0C276.359 0 288 11.641 288 26V126.525C288 140.884 276.359 152.525 262 152.525H138.326C138.929 155.248 139.328 157.914 139.494 160.5C139.784 164.9 140.544 176.6 131.494 182.42C128.474 184.35 125.254 185.18 123.094 185.63C120.104 186.26 117.004 186.57 113.874 186.57C110.944 186.57 107.984 186.29 105.084 185.74C100.484 184.86 96.1336 183.33 92.1436 181.18C90.8938 180.51 89.7839 179.78 88.7041 179.07C86.2542 177.48 84.3241 176.21 81.6143 176.02C81.4543 176.01 81.314 176.01 81.1641 176.01C79.1641 176.01 77.2543 177.04 74.0645 178.87C71.7245 180.2 69.0742 181.72 65.8643 182.86C61.2243 184.5 56.6039 185.98 51.0039 186H50.8838C28.4674 186 19.9667 166.206 19.6143 165.36L18.124 161.79C7.86416 160.23 0.00411548 151.39 0.00390625 140.69V126.692C0.00390625 126.637 1.84436e-05 126.581 0 126.525V26C0 11.641 11.641 0 26 0H262ZM87.0742 118.64C82.1442 118.64 77.2237 122.58 75.3037 127.86C73.3038 133.331 72.1944 145.98 83.8438 151.35C85.9037 152.3 88.7737 152.94 91.8936 152.94C98.0235 152.94 105.154 150.5 109.194 143.24C109.246 143.28 115.445 148.04 120.534 157.71C125.184 166.53 124.424 174.21 117.314 174.21C115.895 174.21 114.214 173.9 112.274 173.23C110.174 172.51 108.314 171.45 106.584 170.25L98.3936 169.4L104.604 168.76C100.054 165.13 96.3836 160.89 91.8037 159.99C91.3538 159.9 90.894 159.86 90.4141 159.86C87.0841 159.86 83.1339 161.84 80.2539 163.45C77.074 165.23 74.174 167.69 70.9541 169.38C67.1041 171.41 63.8439 172.63 60.9639 172.63C56.304 172.63 52.5944 169.46 48.8145 161.37C48.2645 160.19 47.8036 158.95 47.4336 157.67L27.1836 162.21C27.1836 162.21 33.6739 177.8 50.8838 177.8H50.9736C55.2836 177.79 59.0043 176.59 63.1143 175.13C69.7941 172.76 74.2942 167.81 81.1641 167.81C81.4939 167.81 81.8338 167.82 82.1836 167.84C88.6636 168.3 92.3244 171.97 96.0244 173.96C99.3043 175.72 102.904 176.98 106.624 177.69C109.014 178.14 111.444 178.37 113.874 178.37C116.414 178.37 118.944 178.12 121.414 177.6C122.764 177.32 124.114 176.94 125.364 176.4L120.804 175.81L127.884 174.91C131.734 171.67 131.604 165.48 131.314 161.03C130.964 155.63 129.514 150.31 127.514 145.24C124.754 138.27 120.714 129.46 114.404 124.53C114.254 124.41 114.104 124.3 113.954 124.2C112.394 134.53 103.364 141.8 95.2637 141.8C93.7938 141.8 92.3638 141.57 91.0039 141.06C85.734 139.1 82.8339 134.57 82.2939 129.3C81.8141 124.72 85.5241 119.61 90.874 119.48C89.6341 118.901 88.3541 118.64 87.0742 118.64ZM8.19434 151.63C8.06434 151.69 7.90371 151.77 7.80371 151.87C7.77403 151.88 7.75416 151.91 7.74414 151.93C7.71414 151.96 7.69359 152 7.68359 152.04C7.65373 152.11 7.6538 152.18 7.68359 152.27C8.33359 153.04 9.45426 153.12 10.3643 153.39C14.1541 154.24 18.0239 154.63 21.8838 155.02C37.3138 156.45 52.8245 156.95 68.3145 156.36C52.8646 155.39 37.3842 155.23 21.9443 154.22C18.0944 153.95 14.234 153.73 10.4141 153.13C9.53409 152.91 8.41392 152.89 7.75391 152.24C7.72392 152.17 7.72394 152.1 7.75391 152.04C7.76391 152.01 7.77395 151.98 7.79395 151.96C7.84393 151.87 7.93422 151.8 8.03418 151.73C8.08418 151.69 8.14434 151.66 8.19434 151.63ZM11.1338 147.53C10.8738 147.65 10.4645 147.77 10.4844 148.13C10.4944 148.26 10.5743 148.36 10.6543 148.43C11.6442 149.15 12.894 149.33 14.0439 149.64C18.7139 150.6 23.4643 151.05 28.1943 151.4C34.4142 151.81 40.944 152.01 47.1738 151.8C41.814 151.19 33.7243 150.65 28.2744 150.24C26.7944 149.96 9.61383 149.47 10.6738 147.88C10.7838 147.73 10.9639 147.64 11.1338 147.53ZM21.7744 145.12C21.5145 145.24 21.1042 145.36 21.124 145.72C21.134 145.85 21.214 145.94 21.2939 146.02C22.2839 146.739 23.5337 146.911 24.6836 147.23C29.3436 148.19 34.094 148.64 38.834 148.99C45.044 149.4 51.5845 149.6 57.8145 149.39C52.4545 148.78 44.3541 148.24 38.9141 147.83C37.4341 147.55 20.2545 147.06 21.3145 145.47C21.4245 145.32 21.6046 145.22 21.7744 145.12ZM176.674 89.8496C163.794 89.8497 152.504 102.37 148.824 118.42C145.094 134.68 151.274 146.62 163.654 146.62C176.024 146.62 187.544 134.68 191.274 118.42C194.944 102.44 189.554 89.8496 176.674 89.8496ZM228.425 145.253H237.058L242.854 119.998L245.116 145.253H253.462L266.979 120.214L261.233 145.253H269.865L282.282 91.1465H274.008L252.673 130.503L249.188 91.1465H240.842L228.425 145.253ZM190.874 145.25H199.504L204.854 121.94H209.314C216.654 121.941 212.544 139.86 214.184 145.25H223.824C221.634 133.45 225.624 124.24 221.074 120.21C226.544 117.7 230.204 112.73 231.594 106.69C233.574 98.0506 229.904 91.1399 221.274 91.1396H203.284L190.874 145.25ZM62.2441 67.0596C61.1241 67.0596 60.0336 67.0801 58.9736 67.1201C44.6638 67.6802 29.8437 73.3899 24.5137 86.6797C23.1137 90.1797 20.7636 96.3604 23.1836 105.36C23.4136 106.2 23.6437 106.91 23.8037 107.4C24.2937 108.8 25.0843 110.791 26.3242 113.15C27.6945 115.751 32.3047 124.36 42.3242 132.14C48.4842 136.91 54.7643 139.87 59.9043 141.69C49.2343 141.75 32.9036 141.84 28.9336 141.74C24.3236 141.67 17.744 141.65 13.2041 141.33C11.2642 141.15 9.24421 141.11 7.4043 140.45C7.2943 140.41 7.20355 140.36 7.14355 140.31C7.11389 140.29 7.09407 140.27 7.07422 140.25C7.09417 140.29 7.13386 140.33 7.18359 140.35C7.20359 140.38 7.21438 140.39 7.23438 140.39C7.29423 140.449 7.36377 140.49 7.43359 140.52C7.59354 140.609 7.78401 140.69 8.00391 140.77C8.11376 140.799 8.23367 140.84 8.35352 140.88C8.60352 140.96 8.87406 141.03 9.16406 141.09C9.38405 141.14 9.61427 141.19 9.86426 141.23C10.3642 141.33 10.9143 141.41 11.4941 141.49C11.7739 141.53 12.0638 141.56 12.3535 141.6C12.5935 141.63 12.844 141.65 13.084 141.68C13.7739 141.76 14.4839 141.82 15.1738 141.88C15.5238 141.9 15.8643 141.93 16.1943 141.96C16.2442 141.97 16.2843 141.97 16.3242 141.97C16.614 141.99 16.9038 142.01 17.1836 142.03C17.6536 142.07 18.0939 142.1 18.5039 142.12C18.6939 142.13 18.874 142.15 19.0439 142.16C19.2139 142.17 19.3842 142.18 19.5342 142.19C19.8241 142.22 20.074 142.23 20.2939 142.25C20.4139 142.26 20.5243 142.27 20.6143 142.28C20.7941 142.29 20.9342 142.31 21.0342 142.32C31.3643 143.12 55.7345 143.51 67.2744 143.8C68.5242 144.07 69.5339 144.24 70.2139 144.34C59.604 129.47 61.8138 120.69 65.8838 114.6C68.1038 111.27 73.534 108.84 79.4238 108.84C82.8537 108.84 86.4339 109.66 89.6338 111.6C97.2037 116.19 100.174 128.07 91.3145 134.43C91.9343 134.56 92.6141 134.61 93.2939 134.61C95.6739 134.61 98.1343 133.95 98.6943 133.65C106.834 129.38 108.664 120.3 106.004 112.32C103.454 104.7 96.4441 100.1 88.2441 98.6602C86.3241 98.3302 84.3039 98.1602 82.2539 98.1602C70.5439 98.1602 57.8243 103.69 55.6143 115.16C54.5143 120.88 55.6445 127.83 59.7344 135.35C57.4244 133.95 53.6637 131.41 50.0537 127.55C49.0632 126.489 44.3437 121.329 42.2139 114.51C38.9442 104.01 44.4034 97.8203 45.7637 96.29C46.2137 95.7701 48.4338 93.3202 52.6436 91.4502C58.5536 88.8202 64.3945 88.3799 69.0645 88.3799C69.6842 88.3799 70.274 88.3904 70.8438 88.4004C79.9738 88.5804 93.874 93.4502 93.874 93.4502L93.8936 71.7598C85.9335 68.8499 72.8139 67.0596 62.2441 67.0596ZM7.60352 139.31C7.36362 139.42 7.13404 139.55 6.9541 139.75C6.89415 139.87 6.90422 139.99 6.9541 140.1C6.83452 139.81 7.22371 139.51 7.60352 139.31ZM174.204 100.64C181.684 100.64 184.594 108.34 182.294 118.34C179.924 128.7 173.094 135.9 166.114 135.9C159.134 135.9 155.614 128.63 157.974 118.34C160.274 108.34 166.714 100.64 174.204 100.64ZM117.074 99.0596H117.034L116.374 101.95H119.934V101.87H129.534L124.644 123.16C127.164 126.18 129.254 129.58 131.014 133L138.164 101.87H151.324L153.784 91.1396H118.894L117.074 99.0596ZM218.674 101.87C221.974 101.87 223.494 103.74 222.884 106.4C222.224 109.28 219.684 111.22 216.524 111.22H207.314L209.464 101.87H218.674ZM180.248 86.501H224.957V70.7949H192.812V53.833H221.397V38.2314H192.812V23.3633H224.224V7.76172H180.248V86.501ZM126.534 86.5H139.204V55.9297H152.084C164.654 55.9297 172.294 45.0401 172.294 31.7402C172.294 18.6502 164.964 7.75977 152.084 7.75977H126.534V86.5ZM233.744 86.5H246.314V52.5801H252.804C263.484 52.5801 263.484 78.6499 267.674 86.5H281.704C274.584 69.33 277.304 55.9296 269.344 50.0596C276.464 46.3996 280.134 39.1699 280.134 30.3799C280.134 17.8099 272.484 7.75977 259.924 7.75977H233.744V86.5ZM103.504 57.8096C103.504 61.1495 103.013 63.8796 102.104 66.0596L102.094 71.7695L102.084 86.25C110.694 82.21 116.074 72.6796 116.074 57.5996V7.75977H103.504V57.8096ZM7.91406 64.0898C9.09404 72.5397 12.284 78.8998 17.1738 83.0098C19.1038 78.46 21.9938 74.4101 25.7236 70.9902C22.9538 69.0103 21.1844 65.59 20.2744 60.5303L7.91406 64.0898ZM32.2041 5.87988C17.6541 5.87988 8.75391 14.1502 8.75391 27.4502C8.75398 39.38 15.8741 47.5496 31.0537 53.0996C38.0334 55.7595 42.2035 58.2999 43.9736 61.2197C48.0836 60.0497 52.4945 59.3203 57.0645 59.0303C54.9345 50.0403 47.8138 43.3298 35.1338 38.3398C24.774 34.2499 21.7344 31.7397 21.7344 27.9697C21.7345 23.78 25.504 21.4806 31.4736 21.4805C37.9636 21.4805 41.4238 24.3104 43.0938 30.6904L56.2939 27.1299C53.1439 12.89 45.504 5.87992 32.2041 5.87988ZM67.0742 57.5C67.0742 58 67.0838 58.4905 67.0938 58.9805C71.0937 59.1505 75.4738 59.5404 79.8438 60.1504C79.7838 59.3704 79.7441 58.56 79.7441 57.71V7.75977H67.0742V57.5ZM152.084 23.3604C156.584 23.3604 159.524 26.6102 159.524 31.7402C159.524 36.9801 156.484 40.3301 152.084 40.3301H139.204V23.3604H152.084ZM259.714 23.3604C264.534 23.3604 267.354 26.09 267.354 29.96C267.354 34.15 264.324 36.9805 259.714 36.9805H246.314V23.3604H259.714Z" fill="#1E1E28"/>
</svg>
