<?xml version="1.0" encoding="UTF-8"?>
<svg id="Layer_2" xmlns="http://www.w3.org/2000/svg" version="1.1" viewBox="0 0 288 179.885">
  <!-- Generator: Adobe Illustrator 29.5.0, SVG Export Plug-In . SVG Version: 2.1.0 Build 137)  -->
  <defs>
    <style>
      .st0 {
        fill: #fff;
      }
    </style>
  </defs>
  <path d="M184.954,103.246c-6.58,0-12.245,6.771-14.264,15.564-2.076,9.047,1.013,15.437,7.149,15.437s12.143-6.326,14.233-15.437c2.019-8.794-.54-15.564-7.119-15.564Z"/>
  <path d="M224.059,104.322h-8.098l-1.888,8.225h8.098c2.783,0,5.01-1.708,5.591-4.238.537-2.341-.793-3.986-3.703-3.986Z"/>
  <path d="M157.633,32.003c0-5.142-2.938-8.395-7.451-8.395h-12.907v16.999h12.907c4.407,0,7.451-3.357,7.451-8.604Z"/>
  <path d="M262,0H26C11.641,0,0,11.641,0,26v98.5c0,14.359,11.641,26,26,26h20.933l4.577,5.885c11.746,15.103,26.211,23.004,42.993,23.483.379.011.765.016,1.156.016,11.535,0,21.925-4.771,29.256-13.435,4.194-4.956,7.342-10.422,9.607-15.95h127.479c14.359,0,26-11.641,26-26V26c0-14.359-11.641-26-26-26ZM178.409,7.972h44.073v15.636h-31.48v14.9h28.647v15.636h-28.647v16.999h32.215v15.74h-44.807V7.972ZM150.183,7.972c12.907,0,20.252,10.913,20.252,24.03,0,13.327-7.66,24.24-20.252,24.24h-12.876l-3.052-.61c-2.976-.595-6.212-1.205-9.676-1.686V7.972h25.604ZM118.807,161.282c-2.808,3.318-5.93,5.657-9.105,7.287l-11.503,1.251,6.62.72c-3.23.977-6.377,1.345-9.16,1.345-.313,0-.623-.005-.927-.013-18.641-.533-30.261-11.853-36.907-20.398l22.138-8.58s3.5,10.093,11.111,16.5l-11.368.999,14.545,1.278c1.671,1.003,3.492,1.81,5.477,2.31,1.683.424,3.205.617,4.583.617,9.66,0,12.169-9.52,12.558-15.855.574-9.337-2.275-13.995-2.275-13.995-6.834,6.3-12.812,8.285-17.369,8.285-3.103,0-5.548-.922-7.154-2.029-7.535-5.197-2.346-15.85,2.449-21.144,5.807-6.412,11.473-8.092,14.165-8.092h.021c-3.035,1.827-6.606,5.06-8.691,9.49-2.397,5.095-2.331,10.398.366,13.187.828.856,2.016,1.246,3.458,1.246,7.139,0,20.517-9.552,27.458-19.369,2.848,3.427,4.81,26.88-10.489,44.961ZM129.302,86.884l7.974-14.999v14.999h-7.974ZM114.085,7.972v45.099c-.635-.015-1.264-.037-1.911-.037-3.687,0-7.246.287-10.681.827V7.972h12.592ZM64.976,7.972h12.697v50.054c0,1.798.139,3.42.396,4.888-4.089,2.566-7.886,5.442-11.314,8.553-1.157-3.888-1.779-8.436-1.779-13.651V7.972ZM30.978,53.409c-15.216-5.562-22.351-13.746-22.351-25.709,0-13.326,8.919-21.616,23.505-21.616,13.327,0,20.987,7.03,24.135,21.302l-13.222,3.567c-1.679-6.4-5.142-9.233-11.648-9.233-5.981,0-9.759,2.309-9.759,6.506,0,3.777,3.043,6.296,13.432,10.389,15.425,6.086,22.666,14.69,22.666,26.863,0,14.061-9.549,23.4-24.135,23.4-14.376,0-23.61-8.605-25.814-24.45l12.382-3.567c1.574,8.709,5.667,12.592,13.012,12.592,6.926,0,11.752-3.567,11.752-8.395,0-4.513-4.302-7.976-13.956-11.648ZM7.164,119.373c.122.322.517.371.814.465,2.283.476,4.635.515,6.957.706,7.79.514,16.321.964,24.037,2.059-9.393.506-18.898.153-28.143-1.661-.99-.238-1.991-.478-2.925-.9-.279-.159-.685-.307-.74-.669ZM50.386,118.451c-8.063.521-16.134.304-24.148-.66-2.475-.4-5.128-.582-7.389-1.747-.133-.094-.302-.237-.267-.418.063.342.514.377.791.465,2.291.43,4.642.429,6.965.582,7.785.403,16.355.704,24.048,1.777ZM9.235,123.997c.059.249.334.332.542.423,3.515.928,7.217.878,10.825,1.168,11.649.81,23.337.558,34.948,1.973-7.79.673-15.588.433-23.374-.048-7.373-.656-15.368-.737-22.432-3.017-.201-.117-.477-.238-.509-.499ZM19.281,131.58c-.272-.136-.602-.291-.694-.607.281.58,1.052.668,1.609.848,9.324,1.556,18.859,1.017,28.286,1.27,7.447.091,14.899.079,22.351.033-6.69-3.325-14.649-10.433-14.422-25.329-11.145-.446-22.284-.993-33.418-1.75-4.685-.504-9.617-.43-14.074-2.083-.256-.136-.604-.409-.452-.74-.133.335.214.577.473.702,4.506,1.439,9.405,1.145,14.088,1.435,11.149.244,22.311.305,33.47.267,1.093-16.657,15.858-30.993,31.034-38.948,8.207-4.302,16.786-5.643,24.643-5.643,7.956,0,15.17,1.375,20.511,2.443l-11.145,20.964s-6.533-2.104-15.09-2.104c-7.32,0-16.12,1.539-23.581,7.25-5.986,4.582-9.507,8.533-11.68,13.901-4.254,10.506-.907,20.83,3.222,23.627,1.131-19.066,18.408-34.313,33.498-34.313,5.15,0,10.044,1.775,13.956,5.781,6.395,6.549,3.095,14.845-1.7,20.14-5.806,6.411-11.473,8.092-14.165,8.092h-.021c3.035-1.827,6.606-5.06,8.691-9.49,2.398-5.095,2.331-10.398-.366-13.187-1.812-1.874-4.587-2.667-7.671-2.667-5.301,0-11.516,2.342-15.339,5.564-6.993,5.894-13.786,14.385-12.387,28.771-.08-.013-.176-.031-.266-.047-15.117-.52-30.223-1.166-45.321-2.189-4.681-.471-9.545-.487-14.039-1.991ZM144.506,142.471h-7.298c.754-2.856,1.29-5.67,1.629-8.379l6.832-29.771h-11.082l.003-.002h-.432l.096-.419h-.002l.447-1.947.041-.178h0l1.579-6.88h30.683l-2.163,9.427h-11.577l-8.755,38.149ZM175.676,143.674c-10.882,0-16.316-10.502-13.035-24.801,3.238-14.107,13.167-25.116,24.491-25.116s16.058,11.071,12.834,25.116c-3.281,14.299-13.409,24.801-24.29,24.801ZM228.589,142.471h-8.478c-1.441-4.744,2.174-20.498-4.279-20.498h-3.922l-4.704,20.498h-7.592l10.918-47.576h15.815c7.592,0,10.816,6.074,9.074,13.666-1.22,5.313-4.436,9.679-9.245,11.894,3.994,3.543.491,11.641,2.412,22.017ZM269.081,142.471h-7.592l5.053-22.017-11.885,22.017h-7.339l-1.989-22.207-5.096,22.207h-7.592l10.918-47.576h7.339l3.066,34.607,18.759-34.607h7.275l-10.918,47.576ZM266.029,86.884c-4.197-7.87-4.197-33.999-14.901-33.999h-6.506v33.999h-12.592V7.972h26.234c12.592,0,20.252,10.074,20.252,22.666,0,8.814-3.673,16.055-10.809,19.728,7.975,5.877,5.247,19.309,12.382,36.518h-14.061Z"/>
  <path d="M258.054,23.608h-13.432v13.642h13.432c4.617,0,7.66-2.834,7.66-7.031,0-3.882-2.833-6.61-7.66-6.61Z"/>
  <path class="st0" d="M33.181,73.452c-7.346,0-11.438-3.883-13.012-12.592l-12.382,3.567c2.204,15.845,11.438,24.45,25.814,24.45,14.586,0,24.135-9.34,24.135-23.4,0-12.173-7.241-20.777-22.666-26.863-10.389-4.093-13.432-6.611-13.432-10.389,0-4.197,3.778-6.506,9.759-6.506,6.506,0,9.969,2.833,11.648,9.233l13.222-3.567c-3.148-14.271-10.808-21.302-24.135-21.302-14.586,0-23.505,8.29-23.505,21.616,0,11.963,7.135,20.147,22.351,25.709,9.654,3.673,13.956,7.136,13.956,11.648,0,4.827-4.827,8.395-11.752,8.395Z"/>
  <path class="st0" d="M78.069,62.914c-.256-1.468-.396-3.089-.396-4.888V7.972h-12.697v49.844c0,5.215.622,9.763,1.779,13.651,3.427-3.111,7.225-5.987,11.314-8.553Z"/>
  <path class="st0" d="M112.175,53.035c.646,0,1.276.022,1.911.037V7.972h-12.592v45.889c3.436-.54,6.995-.827,10.681-.827Z"/>
  <path class="st0" d="M134.254,55.633l3.052.61h12.876c12.592,0,20.252-10.913,20.252-24.24,0-13.117-7.345-24.03-20.252-24.03h-25.604v45.974c3.464.481,6.7,1.091,9.676,1.686ZM137.276,23.608h12.907c4.512,0,7.451,3.253,7.451,8.395,0,5.247-3.043,8.604-7.451,8.604h-12.907v-16.999Z"/>
  <polygon class="st0" points="137.276 71.885 129.302 86.884 137.276 86.884 137.276 71.885"/>
  <polygon class="st0" points="223.216 71.143 191.001 71.143 191.001 54.144 219.648 54.144 219.648 38.509 191.001 38.509 191.001 23.608 222.482 23.608 222.482 7.972 178.409 7.972 178.409 86.884 223.216 86.884 223.216 71.143"/>
  <path class="st0" d="M267.708,50.366c7.136-3.673,10.809-10.913,10.809-19.728,0-12.592-7.66-22.666-20.252-22.666h-26.234v78.911h12.592v-33.999h6.506c10.704,0,10.704,26.129,14.901,33.999h14.061c-7.135-17.209-4.407-30.641-12.382-36.518ZM258.054,37.25h-13.432v-13.642h13.432c4.827,0,7.66,2.729,7.66,6.61,0,4.197-3.043,7.031-7.66,7.031Z"/>
  <path class="st0" d="M167.001,94.895h-30.683l-1.579,6.88h0l-.041.178-.447,1.947h.002l-.096.419h.432l-.003.002h11.082l-6.832,29.771c-.339,2.709-.875,5.523-1.629,8.379h7.298l8.755-38.149h11.577l2.163-9.427Z"/>
  <path class="st0" d="M187.131,93.757c-11.324,0-21.253,11.009-24.491,25.116-3.281,14.299,2.153,24.801,13.035,24.801s21.009-10.502,24.29-24.801c3.223-14.045-1.51-25.116-12.834-25.116ZM192.073,118.81c-2.09,9.11-8.098,15.437-14.233,15.437s-9.226-6.39-7.149-15.437c2.019-8.794,7.684-15.564,14.264-15.564s9.138,6.771,7.119,15.564Z"/>
  <path class="st0" d="M235.422,108.561c1.742-7.592-1.482-13.666-9.074-13.666h-15.815l-10.918,47.576h7.592l4.704-20.498h3.922c6.453,0,2.838,15.754,4.279,20.498h8.478c-1.921-10.376,1.582-18.474-2.412-22.017,4.81-2.215,8.025-6.58,9.245-11.894ZM227.762,108.308c-.581,2.53-2.808,4.238-5.591,4.238h-8.098l1.888-8.225h8.098c2.91,0,4.24,1.646,3.703,3.986Z"/>
  <polygon class="st0" points="253.964 129.503 250.898 94.895 243.559 94.895 232.641 142.471 240.233 142.471 245.329 120.264 247.318 142.471 254.657 142.471 266.542 120.455 261.489 142.471 269.081 142.471 279.999 94.895 272.723 94.895 253.964 129.503"/>
  <path class="st0" d="M129.296,116.321c-6.942,9.817-20.32,19.369-27.458,19.369-1.442,0-2.63-.39-3.458-1.246-2.698-2.789-2.764-8.092-.366-13.187,2.085-4.431,5.656-7.664,8.691-9.49h-.021c-2.691,0-8.358,1.68-14.165,8.092-4.795,5.295-9.984,15.947-2.449,21.144,1.606,1.108,4.051,2.029,7.154,2.029,4.557,0,10.535-1.986,17.369-8.285,0,0,2.849,4.658,2.275,13.995-.389,6.336-2.898,15.855-12.558,15.855-1.378,0-2.9-.193-4.583-.617-1.985-.5-3.806-1.307-5.477-2.31l-14.545-1.278,11.368-.999c-7.611-6.407-11.111-16.5-11.111-16.5l-22.138,8.58c6.646,8.545,18.266,19.865,36.907,20.398.304.009.614.013.927.013,2.783,0,5.93-.368,9.16-1.345l-6.62-.72,11.503-1.251c3.175-1.63,6.297-3.969,9.105-7.287,15.299-18.082,13.337-41.534,10.489-44.961Z"/>
  <path class="st0" d="M78.641,135.76c.09.016.186.034.266.047-1.399-14.385,5.395-22.877,12.387-28.771,3.823-3.222,10.038-5.564,15.339-5.564,3.084,0,5.859.793,7.671,2.667,2.698,2.789,2.764,8.092.366,13.187-2.085,4.431-5.656,7.664-8.691,9.49h.021c2.691,0,8.359-1.681,14.165-8.092,4.795-5.295,8.094-13.591,1.7-20.14-3.912-4.006-8.806-5.781-13.956-5.781-15.089,0-32.366,15.247-33.498,34.313-4.129-2.797-7.476-13.121-3.222-23.627,2.174-5.368,5.694-9.319,11.68-13.901,7.461-5.712,16.261-7.25,23.581-7.25,8.556,0,15.09,2.104,15.09,2.104l11.145-20.964c-5.34-1.068-12.555-2.443-20.511-2.443-7.857,0-16.437,1.341-24.643,5.643-15.176,7.955-29.941,22.291-31.034,38.948-11.159.038-22.321-.023-33.47-.267-4.683-.29-9.582.004-14.088-1.435-.258-.125-.606-.367-.473-.702-.152.331.196.604.452.74,4.457,1.653,9.389,1.579,14.074,2.083,11.135.757,22.273,1.304,33.418,1.75-.227,14.896,7.732,22.004,14.422,25.329-7.451.045-14.904.058-22.351-.033-9.427-.253-18.961.286-28.286-1.27-.557-.179-1.329-.267-1.609-.848.092.317.422.471.694.607,4.494,1.504,9.358,1.519,14.039,1.991,15.098,1.023,30.203,1.669,45.321,2.189Z"/>
  <path class="st0" d="M55.55,127.561c-11.61-1.415-23.298-1.163-34.948-1.973-3.608-.29-7.311-.24-10.825-1.168-.208-.092-.483-.174-.542-.423.031.261.308.382.509.499,7.064,2.28,15.059,2.361,22.432,3.017,7.786.482,15.583.721,23.374.048Z"/>
  <path class="st0" d="M19.373,116.092c-.277-.088-.728-.123-.791-.465-.034.18.135.324.267.418,2.26,1.165,4.914,1.346,7.389,1.747,8.014.964,16.085,1.18,24.148.66-7.693-1.073-16.263-1.374-24.048-1.777-2.323-.153-4.675-.152-6.965-.582Z"/>
  <path class="st0" d="M38.972,122.603c-7.716-1.095-16.247-1.545-24.037-2.059-2.321-.191-4.674-.23-6.957-.706-.297-.093-.692-.143-.814-.465.055.362.461.51.74.669.934.422,1.935.662,2.925.9,9.245,1.814,18.75,2.168,28.143,1.661Z"/>
</svg>