<svg width="1000" height="523" viewBox="0 0 1000 523" fill="none" xmlns="http://www.w3.org/2000/svg">
<rect width="1000" height="522.742" rx="32" fill="#1E1E28"/>
<path d="M12 219.51L56.0677 206.815C61.6509 237.788 76.2072 251.614 102.329 251.614C126.988 251.614 144.137 238.918 144.137 221.77C144.137 205.751 128.849 193.389 94.4856 180.361C40.3814 160.554 14.991 131.441 14.991 88.9023C14.991 41.5114 46.7623 12 98.6066 12C145.998 12 173.249 36.9916 184.482 87.7724L137.423 100.468C131.441 77.6694 119.145 67.6329 96.0144 67.6329C74.7449 67.6329 61.3186 75.8748 61.3186 90.7634C61.3186 104.19 72.1527 113.163 109.108 127.719C163.944 149.387 189.733 179.962 189.733 223.299C189.733 273.282 155.768 306.515 103.857 306.515C51.9467 306.515 19.9096 275.941 12.0665 219.577L12 219.51Z" fill="#F5F5FA"/>
<path d="M222.901 195.981V18.7133H268.032V196.778C268.032 233.335 283.32 250.55 309.441 250.55C335.563 250.55 352.711 234.133 352.711 197.177V18.7133H397.51V196.38C397.51 269.892 361.684 306.515 309.441 306.515C257.198 306.515 222.835 270.291 222.835 196.047L222.901 195.981Z" fill="#F5F5FA"/>
<path d="M434.862 18.7133H525.922C571.851 18.7133 597.973 57.53 597.973 104.19C597.973 150.85 570.721 190.398 525.922 190.398H479.994V299.404H434.862V18.7133ZM525.922 134.765C541.609 134.765 552.443 122.801 552.443 104.19C552.443 85.5791 542.007 74.3462 525.922 74.3462H479.994V134.831H525.922V134.765Z" fill="#F5F5FA"/>
<path d="M626.287 18.7133H783.017V74.3462H671.02V127.32H772.914V182.953H671.02V243.438H785.609V299.404H626.221V18.7133H626.287Z" fill="#F5F5FA"/>
<path d="M816.98 18.7133H910.3C955.099 18.7133 982.35 54.539 982.35 99.3378C982.35 130.71 969.323 156.433 943.932 169.527C972.314 190.398 962.61 238.187 988 299.404H938.017C923.062 271.421 923.062 178.5 885.043 178.5H861.912V299.404H817.113V18.7133H816.98ZM909.502 122.867C925.92 122.867 936.754 112.764 936.754 97.8755C936.754 84.0504 926.651 74.3462 909.502 74.3462H861.713V122.867H909.502Z" fill="#F5F5FA"/>
<path d="M446.635 386.808L484.322 381.822V391.793L446.635 386.808Z" fill="#1E1E28"/>
<path d="M502.663 358.16H461.985L470.892 324.86H579.233L570.327 358.16H529.45L493.358 492.889H466.572L502.663 358.16Z" fill="#F5F5FA"/>
<path d="M565.147 409.539C578.507 359.689 615.064 320.806 655.077 320.806C695.09 320.806 710.311 359.889 697.018 409.539C683.724 459.19 646.303 497.143 607.885 497.143C569.467 497.143 551.654 460.054 565.213 409.539H565.147ZM669.101 409.34C677.41 378.3 669.301 354.372 646.104 354.372C622.907 354.372 601.903 378.3 593.595 409.34C585.286 440.38 595.057 463.843 616.725 463.843C638.394 463.843 660.461 441.51 669.101 409.34Z" fill="#F5F5FA"/>
<path d="M737.563 324.86H793.396C820.182 324.86 830.75 346.329 823.572 373.115C818.52 391.859 806.623 407.279 789.275 415.122C802.9 427.618 789.408 456.265 794.792 492.889H764.881C760.428 476.139 775.317 420.506 752.518 420.506H738.693L719.285 492.889H692.499L737.497 324.86H737.563ZM776.247 387.206C786.084 387.206 794.193 381.158 796.586 372.251C798.78 364.009 794.326 358.16 784.024 358.16H755.443L747.666 387.206H776.247Z" fill="#F5F5FA"/>
<path d="M858.663 324.86H884.585L890.7 447.093L961.687 324.86H987.41L942.411 492.889H915.625L936.429 415.122L891.498 492.889H865.575L861.587 414.458L840.584 492.889H813.798L858.796 324.86H858.663Z" fill="#F5F5FA"/>
<path d="M471.16 223.099L424.5 315.422L377.84 321.338L296.618 299.403V247.227L359.761 205.02L430.017 201.165L471.16 223.099Z" fill="#1E1E28"/>
<path d="M368.007 513.095C320.549 511.699 279.406 489.034 245.641 445.697C244.378 444.036 243.913 441.842 244.511 439.848C245.109 437.854 246.571 436.193 248.499 435.395L318.821 408.144C319.619 407.878 320.416 407.678 321.214 407.678C322.144 407.678 323.141 407.878 324.005 408.276C325.667 409.008 326.93 410.403 327.462 412.132C327.661 412.663 346.272 464.973 385.62 474.876C390.273 476.073 394.593 476.605 398.581 476.605C425.168 476.605 430.818 448.954 431.881 432.47C432.812 417.183 430.685 406.15 428.625 399.503C406.557 417.382 388.146 421.37 376.049 421.37C366.079 421.37 356.641 418.645 349.529 413.727C341.087 407.878 335.969 399.569 334.84 389.533C332.58 370.257 344.943 348.988 356.175 336.559C374.786 315.954 394.195 308.642 406.092 308.642C409.083 308.642 411.742 310.636 412.54 313.495C413.337 316.353 412.141 319.41 409.615 320.939C404.497 323.996 391.802 332.836 384.557 348.257C378.11 361.949 378.11 376.106 384.49 382.687C385.753 383.95 387.814 384.614 390.672 384.614C411.011 384.614 451.556 355.502 472.493 325.857C473.689 324.196 475.617 323.132 477.677 323.066C477.744 323.066 477.877 323.066 477.943 323.066C479.937 323.066 481.798 323.93 483.061 325.459C494.36 339.084 500.608 416.651 449.695 476.87C423.174 508.243 389.01 512.896 370.998 512.896C369.934 512.896 368.937 512.896 367.874 512.896L368.007 513.095ZM317.89 398.506C317.558 398.506 317.159 398.506 316.827 398.439C308.386 397.044 234.408 382.221 240.058 295.548C243.846 237.722 295.292 190.863 342.217 166.27C365.88 153.841 393.264 147.593 423.639 147.593C448.565 147.593 471.031 151.647 490.107 155.502C492.167 155.901 493.895 157.297 494.826 159.158C495.756 161.086 495.69 163.279 494.693 165.14L459.266 231.74C458.069 233.934 455.81 235.263 453.417 235.263C452.752 235.263 452.087 235.13 451.423 234.931C451.223 234.931 431.217 228.55 405.494 228.55C377.245 228.55 353.384 235.861 334.574 250.218C315.564 264.774 305.727 276.406 299.546 291.627C290.44 314.026 293.298 334.897 299.08 347.592C310.712 289.899 364.085 248.49 410.08 248.49C429.223 248.49 446.172 255.535 459.199 268.895C482.529 292.823 470.964 323.199 453.948 342.009C435.338 362.614 415.929 369.925 404.032 369.925C401.041 369.925 398.382 367.931 397.584 365.073C396.787 362.215 397.983 359.157 400.509 357.629C405.627 354.571 418.322 345.731 425.567 330.311C432.014 316.618 432.014 302.461 425.633 295.881C420.449 290.563 412.141 289.433 406.026 289.433C391.071 289.433 372.792 296.08 361.559 305.518C342.018 322.002 320.15 346.595 324.537 391.261C324.737 393.321 324.005 395.382 322.477 396.778C321.214 397.908 319.619 398.572 317.957 398.572L317.89 398.506Z" fill="#F5F5FA"/>
<path d="M423.637 154.239C448.895 154.239 471.826 158.626 488.842 162.016L453.415 228.616C453.415 228.616 432.677 221.903 405.425 221.903C382.162 221.903 354.179 226.821 330.451 244.967C311.441 259.523 300.208 272.085 293.362 289.168C279.869 322.534 290.504 355.369 303.598 364.275C307.187 303.657 362.089 255.203 410.078 255.203C426.429 255.203 441.982 260.853 454.412 273.548C474.751 294.352 464.249 320.739 449.028 337.555C430.55 357.961 412.537 363.278 404.03 363.278C413.667 357.496 425.033 347.193 431.68 333.102C439.324 316.884 439.058 300.068 430.483 291.162C424.701 285.179 415.927 282.654 406.09 282.654C389.274 282.654 369.467 290.098 357.37 300.334C335.17 319.078 313.568 346.063 318.021 391.793C304.063 389.466 241.717 373.78 246.768 295.881C250.225 242.906 297.151 197.377 345.406 172.053C371.461 158.36 398.779 154.107 423.704 154.107M406.157 315.422C396.519 321.205 385.153 331.507 378.506 345.598C370.863 361.816 371.128 378.632 379.703 387.539C382.361 390.264 386.083 391.527 390.67 391.527C413.335 391.527 455.874 361.151 477.941 329.978C486.98 340.879 493.228 415.388 444.574 472.882C421.976 499.602 392.93 506.581 370.995 506.581C369.998 506.581 369.001 506.581 368.071 506.581C308.849 504.919 271.893 468.894 250.757 441.776L321.145 414.524C321.145 414.524 340.554 470.622 383.957 481.523C389.274 482.852 394.126 483.517 398.513 483.517C429.221 483.517 437.197 453.275 438.393 433.135C440.188 403.491 431.148 388.669 431.148 388.669C409.413 408.675 390.404 414.99 375.914 414.99C366.077 414.99 358.3 412.065 353.182 408.542C329.254 391.992 345.738 358.16 360.959 341.344C379.437 320.939 397.449 315.621 405.957 315.621M423.637 140.946C392.198 140.946 363.751 147.46 339.158 160.421C290.637 185.878 237.397 234.598 233.409 295.15C227.958 378.499 291.833 399.636 311.109 404.089L246.037 429.28C242.116 430.809 239.125 434.066 238.061 438.12C236.931 442.175 237.795 446.495 240.388 449.818C275.416 494.816 318.287 518.346 367.805 519.742C368.868 519.742 369.998 519.742 371.128 519.742C390.271 519.742 426.562 514.757 454.877 481.324C506.256 420.639 503.265 339.417 488.31 321.338C485.784 318.28 481.995 316.552 478.074 316.552C477.874 316.552 477.742 316.552 477.542 316.552C477.21 316.552 476.877 316.552 476.545 316.618C482.328 297.609 478.273 278.799 463.983 264.176C449.692 249.553 431.082 241.777 410.145 241.777C368.403 241.777 320.946 273.814 300.474 321.338C300.474 313.029 301.87 303.724 305.791 294.02C311.441 279.995 320.68 269.161 338.692 255.402C356.306 241.909 378.772 235.13 405.558 235.13C430.151 235.13 449.294 241.112 449.493 241.178C450.822 241.577 452.218 241.777 453.548 241.777C458.333 241.777 462.919 239.184 465.312 234.731L500.739 168.131C502.733 164.409 502.8 160.022 501.005 156.167C499.21 152.312 495.688 149.653 491.567 148.856C472.158 145.001 449.294 140.813 423.77 140.813L423.637 140.946ZM332.046 363.943C336.698 338.486 351.919 322.335 365.811 310.57C375.848 302.129 392.73 296.014 406.024 296.014C412.803 296.014 418.121 297.609 420.846 300.467C424.568 304.322 425.365 315.09 419.516 327.452C413.069 341.211 401.637 349.121 397.051 351.912C391.933 354.97 389.473 361.085 391.068 366.867C392.331 371.52 395.987 374.976 400.507 376.173C396.718 377.502 393.461 378.233 390.736 378.233C389.872 378.233 389.34 378.167 389.074 378.1C385.552 374.046 384.887 363.478 390.603 351.314C397.051 337.555 408.483 329.646 413.069 326.854C418.187 323.797 420.646 317.682 419.051 311.899C417.456 306.183 412.271 302.129 406.289 302.129H406.157C392.797 302.129 371.394 310.038 351.255 332.238C344.076 340.148 336.499 351.514 331.979 363.943H332.046ZM326.33 402.095C326.33 402.095 326.728 401.763 326.928 401.563C328.124 400.433 329.055 399.17 329.786 397.775C332.445 406.482 337.895 413.86 345.804 419.31C354.046 424.96 364.814 428.084 376.113 428.084C387.413 428.084 404.561 424.827 424.435 411.002C425.299 416.585 425.764 423.63 425.233 432.072C424.169 449.353 418.652 469.958 398.579 469.958C395.189 469.958 391.401 469.426 387.28 468.429C351.521 459.39 333.973 410.403 333.774 409.938C332.577 406.548 330.052 403.757 326.795 402.228C326.662 402.161 326.462 402.095 326.33 402.029V402.095Z" fill="#1E1E28"/>
<path d="M316.559 391.793C259.065 389.799 201.704 387.406 144.276 383.418C129.986 382.155 115.496 381.291 101.471 378.034C99.0784 377.103 94.3593 376.705 94.0934 373.514C94.6916 371.72 96.7521 371.055 98.2808 370.257C96.6191 371.055 92.764 372.982 95.0239 374.976C101.139 378.499 108.849 378.366 115.762 379.297C144.342 381.623 173.056 381.424 201.77 381.823C240.055 382.354 278.34 382.088 316.625 381.823L316.492 391.793H316.559Z" fill="#F5F5FA"/>
<path d="M367.539 506.116C310.045 504.122 252.684 501.729 195.256 497.741C180.966 496.478 166.476 495.614 152.452 492.357C150.059 491.426 145.34 491.028 145.074 487.904C145.672 486.109 147.732 485.444 149.261 484.647C147.6 485.444 143.744 487.372 146.004 489.366C152.119 492.889 159.829 492.756 166.742 493.686C195.323 496.013 224.037 495.813 252.75 496.212C291.035 496.744 329.32 496.478 367.605 496.212L367.473 506.182L367.539 506.116Z" fill="#F5F5FA"/>
<path d="M289.641 476.871C218.853 479.596 147.933 477.336 77.4112 470.756C59.7974 468.961 42.0507 467.233 24.7693 463.311C20.5819 462.048 15.5304 461.65 12.5393 458.193C11.9411 456.465 14.0681 455.668 15.2645 455.069C14.1346 455.668 12.2735 456.665 12.8052 458.06C20.8477 463.378 33.0112 462.78 42.4495 464.308C77.6106 467.565 112.971 469.094 148.265 470.689C189.741 472.351 248.697 474.013 289.641 476.804V476.871Z" fill="#F5F5FA"/>
<path d="M241.65 444.966C191.069 446.03 140.022 444.301 90.1721 435.129C84.9212 433.667 79.205 432.869 74.6852 429.546C73.8876 429.014 73.5553 427.419 74.4858 426.821C75.217 426.156 76.081 425.824 76.8786 425.491C75.4164 426.222 73.3559 428.017 75.217 428.947C86.6493 433.667 99.8762 433.201 112.106 434.73C126.463 435.86 140.82 437.056 155.243 437.854C180.634 439.782 216.659 442.174 241.65 444.966Z" fill="#F5F5FA"/>
<path d="M192.999 456C142.417 457.063 91.3705 455.335 41.5202 446.163C36.2693 444.7 30.5531 443.903 26.0334 440.579C25.2358 440.048 24.9034 438.452 25.834 437.854C26.5651 437.189 27.4292 436.857 28.2268 436.525C26.7645 437.256 24.704 439.051 26.5651 439.981C31.1513 442.573 36.8675 442.773 41.9855 443.57C63.4543 446.163 85.0561 447.425 106.591 448.888C131.982 450.815 168.007 453.208 192.999 456Z" fill="#F5F5FA"/>
<path d="M330.252 471.819L369.667 466.834V476.804L330.252 471.819Z" fill="#1E1E28"/>
<path d="M381.761 501.131L413.599 496.146V506.116L381.761 501.131Z" fill="#1E1E28"/>
</svg>
