<?xml version="1.0" encoding="UTF-8"?>
<svg id="superstorm" data-name="logo" xmlns="http://www.w3.org/2000/svg" viewBox="0 0 288 179.88" width="1000px">
  <defs>
    <style>
      .cls-1 {
        fill: #1e1e28;
      }
    </style>
  </defs>
  <path class="cls-1" d="M184.95,103.25c-6.58,0-12.25,6.77-14.26,15.56-2.08,9.05,1.01,15.44,7.15,15.44s12.14-6.33,14.23-15.44c2.02-8.79-.54-15.56-7.12-15.56Z"/>
  <path class="cls-1" d="M224.06,104.32h-8.1l-1.89,8.22h8.1c2.78,0,5.01-1.71,5.59-4.24.54-2.34-.79-3.99-3.7-3.99Z"/>
  <path class="cls-1" d="M157.63,32c0-5.14-2.94-8.39-7.45-8.39h-12.91v17h12.91c4.41,0,7.45-3.36,7.45-8.6Z"/>
  <path class="cls-1" d="M262,0H26C11.64,0,0,11.64,0,26v98.5c0,14.36,11.64,26,26,26h20.93l4.58,5.88c11.75,15.1,26.21,23,42.99,23.48.38.01.76.02,1.16.02,11.54,0,21.93-4.77,29.26-13.44,4.19-4.96,7.34-10.42,9.61-15.95h127.48c14.36,0,26-11.64,26-26V26c0-14.36-11.64-26-26-26ZM178.41,7.97h44.07v15.64h-31.48v14.9h28.65v15.64h-28.65v17h32.21v15.74h-44.81V7.97ZM150.18,7.97c12.91,0,20.25,10.91,20.25,24.03s-7.66,24.24-20.25,24.24h-12.88l-3.05-.61c-2.98-.6-6.21-1.2-9.68-1.69V7.97h25.6ZM118.81,161.28c-2.81,3.32-5.93,5.66-9.1,7.29l-11.5,1.25,6.62.72c-3.23.98-6.38,1.34-9.16,1.34-.31,0-.62,0-.93-.01-18.64-.53-30.26-11.85-36.91-20.4l22.14-8.58s3.5,10.09,11.11,16.5l-11.37,1,14.54,1.28c1.67,1,3.49,1.81,5.48,2.31,1.68.42,3.21.62,4.58.62,9.66,0,12.17-9.52,12.56-15.86.57-9.34-2.27-13.99-2.27-13.99-6.83,6.3-12.81,8.29-17.37,8.29-3.1,0-5.55-.92-7.15-2.03-7.53-5.2-2.35-15.85,2.45-21.14,5.81-6.41,11.47-8.09,14.16-8.09h.02c-3.03,1.83-6.61,5.06-8.69,9.49-2.4,5.09-2.33,10.4.37,13.19.83.86,2.02,1.25,3.46,1.25,7.14,0,20.52-9.55,27.46-19.37,2.85,3.43,4.81,26.88-10.49,44.96ZM129.3,86.88l7.97-15v15h-7.97ZM114.09,7.97v45.1c-.63-.02-1.26-.04-1.91-.04-3.69,0-7.25.29-10.68.83V7.97h12.59ZM64.98,7.97h12.7v50.05c0,1.8.14,3.42.4,4.89-4.09,2.57-7.89,5.44-11.31,8.55-1.16-3.89-1.78-8.44-1.78-13.65V7.97ZM30.98,53.41c-15.22-5.56-22.35-13.75-22.35-25.71,0-13.33,8.92-21.62,23.51-21.62,13.33,0,20.99,7.03,24.13,21.3l-13.22,3.57c-1.68-6.4-5.14-9.23-11.65-9.23-5.98,0-9.76,2.31-9.76,6.51,0,3.78,3.04,6.3,13.43,10.39,15.43,6.09,22.67,14.69,22.67,26.86,0,14.06-9.55,23.4-24.14,23.4s-23.61-8.61-25.81-24.45l12.38-3.57c1.57,8.71,5.67,12.59,13.01,12.59,6.93,0,11.75-3.57,11.75-8.39,0-4.51-4.3-7.98-13.96-11.65ZM7.16,119.37c.12.32.52.37.81.46,2.28.48,4.64.52,6.96.71,7.79.51,16.32.96,24.04,2.06-9.39.51-18.9.15-28.14-1.66-.99-.24-1.99-.48-2.92-.9-.28-.16-.69-.31-.74-.67ZM50.39,118.45c-8.06.52-16.13.3-24.15-.66-2.47-.4-5.13-.58-7.39-1.75-.13-.09-.3-.24-.27-.42.06.34.51.38.79.46,2.29.43,4.64.43,6.97.58,7.78.4,16.36.7,24.05,1.78ZM9.23,124c.06.25.33.33.54.42,3.51.93,7.22.88,10.83,1.17,11.65.81,23.34.56,34.95,1.97-7.79.67-15.59.43-23.37-.05-7.37-.66-15.37-.74-22.43-3.02-.2-.12-.48-.24-.51-.5ZM19.28,131.58c-.27-.14-.6-.29-.69-.61.28.58,1.05.67,1.61.85,9.32,1.56,18.86,1.02,28.29,1.27,7.45.09,14.9.08,22.35.03-6.69-3.33-14.65-10.43-14.42-25.33-11.14-.45-22.28-.99-33.42-1.75-4.69-.5-9.62-.43-14.07-2.08-.26-.14-.6-.41-.45-.74-.13.33.21.58.47.7,4.51,1.44,9.4,1.14,14.09,1.44,11.15.24,22.31.31,33.47.27,1.09-16.66,15.86-30.99,31.03-38.95,8.21-4.3,16.79-5.64,24.64-5.64s15.17,1.37,20.51,2.44l-11.15,20.96s-6.53-2.1-15.09-2.1c-7.32,0-16.12,1.54-23.58,7.25-5.99,4.58-9.51,8.53-11.68,13.9-4.25,10.51-.91,20.83,3.22,23.63,1.13-19.07,18.41-34.31,33.5-34.31,5.15,0,10.04,1.78,13.96,5.78,6.39,6.55,3.1,14.85-1.7,20.14-5.81,6.41-11.47,8.09-14.16,8.09h-.02c3.03-1.83,6.61-5.06,8.69-9.49,2.4-5.09,2.33-10.4-.37-13.19-1.81-1.87-4.59-2.67-7.67-2.67-5.3,0-11.52,2.34-15.34,5.56-6.99,5.89-13.79,14.39-12.39,28.77-.08-.01-.18-.03-.27-.05-15.12-.52-30.22-1.17-45.32-2.19-4.68-.47-9.55-.49-14.04-1.99ZM144.51,142.47h-7.3c.75-2.86,1.29-5.67,1.63-8.38l6.83-29.77h-11.08,0s-.43,0-.43,0l.1-.42h0l.45-1.95.04-.18h0l1.58-6.88h30.68l-2.16,9.43h-11.58l-8.75,38.15ZM175.68,143.67c-10.88,0-16.32-10.5-13.04-24.8,3.24-14.11,13.17-25.12,24.49-25.12s16.06,11.07,12.83,25.12c-3.28,14.3-13.41,24.8-24.29,24.8ZM228.59,142.47h-8.48c-1.44-4.74,2.17-20.5-4.28-20.5h-3.92l-4.7,20.5h-7.59l10.92-47.58h15.82c7.59,0,10.82,6.07,9.07,13.67-1.22,5.31-4.44,9.68-9.25,11.89,3.99,3.54.49,11.64,2.41,22.02ZM269.08,142.47h-7.59l5.05-22.02-11.88,22.02h-7.34l-1.99-22.21-5.1,22.21h-7.59l10.92-47.58h7.34l3.07,34.61,18.76-34.61h7.28l-10.92,47.58ZM266.03,86.88c-4.2-7.87-4.2-34-14.9-34h-6.51v34h-12.59V7.97h26.23c12.59,0,20.25,10.07,20.25,22.67,0,8.81-3.67,16.05-10.81,19.73,7.98,5.88,5.25,19.31,12.38,36.52h-14.06Z"/>
  <path class="cls-1" d="M258.05,23.61h-13.43v13.64h13.43c4.62,0,7.66-2.83,7.66-7.03,0-3.88-2.83-6.61-7.66-6.61Z"/>
</svg>