<svg width="288" height="288" viewBox="0 0 288 288" fill="none" xmlns="http://www.w3.org/2000/svg">
<path d="M64.0303 138.104H50.6623V132.368H64.0303V138.104ZM53.1103 136.232H61.6303V134.216H53.1103V136.232ZM65.1823 121.88H49.4863V119.96H56.1343V118.28H58.6063V119.96H65.1823V121.88ZM57.3823 122.456C59.4463 122.456 61.0303 122.704 62.1343 123.2C63.2383 123.68 63.7903 124.376 63.7903 125.288C63.7903 126.12 63.3423 126.776 62.4463 127.256C61.5663 127.72 60.2863 128 58.6063 128.096V129.224H66.1423V131.168H48.5983V129.224H56.1343V128.096C54.4543 128 53.1663 127.712 52.2703 127.232C51.3903 126.752 50.9503 126.104 50.9503 125.288C50.9503 124.376 51.5023 123.68 52.6063 123.2C53.7263 122.704 55.3183 122.456 57.3823 122.456ZM57.3823 124.16C54.8543 124.16 53.5903 124.536 53.5903 125.288C53.5903 126.024 54.8543 126.392 57.3823 126.392C59.9103 126.392 61.1743 126.024 61.1743 125.288C61.1743 124.536 59.9103 124.16 57.3823 124.16ZM85.495 135.968H67.903V133.856H85.495V135.968ZM83.983 122.336H81.223V128.576H83.911V130.544H69.439V128.576H72.103V122.336H69.343V120.296H83.983V122.336ZM78.775 128.576V122.336H74.527V128.576H78.775ZM104.8 136.064H87.2077V134H94.7437V130.784H89.2957V124.256H100.288V121.856H89.2717V119.816H102.76V126.224H91.7437V128.744H103.192V130.784H97.1917V134H104.8V136.064ZM114.672 121.832H109.68V123.824H113.904V125.744H109.68V127.904C110.88 127.888 111.904 127.848 112.752 127.784C113.6 127.72 114.464 127.6 115.344 127.424L115.608 129.416C114.552 129.592 113.512 129.712 112.488 129.776C111.48 129.84 110.184 129.872 108.6 129.872H107.328V119.84H114.672V121.832ZM122.976 138.344H120.552V133.688H109.728V131.672H122.976V138.344ZM122.976 130.832H120.672V118.496H122.976V130.832ZM119.184 130.688H116.856V125.6H114.768V123.584H116.856V118.88H119.184V130.688ZM141.969 138.368H139.545V127.64H135.993V125.624H139.545V118.472H141.969V138.368ZM135.705 122.216H129.153V125.744H134.937V127.712H129.153V131.768C130.689 131.752 132.033 131.704 133.185 131.624C134.353 131.544 135.513 131.408 136.665 131.216L136.905 133.232C135.561 133.456 134.225 133.608 132.897 133.688C131.569 133.768 130.009 133.808 128.217 133.808H126.729V120.176H135.705V122.216Z" fill="#F5F5FA"/>
<path d="M162.19 195.744H154.558V202.32H152.11V195.744H144.574V193.704H162.19V195.744ZM160.054 191.424H146.71V183.48H160.054V191.424ZM149.134 189.432H157.582V185.472H149.134V189.432ZM170.887 186.048C170.887 187.296 171.271 188.432 172.039 189.456C172.807 190.48 173.911 191.224 175.351 191.688L174.223 193.656C172.111 192.984 170.599 191.704 169.687 189.816C169.255 190.872 168.631 191.792 167.815 192.576C167.015 193.344 166.055 193.92 164.935 194.304L163.711 192.288C165.215 191.776 166.367 190.952 167.167 189.816C167.983 188.68 168.391 187.432 168.391 186.072V185.856H164.359V183.84H174.799V185.856H170.887V186.048ZM179.119 187.2H181.759V189.264H179.119V194.304H176.647V182.472H179.119V187.2ZM172.855 194.736C174.871 194.736 176.447 195.072 177.583 195.744C178.735 196.4 179.311 197.328 179.311 198.528C179.311 199.712 178.735 200.64 177.583 201.312C176.447 201.984 174.871 202.32 172.855 202.32C170.839 202.32 169.247 201.984 168.079 201.312C166.911 200.64 166.327 199.712 166.327 198.528C166.327 197.328 166.903 196.4 168.055 195.744C169.223 195.072 170.823 194.736 172.855 194.736ZM172.855 196.704C171.543 196.704 170.535 196.864 169.831 197.184C169.127 197.488 168.775 197.936 168.775 198.528C168.775 199.12 169.127 199.576 169.831 199.896C170.535 200.2 171.543 200.352 172.855 200.352C174.151 200.352 175.143 200.2 175.831 199.896C176.535 199.576 176.887 199.12 176.887 198.528C176.887 197.936 176.535 197.488 175.831 197.184C175.143 196.864 174.151 196.704 172.855 196.704ZM187.576 183.96C188.424 183.96 189.16 184.248 189.784 184.824C190.424 185.4 190.92 186.224 191.272 187.296C191.624 188.368 191.8 189.624 191.8 191.064C191.8 192.52 191.624 193.784 191.272 194.856C190.92 195.928 190.424 196.752 189.784 197.328C189.16 197.904 188.424 198.192 187.576 198.192C186.728 198.192 185.992 197.904 185.368 197.328C184.744 196.752 184.256 195.928 183.904 194.856C183.568 193.784 183.4 192.52 183.4 191.064C183.4 189.608 183.568 188.352 183.904 187.296C184.256 186.224 184.744 185.4 185.368 184.824C185.992 184.248 186.728 183.96 187.576 183.96ZM187.576 186.336C186.984 186.336 186.512 186.744 186.16 187.56C185.824 188.376 185.656 189.544 185.656 191.064C185.656 192.584 185.824 193.752 186.16 194.568C186.512 195.384 186.984 195.792 187.576 195.792C188.2 195.792 188.68 195.392 189.016 194.592C189.352 193.776 189.52 192.6 189.52 191.064C189.52 189.528 189.352 188.36 189.016 187.56C188.68 186.744 188.2 186.336 187.576 186.336ZM199.84 202.344H197.488V192.192H195.496V201.384H193.192V182.808H195.496V190.128H197.488V182.472H199.84V202.344ZM211.2 194.88C213.296 194.88 214.952 195.216 216.168 195.888C217.4 196.544 218.016 197.456 218.016 198.624C218.016 199.776 217.4 200.68 216.168 201.336C214.936 201.992 213.28 202.32 211.2 202.32C209.12 202.32 207.464 201.992 206.232 201.336C205.016 200.68 204.408 199.776 204.408 198.624C204.408 197.456 205.016 196.544 206.232 195.888C207.448 195.216 209.104 194.88 211.2 194.88ZM211.2 196.776C209.824 196.776 208.752 196.936 207.984 197.256C207.216 197.576 206.832 198.032 206.832 198.624C206.832 199.2 207.208 199.64 207.96 199.944C208.728 200.248 209.808 200.4 211.2 200.4C212.592 200.4 213.672 200.248 214.44 199.944C215.208 199.64 215.592 199.2 215.592 198.624C215.592 198.032 215.208 197.576 214.44 197.256C213.672 196.936 212.592 196.776 211.2 196.776ZM217.92 185.016C217.92 186.088 217.888 187.016 217.824 187.8C217.76 188.584 217.608 189.424 217.368 190.32L214.968 190.08C215.16 189.248 215.288 188.472 215.352 187.752C215.416 187.016 215.448 186.224 215.448 185.376H204.552V183.408H217.92V185.016ZM220.032 193.488H202.56V191.472H209.256V187.872H211.704V191.472H220.032V193.488ZM237.033 188.16H239.673V190.248H237.033V196.776H234.537V182.472H237.033V188.16ZM231.825 183.96C231.825 186.6 231.033 188.84 229.449 190.68C227.881 192.52 225.649 193.88 222.753 194.76L221.745 192.768C223.937 192.128 225.665 191.224 226.929 190.056C228.193 188.888 228.929 187.544 229.137 186.024H222.585V183.96H231.825ZM237.729 201.96H224.649V195.336H227.121V199.944H237.729V201.96Z" fill="#F5F5FA"/>
</svg>
