<svg width="288" height="288" viewBox="0 0 288 288" fill="none" xmlns="http://www.w3.org/2000/svg">
<path d="M73.9226 130.856H60.3866V120.008H73.7546V122.048H62.8826V124.4H73.2986V126.368H62.8826V128.864H73.9226V130.856ZM75.8426 135.968H58.2506V133.904H75.8426V135.968ZM84.9473 127.88H80.5073V131.552C81.6113 131.536 82.6273 131.496 83.5553 131.432C84.4993 131.352 85.4673 131.216 86.4593 131.024L86.6273 133.064C85.4593 133.288 84.3313 133.44 83.2433 133.52C82.1713 133.584 80.9153 133.616 79.4753 133.616H78.1553V125.864H82.5953V122.528H78.1073V120.536H84.9473V127.88ZM94.1393 138.344H91.8113V118.472H94.1393V138.344ZM90.1793 137.336H87.8993V127.376H85.7873V125.36H87.8993V118.856H90.1793V137.336ZM112.892 138.368H110.42V118.472H112.892V138.368ZM102.524 119.912C103.484 119.912 104.34 120.2 105.092 120.776C105.86 121.352 106.46 122.176 106.892 123.248C107.324 124.304 107.54 125.536 107.54 126.944C107.54 128.352 107.324 129.592 106.892 130.664C106.46 131.72 105.86 132.536 105.092 133.112C104.34 133.688 103.484 133.976 102.524 133.976C101.548 133.976 100.676 133.688 99.908 133.112C99.14 132.536 98.54 131.72 98.108 130.664C97.676 129.592 97.46 128.352 97.46 126.944C97.46 125.536 97.676 124.304 98.108 123.248C98.54 122.176 99.14 121.352 99.908 120.776C100.676 120.2 101.548 119.912 102.524 119.912ZM102.524 122.168C101.692 122.168 101.036 122.592 100.556 123.44C100.076 124.272 99.836 125.44 99.836 126.944C99.836 128.432 100.076 129.6 100.556 130.448C101.036 131.28 101.692 131.696 102.524 131.696C103.324 131.696 103.964 131.28 104.444 130.448C104.924 129.6 105.164 128.432 105.164 126.944C105.164 125.456 104.924 124.288 104.444 123.44C103.964 122.592 103.324 122.168 102.524 122.168ZM132.341 138.368H129.893V126.776H124.445V124.736H129.893V118.472H132.341V138.368ZM119.645 131.552C122.509 131.504 125.109 131.248 127.445 130.784L127.685 132.848C126.261 133.152 124.837 133.36 123.413 133.472C122.005 133.584 120.461 133.64 118.781 133.64H117.173V120.632H119.645V131.552Z" fill="#F5F5FA"/>
<path d="M181.495 193.968H163.903V191.952H171.487V190.104H166.063V183.36H179.359V185.304H168.511V188.136H179.455V190.104H173.911V191.952H181.495V193.968ZM172.663 195.072C174.759 195.072 176.391 195.392 177.559 196.032C178.743 196.672 179.335 197.568 179.335 198.72C179.335 199.872 178.743 200.76 177.559 201.384C176.375 202.024 174.743 202.344 172.663 202.344C170.567 202.344 168.919 202.024 167.719 201.384C166.535 200.76 165.943 199.872 165.943 198.72C165.943 197.568 166.535 196.672 167.719 196.032C168.919 195.392 170.567 195.072 172.663 195.072ZM172.663 197.016C171.271 197.016 170.215 197.16 169.495 197.448C168.791 197.736 168.439 198.16 168.439 198.72C168.439 199.856 169.847 200.424 172.663 200.424C175.463 200.424 176.863 199.856 176.863 198.72C176.863 198.16 176.503 197.736 175.783 197.448C175.079 197.16 174.039 197.016 172.663 197.016ZM200.752 192.48H193.192V193.944H198.592V198.864H187.72V200.256H199.096V202.176H185.296V197.088H196.168V195.84H185.248V193.944H190.72V192.48H183.208V190.512H200.752V192.48ZM198.52 189.264H185.416V183.072H198.52V189.264ZM187.84 187.32H196.072V185.04H187.84V187.32ZM218.832 197.448H216.336V195.096H212.472V193.128H216.336V182.496H218.832V197.448ZM219.264 201.96H205.128V195.912H207.552V199.944H219.264V201.96ZM202.416 190.104C205.968 190.072 208.656 190 210.48 189.888C210.704 188.448 210.832 186.992 210.864 185.52H204.144V183.528H213.312V184.272C213.312 186.224 213.184 188.032 212.928 189.696L214.848 189.456L215.04 191.232C213.408 191.52 211.744 191.728 210.048 191.856V196.176H207.6V192C206.048 192.064 204.416 192.096 202.704 192.096L202.416 190.104Z" fill="#F5F5FA"/>
</svg>
