<svg width="288" height="288" viewBox="0 0 288 288" fill="none" xmlns="http://www.w3.org/2000/svg">
<path d="M64.0303 138.104H50.6623V132.368H64.0303V138.104ZM53.1103 136.232H61.6303V134.216H53.1103V136.232ZM65.1823 121.88H49.4863V119.96H56.1343V118.28H58.6063V119.96H65.1823V121.88ZM57.3823 122.456C59.4463 122.456 61.0303 122.704 62.1343 123.2C63.2383 123.68 63.7903 124.376 63.7903 125.288C63.7903 126.12 63.3423 126.776 62.4463 127.256C61.5663 127.72 60.2863 128 58.6063 128.096V129.224H66.1423V131.168H48.5983V129.224H56.1343V128.096C54.4543 128 53.1663 127.712 52.2703 127.232C51.3903 126.752 50.9503 126.104 50.9503 125.288C50.9503 124.376 51.5023 123.68 52.6063 123.2C53.7263 122.704 55.3183 122.456 57.3823 122.456ZM57.3823 124.16C54.8543 124.16 53.5903 124.536 53.5903 125.288C53.5903 126.024 54.8543 126.392 57.3823 126.392C59.9103 126.392 61.1743 126.024 61.1743 125.288C61.1743 124.536 59.9103 124.16 57.3823 124.16ZM85.495 135.968H67.903V133.856H85.495V135.968ZM83.983 122.336H81.223V128.576H83.911V130.544H69.439V128.576H72.103V122.336H69.343V120.296H83.983V122.336ZM78.775 128.576V122.336H74.527V128.576H78.775ZM104.8 136.064H87.2077V134H94.7437V130.784H89.2957V124.256H100.288V121.856H89.2717V119.816H102.76V126.224H91.7437V128.744H103.192V130.784H97.1917V134H104.8V136.064ZM114.672 121.832H109.68V123.824H113.904V125.744H109.68V127.904C110.88 127.888 111.904 127.848 112.752 127.784C113.6 127.72 114.464 127.6 115.344 127.424L115.608 129.416C114.552 129.592 113.512 129.712 112.488 129.776C111.48 129.84 110.184 129.872 108.6 129.872H107.328V119.84H114.672V121.832ZM122.976 138.344H120.552V133.688H109.728V131.672H122.976V138.344ZM122.976 130.832H120.672V118.496H122.976V130.832ZM119.184 130.688H116.856V125.6H114.768V123.584H116.856V118.88H119.184V130.688ZM141.969 138.368H139.545V127.64H135.993V125.624H139.545V118.472H141.969V138.368ZM135.705 122.216H129.153V125.744H134.937V127.712H129.153V131.768C130.689 131.752 132.033 131.704 133.185 131.624C134.353 131.544 135.513 131.408 136.665 131.216L136.905 133.232C135.561 133.456 134.225 133.608 132.897 133.688C131.569 133.768 130.009 133.808 128.217 133.808H126.729V120.176H135.705V122.216Z" fill="#F5F5FA"/>
<path d="M190.259 202.344H187.907V192.288H186.035V201.384H183.731V182.808H186.035V190.224H187.907V182.472H190.259V202.344ZM179.579 187.512C179.579 189.384 179.899 191.056 180.539 192.528C181.195 194 182.203 195.096 183.563 195.816L182.147 197.736C180.419 196.808 179.187 195.208 178.451 192.936C177.763 195.512 176.523 197.352 174.731 198.456L173.219 196.512C174.595 195.728 175.603 194.544 176.243 192.96C176.883 191.376 177.203 189.56 177.203 187.512V186.624H173.819V184.608H182.675V186.624H179.579V187.512ZM196.148 191.352C199.012 191.32 201.628 191.048 203.996 190.536L204.26 192.576C201.604 193.136 198.628 193.416 195.332 193.416H193.7V183.84H196.148V191.352ZM208.076 188.184H210.74V190.248H208.076V196.776H205.628V182.496H208.076V188.184ZM208.748 201.96H195.74V195.432H198.212V199.944H208.748V201.96Z" fill="#F5F5FA"/>
</svg>
