<svg width="288" height="288" viewBox="0 0 288 288" fill="none" xmlns="http://www.w3.org/2000/svg">
<path d="M69.0252 135.92H57.8852V131.14H69.0252V135.92ZM59.9252 134.36H67.0252V132.68H59.9252V134.36ZM69.9852 122.4H56.9052V120.8H62.4452V119.4H64.5052V120.8H69.9852V122.4ZM63.4852 122.88C65.2052 122.88 66.5252 123.087 67.4452 123.5C68.3652 123.9 68.8252 124.48 68.8252 125.24C68.8252 125.933 68.4519 126.48 67.7052 126.88C66.9719 127.267 65.9052 127.5 64.5052 127.58V128.52H70.7852V130.14H56.1652V128.52H62.4452V127.58C61.0452 127.5 59.9719 127.26 59.2252 126.86C58.4919 126.46 58.1252 125.92 58.1252 125.24C58.1252 124.48 58.5852 123.9 59.5052 123.5C60.4386 123.087 61.7652 122.88 63.4852 122.88ZM63.4852 124.3C61.3786 124.3 60.3252 124.613 60.3252 125.24C60.3252 125.853 61.3786 126.16 63.4852 126.16C65.5919 126.16 66.6452 125.853 66.6452 125.24C66.6452 124.613 65.5919 124.3 63.4852 124.3ZM87.0791 134.14H72.4191V132.38H87.0791V134.14ZM85.8191 122.78H83.5191V127.98H85.7591V129.62H73.6991V127.98H75.9191V122.78H73.6191V121.08H85.8191V122.78ZM81.4791 127.98V122.78H77.9391V127.98H81.4791ZM103.333 134.22H88.673V132.5H94.953V129.82H90.413V124.38H99.573V122.38H90.393V120.68H101.633V126.02H92.453V128.12H101.993V129.82H96.993V132.5H103.333V134.22ZM111.727 122.36H107.567V124.02H111.087V125.62H107.567V127.42C108.567 127.407 109.42 127.373 110.127 127.32C110.834 127.267 111.554 127.167 112.287 127.02L112.507 128.68C111.627 128.827 110.76 128.927 109.907 128.98C109.067 129.033 107.987 129.06 106.667 129.06H105.607V120.7H111.727V122.36ZM118.647 136.12H116.627V132.24H107.607V130.56H118.647V136.12ZM118.647 129.86H116.727V119.58H118.647V129.86ZM115.487 129.74H113.547V125.5H111.807V123.82H113.547V119.9H115.487V129.74ZM134.641 136.14H132.621V127.2H129.661V125.52H132.621V119.56H134.641V136.14ZM129.421 122.68H123.961V125.62H128.781V127.26H123.961V130.64C125.241 130.627 126.361 130.587 127.321 130.52C128.294 130.453 129.261 130.34 130.221 130.18L130.421 131.86C129.301 132.047 128.188 132.173 127.081 132.24C125.974 132.307 124.674 132.34 123.181 132.34H121.941V120.98H129.421V122.68Z" fill="#F5F5FA"/>
<path d="M190.466 200.12H188.506V191.74H186.946V199.32H185.026V183.84H186.946V190.02H188.506V183.56H190.466V200.12ZM181.566 187.76C181.566 189.32 181.833 190.713 182.366 191.94C182.913 193.167 183.753 194.08 184.886 194.68L183.706 196.28C182.266 195.507 181.239 194.173 180.626 192.28C180.053 194.427 179.019 195.96 177.526 196.88L176.266 195.26C177.413 194.607 178.253 193.62 178.786 192.3C179.319 190.98 179.586 189.467 179.586 187.76V187.02H176.766V185.34H184.146V187.02H181.566V187.76ZM195.54 190.96C197.927 190.933 200.107 190.707 202.08 190.28L202.3 191.98C200.087 192.447 197.607 192.68 194.86 192.68H193.5V184.7H195.54V190.96ZM205.48 188.32H207.7V190.04H205.48V195.48H203.44V183.58H205.48V188.32ZM206.04 199.8H195.2V194.36H197.26V198.12H206.04V199.8Z" fill="#F5F5FA"/>
</svg>
