<svg width="288" height="288" viewBox="0 0 288 288" fill="none" xmlns="http://www.w3.org/2000/svg">
<path d="M85.6233 119.744C85.6233 122.336 85.0313 124.536 83.8473 126.344C82.6793 128.136 80.7993 129.584 78.2073 130.688L77.0553 128.84C78.2233 128.36 79.2073 127.824 80.0073 127.232C80.8073 126.64 81.4553 125.968 81.9513 125.216L77.4873 125.72L77.1513 123.704L82.8153 123.392C82.9913 122.832 83.1033 122.288 83.1513 121.76H77.9913V119.744H85.6233ZM93.5193 130.112H91.1913V125.264H89.2713V129.968H86.9673V118.856H89.2713V123.224H91.1913V118.496H93.5193V130.112ZM93.5193 138.104H80.5353V130.952H93.5193V138.104ZM82.9353 136.088H91.1193V132.944H82.9353V136.088ZM107.52 122.336H105.552V131.36C106.608 131.28 107.432 131.2 108.024 131.12L108.168 132.944C106.424 133.248 104.584 133.456 102.648 133.568C100.712 133.664 98.664 133.712 96.504 133.712L96.264 131.648L98.544 131.624V122.336H96.792V120.32H107.52V122.336ZM112.512 138.344H110.088V127.784H106.944V125.768H110.088V118.472H112.512V138.344ZM100.92 131.576C101.656 131.576 102.416 131.552 103.2 131.504V122.336H100.92V131.576Z" fill="#F5F5FA"/>
<path d="M170.331 202.344H167.859V182.472H170.331V202.344ZM164.595 184.584C164.595 187.752 163.907 190.528 162.531 192.912C161.155 195.296 158.859 197.28 155.643 198.864L154.347 196.848C156.827 195.632 158.683 194.192 159.915 192.528C161.147 190.848 161.867 188.856 162.075 186.552H155.379V184.584H164.595ZM190.163 186.624H174.443V184.584H181.091V182.424H183.539V184.584H190.163V186.624ZM191.147 197.376H183.539V202.368H181.091V197.376H173.555V195.336H191.147V197.376ZM182.339 187.512C184.403 187.512 186.003 187.8 187.139 188.376C188.291 188.952 188.867 189.784 188.867 190.872C188.867 191.944 188.291 192.776 187.139 193.368C185.987 193.96 184.387 194.256 182.339 194.256C180.275 194.256 178.667 193.96 177.515 193.368C176.363 192.776 175.787 191.944 175.787 190.872C175.787 189.784 176.363 188.952 177.515 188.376C178.667 187.8 180.275 187.512 182.339 187.512ZM182.339 189.384C179.667 189.384 178.331 189.88 178.331 190.872C178.331 191.864 179.667 192.36 182.339 192.36C184.995 192.36 186.323 191.864 186.323 190.872C186.323 189.88 184.995 189.384 182.339 189.384ZM209.012 194.28H206.54V189.456H203.324V187.392H206.54V182.472H209.012V194.28ZM202.484 194.784C204.532 194.784 206.132 195.12 207.284 195.792C208.452 196.448 209.036 197.376 209.036 198.576C209.036 199.76 208.452 200.68 207.284 201.336C206.132 202.008 204.532 202.344 202.484 202.344C200.42 202.344 198.804 202.008 197.636 201.336C196.484 200.68 195.908 199.76 195.908 198.576C195.908 197.376 196.484 196.448 197.636 195.792C198.804 195.12 200.42 194.784 202.484 194.784ZM202.484 196.704C201.156 196.704 200.132 196.864 199.412 197.184C198.692 197.504 198.332 197.968 198.332 198.576C198.332 199.168 198.692 199.624 199.412 199.944C200.132 200.264 201.156 200.424 202.484 200.424C203.812 200.424 204.828 200.264 205.532 199.944C206.252 199.624 206.612 199.168 206.612 198.576C206.612 197.968 206.252 197.504 205.532 197.184C204.828 196.864 203.812 196.704 202.484 196.704ZM199.988 185.808C199.988 187.072 200.372 188.256 201.14 189.36C201.924 190.448 203.028 191.24 204.452 191.736L203.252 193.728C202.228 193.36 201.332 192.824 200.564 192.12C199.812 191.4 199.22 190.568 198.788 189.624C198.356 190.696 197.74 191.632 196.94 192.432C196.14 193.216 195.18 193.816 194.06 194.232L192.788 192.264C194.292 191.736 195.444 190.88 196.244 189.696C197.06 188.512 197.468 187.224 197.468 185.832V185.784H193.508V183.744H203.9V185.784H199.988V185.808ZM218.405 183.84C219.413 183.84 220.317 184.048 221.117 184.464C221.933 184.864 222.565 185.432 223.013 186.168C223.477 186.904 223.709 187.736 223.709 188.664C223.709 189.592 223.477 190.424 223.013 191.16C222.565 191.88 221.933 192.448 221.117 192.864C220.317 193.264 219.413 193.464 218.405 193.464C217.413 193.464 216.509 193.264 215.693 192.864C214.893 192.448 214.261 191.88 213.797 191.16C213.333 190.424 213.101 189.592 213.101 188.664C213.101 187.736 213.333 186.904 213.797 186.168C214.261 185.432 214.893 184.864 215.693 184.464C216.509 184.048 217.413 183.84 218.405 183.84ZM218.405 186C217.573 186 216.885 186.24 216.341 186.72C215.797 187.2 215.525 187.848 215.525 188.664C215.525 189.464 215.797 190.104 216.341 190.584C216.885 191.064 217.573 191.304 218.405 191.304C219.253 191.304 219.949 191.064 220.493 190.584C221.037 190.104 221.309 189.464 221.309 188.664C221.309 187.848 221.037 187.2 220.493 186.72C219.949 186.24 219.253 186 218.405 186ZM228.221 202.368H225.773V182.472H228.221V202.368ZM212.261 196.176C214.597 196.176 216.781 196.136 218.813 196.056C220.861 195.976 222.797 195.8 224.621 195.528L224.837 197.376C222.949 197.744 221.029 197.984 219.077 198.096C217.125 198.192 214.949 198.24 212.549 198.24L212.261 196.176Z" fill="#F5F5FA"/>
</svg>
