<svg width="288" height="288" viewBox="0 0 288 288" fill="none" xmlns="http://www.w3.org/2000/svg">
<path d="M77.743 133.424H68.575V120.392H77.743V133.424ZM71.023 131.432H75.295V122.36H71.023V131.432ZM83.023 126.104H85.951V128.192H83.023V138.344H80.575V118.472H83.023V126.104ZM95.7517 120.728C95.7517 122.76 95.5517 124.544 95.1517 126.08H97.4317V118.952H99.7357V137.432H97.4317V128.12H94.4317C93.3117 130.648 91.3597 132.728 88.5757 134.36L87.1837 132.608C89.6317 131.168 91.3357 129.392 92.2957 127.28L87.5677 127.76L87.2557 125.624L92.9677 125.312C93.1437 124.56 93.2717 123.712 93.3517 122.768H88.2157V120.728H95.7517ZM103.84 138.344H101.512V118.472H103.84V138.344ZM122.664 138.368H120.24V127.64H116.688V125.624H120.24V118.472H122.664V138.368ZM116.4 122.216H109.848V125.744H115.632V127.712H109.848V131.768C111.384 131.752 112.728 131.704 113.88 131.624C115.048 131.544 116.208 131.408 117.36 131.216L117.6 133.232C116.256 133.456 114.92 133.608 113.592 133.688C112.264 133.768 110.704 133.808 108.912 133.808H107.424V120.176H116.4V122.216Z" fill="#F5F5FA"/>
<path d="M169.923 193.2H164.283V197.976H171.843V199.968H154.251V197.976H161.787V193.2H156.291V184.032H158.787V191.184H169.923V193.2ZM191.147 193.968H173.555V191.952H181.139V190.104H175.715V183.36H189.011V185.304H178.163V188.136H189.107V190.104H183.563V191.952H191.147V193.968ZM182.315 195.072C184.411 195.072 186.043 195.392 187.211 196.032C188.395 196.672 188.987 197.568 188.987 198.72C188.987 199.872 188.395 200.76 187.211 201.384C186.027 202.024 184.395 202.344 182.315 202.344C180.219 202.344 178.571 202.024 177.371 201.384C176.187 200.76 175.595 199.872 175.595 198.72C175.595 197.568 176.187 196.672 177.371 196.032C178.571 195.392 180.219 195.072 182.315 195.072ZM182.315 197.016C180.923 197.016 179.867 197.16 179.147 197.448C178.443 197.736 178.091 198.16 178.091 198.72C178.091 199.856 179.499 200.424 182.315 200.424C185.115 200.424 186.515 199.856 186.515 198.72C186.515 198.16 186.155 197.736 185.435 197.448C184.731 197.16 183.691 197.016 182.315 197.016ZM210.452 199.968H192.86V197.928H200.42V193.368H202.892V197.928H210.452V199.968ZM208.94 186.096H202.94C202.972 187.04 203.284 187.936 203.876 188.784C204.468 189.632 205.276 190.352 206.3 190.944C207.324 191.52 208.476 191.904 209.756 192.096L208.796 194.088C207.164 193.784 205.716 193.208 204.452 192.36C203.204 191.512 202.268 190.48 201.644 189.264C201.036 190.512 200.108 191.576 198.86 192.456C197.628 193.32 196.204 193.904 194.588 194.208L193.628 192.216C194.892 192.008 196.028 191.6 197.036 190.992C198.044 190.384 198.836 189.656 199.412 188.808C200.004 187.944 200.316 187.04 200.348 186.096H194.348V184.08H208.94V186.096ZM227.381 187.368H230.045V189.432H227.381V194.088H224.933V182.472H227.381V187.368ZM217.349 196.56H224.933V194.88H227.381V202.104H214.901V194.88H217.349V196.56ZM224.933 200.112V198.48H217.349V200.112H224.933ZM223.613 186.288H212.189V184.32H216.677V182.328H219.149V184.32H223.613V186.288ZM217.925 186.96C219.317 186.96 220.445 187.28 221.309 187.92C222.189 188.56 222.629 189.408 222.629 190.464C222.629 191.52 222.189 192.368 221.309 193.008C220.445 193.648 219.317 193.968 217.925 193.968C216.501 193.968 215.349 193.648 214.469 193.008C213.605 192.368 213.173 191.52 213.173 190.464C213.173 189.408 213.605 188.56 214.469 187.92C215.349 187.28 216.501 186.96 217.925 186.96ZM217.925 188.808C217.205 188.808 216.629 188.96 216.197 189.264C215.781 189.552 215.573 189.952 215.573 190.464C215.573 190.976 215.781 191.376 216.197 191.664C216.629 191.952 217.205 192.096 217.925 192.096C218.645 192.096 219.213 191.952 219.629 191.664C220.061 191.376 220.277 190.976 220.277 190.464C220.277 189.952 220.061 189.552 219.629 189.264C219.197 188.96 218.629 188.808 217.925 188.808Z" fill="#F5F5FA"/>
</svg>
