<svg width="288" height="288" viewBox="0 0 288 288" fill="none" xmlns="http://www.w3.org/2000/svg">
<path d="M62.6733 135L67.3733 119.96H70.0333L74.6933 135H72.1933L71.0733 131.26H66.3533L65.1933 135H62.6733ZM67.2533 128.3H70.1733L68.7133 123.58L67.2533 128.3ZM76.9813 135V119.96H79.4213V135H76.9813ZM95.725 136.12H93.765V127.62H92.085V135.36H90.185V119.98H92.085V125.94H93.765V119.56H95.725V136.12ZM88.885 121.62C88.885 124.047 88.4383 126.173 87.545 128C86.6517 129.827 85.1317 131.38 82.985 132.66L81.785 131.2C83.425 130.24 84.645 129.12 85.445 127.84C86.245 126.547 86.7183 125.04 86.865 123.32H82.545V121.62H88.885ZM100.759 122.36H104.379V120.28H106.419V127.5H98.7189V120.28H100.759V122.36ZM104.379 125.86V123.96H100.759V125.86H104.379ZM110.859 122.86H113.079V124.56H110.859V128.02H108.819V119.56H110.859V122.86ZM110.859 133.04H102.379V134.34H111.359V135.98H100.359V131.54H108.839V130.32H100.339V128.7H110.859V133.04ZM120.233 124.22C120.233 125.087 120.386 125.96 120.693 126.84C121.013 127.72 121.473 128.527 122.073 129.26C122.686 129.98 123.399 130.533 124.213 130.92L123.093 132.58C122.213 132.153 121.439 131.527 120.773 130.7C120.119 129.873 119.606 128.933 119.233 127.88C118.859 129.04 118.333 130.073 117.653 130.98C116.973 131.873 116.186 132.547 115.293 133L114.133 131.32C114.959 130.92 115.679 130.34 116.293 129.58C116.906 128.807 117.373 127.953 117.693 127.02C118.026 126.073 118.193 125.14 118.193 124.22V122.9H114.713V121.2H123.553V122.9H120.233V124.22ZM127.033 125.98H129.453V127.74H127.033V136.12H124.993V119.56H127.033V125.98Z" fill="#F5F5FA"/>
<path d="M164.431 194.52H160.891V200.12H158.811V194.52H155.331V200.12H153.231V194.52H149.751V192.84H164.431V194.52ZM157.051 184.14C158.184 184.14 159.191 184.293 160.071 184.6C160.951 184.893 161.631 185.32 162.111 185.88C162.604 186.44 162.851 187.093 162.851 187.84C162.851 188.573 162.604 189.22 162.111 189.78C161.631 190.327 160.951 190.747 160.071 191.04C159.191 191.333 158.184 191.48 157.051 191.48C155.917 191.48 154.917 191.333 154.051 191.04C153.184 190.747 152.504 190.327 152.011 189.78C151.531 189.22 151.291 188.573 151.291 187.84C151.291 187.093 151.531 186.44 152.011 185.88C152.504 185.32 153.184 184.893 154.051 184.6C154.917 184.293 155.917 184.14 157.051 184.14ZM157.051 185.82C155.917 185.82 155.024 186 154.371 186.36C153.717 186.707 153.391 187.2 153.391 187.84C153.391 188.467 153.717 188.953 154.371 189.3C155.024 189.647 155.917 189.82 157.051 189.82C158.197 189.82 159.097 189.647 159.751 189.3C160.417 188.953 160.751 188.467 160.751 187.84C160.751 187.2 160.417 186.707 159.751 186.36C159.097 186 158.197 185.82 157.051 185.82ZM179.425 200.12H177.365V183.56H179.425V200.12ZM174.645 185.32C174.645 187.96 174.071 190.273 172.925 192.26C171.778 194.247 169.865 195.9 167.185 197.22L166.105 195.54C168.171 194.527 169.718 193.327 170.745 191.94C171.771 190.54 172.371 188.88 172.545 186.96H166.965V185.32H174.645ZM195.279 189.5H190.619V191.32H196.939V193.02H182.279V191.32H188.579V189.5H184.179V183.84H186.219V187.82H195.279V189.5ZM189.579 194C191.312 194 192.672 194.273 193.659 194.82C194.645 195.353 195.139 196.1 195.139 197.06C195.139 198.02 194.645 198.767 193.659 199.3C192.672 199.833 191.312 200.1 189.579 200.1C187.832 200.1 186.459 199.833 185.459 199.3C184.472 198.767 183.979 198.02 183.979 197.06C183.979 196.1 184.472 195.353 185.459 194.82C186.459 194.273 187.832 194 189.579 194ZM189.579 195.6C188.432 195.6 187.559 195.727 186.959 195.98C186.359 196.22 186.059 196.58 186.059 197.06C186.059 197.527 186.359 197.887 186.959 198.14C187.559 198.38 188.432 198.5 189.579 198.5C190.712 198.5 191.579 198.38 192.179 198.14C192.779 197.887 193.079 197.527 193.079 197.06C193.079 196.58 192.779 196.22 192.179 195.98C191.592 195.727 190.725 195.6 189.579 195.6ZM216.321 189.5H211.661V191.32H217.981V193.02H203.321V191.32H209.621V189.5H205.221V183.84H207.261V187.82H216.321V189.5ZM210.621 194C212.355 194 213.715 194.273 214.701 194.82C215.688 195.353 216.181 196.1 216.181 197.06C216.181 198.02 215.688 198.767 214.701 199.3C213.715 199.833 212.355 200.1 210.621 200.1C208.875 200.1 207.501 199.833 206.501 199.3C205.515 198.767 205.021 198.02 205.021 197.06C205.021 196.1 205.515 195.353 206.501 194.82C207.501 194.273 208.875 194 210.621 194ZM210.621 195.6C209.475 195.6 208.601 195.727 208.001 195.98C207.401 196.22 207.101 196.58 207.101 197.06C207.101 197.527 207.401 197.887 208.001 198.14C208.601 198.38 209.475 198.5 210.621 198.5C211.755 198.5 212.621 198.38 213.221 198.14C213.821 197.887 214.121 197.527 214.121 197.06C214.121 196.58 213.821 196.22 213.221 195.98C212.635 195.727 211.768 195.6 210.621 195.6ZM224.055 184.28C225.095 184.28 225.989 184.56 226.735 185.12C227.482 185.68 227.955 186.413 228.155 187.32H230.975V183.56H233.035V192.46H230.975V189H228.155C227.969 189.92 227.495 190.667 226.735 191.24C225.989 191.813 225.095 192.1 224.055 192.1C223.242 192.1 222.509 191.933 221.855 191.6C221.215 191.253 220.709 190.787 220.335 190.2C219.975 189.6 219.795 188.92 219.795 188.16C219.795 187.413 219.975 186.747 220.335 186.16C220.709 185.573 221.215 185.113 221.855 184.78C222.509 184.447 223.242 184.28 224.055 184.28ZM224.055 186.04C223.375 186.04 222.815 186.233 222.375 186.62C221.949 187.007 221.735 187.52 221.735 188.16C221.735 188.813 221.949 189.34 222.375 189.74C222.815 190.14 223.375 190.34 224.055 190.34C224.709 190.34 225.242 190.14 225.655 189.74C226.082 189.34 226.295 188.813 226.295 188.16C226.295 187.533 226.082 187.027 225.655 186.64C225.242 186.24 224.709 186.04 224.055 186.04ZM224.455 194.94H230.975V193.2H233.035V199.92H222.415V193.2H224.455V194.94ZM230.975 198.22V196.56H224.455V198.22H230.975Z" fill="#F5F5FA"/>
</svg>
