<svg width="288" height="288" viewBox="0 0 288 288" fill="none" xmlns="http://www.w3.org/2000/svg">
<path d="M77.3522 129.88H66.0722V120.84H77.2122V122.54H68.1522V124.5H76.8322V126.14H68.1522V128.22H77.3522V129.88ZM78.9522 134.14H64.2922V132.42H78.9522V134.14ZM86.7061 127.4H83.0061V130.46C83.9261 130.447 84.7728 130.413 85.5461 130.36C86.3328 130.293 87.1394 130.18 87.9661 130.02L88.1061 131.72C87.1328 131.907 86.1928 132.033 85.2861 132.1C84.3928 132.153 83.3461 132.18 82.1461 132.18H81.0461V125.72H84.7461V122.94H81.0061V121.28H86.7061V127.4ZM94.3661 136.12H92.4261V119.56H94.3661V136.12ZM91.0661 135.28H89.1661V126.98H87.4061V125.3H89.1661V119.88H91.0661V135.28ZM110.16 136.14H108.1V119.56H110.16V136.14ZM101.52 120.76C102.32 120.76 103.033 121 103.66 121.48C104.3 121.96 104.8 122.647 105.16 123.54C105.52 124.42 105.7 125.447 105.7 126.62C105.7 127.793 105.52 128.827 105.16 129.72C104.8 130.6 104.3 131.28 103.66 131.76C103.033 132.24 102.32 132.48 101.52 132.48C100.707 132.48 99.98 132.24 99.34 131.76C98.7 131.28 98.2 130.6 97.84 129.72C97.48 128.827 97.3 127.793 97.3 126.62C97.3 125.447 97.48 124.42 97.84 123.54C98.2 122.647 98.7 121.96 99.34 121.48C99.98 121 100.707 120.76 101.52 120.76ZM101.52 122.64C100.827 122.64 100.28 122.993 99.88 123.7C99.48 124.393 99.28 125.367 99.28 126.62C99.28 127.86 99.48 128.833 99.88 129.54C100.28 130.233 100.827 130.58 101.52 130.58C102.187 130.58 102.72 130.233 103.12 129.54C103.52 128.833 103.72 127.86 103.72 126.62C103.72 125.38 103.52 124.407 103.12 123.7C102.72 122.993 102.187 122.64 101.52 122.64ZM126.534 136.14H124.494V126.48H119.954V124.78H124.494V119.56H126.534V136.14ZM115.954 130.46C118.341 130.42 120.507 130.207 122.454 129.82L122.654 131.54C121.467 131.793 120.281 131.967 119.094 132.06C117.921 132.153 116.634 132.2 115.234 132.2H113.894V121.36H115.954V130.46Z" fill="#F5F5FA"/>
<path d="M166.825 194.62H160.465V200.1H158.425V194.62H152.145V192.92H166.825V194.62ZM165.045 191.02H153.925V184.4H165.045V191.02ZM155.945 189.36H162.985V186.06H155.945V189.36ZM174.239 186.54C174.239 187.58 174.559 188.527 175.199 189.38C175.839 190.233 176.759 190.853 177.959 191.24L177.019 192.88C175.259 192.32 173.999 191.253 173.239 189.68C172.879 190.56 172.359 191.327 171.679 191.98C171.012 192.62 170.212 193.1 169.279 193.42L168.259 191.74C169.512 191.313 170.472 190.627 171.139 189.68C171.819 188.733 172.159 187.693 172.159 186.56V186.38H168.799V184.7H177.499V186.38H174.239V186.54ZM181.099 187.5H183.299V189.22H181.099V193.42H179.039V183.56H181.099V187.5ZM175.879 193.78C177.559 193.78 178.872 194.06 179.819 194.62C180.779 195.167 181.259 195.94 181.259 196.94C181.259 197.927 180.779 198.7 179.819 199.26C178.872 199.82 177.559 200.1 175.879 200.1C174.199 200.1 172.872 199.82 171.899 199.26C170.926 198.7 170.439 197.927 170.439 196.94C170.439 195.94 170.919 195.167 171.879 194.62C172.852 194.06 174.186 193.78 175.879 193.78ZM175.879 195.42C174.786 195.42 173.946 195.553 173.359 195.82C172.772 196.073 172.479 196.447 172.479 196.94C172.479 197.433 172.772 197.813 173.359 198.08C173.946 198.333 174.786 198.46 175.879 198.46C176.959 198.46 177.786 198.333 178.359 198.08C178.946 197.813 179.239 197.433 179.239 196.94C179.239 196.447 178.946 196.073 178.359 195.82C177.786 195.553 176.959 195.42 175.879 195.42ZM188.313 184.8C189.02 184.8 189.633 185.04 190.153 185.52C190.686 186 191.1 186.687 191.393 187.58C191.686 188.473 191.833 189.52 191.833 190.72C191.833 191.933 191.686 192.987 191.393 193.88C191.1 194.773 190.686 195.46 190.153 195.94C189.633 196.42 189.02 196.66 188.313 196.66C187.606 196.66 186.993 196.42 186.473 195.94C185.953 195.46 185.546 194.773 185.253 193.88C184.973 192.987 184.833 191.933 184.833 190.72C184.833 189.507 184.973 188.46 185.253 187.58C185.546 186.687 185.953 186 186.473 185.52C186.993 185.04 187.606 184.8 188.313 184.8ZM188.313 186.78C187.82 186.78 187.426 187.12 187.133 187.8C186.853 188.48 186.713 189.453 186.713 190.72C186.713 191.987 186.853 192.96 187.133 193.64C187.426 194.32 187.82 194.66 188.313 194.66C188.833 194.66 189.233 194.327 189.513 193.66C189.793 192.98 189.933 192 189.933 190.72C189.933 189.44 189.793 188.467 189.513 187.8C189.233 187.12 188.833 186.78 188.313 186.78ZM198.533 200.12H196.573V191.66H194.913V199.32H192.993V183.84H194.913V189.94H196.573V183.56H198.533V200.12ZM208.167 193.9C209.914 193.9 211.294 194.18 212.307 194.74C213.334 195.287 213.847 196.047 213.847 197.02C213.847 197.98 213.334 198.733 212.307 199.28C211.28 199.827 209.9 200.1 208.167 200.1C206.434 200.1 205.054 199.827 204.027 199.28C203.014 198.733 202.507 197.98 202.507 197.02C202.507 196.047 203.014 195.287 204.027 194.74C205.04 194.18 206.42 193.9 208.167 193.9ZM208.167 195.48C207.02 195.48 206.127 195.613 205.487 195.88C204.847 196.147 204.527 196.527 204.527 197.02C204.527 197.5 204.84 197.867 205.467 198.12C206.107 198.373 207.007 198.5 208.167 198.5C209.327 198.5 210.227 198.373 210.867 198.12C211.507 197.867 211.827 197.5 211.827 197.02C211.827 196.527 211.507 196.147 210.867 195.88C210.227 195.613 209.327 195.48 208.167 195.48ZM213.767 185.68C213.767 186.573 213.74 187.347 213.687 188C213.634 188.653 213.507 189.353 213.307 190.1L211.307 189.9C211.467 189.207 211.574 188.56 211.627 187.96C211.68 187.347 211.707 186.687 211.707 185.98H202.627V184.34H213.767V185.68ZM215.527 192.74H200.967V191.06H206.547V188.06H208.587V191.06H215.527V192.74ZM229.861 188.3H232.061V190.04H229.861V195.48H227.781V183.56H229.861V188.3ZM225.521 184.8C225.521 187 224.861 188.867 223.541 190.4C222.234 191.933 220.374 193.067 217.961 193.8L217.121 192.14C218.948 191.607 220.388 190.853 221.441 189.88C222.494 188.907 223.108 187.787 223.281 186.52H217.821V184.8H225.521ZM230.441 199.8H219.541V194.28H221.601V198.12H230.441V199.8Z" fill="#F5F5FA"/>
</svg>
