<svg width="288" height="288" viewBox="0 0 288 288" fill="none" xmlns="http://www.w3.org/2000/svg">
<path d="M62.6733 135L67.3733 119.96H70.0333L74.6933 135H72.1933L71.0733 131.26H66.3533L65.1933 135H62.6733ZM67.2533 128.3H70.1733L68.7133 123.58L67.2533 128.3ZM76.9813 135V119.96H79.4213V135H76.9813ZM95.725 136.12H93.765V127.62H92.085V135.36H90.185V119.98H92.085V125.94H93.765V119.56H95.725V136.12ZM88.885 121.62C88.885 124.047 88.4383 126.173 87.545 128C86.6517 129.827 85.1317 131.38 82.985 132.66L81.785 131.2C83.425 130.24 84.645 129.12 85.445 127.84C86.245 126.547 86.7183 125.04 86.865 123.32H82.545V121.62H88.885ZM100.759 122.36H104.379V120.28H106.419V127.5H98.7189V120.28H100.759V122.36ZM104.379 125.86V123.96H100.759V125.86H104.379ZM110.859 122.86H113.079V124.56H110.859V128.02H108.819V119.56H110.859V122.86ZM110.859 133.04H102.379V134.34H111.359V135.98H100.359V131.54H108.839V130.32H100.339V128.7H110.859V133.04ZM120.233 124.22C120.233 125.087 120.386 125.96 120.693 126.84C121.013 127.72 121.473 128.527 122.073 129.26C122.686 129.98 123.399 130.533 124.213 130.92L123.093 132.58C122.213 132.153 121.439 131.527 120.773 130.7C120.119 129.873 119.606 128.933 119.233 127.88C118.859 129.04 118.333 130.073 117.653 130.98C116.973 131.873 116.186 132.547 115.293 133L114.133 131.32C114.959 130.92 115.679 130.34 116.293 129.58C116.906 128.807 117.373 127.953 117.693 127.02C118.026 126.073 118.193 125.14 118.193 124.22V122.9H114.713V121.2H123.553V122.9H120.233V124.22ZM127.033 125.98H129.453V127.74H127.033V136.12H124.993V119.56H127.033V125.98Z" fill="#F5F5FA"/>
<path d="M153.77 199V183.96H156.19V196H162.17V199H153.77ZM169.434 199.38C166.394 199.38 164.174 196.2 164.174 191.66C164.174 187.28 166.234 183.6 169.774 183.6C172.154 183.6 173.854 185.26 174.634 187.94L172.254 188.64C171.774 187.22 170.854 186.62 169.794 186.62C167.774 186.62 166.634 188.84 166.634 191.64C166.634 194.66 167.954 196.38 169.654 196.38C170.734 196.38 171.854 195.66 172.314 193.84H169.934V190.86H174.754V199H172.574L172.434 197.82C171.694 198.86 170.654 199.38 169.434 199.38ZM177.703 199V183.96H182.583C185.263 183.96 186.743 185.38 186.743 187.98C186.743 189.36 186.343 190.46 185.543 191.04C186.643 191.54 187.263 192.86 187.263 194.44C187.263 197.12 185.423 199 182.823 199H177.703ZM180.103 189.62H182.263C183.623 189.62 184.363 189.2 184.363 188.28C184.363 187.36 183.623 186.94 182.263 186.94H180.103V189.62ZM180.103 196H182.843C184.183 196 184.823 195.5 184.823 194.28C184.823 193.06 184.183 192.56 182.843 192.56H180.103V196ZM192.773 199V186.94H189.133V183.96H198.833V186.94H195.173V199H192.773ZM206.392 199.38C202.952 199.38 200.472 196.06 200.472 191.54C200.472 187.08 202.812 183.6 206.392 183.6C209.972 183.6 212.272 187.1 212.272 191.54C212.272 193.48 211.832 195.2 211.032 196.52C211.452 197.06 211.832 197.56 212.172 198.02L210.552 200.02C210.192 199.54 209.772 199 209.332 198.44C208.492 199.04 207.492 199.38 206.392 199.38ZM206.392 196.4C206.792 196.4 207.152 196.32 207.492 196.16C206.952 195.52 206.452 194.92 205.992 194.42L207.592 192.4C208.092 192.94 208.652 193.6 209.232 194.3C209.572 193.52 209.772 192.58 209.772 191.52C209.772 188.74 208.472 186.6 206.392 186.6C204.312 186.6 203.012 188.74 203.012 191.52C203.012 194.38 204.452 196.4 206.392 196.4ZM215.161 199V183.96H217.601V199H215.161ZM224.485 197.7V193.14H220.785V190.46H224.485V185.9H226.545V190.46H230.245V193.14H226.545V197.7H224.485Z" fill="#F5F5FA"/>
</svg>
