<svg width="288" height="288" viewBox="0 0 288 288" fill="none" xmlns="http://www.w3.org/2000/svg">
<path d="M71.2122 122.38H66.8722V123.94H71.0522V125.54H66.8722V127.22C67.8855 127.207 68.7522 127.173 69.4722 127.12C70.1922 127.067 70.9189 126.973 71.6522 126.84L71.8722 128.54C70.9922 128.7 70.1189 128.807 69.2522 128.86C68.3989 128.913 67.3055 128.94 65.9722 128.94H64.9122V120.7H71.2122V122.38ZM78.0122 129.64H76.0922V125.38H74.4722V129.54H72.5722V119.88H74.4722V123.68H76.0922V119.58H78.0122V129.64ZM78.0122 136.12H75.9922V132.06H67.0122V130.4H78.0122V136.12ZM82.9661 124.86H85.4861V121.06H87.3861V132.14H81.0461V121.06H82.9661V124.86ZM85.4861 130.44V126.52H82.9661V130.44H85.4861ZM94.4061 136.12H92.4461V127.66H90.7861V135.32H88.8661V119.84H90.7861V125.94H92.4461V119.56H94.4061V136.12ZM110.2 136.12H108.14V119.56H110.2V136.12ZM105.42 121.32C105.42 123.96 104.847 126.273 103.7 128.26C102.553 130.247 100.64 131.9 97.96 133.22L96.88 131.54C98.9467 130.527 100.493 129.327 101.52 127.94C102.547 126.54 103.147 124.88 103.32 122.96H97.74V121.32H105.42ZM118.834 123.48C118.834 125.013 119.174 126.447 119.854 127.78C120.534 129.113 121.481 130.08 122.694 130.68L121.454 132.36C120.614 131.92 119.887 131.293 119.274 130.48C118.661 129.667 118.181 128.727 117.834 127.66C117.474 128.807 116.967 129.813 116.314 130.68C115.661 131.547 114.887 132.213 113.994 132.68L112.774 130.96C113.614 130.547 114.334 129.953 114.934 129.18C115.547 128.393 116.007 127.507 116.314 126.52C116.634 125.533 116.794 124.52 116.794 123.48V120.88H118.834V123.48ZM125.654 126.02H128.074V127.82H125.654V136.12H123.614V119.56H125.654V126.02Z" fill="#F5F5FA"/>
<path d="M190.466 200.12H188.506V191.74H186.946V199.32H185.026V183.84H186.946V190.02H188.506V183.56H190.466V200.12ZM181.566 187.76C181.566 189.32 181.833 190.713 182.366 191.94C182.913 193.167 183.753 194.08 184.886 194.68L183.706 196.28C182.266 195.507 181.239 194.173 180.626 192.28C180.053 194.427 179.019 195.96 177.526 196.88L176.266 195.26C177.413 194.607 178.253 193.62 178.786 192.3C179.319 190.98 179.586 189.467 179.586 187.76V187.02H176.766V185.34H184.146V187.02H181.566V187.76ZM195.54 190.96C197.927 190.933 200.107 190.707 202.08 190.28L202.3 191.98C200.087 192.447 197.607 192.68 194.86 192.68H193.5V184.7H195.54V190.96ZM205.48 188.32H207.7V190.04H205.48V195.48H203.44V183.58H205.48V188.32ZM206.04 199.8H195.2V194.36H197.26V198.12H206.04V199.8Z" fill="#F5F5FA"/>
</svg>
