<svg width="288" height="288" viewBox="0 0 288 288" fill="none" xmlns="http://www.w3.org/2000/svg">
<path d="M77.3522 129.88H66.0722V120.84H77.2122V122.54H68.1522V124.5H76.8322V126.14H68.1522V128.22H77.3522V129.88ZM78.9522 134.14H64.2922V132.42H78.9522V134.14ZM86.7061 127.4H83.0061V130.46C83.9261 130.447 84.7728 130.413 85.5461 130.36C86.3328 130.293 87.1394 130.18 87.9661 130.02L88.1061 131.72C87.1328 131.907 86.1928 132.033 85.2861 132.1C84.3928 132.153 83.3461 132.18 82.1461 132.18H81.0461V125.72H84.7461V122.94H81.0061V121.28H86.7061V127.4ZM94.3661 136.12H92.4261V119.56H94.3661V136.12ZM91.0661 135.28H89.1661V126.98H87.4061V125.3H89.1661V119.88H91.0661V135.28ZM110.16 136.14H108.1V119.56H110.16V136.14ZM101.52 120.76C102.32 120.76 103.033 121 103.66 121.48C104.3 121.96 104.8 122.647 105.16 123.54C105.52 124.42 105.7 125.447 105.7 126.62C105.7 127.793 105.52 128.827 105.16 129.72C104.8 130.6 104.3 131.28 103.66 131.76C103.033 132.24 102.32 132.48 101.52 132.48C100.707 132.48 99.98 132.24 99.34 131.76C98.7 131.28 98.2 130.6 97.84 129.72C97.48 128.827 97.3 127.793 97.3 126.62C97.3 125.447 97.48 124.42 97.84 123.54C98.2 122.647 98.7 121.96 99.34 121.48C99.98 121 100.707 120.76 101.52 120.76ZM101.52 122.64C100.827 122.64 100.28 122.993 99.88 123.7C99.48 124.393 99.28 125.367 99.28 126.62C99.28 127.86 99.48 128.833 99.88 129.54C100.28 130.233 100.827 130.58 101.52 130.58C102.187 130.58 102.72 130.233 103.12 129.54C103.52 128.833 103.72 127.86 103.72 126.62C103.72 125.38 103.52 124.407 103.12 123.7C102.72 122.993 102.187 122.64 101.52 122.64ZM126.534 136.14H124.494V126.48H119.954V124.78H124.494V119.56H126.534V136.14ZM115.954 130.46C118.341 130.42 120.507 130.207 122.454 129.82L122.654 131.54C121.467 131.793 120.281 131.967 119.094 132.06C117.921 132.153 116.634 132.2 115.234 132.2H113.894V121.36H115.954V130.46Z" fill="#F5F5FA"/>
<path d="M183.079 193.14H168.419V191.46H174.739V189.92H170.219V184.3H181.299V185.92H172.259V188.28H181.379V189.92H176.759V191.46H183.079V193.14ZM175.719 194.06C177.466 194.06 178.826 194.327 179.799 194.86C180.786 195.393 181.279 196.14 181.279 197.1C181.279 198.06 180.786 198.8 179.799 199.32C178.812 199.853 177.452 200.12 175.719 200.12C173.972 200.12 172.599 199.853 171.599 199.32C170.612 198.8 170.119 198.06 170.119 197.1C170.119 196.14 170.612 195.393 171.599 194.86C172.599 194.327 173.972 194.06 175.719 194.06ZM175.719 195.68C174.559 195.68 173.679 195.8 173.079 196.04C172.492 196.28 172.199 196.633 172.199 197.1C172.199 198.047 173.372 198.52 175.719 198.52C178.052 198.52 179.219 198.047 179.219 197.1C179.219 196.633 178.919 196.28 178.319 196.04C177.732 195.8 176.866 195.68 175.719 195.68ZM199.293 191.9H192.993V193.12H197.493V197.22H188.433V198.38H197.913V199.98H186.413V195.74H195.473V194.7H186.373V193.12H190.933V191.9H184.673V190.26H199.293V191.9ZM197.433 189.22H186.513V184.06H197.433V189.22ZM188.533 187.6H195.393V185.7H188.533V187.6ZM214.527 196.04H212.447V194.08H209.227V192.44H212.447V183.58H214.527V196.04ZM214.887 199.8H203.107V194.76H205.127V198.12H214.887V199.8ZM200.847 189.92C203.807 189.893 206.047 189.833 207.567 189.74C207.754 188.54 207.86 187.327 207.887 186.1H202.287V184.44H209.927V185.06C209.927 186.687 209.82 188.193 209.607 189.58L211.207 189.38L211.367 190.86C210.007 191.1 208.62 191.273 207.207 191.38V194.98H205.167V191.5C203.874 191.553 202.514 191.58 201.087 191.58L200.847 189.92Z" fill="#F5F5FA"/>
</svg>
