<svg width="288" height="288" viewBox="0 0 288 288" fill="none" xmlns="http://www.w3.org/2000/svg">
<path d="M87.1861 120.62C87.1861 122.78 86.6928 124.613 85.7061 126.12C84.7328 127.613 83.1661 128.82 81.0061 129.74L80.0461 128.2C81.0194 127.8 81.8394 127.353 82.5061 126.86C83.1728 126.367 83.7128 125.807 84.1261 125.18L80.4061 125.6L80.1261 123.92L84.8461 123.66C84.9928 123.193 85.0861 122.74 85.1261 122.3H80.8261V120.62H87.1861ZM93.7661 129.26H91.8261V125.22H90.2261V129.14H88.3061V119.88H90.2261V123.52H91.8261V119.58H93.7661V129.26ZM93.7661 135.92H82.9461V129.96H93.7661V135.92ZM84.9461 134.24H91.7661V131.62H84.9461V134.24ZM105.6 122.78H103.96V130.3C104.84 130.233 105.527 130.167 106.02 130.1L106.14 131.62C104.687 131.873 103.153 132.047 101.54 132.14C99.9267 132.22 98.22 132.26 96.42 132.26L96.22 130.54L98.12 130.52V122.78H96.66V121.1H105.6V122.78ZM109.76 136.12H107.74V127.32H105.12V125.64H107.74V119.56H109.76V136.12ZM100.1 130.48C100.713 130.48 101.347 130.46 102 130.42V122.78H100.1V130.48Z" fill="#F5F5FA"/>
<path d="M173.692 200.12H171.632V183.56H173.692V200.12ZM168.912 185.32C168.912 187.96 168.339 190.273 167.192 192.26C166.046 194.247 164.132 195.9 161.452 197.22L160.372 195.54C162.439 194.527 163.986 193.327 165.012 191.94C166.039 190.54 166.639 188.88 166.812 186.96H161.232V185.32H168.912ZM190.386 187.02H177.286V185.32H182.826V183.52H184.866V185.32H190.386V187.02ZM191.206 195.98H184.866V200.14H182.826V195.98H176.546V194.28H191.206V195.98ZM183.866 187.76C185.586 187.76 186.919 188 187.866 188.48C188.826 188.96 189.306 189.653 189.306 190.56C189.306 191.453 188.826 192.147 187.866 192.64C186.906 193.133 185.573 193.38 183.866 193.38C182.146 193.38 180.806 193.133 179.846 192.64C178.886 192.147 178.406 191.453 178.406 190.56C178.406 189.653 178.886 188.96 179.846 188.48C180.806 188 182.146 187.76 183.866 187.76ZM183.866 189.32C181.639 189.32 180.526 189.733 180.526 190.56C180.526 191.387 181.639 191.8 183.866 191.8C186.079 191.8 187.186 191.387 187.186 190.56C187.186 189.733 186.079 189.32 183.866 189.32ZM206.26 193.4H204.2V189.38H201.52V187.66H204.2V183.56H206.26V193.4ZM200.82 193.82C202.527 193.82 203.86 194.1 204.82 194.66C205.793 195.207 206.28 195.98 206.28 196.98C206.28 197.967 205.793 198.733 204.82 199.28C203.86 199.84 202.527 200.12 200.82 200.12C199.1 200.12 197.753 199.84 196.78 199.28C195.82 198.733 195.34 197.967 195.34 196.98C195.34 195.98 195.82 195.207 196.78 194.66C197.753 194.1 199.1 193.82 200.82 193.82ZM200.82 195.42C199.713 195.42 198.86 195.553 198.26 195.82C197.66 196.087 197.36 196.473 197.36 196.98C197.36 197.473 197.66 197.853 198.26 198.12C198.86 198.387 199.713 198.52 200.82 198.52C201.927 198.52 202.773 198.387 203.36 198.12C203.96 197.853 204.26 197.473 204.26 196.98C204.26 196.473 203.96 196.087 203.36 195.82C202.773 195.553 201.927 195.42 200.82 195.42ZM198.74 186.34C198.74 187.393 199.06 188.38 199.7 189.3C200.353 190.207 201.273 190.867 202.46 191.28L201.46 192.94C200.607 192.633 199.86 192.187 199.22 191.6C198.593 191 198.1 190.307 197.74 189.52C197.38 190.413 196.867 191.193 196.2 191.86C195.533 192.513 194.733 193.013 193.8 193.36L192.74 191.72C193.993 191.28 194.953 190.567 195.62 189.58C196.3 188.593 196.64 187.52 196.64 186.36V186.32H193.34V184.62H202V186.32H198.74V186.34ZM214.254 184.7C215.094 184.7 215.847 184.873 216.514 185.22C217.194 185.553 217.721 186.027 218.094 186.64C218.481 187.253 218.674 187.947 218.674 188.72C218.674 189.493 218.481 190.187 218.094 190.8C217.721 191.4 217.194 191.873 216.514 192.22C215.847 192.553 215.094 192.72 214.254 192.72C213.427 192.72 212.674 192.553 211.994 192.22C211.327 191.873 210.801 191.4 210.414 190.8C210.027 190.187 209.834 189.493 209.834 188.72C209.834 187.947 210.027 187.253 210.414 186.64C210.801 186.027 211.327 185.553 211.994 185.22C212.674 184.873 213.427 184.7 214.254 184.7ZM214.254 186.5C213.561 186.5 212.987 186.7 212.534 187.1C212.081 187.5 211.854 188.04 211.854 188.72C211.854 189.387 212.081 189.92 212.534 190.32C212.987 190.72 213.561 190.92 214.254 190.92C214.961 190.92 215.541 190.72 215.994 190.32C216.447 189.92 216.674 189.387 216.674 188.72C216.674 188.04 216.447 187.5 215.994 187.1C215.541 186.7 214.961 186.5 214.254 186.5ZM222.434 200.14H220.394V183.56H222.434V200.14ZM209.134 194.98C211.081 194.98 212.901 194.947 214.594 194.88C216.301 194.813 217.914 194.667 219.434 194.44L219.614 195.98C218.041 196.287 216.441 196.487 214.814 196.58C213.187 196.66 211.374 196.7 209.374 196.7L209.134 194.98Z" fill="#F5F5FA"/>
</svg>
