<svg width="288" height="288" viewBox="0 0 288 288" fill="none" xmlns="http://www.w3.org/2000/svg">
<path d="M86.3261 123.48C86.3261 125.013 86.6661 126.447 87.3461 127.78C88.0261 129.113 88.9728 130.08 90.1861 130.68L88.9461 132.36C88.1061 131.92 87.3794 131.293 86.7661 130.48C86.1528 129.667 85.6728 128.727 85.3261 127.66C84.9661 128.807 84.4594 129.813 83.8061 130.68C83.1528 131.547 82.3794 132.213 81.4861 132.68L80.2661 130.96C81.1061 130.547 81.8261 129.953 82.4261 129.18C83.0394 128.393 83.4994 127.507 83.8061 126.52C84.1261 125.533 84.2861 124.52 84.2861 123.48V120.88H86.3261V123.48ZM93.1461 126.02H95.5661V127.82H93.1461V136.12H91.1061V119.56H93.1461V126.02ZM102.76 123.48C102.76 125.08 103.1 126.553 103.78 127.9C104.473 129.233 105.447 130.193 106.7 130.78L105.48 132.46C103.72 131.553 102.473 129.947 101.74 127.64C101.38 128.8 100.873 129.827 100.22 130.72C99.5667 131.6 98.7933 132.273 97.9 132.74L96.64 131.04C97.4933 130.627 98.22 130.027 98.82 129.24C99.4333 128.453 99.8933 127.56 100.2 126.56C100.52 125.56 100.68 124.533 100.68 123.48V120.88H102.76V123.48ZM110.26 136.14H108.24V126.58H104.94V124.88H108.24V119.56H110.26V136.14Z" fill="#F5F5FA"/>
<path d="M179.286 190.96C181.673 190.933 183.853 190.707 185.826 190.28L186.046 191.98C183.833 192.447 181.353 192.68 178.606 192.68H177.246V184.7H179.286V190.96ZM189.226 188.32H191.446V190.04H189.226V195.48H187.186V183.58H189.226V188.32ZM189.786 199.8H178.946V194.36H181.006V198.12H189.786V199.8ZM201.36 192.84H193.62V184.92H201.36V192.84ZM195.66 191.16H199.38V186.58H195.66V191.16ZM206.18 195.38H204.14V183.58H206.18V195.38ZM206.62 199.7H195.54V194.3H197.6V198H206.62V199.7Z" fill="#F5F5FA"/>
</svg>
