<svg width="290" height="417" viewBox="0 0 290 417" fill="none" xmlns="http://www.w3.org/2000/svg">
<circle cx="145" cy="156.847" r="144" fill="#F5F5FA" stroke="#1E1E28" stroke-width="2"/>
<path d="M57.1161 153.103C57.1161 154.437 57.3507 155.637 57.8201 156.703C58.3001 157.77 59.0574 158.554 60.0921 159.055L58.8281 160.783C57.5587 160.143 56.6414 159.013 56.0761 157.391C55.4787 159.141 54.4761 160.357 53.0681 161.039L51.8201 159.279C52.9187 158.767 53.7187 157.962 54.2201 156.863C54.7321 155.754 54.9881 154.501 54.9881 153.103V151.311H57.1161V153.103ZM62.5401 155.391H64.3801V157.215H62.5401V163.775H60.4281V150.319H62.5401V155.391ZM75.8572 163.775H73.7292V150.319H75.8572V163.775ZM64.7852 159.887C66.1292 159.887 67.1852 159.877 67.9532 159.855V158.847C67.2599 158.698 66.7105 158.405 66.3052 157.967C65.8999 157.53 65.6972 157.007 65.6972 156.399C65.6972 155.909 65.8359 155.477 66.1132 155.103C66.3905 154.719 66.7799 154.421 67.2812 154.207C67.7825 153.994 68.3585 153.887 69.0092 153.887C69.6599 153.887 70.2359 153.994 70.7372 154.207C71.2385 154.421 71.6279 154.719 71.9052 155.103C72.1932 155.477 72.3372 155.909 72.3372 156.399C72.3372 157.007 72.1292 157.53 71.7132 157.967C71.3079 158.405 70.7532 158.698 70.0492 158.847V159.791C71.2012 159.738 72.2145 159.647 73.0892 159.519L73.2332 161.087C71.9745 161.322 70.6839 161.477 69.3612 161.551C68.0385 161.615 66.5985 161.647 65.0412 161.647L64.7852 159.887ZM72.9772 153.439H65.0252V151.775H67.9532V150.399H70.0812V151.775H72.9772V153.439ZM69.0092 155.519C68.6145 155.519 68.2945 155.594 68.0492 155.743C67.8145 155.893 67.6972 156.111 67.6972 156.399C67.6972 156.709 67.8145 156.938 68.0492 157.087C68.2945 157.237 68.6145 157.311 69.0092 157.311C69.4252 157.311 69.7505 157.237 69.9852 157.087C70.2199 156.938 70.3372 156.709 70.3372 156.399C70.3372 156.111 70.2145 155.893 69.9692 155.743C69.7345 155.594 69.4145 155.519 69.0092 155.519ZM89.3183 158.463H84.5023V160.623H82.3743V158.463H77.3183V156.783H89.3183V158.463ZM88.0063 163.551H78.7263V159.503H80.8543V161.839H88.0063V163.551ZM83.3343 150.527C84.2836 150.527 85.1156 150.645 85.8303 150.879C86.5556 151.114 87.1156 151.445 87.5103 151.871C87.905 152.287 88.1023 152.778 88.1023 153.343C88.1023 153.919 87.905 154.421 87.5103 154.847C87.1156 155.263 86.561 155.589 85.8463 155.823C85.1316 156.047 84.2943 156.159 83.3343 156.159C82.385 156.159 81.5476 156.047 80.8223 155.823C80.097 155.589 79.537 155.263 79.1423 154.847C78.7476 154.421 78.5503 153.919 78.5503 153.343C78.5503 152.789 78.7476 152.298 79.1423 151.871C79.5476 151.445 80.1076 151.114 80.8223 150.879C81.5476 150.645 82.385 150.527 83.3343 150.527ZM83.3343 152.239C82.5343 152.239 81.9156 152.33 81.4783 152.511C81.041 152.693 80.8223 152.97 80.8223 153.343C80.8223 153.706 81.0356 153.978 81.4623 154.159C81.8996 154.341 82.5236 154.431 83.3343 154.431C84.9983 154.431 85.8303 154.069 85.8303 153.343C85.8303 152.97 85.6116 152.693 85.1743 152.511C84.7476 152.33 84.1343 152.239 83.3343 152.239ZM101.963 158.239H89.9474V156.543H94.9074V155.567H91.3714V150.911H100.555V152.559H93.4994V153.871H100.587V155.567H97.0034V156.543H101.963V158.239ZM95.9314 158.815C97.3714 158.815 98.4914 159.034 99.2914 159.471C100.102 159.898 100.507 160.511 100.507 161.311C100.507 162.101 100.102 162.709 99.2914 163.135C98.4808 163.573 97.3608 163.791 95.9314 163.791C94.4808 163.791 93.3448 163.573 92.5234 163.135C91.7021 162.709 91.2914 162.101 91.2914 161.311C91.2914 160.511 91.7021 159.898 92.5234 159.471C93.3448 159.034 94.4808 158.815 95.9314 158.815ZM95.9314 160.447C95.0781 160.447 94.4488 160.517 94.0434 160.655C93.6488 160.794 93.4514 161.013 93.4514 161.311C93.4514 161.61 93.6488 161.829 94.0434 161.967C94.4381 162.095 95.0674 162.159 95.9314 162.159C96.7741 162.159 97.3928 162.095 97.7874 161.967C98.1821 161.829 98.3794 161.61 98.3794 161.311C98.3794 161.013 98.1768 160.794 97.7714 160.655C97.3768 160.517 96.7634 160.447 95.9314 160.447ZM112.886 160.639H106.47V151.487H112.886V160.639ZM108.582 158.927H110.838V153.167H108.582V158.927ZM116.886 163.807H114.742V150.319H116.886V163.807ZM129.499 163.807H127.371V150.319H129.499V163.807ZM125.643 153.199H121.339V158.847C122.587 158.837 123.574 158.81 124.299 158.767C125.024 158.714 125.75 158.618 126.475 158.479L126.667 160.239C125.856 160.41 124.998 160.522 124.091 160.575C123.195 160.629 121.968 160.655 120.411 160.655H119.227V151.471H125.643V153.199ZM134.72 151.215C135.616 151.215 136.368 151.562 136.976 152.255C137.595 152.938 137.974 153.877 138.112 155.071H140.112V150.319H142.208V163.807H140.112V156.783H138.144C138.08 157.626 137.894 158.362 137.584 158.991C137.275 159.61 136.875 160.085 136.384 160.415C135.894 160.746 135.339 160.911 134.72 160.911C134.059 160.911 133.462 160.714 132.928 160.319C132.406 159.925 131.995 159.365 131.696 158.639C131.408 157.903 131.264 157.045 131.264 156.063C131.264 155.093 131.408 154.239 131.696 153.503C131.995 152.767 132.406 152.202 132.928 151.807C133.462 151.413 134.059 151.215 134.72 151.215ZM134.72 153.167C134.283 153.167 133.931 153.418 133.664 153.919C133.408 154.41 133.28 155.125 133.28 156.063C133.28 156.991 133.408 157.701 133.664 158.191C133.931 158.682 134.283 158.927 134.72 158.927C135.168 158.927 135.52 158.687 135.776 158.207C136.043 157.717 136.176 157.002 136.176 156.063C136.176 155.125 136.043 154.41 135.776 153.919C135.52 153.418 135.168 153.167 134.72 153.167ZM158.011 163.807H155.883V150.319H158.011V163.807ZM153.899 156.735H149.803V158.943C150.827 158.922 151.755 158.879 152.587 158.815C153.419 158.751 154.256 158.645 155.099 158.495L155.259 160.223C154.32 160.405 153.371 160.527 152.411 160.591C151.451 160.645 150.261 160.671 148.843 160.671H147.643V155.071H151.723V153.135H147.627V151.391H153.899V156.735ZM170.704 163.807H168.608V156.655H166.496V154.927H168.608V150.319H170.704V163.807ZM166.304 153.135H162.272V155.151H165.84V156.815H162.272V159.103C164.021 159.071 165.546 158.959 166.848 158.767L167.04 160.479C166.133 160.618 165.221 160.714 164.304 160.767C163.386 160.821 162.362 160.847 161.232 160.847H160.16V151.391H166.304V153.135ZM183.301 163.807H181.173V156.767H179.269V155.039H181.173V150.319H183.301V163.807ZM178.549 156.559H174.741V158.927C175.701 158.917 176.538 158.89 177.253 158.847C177.968 158.794 178.693 158.703 179.429 158.575L179.605 160.335C178.72 160.485 177.824 160.586 176.917 160.639C176.021 160.682 174.965 160.703 173.749 160.703H172.613V154.879H176.485V153.135H172.581V151.391H178.549V156.559ZM190.074 153.103C190.074 154.469 190.33 155.69 190.842 156.767C191.365 157.845 192.181 158.618 193.29 159.087L192.042 160.815C190.655 160.175 189.653 159.029 189.034 157.375C188.415 159.221 187.349 160.49 185.834 161.183L184.618 159.375C185.749 158.885 186.581 158.079 187.114 156.959C187.647 155.829 187.914 154.543 187.914 153.103V151.311H190.074V153.103ZM195.818 163.807H193.69V150.319H195.818V163.807ZM201.631 151.183C202.325 151.183 202.949 151.327 203.503 151.615C204.069 151.903 204.511 152.303 204.831 152.815C205.162 153.327 205.327 153.903 205.327 154.543C205.327 155.183 205.162 155.759 204.831 156.271C204.511 156.783 204.069 157.183 203.503 157.471C202.949 157.759 202.325 157.903 201.631 157.903C200.949 157.903 200.325 157.759 199.759 157.471C199.205 157.183 198.762 156.783 198.431 156.271C198.111 155.759 197.951 155.183 197.951 154.543C197.951 153.903 198.111 153.327 198.431 152.815C198.762 152.303 199.205 151.903 199.759 151.615C200.325 151.327 200.949 151.183 201.631 151.183ZM201.631 153.039C201.173 153.039 200.794 153.173 200.495 153.439C200.197 153.706 200.047 154.074 200.047 154.543C200.047 155.023 200.197 155.397 200.495 155.663C200.794 155.919 201.173 156.047 201.631 156.047C202.101 156.047 202.485 155.919 202.783 155.663C203.082 155.397 203.231 155.023 203.231 154.543C203.231 154.074 203.082 153.706 202.783 153.439C202.485 153.173 202.101 153.039 201.631 153.039ZM208.527 163.807H206.399V150.319H208.527V163.807ZM197.455 159.391C199.013 159.391 200.479 159.365 201.855 159.311C203.231 159.258 204.522 159.146 205.727 158.975L205.871 160.543C204.602 160.799 203.306 160.965 201.983 161.039C200.671 161.114 199.237 161.151 197.679 161.151L197.455 159.391ZM225.258 159.663H220.282V163.775H218.17V159.663H213.258V157.983H225.258V159.663ZM216.714 152.239H221.77V150.831H223.898V156.815H214.634V150.831H216.714V152.239ZM221.77 155.087V153.919H216.714V155.087H221.77ZM236.783 152.479H233.439C233.631 152.927 234.047 153.322 234.687 153.663C235.337 154.005 236.244 154.229 237.407 154.335L236.639 155.999C235.401 155.871 234.383 155.594 233.583 155.167C232.793 154.741 232.223 154.202 231.871 153.551C231.519 154.213 230.948 154.757 230.159 155.183C229.369 155.599 228.351 155.871 227.103 155.999L226.383 154.335C227.524 154.229 228.415 154.005 229.055 153.663C229.695 153.322 230.111 152.927 230.303 152.479H227.007V150.783H236.783V152.479ZM237.855 158.495H225.887V156.799H230.783V155.135H232.911V156.799H237.855V158.495ZM236.431 163.775H234.303V161.055H227.247V159.343H236.431V163.775Z" fill="#1E1E28"/>
<rect width="152" height="48" transform="translate(69 0.501709)" fill="#F5F5FA"/>
<path d="M97.2596 27.0137H94.6996V31.4297H92.6036V27.0137H90.0596V31.4297H87.9476V27.0137H85.2596V25.2857H97.2596V27.0137ZM92.4116 18.9337C92.4116 19.467 92.5662 19.995 92.8756 20.5177C93.1956 21.0404 93.6862 21.499 94.3476 21.8937C95.0196 22.2777 95.8569 22.5337 96.8596 22.6617L96.0596 24.4217C94.9289 24.251 93.9636 23.9204 93.1636 23.4297C92.3636 22.939 91.7396 22.331 91.2916 21.6057C90.8542 22.331 90.2302 22.939 89.4196 23.4297C88.6089 23.9204 87.6329 24.251 86.4916 24.4217L85.6916 22.6617C86.7049 22.5337 87.5422 22.2724 88.2036 21.8777C88.8756 21.483 89.3662 21.0244 89.6756 20.5017C89.9956 19.979 90.1556 19.4564 90.1556 18.9337V18.3097H92.4116V18.9337ZM105.521 20.7737H104.337V26.5177C104.827 26.4857 105.318 26.4377 105.809 26.3737L105.921 27.9257C104.747 28.1497 103.521 28.2937 102.241 28.3577C100.961 28.4217 99.5634 28.4537 98.0487 28.4537L97.8727 26.7257L99.2167 26.7097V20.7737H98.2087V19.0617H105.521V20.7737ZM109.041 31.4297H106.945V24.5017H105.185V22.7897H106.945V17.9737H109.041V31.4297ZM102.305 26.6457V20.7737H101.281V26.6777L102.305 26.6457ZM117.558 19.6537C117.558 20.3044 117.718 20.9444 118.038 21.5737C118.368 22.1924 118.875 22.7364 119.558 23.2057C120.24 23.675 121.099 24.0004 122.134 24.1817L121.222 25.9577C120.08 25.7444 119.104 25.3444 118.294 24.7577C117.494 24.171 116.875 23.4564 116.438 22.6137C116 23.4564 115.376 24.171 114.566 24.7577C113.755 25.3337 112.779 25.7337 111.638 25.9577L110.742 24.1817C111.755 24.0004 112.603 23.675 113.286 23.2057C113.968 22.7257 114.475 22.1764 114.806 21.5577C115.136 20.9284 115.302 20.2937 115.302 19.6537V18.7257H117.558V19.6537ZM122.502 29.8617H110.502V28.0697H122.502V29.8617ZM135.083 26.4697H123.099V24.7737H128.011V24.1337H124.555V18.2137H133.739V19.8617H126.683V20.3897H133.451V21.9417H126.683V22.4697H133.851V24.1337H130.155V24.7737H135.083V26.4697ZM133.675 31.2857H124.491V27.0777H133.675V31.2857ZM126.571 29.5897H131.595V28.7417H126.571V29.5897ZM146.768 31.4617H144.64V17.9737H146.768V31.4617ZM139.6 18.8697C140.261 18.8697 140.859 19.067 141.392 19.4617C141.925 19.8564 142.341 20.4217 142.64 21.1577C142.949 21.8937 143.104 22.747 143.104 23.7177C143.104 24.699 142.949 25.5577 142.64 26.2937C142.341 27.019 141.925 27.579 141.392 27.9737C140.869 28.3684 140.272 28.5657 139.6 28.5657C138.928 28.5657 138.32 28.3684 137.776 27.9737C137.243 27.579 136.821 27.0137 136.512 26.2777C136.213 25.5417 136.064 24.6884 136.064 23.7177C136.064 22.747 136.213 21.8937 136.512 21.1577C136.821 20.4217 137.243 19.8564 137.776 19.4617C138.32 19.067 138.928 18.8697 139.6 18.8697ZM139.6 20.8217C139.131 20.8217 138.768 21.067 138.512 21.5577C138.256 22.0484 138.128 22.7684 138.128 23.7177C138.128 24.6564 138.256 25.371 138.512 25.8617C138.768 26.3417 139.131 26.5817 139.6 26.5817C140.048 26.5817 140.4 26.3417 140.656 25.8617C140.923 25.371 141.056 24.6564 141.056 23.7177C141.056 22.7684 140.923 22.0484 140.656 21.5577C140.4 21.067 140.048 20.8217 139.6 20.8217ZM163.611 29.9097H151.611V28.1657H156.539V25.8457H152.843V18.7737H154.971V20.7417H160.219V18.7737H162.331V25.8457H158.651V28.1657H163.611V29.9097ZM160.219 24.1177V22.4377H154.971V24.1177H160.219ZM174.896 23.1417H165.68V18.4377H167.776V21.4777H174.896V23.1417ZM176.208 26.1337H164.208V24.4697H176.208V26.1337ZM174.96 31.1417H165.52V27.1257H167.68V29.4297H174.96V31.1417ZM192.09 26.2297H187.338V28.3577H185.258V26.2297H180.09V24.5017H192.09V26.2297ZM190.57 23.5897H181.562V18.5337H190.57V23.5897ZM183.658 21.9257H188.49V20.1817H183.658V21.9257ZM190.778 31.2057H181.466V27.2857H183.578V29.5097H190.778V31.2057ZM204.127 31.4297H202.111V17.9737H204.127V31.4297ZM201.423 30.8217H199.439V27.1417L198.271 28.6457C197.226 28.0164 196.469 26.9764 195.999 25.5257C195.519 27.1257 194.746 28.267 193.679 28.9497L192.431 27.3657C193.338 26.7684 193.983 25.9524 194.367 24.9177C194.751 23.883 194.943 22.731 194.943 21.4617V20.9657H192.975V19.2697H198.815V20.9657H197.007V21.4617C197.007 24.1924 197.818 26.0537 199.439 27.0457V24.2457H197.871V22.5017H199.439V18.1497H201.423V30.8217Z" fill="#1E1E28"/>
<path d="M5.004 324.685C5.004 325.796 5.144 326.776 5.424 327.625C5.704 328.475 6.208 329.147 6.936 329.641L5.956 331.111C5.088 330.561 4.46733 329.693 4.094 328.507C3.66467 329.842 2.99267 330.799 2.078 331.377L0.958 329.949C2.442 328.997 3.184 327.271 3.184 324.769V322.851H5.004V324.685ZM11.206 333.659H9.414V321.885H11.206V333.659ZM8.784 333.113H7.048V327.289H5.774V325.763H7.048V322.025H8.784V333.113ZM16.5725 323.719C16.5725 324.457 16.7732 325.119 17.1745 325.707C17.5758 326.286 18.2105 326.706 19.0785 326.967L18.1405 328.437C17.0018 328.064 16.1758 327.378 15.6625 326.379C15.1305 327.574 14.2485 328.372 13.0165 328.773L12.0365 327.289C12.9698 326.972 13.6465 326.482 14.0665 325.819C14.4865 325.147 14.6965 324.382 14.6965 323.523V322.529H16.5725V323.719ZM21.4025 324.517H22.8725V326.071H21.4025V328.787H19.5545V321.885H21.4025V324.517ZM17.5945 328.997C18.8078 328.997 19.7645 329.207 20.4645 329.627C21.1738 330.038 21.5285 330.607 21.5285 331.335C21.5285 332.063 21.1738 332.633 20.4645 333.043C19.7645 333.454 18.8078 333.659 17.5945 333.659C16.3625 333.659 15.3918 333.454 14.6825 333.043C13.9732 332.633 13.6185 332.063 13.6185 331.335C13.6185 330.607 13.9732 330.038 14.6825 329.627C15.4012 329.207 16.3718 328.997 17.5945 328.997ZM17.5945 330.481C16.1758 330.481 15.4665 330.766 15.4665 331.335C15.4665 331.634 15.6438 331.853 15.9985 331.993C16.3532 332.124 16.8852 332.189 17.5945 332.189C18.3038 332.189 18.8265 332.124 19.1625 331.993C19.5078 331.853 19.6805 331.634 19.6805 331.335C19.6805 330.766 18.9852 330.481 17.5945 330.481ZM28.519 322.039C29.863 322.039 30.899 322.212 31.627 322.557C32.3643 322.903 32.733 323.397 32.733 324.041C32.733 324.676 32.3643 325.166 31.627 325.511C30.8896 325.857 29.8536 326.029 28.519 326.029C27.1656 326.029 26.125 325.857 25.397 325.511C24.669 325.166 24.305 324.676 24.305 324.041C24.305 323.388 24.669 322.893 25.397 322.557C26.125 322.212 27.1656 322.039 28.519 322.039ZM28.519 323.411C27.7256 323.411 27.1423 323.463 26.769 323.565C26.405 323.668 26.223 323.827 26.223 324.041C26.223 324.275 26.3956 324.433 26.741 324.517C27.0956 324.601 27.6883 324.643 28.519 324.643C29.3496 324.643 29.9376 324.601 30.283 324.517C30.6376 324.433 30.815 324.275 30.815 324.041C30.815 323.827 30.633 323.668 30.269 323.565C29.905 323.463 29.3216 323.411 28.519 323.411ZM33.741 328.003H23.269V326.505H33.741V328.003ZM32.509 331.685H26.293V332.175H32.775V333.589H24.459V330.369H30.675V329.907H24.459V328.535H32.509V331.685ZM47.6662 332.315H37.1662V330.789H41.4782V328.563H38.2442V322.711H46.5602V328.563H43.3262V330.789H47.6662V332.315ZM40.0782 327.079H44.7402V324.223H40.0782V327.079ZM57.5126 327.457H49.5046V322.473H57.4286V323.971H51.3946V326.001H57.5126V327.457ZM58.6886 330.005H54.3346V333.645H52.4866V330.005H48.1886V328.507H58.6886V330.005ZM69.2491 333.659H67.4571V321.885H69.2491V333.659ZM66.7991 333.113H65.0631V327.653H64.3631C64.2978 328.801 64.0411 329.702 63.5931 330.355C63.1451 331.009 62.5618 331.335 61.8431 331.335C61.3298 331.335 60.8818 331.163 60.4991 330.817C60.1258 330.463 59.8365 329.959 59.6311 329.305C59.4258 328.652 59.3231 327.877 59.3231 326.981C59.3231 326.095 59.4258 325.329 59.6311 324.685C59.8365 324.032 60.1258 323.533 60.4991 323.187C60.8818 322.842 61.3298 322.669 61.8431 322.669C62.5338 322.669 63.1031 322.977 63.5511 323.593C63.9991 324.2 64.2698 325.049 64.3631 326.141H65.0631V322.025H66.7991V333.113ZM61.8431 324.461C61.3018 324.461 61.0311 325.301 61.0311 326.981C61.0311 328.671 61.3018 329.515 61.8431 329.515C62.1231 329.515 62.3331 329.315 62.4731 328.913C62.6131 328.503 62.6831 327.859 62.6831 326.981C62.6831 326.113 62.6131 325.479 62.4731 325.077C62.3331 324.667 62.1231 324.461 61.8431 324.461ZM80.2716 333.659H78.5216V321.885H80.2716V333.659ZM77.8076 333.169H76.0856V327.779H74.4616C73.8083 329.151 72.6976 330.304 71.1296 331.237L70.0796 329.907C71.1903 329.235 72.0069 328.493 72.5296 327.681C73.0616 326.869 73.3789 325.889 73.4816 324.741H70.7796V323.229H75.3156C75.3156 324.396 75.2036 325.423 74.9796 326.309H76.0856V322.137H77.8076V333.169ZM6.964 345.405H3.618V350.333C5.06467 350.305 6.35267 350.193 7.482 349.997L7.692 351.509C6.964 351.649 6.222 351.747 5.466 351.803C4.71933 351.85 3.8 351.873 2.708 351.873H1.728V343.893H6.964V345.405ZM10.968 354.687H9.12V348.415H6.446V346.889H9.12V342.885H10.968V354.687ZM24.8372 349.857H22.9892V347.197H21.4212V345.671H22.9892V342.885H24.8372V349.857ZM20.8752 350.095C22.1165 350.095 23.0872 350.296 23.7872 350.697C24.4965 351.099 24.8512 351.663 24.8512 352.391C24.8512 353.101 24.4965 353.656 23.7872 354.057C23.0872 354.468 22.1165 354.673 20.8752 354.673C19.6339 354.673 18.6585 354.473 17.9492 354.071C17.2492 353.67 16.8992 353.11 16.8992 352.391C16.8992 351.663 17.2492 351.099 17.9492 350.697C18.6492 350.296 19.6245 350.095 20.8752 350.095ZM20.8752 351.523C20.1565 351.523 19.6152 351.593 19.2512 351.733C18.8965 351.873 18.7192 352.093 18.7192 352.391C18.7192 352.681 18.8965 352.895 19.2512 353.035C19.6152 353.175 20.1565 353.245 20.8752 353.245C21.5939 353.245 22.1305 353.175 22.4852 353.035C22.8399 352.895 23.0172 352.681 23.0172 352.391C23.0172 352.093 22.8399 351.873 22.4852 351.733C22.1305 351.593 21.5939 351.523 20.8752 351.523ZM21.7292 345.041H19.5872C19.6432 345.713 19.8765 346.329 20.2872 346.889C20.7072 347.44 21.3232 347.855 22.1352 348.135L21.2252 349.633C20.0585 349.241 19.2045 348.509 18.6632 347.435C18.1125 348.658 17.2025 349.479 15.9332 349.899L14.9952 348.429C15.8725 348.131 16.5212 347.678 16.9412 347.071C17.3705 346.465 17.6085 345.788 17.6552 345.041H15.4992V343.543H21.7292V345.041ZM29.8397 343.641C30.4463 343.641 30.9923 343.767 31.4777 344.019C31.9723 344.271 32.3597 344.621 32.6397 345.069C32.929 345.517 33.0737 346.021 33.0737 346.581C33.0737 347.141 32.929 347.645 32.6397 348.093C32.3597 348.541 31.9723 348.891 31.4777 349.143C30.9923 349.395 30.4463 349.521 29.8397 349.521C29.2423 349.521 28.6963 349.395 28.2017 349.143C27.7163 348.891 27.329 348.541 27.0397 348.093C26.7597 347.645 26.6197 347.141 26.6197 346.581C26.6197 346.021 26.7597 345.517 27.0397 345.069C27.329 344.621 27.7163 344.271 28.2017 344.019C28.6963 343.767 29.2423 343.641 29.8397 343.641ZM29.8397 345.265C29.4383 345.265 29.107 345.382 28.8457 345.615C28.5843 345.849 28.4537 346.171 28.4537 346.581C28.4537 347.001 28.5843 347.328 28.8457 347.561C29.107 347.785 29.4383 347.897 29.8397 347.897C30.2503 347.897 30.5863 347.785 30.8477 347.561C31.109 347.328 31.2397 347.001 31.2397 346.581C31.2397 346.171 31.109 345.849 30.8477 345.615C30.5863 345.382 30.2503 345.265 29.8397 345.265ZM35.8737 354.687H34.0117V342.885H35.8737V354.687ZM26.1857 350.823C27.5483 350.823 28.8317 350.8 30.0357 350.753C31.2397 350.707 32.369 350.609 33.4237 350.459L33.5497 351.831C32.439 352.055 31.305 352.2 30.1477 352.265C28.9997 352.331 27.7443 352.363 26.3817 352.363L26.1857 350.823ZM47.6662 353.413H37.1662V351.873H41.4782V350.263H38.3562V346.175H44.6562V345.125H38.3422V343.613H46.5182V347.645H40.2042V348.737H46.7702V350.263H43.3262V351.873H47.6662V353.413ZM58.6886 350.011H54.4746V351.901H52.6126V350.011H48.1886V348.541H58.6886V350.011ZM57.5406 354.463H49.4206V350.921H51.2826V352.965H57.5406V354.463ZM53.4526 343.067C54.2833 343.067 55.0113 343.17 55.6366 343.375C56.2713 343.581 56.7613 343.87 57.1066 344.243C57.452 344.607 57.6246 345.037 57.6246 345.531C57.6246 346.035 57.452 346.474 57.1066 346.847C56.7613 347.211 56.276 347.496 55.6506 347.701C55.0253 347.897 54.2926 347.995 53.4526 347.995C52.622 347.995 51.8893 347.897 51.2546 347.701C50.62 347.496 50.13 347.211 49.7846 346.847C49.4393 346.474 49.2666 346.035 49.2666 345.531C49.2666 345.046 49.4393 344.617 49.7846 344.243C50.1393 343.87 50.6293 343.581 51.2546 343.375C51.8893 343.17 52.622 343.067 53.4526 343.067ZM53.4526 344.565C52.7526 344.565 52.2113 344.645 51.8286 344.803C51.446 344.962 51.2546 345.205 51.2546 345.531C51.2546 345.849 51.4413 346.087 51.8146 346.245C52.1973 346.404 52.7433 346.483 53.4526 346.483C54.9086 346.483 55.6366 346.166 55.6366 345.531C55.6366 345.205 55.4453 344.962 55.0626 344.803C54.6893 344.645 54.1526 344.565 53.4526 344.565ZM67.4618 350.025C68.6752 350.025 69.6318 350.231 70.3318 350.641C71.0412 351.052 71.3958 351.617 71.3958 352.335C71.3958 353.063 71.0412 353.633 70.3318 354.043C69.6318 354.463 68.6752 354.673 67.4618 354.673C66.2392 354.673 65.2732 354.463 64.5638 354.043C63.8545 353.633 63.4998 353.063 63.4998 352.335C63.4998 351.607 63.8545 351.043 64.5638 350.641C65.2732 350.231 66.2392 350.025 67.4618 350.025ZM67.4618 351.467C66.7525 351.467 66.2252 351.537 65.8798 351.677C65.5345 351.817 65.3618 352.037 65.3618 352.335C65.3618 352.643 65.5345 352.867 65.8798 353.007C66.2345 353.147 66.7618 353.217 67.4618 353.217C68.1712 353.217 68.6985 353.147 69.0438 353.007C69.3892 352.867 69.5618 352.643 69.5618 352.335C69.5618 352.027 69.3892 351.808 69.0438 351.677C68.7078 351.537 68.1805 351.467 67.4618 351.467ZM71.2558 345.545H72.7538V347.099H71.2558V349.745H69.4218V342.885H71.2558V345.545ZM64.2418 344.999H66.1738V343.627H68.0358V349.171H62.3938V343.627H64.2418V344.999ZM66.1738 347.715V346.441H64.2418V347.715H66.1738ZM83.7063 345.979H82.3063V347.015H83.7063V348.541H82.3063V350.305H80.4583V342.885H82.3063V344.439H83.7063V345.979ZM78.5123 350.431C79.7163 350.431 80.6683 350.623 81.3683 351.005C82.0776 351.379 82.4323 351.897 82.4323 352.559C82.4323 352.989 82.269 353.362 81.9423 353.679C81.625 353.987 81.1723 354.225 80.5843 354.393C79.9963 354.571 79.3056 354.659 78.5123 354.659C77.299 354.659 76.3376 354.468 75.6283 354.085C74.9283 353.712 74.5783 353.203 74.5783 352.559C74.5783 351.897 74.9283 351.379 75.6283 351.005C76.3376 350.623 77.299 350.431 78.5123 350.431ZM78.5123 351.859C77.7936 351.859 77.2663 351.915 76.9303 352.027C76.5943 352.13 76.4263 352.307 76.4263 352.559C76.4263 352.793 76.5943 352.97 76.9303 353.091C77.2756 353.203 77.803 353.259 78.5123 353.259C79.875 353.259 80.5563 353.026 80.5563 352.559C80.5563 352.317 80.3883 352.139 80.0523 352.027C79.7163 351.915 79.203 351.859 78.5123 351.859ZM79.9403 345.391H73.1223V343.921H75.6143V342.815H77.4903V343.921H79.9403V345.391ZM76.5523 345.699C77.0936 345.699 77.579 345.793 78.0083 345.979C78.447 346.157 78.7876 346.409 79.0303 346.735C79.273 347.062 79.3943 347.431 79.3943 347.841C79.3943 348.252 79.273 348.621 79.0303 348.947C78.7876 349.265 78.4516 349.512 78.0223 349.689C77.593 349.867 77.103 349.955 76.5523 349.955C75.9923 349.955 75.493 349.867 75.0543 349.689C74.6156 349.512 74.275 349.265 74.0323 348.947C73.7896 348.621 73.6683 348.252 73.6683 347.841C73.6683 347.421 73.7896 347.053 74.0323 346.735C74.275 346.409 74.6156 346.157 75.0543 345.979C75.493 345.793 75.9923 345.699 76.5523 345.699ZM76.5523 347.085C76.2163 347.085 75.9503 347.151 75.7543 347.281C75.5676 347.403 75.4743 347.589 75.4743 347.841C75.4743 348.084 75.5676 348.271 75.7543 348.401C75.9503 348.523 76.2163 348.583 76.5523 348.583C76.8883 348.583 77.1496 348.523 77.3363 348.401C77.523 348.271 77.6163 348.084 77.6163 347.841C77.6163 347.589 77.523 347.403 77.3363 347.281C77.1496 347.151 76.8883 347.085 76.5523 347.085ZM89.4228 343.417C90.2348 343.417 90.9721 343.562 91.6348 343.851C92.3068 344.141 92.8341 344.547 93.2168 345.069C93.6088 345.592 93.8048 346.189 93.8048 346.861C93.8048 347.543 93.6088 348.145 93.2168 348.667C92.8341 349.19 92.3068 349.596 91.6348 349.885C90.9721 350.165 90.2348 350.305 89.4228 350.305C88.6108 350.305 87.8735 350.165 87.2108 349.885C86.5575 349.596 86.0395 349.19 85.6568 348.667C85.2741 348.145 85.0828 347.543 85.0828 346.861C85.0828 346.189 85.2741 345.592 85.6568 345.069C86.0395 344.547 86.5575 344.141 87.2108 343.851C87.8735 343.562 88.6108 343.417 89.4228 343.417ZM89.4228 344.943C88.6668 344.943 88.0508 345.116 87.5748 345.461C87.1081 345.797 86.8748 346.264 86.8748 346.861C86.8748 347.459 87.1081 347.925 87.5748 348.261C88.0508 348.597 88.6668 348.765 89.4228 348.765C90.1788 348.765 90.7901 348.597 91.2568 348.261C91.7328 347.925 91.9708 347.459 91.9708 346.861C91.9708 346.264 91.7328 345.797 91.2568 345.461C90.7901 345.116 90.1788 344.943 89.4228 344.943ZM94.6728 353.273H84.1728V351.733H94.6728V353.273ZM105.709 353.413H95.2093V351.873H99.5213V350.263H96.3993V346.175H102.699V345.125H96.3853V343.613H104.561V347.645H98.2473V348.737H104.813V350.263H101.369V351.873H105.709V353.413ZM6.446 364.025C7.74333 364.025 8.77 364.231 9.526 364.641C10.282 365.052 10.66 365.612 10.66 366.321C10.66 367.021 10.282 367.572 9.526 367.973C8.77 368.375 7.74333 368.575 6.446 368.575C5.158 368.575 4.13133 368.375 3.366 367.973C2.61 367.572 2.232 367.021 2.232 366.321C2.232 365.855 2.40467 365.449 2.75 365.103C3.09533 364.758 3.58533 364.492 4.22 364.305C4.85467 364.119 5.59667 364.025 6.446 364.025ZM6.446 365.467C4.906 365.467 4.136 365.752 4.136 366.321C4.136 366.872 4.906 367.147 6.446 367.147C7.97667 367.147 8.742 366.872 8.742 366.321C8.742 365.752 7.97667 365.467 6.446 365.467ZM10.436 375.533H2.4V371.473H5.48V370.577H1.196V369.079H11.668V370.577H7.356V371.473H10.436V375.533ZM4.22 374.035H8.616V372.957H4.22V374.035ZM21.8925 370.955H20.0445V363.885H21.8925V370.955ZM21.8925 375.659H20.0445V372.943H13.9545V371.445H21.8925V375.659ZM19.0225 366.013H16.8665C16.9038 366.695 17.1325 367.32 17.5525 367.889C17.9818 368.459 18.6258 368.879 19.4845 369.149L18.5745 370.591C17.3705 370.218 16.4932 369.49 15.9425 368.407C15.3825 369.593 14.4632 370.391 13.1845 370.801L12.2465 369.359C13.1145 369.079 13.7725 368.636 14.2205 368.029C14.6685 367.413 14.9112 366.741 14.9485 366.013H12.7365V364.515H19.0225V366.013ZM32.929 375.687H31.067V363.885H32.929V375.687ZM26.657 364.669C27.2356 364.669 27.7583 364.842 28.225 365.187C28.6916 365.533 29.0556 366.027 29.317 366.671C29.5876 367.315 29.723 368.062 29.723 368.911C29.723 369.77 29.5876 370.521 29.317 371.165C29.0556 371.8 28.6916 372.29 28.225 372.635C27.7676 372.981 27.245 373.153 26.657 373.153C26.069 373.153 25.537 372.981 25.061 372.635C24.5943 372.29 24.2256 371.795 23.955 371.151C23.6936 370.507 23.563 369.761 23.563 368.911C23.563 368.062 23.6936 367.315 23.955 366.671C24.2256 366.027 24.5943 365.533 25.061 365.187C25.537 364.842 26.069 364.669 26.657 364.669ZM26.657 366.377C26.2463 366.377 25.929 366.592 25.705 367.021C25.481 367.451 25.369 368.081 25.369 368.911C25.369 369.733 25.481 370.358 25.705 370.787C25.929 371.207 26.2463 371.417 26.657 371.417C27.049 371.417 27.357 371.207 27.581 370.787C27.8143 370.358 27.931 369.733 27.931 368.911C27.931 368.081 27.8143 367.451 27.581 367.021C27.357 366.592 27.049 366.377 26.657 366.377ZM43.6435 368.407H35.5795V364.291H37.4135V366.951H43.6435V368.407ZM44.7915 371.025H34.2915V369.569H44.7915V371.025ZM43.6995 375.407H35.4395V371.893H37.3295V373.909H43.6995V375.407ZM51.4786 364.179C52.0666 364.179 52.594 364.301 53.0606 364.543C53.5366 364.777 53.91 365.103 54.1806 365.523C54.4513 365.934 54.5866 366.396 54.5866 366.909C54.5866 367.432 54.4513 367.899 54.1806 368.309C53.91 368.72 53.5366 369.042 53.0606 369.275C52.594 369.499 52.0666 369.611 51.4786 369.611C50.8906 369.611 50.3586 369.499 49.8826 369.275C49.416 369.042 49.0473 368.72 48.7766 368.309C48.506 367.899 48.3706 367.432 48.3706 366.909C48.3706 366.396 48.506 365.934 48.7766 365.523C49.0473 365.103 49.416 364.777 49.8826 364.543C50.3586 364.301 50.8906 364.179 51.4786 364.179ZM51.4786 365.733C51.0773 365.733 50.7553 365.836 50.5126 366.041C50.27 366.247 50.1486 366.536 50.1486 366.909C50.1486 367.292 50.27 367.586 50.5126 367.791C50.7553 367.987 51.0773 368.085 51.4786 368.085C51.8706 368.085 52.188 367.987 52.4306 367.791C52.6733 367.586 52.7946 367.292 52.7946 366.909C52.7946 366.536 52.6733 366.247 52.4306 366.041C52.188 365.836 51.8706 365.733 51.4786 365.733ZM57.8766 369.709H56.0146V363.885H57.8766V369.709ZM57.8766 373.517H51.9126V374.063H58.1146V375.533H50.1066V372.145H56.0286V371.613H50.0646V370.171H57.8766V373.517ZM59.7151 373.853C59.7151 373.536 59.8178 373.275 60.0231 373.069C60.2378 372.864 60.5178 372.761 60.8631 372.761C61.1991 372.761 61.4698 372.864 61.6751 373.069C61.8898 373.275 61.9971 373.536 61.9971 373.853C61.9971 374.161 61.8898 374.418 61.6751 374.623C61.4698 374.819 61.1991 374.917 60.8631 374.917C60.5085 374.917 60.2285 374.819 60.0231 374.623C59.8178 374.427 59.7151 374.171 59.7151 373.853ZM63.4782 373.853C63.4782 373.536 63.5808 373.275 63.7862 373.069C64.0008 372.864 64.2808 372.761 64.6262 372.761C64.9622 372.761 65.2328 372.864 65.4382 373.069C65.6528 373.275 65.7602 373.536 65.7602 373.853C65.7602 374.161 65.6528 374.418 65.4382 374.623C65.2328 374.819 64.9622 374.917 64.6262 374.917C64.2715 374.917 63.9915 374.819 63.7862 374.623C63.5808 374.427 63.4782 374.171 63.4782 373.853ZM67.2412 373.853C67.2412 373.536 67.3439 373.275 67.5492 373.069C67.7639 372.864 68.0439 372.761 68.3892 372.761C68.7252 372.761 68.9959 372.864 69.2012 373.069C69.4159 373.275 69.5232 373.536 69.5232 373.853C69.5232 374.161 69.4159 374.418 69.2012 374.623C68.9959 374.819 68.7252 374.917 68.3892 374.917C68.0346 374.917 67.7546 374.819 67.5492 374.623C67.3439 374.427 67.2412 374.171 67.2412 373.853Z" fill="#1E1E28"/>
<path d="M112.569 389.853C112.569 389.536 112.672 389.275 112.877 389.069C113.092 388.864 113.372 388.761 113.717 388.761C114.053 388.761 114.324 388.864 114.529 389.069C114.744 389.275 114.851 389.536 114.851 389.853C114.851 390.161 114.744 390.418 114.529 390.623C114.324 390.819 114.053 390.917 113.717 390.917C113.363 390.917 113.083 390.819 112.877 390.623C112.672 390.427 112.569 390.171 112.569 389.853ZM116.332 389.853C116.332 389.536 116.435 389.275 116.64 389.069C116.855 388.864 117.135 388.761 117.48 388.761C117.816 388.761 118.087 388.864 118.292 389.069C118.507 389.275 118.614 389.536 118.614 389.853C118.614 390.161 118.507 390.418 118.292 390.623C118.087 390.819 117.816 390.917 117.48 390.917C117.126 390.917 116.846 390.819 116.64 390.623C116.435 390.427 116.332 390.171 116.332 389.853ZM120.095 389.853C120.095 389.536 120.198 389.275 120.403 389.069C120.618 388.864 120.898 388.761 121.243 388.761C121.579 388.761 121.85 388.864 122.055 389.069C122.27 389.275 122.377 389.536 122.377 389.853C122.377 390.161 122.27 390.418 122.055 390.623C121.85 390.819 121.579 390.917 121.243 390.917C120.889 390.917 120.609 390.819 120.403 390.623C120.198 390.427 120.095 390.171 120.095 389.853ZM133.392 391.659H131.6V379.885H133.392V391.659ZM130.942 391.113H129.206V385.653H128.506C128.441 386.801 128.184 387.702 127.736 388.355C127.288 389.009 126.705 389.335 125.986 389.335C125.473 389.335 125.025 389.163 124.642 388.817C124.269 388.463 123.98 387.959 123.774 387.305C123.569 386.652 123.466 385.877 123.466 384.981C123.466 384.095 123.569 383.329 123.774 382.685C123.98 382.032 124.269 381.533 124.642 381.187C125.025 380.842 125.473 380.669 125.986 380.669C126.677 380.669 127.246 380.977 127.694 381.593C128.142 382.2 128.413 383.049 128.506 384.141H129.206V380.025H130.942V391.113ZM125.986 382.461C125.445 382.461 125.174 383.301 125.174 384.981C125.174 386.671 125.445 387.515 125.986 387.515C126.266 387.515 126.476 387.315 126.616 386.913C126.756 386.503 126.826 385.859 126.826 384.981C126.826 384.113 126.756 383.479 126.616 383.077C126.476 382.667 126.266 382.461 125.986 382.461ZM147.262 391.659H145.512V385.863H144.658V391.085H142.95V380.053H144.658V384.337H145.512V379.885H147.262V391.659ZM141.844 382.727H139.436V387.501C140.509 387.483 141.475 387.399 142.334 387.249L142.46 388.789C141.825 388.901 141.2 388.976 140.584 389.013C139.968 389.051 139.24 389.069 138.4 389.069H137.602V381.215H141.844V382.727ZM157.486 383.399H158.956V384.911H157.486V388.677H155.638V379.899H157.486V383.399ZM155.12 382.517H148.316V381.047H150.794V379.885H152.67V381.047H155.12V382.517ZM151.732 382.853C152.273 382.853 152.759 382.951 153.188 383.147C153.627 383.343 153.967 383.619 154.21 383.973C154.462 384.319 154.588 384.715 154.588 385.163C154.588 385.611 154.462 386.008 154.21 386.353C153.967 386.699 153.627 386.969 153.188 387.165C152.759 387.352 152.273 387.445 151.732 387.445C151.172 387.445 150.673 387.352 150.234 387.165C149.795 386.969 149.455 386.699 149.212 386.353C148.969 386.008 148.848 385.611 148.848 385.163C148.848 384.715 148.969 384.319 149.212 383.973C149.455 383.619 149.795 383.343 150.234 383.147C150.673 382.951 151.172 382.853 151.732 382.853ZM151.732 384.295C151.396 384.295 151.13 384.37 150.934 384.519C150.747 384.659 150.654 384.874 150.654 385.163C150.654 385.443 150.747 385.653 150.934 385.793C151.13 385.933 151.396 386.003 151.732 386.003C152.068 386.003 152.329 385.933 152.516 385.793C152.703 385.653 152.796 385.443 152.796 385.163C152.796 384.874 152.703 384.659 152.516 384.519C152.329 384.37 152.068 384.295 151.732 384.295ZM157.85 391.463H149.954V388.019H151.774V389.979H157.85V391.463ZM171.537 381.439C171.537 382.233 171.519 382.905 171.481 383.455C171.444 384.006 171.355 384.627 171.215 385.317L169.381 385.163C169.465 384.79 169.531 384.365 169.577 383.889L163.305 384.155L163.095 382.629L169.661 382.517L169.675 381.775H163.389V380.291H171.537V381.439ZM172.657 387.319H162.269V385.835H165.993V384.477H167.841V385.835H172.657V387.319ZM171.691 391.477H163.431V387.949H165.293V389.979H171.691V391.477ZM183.176 388.677H181.398V379.899H183.176V388.677ZM180.866 388.397H179.116V384.533H178.136V383.049H179.116V380.109H180.866V388.397ZM183.428 391.463H175.392V387.739H177.254V389.979H183.428V391.463ZM178.066 382.251H175.462V383.231H177.632V384.631H175.462V385.639C176.106 385.63 176.642 385.611 177.072 385.583C177.501 385.555 177.94 385.504 178.388 385.429L178.584 386.885C177.968 386.988 177.356 387.058 176.75 387.095C176.152 387.123 175.401 387.137 174.496 387.137H173.698V380.753H178.066V382.251ZM194.786 390.357H184.286V388.831H194.786V390.357ZM193.918 382.937H190.516C190.572 383.376 190.75 383.805 191.048 384.225C191.347 384.636 191.786 384.995 192.364 385.303C192.952 385.611 193.676 385.821 194.534 385.933L193.834 387.431C192.817 387.291 191.944 387.011 191.216 386.591C190.498 386.171 189.938 385.649 189.536 385.023C189.135 385.649 188.57 386.171 187.842 386.591C187.124 387.011 186.256 387.291 185.238 387.431L184.552 385.933C185.411 385.821 186.13 385.611 186.708 385.303C187.287 384.995 187.721 384.636 188.01 384.225C188.309 383.805 188.486 383.376 188.542 382.937H185.182V381.425H188.612V380.039H190.46V381.425H193.918V382.937ZM198.753 380.543C199.331 380.543 199.863 380.674 200.349 380.935C200.834 381.187 201.217 381.537 201.497 381.985C201.777 382.433 201.917 382.937 201.917 383.497C201.917 384.169 201.707 384.757 201.287 385.261C200.876 385.765 200.344 386.106 199.691 386.283V387.767C200.689 387.721 201.501 387.651 202.127 387.557L202.253 388.929C200.806 389.228 198.972 389.377 196.751 389.377L195.435 389.363L195.197 387.851L197.829 387.837V386.297C197.138 386.129 196.583 385.793 196.163 385.289C195.752 384.785 195.547 384.188 195.547 383.497C195.547 382.937 195.682 382.433 195.953 381.985C196.233 381.537 196.615 381.187 197.101 380.935C197.595 380.674 198.146 380.543 198.753 380.543ZM198.753 382.167C198.342 382.167 198.006 382.284 197.745 382.517C197.483 382.741 197.353 383.068 197.353 383.497C197.353 383.917 197.483 384.244 197.745 384.477C198.006 384.711 198.342 384.827 198.753 384.827C199.145 384.827 199.467 384.711 199.719 384.477C199.98 384.235 200.111 383.908 200.111 383.497C200.111 383.077 199.98 382.751 199.719 382.517C199.467 382.284 199.145 382.167 198.753 382.167ZM204.549 384.407H205.991V386.003H204.549V391.659H202.687V379.885H204.549V384.407ZM212.93 380.641C213.537 380.641 214.083 380.767 214.568 381.019C215.063 381.271 215.45 381.621 215.73 382.069C216.019 382.517 216.164 383.021 216.164 383.581C216.164 384.141 216.019 384.645 215.73 385.093C215.45 385.541 215.063 385.891 214.568 386.143C214.083 386.395 213.537 386.521 212.93 386.521C212.333 386.521 211.787 386.395 211.292 386.143C210.807 385.891 210.419 385.541 210.13 385.093C209.85 384.645 209.71 384.141 209.71 383.581C209.71 383.021 209.85 382.517 210.13 382.069C210.419 381.621 210.807 381.271 211.292 381.019C211.787 380.767 212.333 380.641 212.93 380.641ZM212.93 382.265C212.529 382.265 212.197 382.382 211.936 382.615C211.675 382.849 211.544 383.171 211.544 383.581C211.544 384.001 211.675 384.328 211.936 384.561C212.197 384.785 212.529 384.897 212.93 384.897C213.341 384.897 213.677 384.785 213.938 384.561C214.199 384.328 214.33 384.001 214.33 383.581C214.33 383.171 214.199 382.849 213.938 382.615C213.677 382.382 213.341 382.265 212.93 382.265ZM218.964 391.687H217.102V379.885H218.964V391.687ZM209.276 387.823C210.639 387.823 211.922 387.8 213.126 387.753C214.33 387.707 215.459 387.609 216.514 387.459L216.64 388.831C215.529 389.055 214.395 389.2 213.238 389.265C212.09 389.331 210.835 389.363 209.472 389.363L209.276 387.823ZM224.638 382.321C224.638 383.488 224.844 384.538 225.254 385.471C225.674 386.405 226.337 387.091 227.242 387.529L226.136 389.041C225.026 388.481 224.223 387.492 223.728 386.073C223.206 387.604 222.328 388.668 221.096 389.265L220.004 387.725C220.966 387.277 221.666 386.573 222.104 385.611C222.552 384.641 222.776 383.544 222.776 382.321V380.753H224.638V382.321ZM229.384 384.323H230.994V385.919H229.384V391.659H227.536V379.885H229.384V384.323ZM241.793 390.301H231.293V388.817H235.563V386.227H237.411V388.817H241.793V390.301ZM237.467 381.313C237.467 381.864 237.607 382.405 237.887 382.937C238.176 383.46 238.62 383.922 239.217 384.323C239.824 384.715 240.58 384.981 241.485 385.121L240.715 386.689C239.698 386.503 238.834 386.167 238.125 385.681C237.416 385.196 236.87 384.594 236.487 383.875C236.104 384.585 235.554 385.187 234.835 385.681C234.126 386.176 233.272 386.512 232.273 386.689L231.489 385.121C232.394 384.981 233.146 384.711 233.743 384.309C234.34 383.908 234.779 383.446 235.059 382.923C235.348 382.391 235.493 381.855 235.493 381.313V380.529H237.467V381.313ZM252.801 387.347H242.315V385.877H246.613V385.345H243.589V380.151H251.625V381.593H245.451V382.069H251.373V383.427H245.451V383.889H251.723V385.345H248.489V385.877H252.801V387.347ZM247.565 387.753C248.835 387.753 249.819 387.921 250.519 388.257C251.219 388.593 251.569 389.074 251.569 389.699C251.569 390.334 251.219 390.819 250.519 391.155C249.829 391.491 248.844 391.659 247.565 391.659C246.259 391.659 245.255 391.491 244.555 391.155C243.855 390.829 243.505 390.343 243.505 389.699C243.505 389.074 243.855 388.593 244.555 388.257C245.265 387.921 246.268 387.753 247.565 387.753ZM247.565 389.139C246.791 389.139 246.231 389.186 245.885 389.279C245.549 389.363 245.381 389.503 245.381 389.699C245.381 389.905 245.549 390.054 245.885 390.147C246.221 390.231 246.781 390.273 247.565 390.273C248.321 390.273 248.867 390.231 249.203 390.147C249.539 390.054 249.707 389.905 249.707 389.699C249.707 389.503 249.535 389.363 249.189 389.279C248.853 389.186 248.312 389.139 247.565 389.139ZM261.589 387.025C262.802 387.025 263.759 387.231 264.459 387.641C265.168 388.052 265.523 388.617 265.523 389.335C265.523 390.063 265.168 390.633 264.459 391.043C263.759 391.463 262.802 391.673 261.589 391.673C260.366 391.673 259.4 391.463 258.691 391.043C257.981 390.633 257.627 390.063 257.627 389.335C257.627 388.607 257.981 388.043 258.691 387.641C259.4 387.231 260.366 387.025 261.589 387.025ZM261.589 388.467C260.879 388.467 260.352 388.537 260.007 388.677C259.661 388.817 259.489 389.037 259.489 389.335C259.489 389.643 259.661 389.867 260.007 390.007C260.361 390.147 260.889 390.217 261.589 390.217C262.298 390.217 262.825 390.147 263.171 390.007C263.516 389.867 263.689 389.643 263.689 389.335C263.689 389.027 263.516 388.808 263.171 388.677C262.835 388.537 262.307 388.467 261.589 388.467ZM265.383 382.545H266.881V384.099H265.383V386.745H263.549V379.885H265.383V382.545ZM258.369 381.999H260.301V380.627H262.163V386.171H256.521V380.627H258.369V381.999ZM260.301 384.715V383.441H258.369V384.715H260.301ZM269.587 381.845H271.449V380.487H273.283V382.489H275.145V379.885H277.021V386.311H275.145V384.015H273.283V386.017H267.739V380.487H269.587V381.845ZM271.449 384.533V383.287H269.587V384.533H271.449ZM271.085 387.739H275.145V386.787H277.007V391.505H269.237V386.787H271.085V387.739ZM275.145 389.993V389.167H271.085V389.993H275.145ZM283.55 380.039C284.894 380.039 285.93 380.212 286.658 380.557C287.395 380.903 287.764 381.397 287.764 382.041C287.764 382.676 287.395 383.166 286.658 383.511C285.92 383.857 284.884 384.029 283.55 384.029C282.196 384.029 281.156 383.857 280.428 383.511C279.7 383.166 279.336 382.676 279.336 382.041C279.336 381.388 279.7 380.893 280.428 380.557C281.156 380.212 282.196 380.039 283.55 380.039ZM283.55 381.411C282.756 381.411 282.173 381.463 281.8 381.565C281.436 381.668 281.254 381.827 281.254 382.041C281.254 382.275 281.426 382.433 281.772 382.517C282.126 382.601 282.719 382.643 283.55 382.643C284.38 382.643 284.968 382.601 285.314 382.517C285.668 382.433 285.846 382.275 285.846 382.041C285.846 381.827 285.664 381.668 285.3 381.565C284.936 381.463 284.352 381.411 283.55 381.411ZM288.772 386.003H278.3V384.505H288.772V386.003ZM287.54 389.685H281.324V390.175H287.806V391.589H279.49V388.369H285.706V387.907H279.49V386.535H287.54V389.685ZM136.729 408.319H132.571V410.055H130.751V408.319H126.229V406.849H136.729V408.319ZM135.581 412.463H127.433V409.187H129.267V410.979H135.581V412.463ZM129.407 402.383H133.565V401.263H135.385V406.135H127.559V401.263H129.407V402.383ZM133.565 404.679V403.769H129.407V404.679H133.565ZM147.024 406.891H145.19V405.855H143.3V406.611H137.77V401.361H139.604V402.607H141.466V401.361H143.3V402.299H145.19V400.885H147.024V406.891ZM147.024 410.573H141.186V411.063H147.318V412.533H139.324V409.201H145.19V408.753H139.31V407.283H147.024V410.573ZM141.466 405.127V404.035H139.604V405.127H141.466ZM145.19 404.441V403.699H143.3V404.441H145.19ZM152.642 408.305C152.642 408.781 152.735 409.239 152.922 409.677C153.118 410.107 153.421 410.475 153.832 410.783C154.243 410.466 154.546 410.093 154.742 409.663C154.947 409.225 155.05 408.772 155.05 408.305V407.997H156.884V408.305C156.884 408.968 157.047 409.547 157.374 410.041C157.701 410.527 158.233 410.886 158.97 411.119L158.06 412.477C157.061 412.132 156.347 411.497 155.918 410.573C155.498 411.544 154.812 412.216 153.86 412.589C152.889 412.225 152.189 411.563 151.76 410.601C151.331 411.507 150.626 412.132 149.646 412.477L148.75 411.119C149.469 410.867 149.996 410.489 150.332 409.985C150.668 409.481 150.836 408.921 150.836 408.305V407.997H152.642V408.305ZM157.99 407.507H156.142V400.899H157.99V407.507ZM151.648 401.445C152.245 401.445 152.787 401.571 153.272 401.823C153.757 402.066 154.14 402.407 154.42 402.845C154.7 403.275 154.84 403.765 154.84 404.315C154.84 404.857 154.7 405.342 154.42 405.771C154.14 406.201 153.757 406.541 153.272 406.793C152.787 407.036 152.245 407.157 151.648 407.157C151.06 407.157 150.519 407.036 150.024 406.793C149.539 406.541 149.156 406.201 148.876 405.771C148.596 405.333 148.456 404.847 148.456 404.315C148.456 403.774 148.596 403.284 148.876 402.845C149.156 402.407 149.539 402.066 150.024 401.823C150.519 401.571 151.06 401.445 151.648 401.445ZM151.648 403.027C151.247 403.027 150.92 403.139 150.668 403.363C150.416 403.587 150.29 403.905 150.29 404.315C150.29 404.717 150.416 405.029 150.668 405.253C150.92 405.477 151.247 405.589 151.648 405.589C152.059 405.589 152.39 405.477 152.642 405.253C152.894 405.029 153.02 404.717 153.02 404.315C153.02 403.905 152.894 403.587 152.642 403.363C152.39 403.139 152.059 403.027 151.648 403.027ZM169.349 412.659H167.599V400.885H169.349V412.659ZM166.885 412.169H165.163V406.779H163.539C162.885 408.151 161.775 409.304 160.207 410.237L159.157 408.907C160.267 408.235 161.084 407.493 161.607 406.681C162.139 405.869 162.456 404.889 162.559 403.741H159.857V402.229H164.393C164.393 403.396 164.281 404.423 164.057 405.309H165.163V401.137H166.885V412.169ZM182.91 412.687H181.048V400.885H182.91V412.687ZM176.638 401.669C177.216 401.669 177.739 401.842 178.206 402.187C178.672 402.533 179.036 403.027 179.298 403.671C179.568 404.315 179.704 405.062 179.704 405.911C179.704 406.77 179.568 407.521 179.298 408.165C179.036 408.8 178.672 409.29 178.206 409.635C177.748 409.981 177.226 410.153 176.638 410.153C176.05 410.153 175.518 409.981 175.042 409.635C174.575 409.29 174.206 408.795 173.936 408.151C173.674 407.507 173.544 406.761 173.544 405.911C173.544 405.062 173.674 404.315 173.936 403.671C174.206 403.027 174.575 402.533 175.042 402.187C175.518 401.842 176.05 401.669 176.638 401.669ZM176.638 403.377C176.227 403.377 175.91 403.592 175.686 404.021C175.462 404.451 175.35 405.081 175.35 405.911C175.35 406.733 175.462 407.358 175.686 407.787C175.91 408.207 176.227 408.417 176.638 408.417C177.03 408.417 177.338 408.207 177.562 407.787C177.795 407.358 177.912 406.733 177.912 405.911C177.912 405.081 177.795 404.451 177.562 404.021C177.338 403.592 177.03 403.377 176.638 403.377ZM189.746 404.077H184.272V402.565H186.134V401.207H187.954V402.565H189.746V404.077ZM187.044 404.511C187.53 404.511 187.964 404.633 188.346 404.875C188.729 405.118 189.028 405.454 189.242 405.883C189.457 406.313 189.564 406.798 189.564 407.339C189.564 407.89 189.457 408.385 189.242 408.823C189.028 409.253 188.729 409.589 188.346 409.831C187.964 410.074 187.53 410.195 187.044 410.195C186.559 410.195 186.125 410.074 185.742 409.831C185.36 409.589 185.056 409.253 184.832 408.823C184.618 408.385 184.51 407.89 184.51 407.339C184.51 406.798 184.618 406.313 184.832 405.883C185.056 405.454 185.36 405.118 185.742 404.875C186.134 404.633 186.568 404.511 187.044 404.511ZM187.044 406.065C186.774 406.065 186.55 406.177 186.372 406.401C186.204 406.625 186.12 406.938 186.12 407.339C186.12 407.75 186.204 408.063 186.372 408.277C186.54 408.492 186.764 408.599 187.044 408.599C187.324 408.599 187.544 408.492 187.702 408.277C187.87 408.063 187.954 407.75 187.954 407.339C187.954 406.938 187.87 406.625 187.702 406.401C187.534 406.177 187.315 406.065 187.044 406.065ZM194.282 412.659H192.532V407.101H191.832V412.197H190.096V401.095H191.832V405.603H192.532V400.885H194.282V412.659ZM204.451 405.393H206.061V406.933H204.451V412.659H202.631V400.885H204.451V405.393ZM201.973 404.105H195.281V402.593H197.731V401.081H199.593V402.593H201.973V404.105ZM198.655 404.623C199.215 404.623 199.723 404.745 200.181 404.987C200.638 405.23 200.993 405.571 201.245 406.009C201.506 406.439 201.637 406.929 201.637 407.479C201.637 408.03 201.506 408.52 201.245 408.949C200.993 409.379 200.638 409.715 200.181 409.957C199.723 410.191 199.215 410.307 198.655 410.307C198.095 410.307 197.586 410.191 197.129 409.957C196.681 409.715 196.326 409.379 196.065 408.949C195.803 408.511 195.673 408.021 195.673 407.479C195.673 406.938 195.803 406.448 196.065 406.009C196.326 405.571 196.681 405.23 197.129 404.987C197.586 404.745 198.095 404.623 198.655 404.623ZM198.655 406.149C198.291 406.149 197.997 406.271 197.773 406.513C197.558 406.747 197.451 407.069 197.451 407.479C197.451 407.899 197.558 408.221 197.773 408.445C197.997 408.66 198.291 408.767 198.655 408.767C199.019 408.767 199.313 408.655 199.537 408.431C199.761 408.207 199.873 407.89 199.873 407.479C199.873 407.078 199.756 406.756 199.523 406.513C199.299 406.271 199.009 406.149 198.655 406.149ZM215.921 402.929C215.921 403.937 215.893 404.857 215.837 405.687C215.791 406.509 215.66 407.489 215.445 408.627L213.597 408.431C213.793 407.461 213.919 406.579 213.975 405.785C214.041 404.983 214.073 404.161 214.073 403.321H207.451V401.823H215.921V402.929ZM216.831 411.301H206.359V409.775H209.957V405.799H211.819V409.775H216.831V411.301ZM229.51 403.559H230.896V405.141H229.51V407.801H227.662V400.885H229.51V403.559ZM229.51 410.923H223.504V411.357H229.888V412.589H221.642V409.803H227.676V409.411H221.628V408.193H229.51V410.923ZM220.13 406.457C221.25 406.457 222.128 406.448 222.762 406.429V405.995C222.156 405.911 221.68 405.739 221.334 405.477C220.989 405.216 220.816 404.889 220.816 404.497C220.816 404.021 221.073 403.648 221.586 403.377C222.109 403.107 222.809 402.971 223.686 402.971C224.554 402.971 225.245 403.107 225.758 403.377C226.272 403.648 226.528 404.021 226.528 404.497C226.528 404.889 226.36 405.216 226.024 405.477C225.688 405.729 225.222 405.897 224.624 405.981V406.359C225.576 406.313 226.44 406.238 227.214 406.135L227.34 407.297C226.267 407.484 225.17 407.605 224.05 407.661C222.94 407.708 221.689 407.731 220.298 407.731L220.13 406.457ZM226.948 402.789H220.424V401.557H222.762V400.787H224.624V401.557H226.948V402.789ZM223.686 404.119C223.313 404.119 223.038 404.152 222.86 404.217C222.683 404.273 222.594 404.367 222.594 404.497C222.594 404.637 222.683 404.74 222.86 404.805C223.038 404.861 223.313 404.889 223.686 404.889C224.05 404.889 224.321 404.861 224.498 404.805C224.676 404.74 224.764 404.637 224.764 404.497C224.764 404.245 224.405 404.119 223.686 404.119ZM241.765 407.857H231.293V406.387H233.575V405.043C232.744 404.642 232.329 404.068 232.329 403.321C232.329 402.855 232.502 402.449 232.847 402.103C233.192 401.758 233.682 401.497 234.317 401.319C234.952 401.133 235.694 401.039 236.543 401.039C237.392 401.039 238.134 401.133 238.769 401.319C239.404 401.497 239.894 401.758 240.239 402.103C240.584 402.449 240.757 402.855 240.757 403.321C240.757 403.704 240.64 404.045 240.407 404.343C240.183 404.633 239.856 404.875 239.427 405.071V406.387H241.765V407.857ZM236.529 408.375C237.78 408.375 238.76 408.562 239.469 408.935C240.178 409.299 240.533 409.817 240.533 410.489C240.533 411.189 240.178 411.721 239.469 412.085C238.769 412.459 237.789 412.645 236.529 412.645C235.25 412.645 234.252 412.459 233.533 412.085C232.824 411.721 232.469 411.189 232.469 410.489C232.469 409.817 232.828 409.299 233.547 408.935C234.266 408.562 235.26 408.375 236.529 408.375ZM236.529 409.789C235.782 409.789 235.232 409.845 234.877 409.957C234.532 410.069 234.359 410.247 234.359 410.489C234.359 410.751 234.532 410.942 234.877 411.063C235.222 411.185 235.773 411.245 236.529 411.245C237.257 411.245 237.794 411.185 238.139 411.063C238.494 410.942 238.671 410.751 238.671 410.489C238.671 410.256 238.494 410.083 238.139 409.971C237.784 409.85 237.248 409.789 236.529 409.789ZM236.543 402.481C235.787 402.481 235.213 402.551 234.821 402.691C234.429 402.831 234.233 403.041 234.233 403.321C234.233 403.611 234.424 403.825 234.807 403.965C235.199 404.096 235.778 404.161 236.543 404.161C237.308 404.161 237.882 404.096 238.265 403.965C238.648 403.825 238.839 403.611 238.839 403.321C238.839 403.041 238.643 402.831 238.251 402.691C237.859 402.551 237.29 402.481 236.543 402.481ZM237.593 406.387V405.519C237.294 405.557 236.944 405.575 236.543 405.575C236.114 405.575 235.745 405.557 235.437 405.519V406.387H237.593ZM251.457 405.393H253.067V406.933H251.457V412.659H249.637V400.885H251.457V405.393ZM248.979 404.105H242.287V402.593H244.737V401.081H246.599V402.593H248.979V404.105ZM245.661 404.623C246.221 404.623 246.73 404.745 247.187 404.987C247.645 405.23 247.999 405.571 248.251 406.009C248.513 406.439 248.643 406.929 248.643 407.479C248.643 408.03 248.513 408.52 248.251 408.949C247.999 409.379 247.645 409.715 247.187 409.957C246.73 410.191 246.221 410.307 245.661 410.307C245.101 410.307 244.593 410.191 244.135 409.957C243.687 409.715 243.333 409.379 243.071 408.949C242.81 408.511 242.679 408.021 242.679 407.479C242.679 406.938 242.81 406.448 243.071 406.009C243.333 405.571 243.687 405.23 244.135 404.987C244.593 404.745 245.101 404.623 245.661 404.623ZM245.661 406.149C245.297 406.149 245.003 406.271 244.779 406.513C244.565 406.747 244.457 407.069 244.457 407.479C244.457 407.899 244.565 408.221 244.779 408.445C245.003 408.66 245.297 408.767 245.661 408.767C246.025 408.767 246.319 408.655 246.543 408.431C246.767 408.207 246.879 407.89 246.879 407.479C246.879 407.078 246.763 406.756 246.529 406.513C246.305 406.271 246.016 406.149 245.661 406.149ZM262.704 405.407H254.64V401.291H256.474V403.951H262.704V405.407ZM263.852 408.025H253.352V406.569H263.852V408.025ZM262.76 412.407H254.5V408.893H256.39V410.909H262.76V412.407ZM277.007 412.659H275.159V409.831H269.069V408.333H277.007V412.659ZM277.007 407.843H275.159V406.443H272.765C272.485 406.733 272.149 406.961 271.757 407.129C271.374 407.297 270.959 407.381 270.511 407.381C269.932 407.381 269.405 407.255 268.929 407.003C268.462 406.742 268.089 406.387 267.809 405.939C267.538 405.482 267.403 404.973 267.403 404.413C267.403 403.863 267.538 403.363 267.809 402.915C268.089 402.467 268.462 402.117 268.929 401.865C269.405 401.613 269.932 401.487 270.511 401.487C270.95 401.487 271.36 401.567 271.743 401.725C272.135 401.884 272.471 402.108 272.751 402.397H275.159V400.885H277.007V407.843ZM270.511 403.097C270.11 403.097 269.783 403.214 269.531 403.447C269.279 403.671 269.153 403.993 269.153 404.413C269.153 404.843 269.274 405.174 269.517 405.407C269.769 405.641 270.1 405.757 270.511 405.757C270.884 405.757 271.188 405.641 271.421 405.407C271.664 405.174 271.785 404.843 271.785 404.413C271.785 404.003 271.664 403.681 271.421 403.447C271.178 403.214 270.875 403.097 270.511 403.097ZM275.159 404.945V403.909H273.507C273.535 404.077 273.549 404.245 273.549 404.413C273.549 404.6 273.535 404.777 273.507 404.945H275.159ZM288.968 403.923H287.456V404.847H288.968V406.401H287.456V407.969H285.622V400.899H287.456V402.369H288.968V403.923ZM283.998 405.225H280.568V406.009C281.482 406 282.276 405.972 282.948 405.925C283.62 405.879 284.278 405.799 284.922 405.687L285.09 407.157C284.362 407.316 283.61 407.419 282.836 407.465C282.07 407.512 281.025 407.535 279.7 407.535H278.678V403.825H282.192V403.041H278.692V401.585H283.998V405.225ZM283.634 408.109C284.847 408.109 285.808 408.315 286.518 408.725C287.236 409.136 287.596 409.696 287.596 410.405C287.596 411.115 287.241 411.665 286.532 412.057C285.822 412.449 284.856 412.645 283.634 412.645C282.402 412.645 281.436 412.449 280.736 412.057C280.036 411.665 279.686 411.115 279.686 410.405C279.686 409.696 280.036 409.136 280.736 408.725C281.445 408.315 282.411 408.109 283.634 408.109ZM283.634 409.537C282.915 409.537 282.378 409.607 282.024 409.747C281.669 409.887 281.492 410.107 281.492 410.405C281.492 410.965 282.206 411.245 283.634 411.245C284.352 411.245 284.884 411.18 285.23 411.049C285.584 410.909 285.762 410.695 285.762 410.405C285.762 410.107 285.589 409.887 285.244 409.747C284.898 409.607 284.362 409.537 283.634 409.537Z" fill="#1E1E28"/>
<path d="M52 167.502H102.5" stroke="#1E1E28" stroke-width="2"/>
<path d="M106 167.502H196" stroke="#1E1E28" stroke-width="2"/>
<path d="M76.2929 309.709C76.6834 310.099 77.3166 310.099 77.7071 309.709L84.0711 303.345C84.4616 302.954 84.4616 302.321 84.0711 301.931C83.6805 301.54 83.0474 301.54 82.6569 301.931L77 307.587L71.3431 301.931C70.9526 301.54 70.3195 301.54 69.9289 301.931C69.5384 302.321 69.5384 302.954 69.9289 303.345L76.2929 309.709ZM77 173.002H76V309.002H77H78V173.002H77Z" fill="#1E1E28"/>
<path d="M150.293 369.709C150.683 370.099 151.317 370.099 151.707 369.709L158.071 363.345C158.462 362.954 158.462 362.321 158.071 361.931C157.681 361.54 157.047 361.54 156.657 361.931L151 367.587L145.343 361.931C144.953 361.54 144.319 361.54 143.929 361.931C143.538 362.321 143.538 362.954 143.929 363.345L150.293 369.709ZM151 173.002H150V369.002H151H152V173.002H151Z" fill="#1E1E28"/>
</svg>
