<svg width="288" height="288" viewBox="0 0 288 288" fill="none" xmlns="http://www.w3.org/2000/svg">
<path d="M36.5282 121.184C36.5282 122.192 36.8162 123.184 37.3922 124.16C37.9682 125.12 38.7762 125.952 39.8162 126.656C40.8722 127.344 42.0722 127.808 43.4162 128.048L42.3122 130.112C40.7122 129.776 39.2882 129.136 38.0402 128.192C36.7922 127.248 35.8562 126.12 35.2322 124.808C34.5922 126.136 33.6482 127.264 32.4002 128.192C31.1682 129.12 29.7442 129.76 28.1282 130.112L27.0722 128.048C28.3842 127.792 29.5602 127.32 30.6002 126.632C31.6402 125.928 32.4482 125.096 33.0242 124.136C33.6162 123.16 33.9122 122.176 33.9122 121.184V119.72H36.5282V121.184ZM44.1122 135.848H26.5202V133.76H44.1122V135.848ZM63.3688 131.048H45.8008V129.056H53.3368V127.424H48.0328V118.952H61.2808V120.872H50.5048V122.216H60.8248V124.088H50.5048V125.504H61.4488V127.424H55.8088V129.056H63.3688V131.048ZM61.1848 138.344H58.7128V134.408H47.7928V132.44H61.1848V138.344ZM82.7215 136.064H65.1295V133.952H72.6415V130.112H66.6655V128.12H69.3295V122.24H66.5695V120.2H81.2095V122.24H78.4495V128.12H81.1375V130.112H75.0895V133.952H82.7215V136.064ZM76.0015 128.12V122.24H71.7535V128.12H76.0015ZM100.106 130.472H94.4662V134H102.026V136.04H84.4342V134H91.9702V130.472H86.5702V119.912H99.9382V121.952H89.0662V124.16H99.4822V126.128H89.0662V128.48H100.106V130.472ZM116.222 123.176C116.222 125.016 116.63 126.736 117.446 128.336C118.262 129.936 119.398 131.096 120.854 131.816L119.366 133.832C118.358 133.304 117.486 132.552 116.75 131.576C116.014 130.6 115.438 129.472 115.022 128.192C114.59 129.568 113.982 130.776 113.198 131.816C112.414 132.856 111.486 133.656 110.414 134.216L108.95 132.152C109.958 131.656 110.822 130.944 111.542 130.016C112.278 129.072 112.83 128.008 113.198 126.824C113.582 125.64 113.774 124.424 113.774 123.176V120.056H116.222V123.176ZM124.406 126.224H127.31V128.384H124.406V138.344H121.958V118.472H124.406V126.224ZM135.958 122.48C135.958 123.76 136.358 124.936 137.158 126.008C137.958 127.08 139.102 127.856 140.59 128.336L139.366 130.304C138.31 129.952 137.39 129.424 136.606 128.72C135.822 128.016 135.206 127.184 134.758 126.224C134.31 127.264 133.678 128.176 132.862 128.96C132.062 129.728 131.11 130.304 130.006 130.688L128.71 128.72C130.214 128.208 131.382 127.376 132.214 126.224C133.046 125.072 133.462 123.824 133.462 122.48V121.976H129.382V119.96H139.942V121.976H135.958V122.48ZM144.646 132.896H142.174V118.496H144.646V132.896ZM145.15 137.96H131.878V131.576H134.326V135.944H145.15V137.96ZM163.015 126.2H165.799V128.288H163.015V138.296H160.567V118.472H163.015V126.2ZM157.903 120.536C157.903 127.064 154.999 131.808 149.191 134.768L147.823 132.872C150.143 131.656 151.927 130.208 153.175 128.528C154.439 126.832 155.191 124.856 155.431 122.6H148.831V120.536H157.903Z" fill="#F5F5FA"/>
<path d="M146.723 200V181.952H149.627V196.4H156.803V200H146.723ZM165.321 200.456C161.673 200.456 159.009 196.64 159.009 191.192C159.009 185.936 161.481 181.52 165.729 181.52C168.585 181.52 170.625 183.512 171.561 186.728L168.705 187.568C168.129 185.864 167.025 185.144 165.753 185.144C163.329 185.144 161.961 187.808 161.961 191.168C161.961 194.792 163.545 196.856 165.585 196.856C166.881 196.856 168.225 195.992 168.777 193.808H165.921V190.232H171.705V200H169.089L168.921 198.584C168.033 199.832 166.785 200.456 165.321 200.456ZM175.044 200V181.952H180.9C184.116 181.952 185.892 183.656 185.892 186.776C185.892 188.432 185.412 189.752 184.452 190.448C185.772 191.048 186.516 192.632 186.516 194.528C186.516 197.744 184.308 200 181.188 200H175.044ZM177.924 188.744H180.516C182.148 188.744 183.036 188.24 183.036 187.136C183.036 186.032 182.148 185.528 180.516 185.528H177.924V188.744ZM177.924 196.4H181.212C182.82 196.4 183.588 195.8 183.588 194.336C183.588 192.872 182.82 192.272 181.212 192.272H177.924V196.4ZM192.927 200V185.528H188.559V181.952H200.199V185.528H195.807V200H192.927ZM209.071 200.456C204.943 200.456 201.967 196.472 201.967 191.048C201.967 185.696 204.775 181.52 209.071 181.52C213.367 181.52 216.127 185.72 216.127 191.048C216.127 193.376 215.599 195.44 214.639 197.024C215.143 197.672 215.599 198.272 216.007 198.824L214.063 201.224C213.631 200.648 213.127 200 212.599 199.328C211.591 200.048 210.391 200.456 209.071 200.456ZM209.071 196.88C209.551 196.88 209.983 196.784 210.391 196.592C209.743 195.824 209.143 195.104 208.591 194.504L210.511 192.08C211.111 192.728 211.783 193.52 212.479 194.36C212.887 193.424 213.127 192.296 213.127 191.024C213.127 187.688 211.567 185.12 209.071 185.12C206.575 185.12 205.015 187.688 205.015 191.024C205.015 194.456 206.743 196.88 209.071 196.88ZM219.393 200V181.952H222.321V200H219.393ZM230.382 198.44V192.968H225.942V189.752H230.382V184.28H232.854V189.752H237.294V192.968H232.854V198.44H230.382Z" fill="#F5F5FA"/>
</svg>
