<svg width="288" height="288" viewBox="0 0 288 288" fill="none" xmlns="http://www.w3.org/2000/svg">
<path d="M66.5546 121.856H61.3466V123.728H66.3626V125.648H61.3466V127.664C62.5626 127.648 63.6026 127.608 64.4666 127.544C65.3306 127.48 66.2026 127.368 67.0826 127.208L67.3466 129.248C66.2906 129.44 65.2426 129.568 64.2026 129.632C63.1786 129.696 61.8666 129.728 60.2666 129.728H58.9946V119.84H66.5546V121.856ZM74.7146 130.568H72.4106V125.456H70.4666V130.448H68.1866V118.856H70.4666V123.416H72.4106V118.496H74.7146V130.568ZM74.7146 138.344H72.2906V133.472H61.5146V131.48H74.7146V138.344ZM80.4593 124.832H83.4833V120.272H85.7633V133.568H78.1553V120.272H80.4593V124.832ZM83.4833 131.528V126.824H80.4593V131.528H83.4833ZM94.1873 138.344H91.8353V128.192H89.8433V137.384H87.5393V118.808H89.8433V126.128H91.8353V118.472H94.1873V138.344ZM112.94 138.344H110.468V118.472H112.94V138.344ZM107.204 120.584C107.204 123.752 106.516 126.528 105.14 128.912C103.764 131.296 101.468 133.28 98.252 134.864L96.956 132.848C99.436 131.632 101.292 130.192 102.524 128.528C103.756 126.848 104.476 124.856 104.684 122.552H97.988V120.584H107.204ZM123.101 123.176C123.101 125.016 123.509 126.736 124.325 128.336C125.141 129.936 126.277 131.096 127.733 131.816L126.245 133.832C125.237 133.304 124.365 132.552 123.629 131.576C122.893 130.6 122.317 129.472 121.901 128.192C121.469 129.568 120.861 130.776 120.077 131.816C119.293 132.856 118.365 133.656 117.293 134.216L115.829 132.152C116.837 131.656 117.701 130.944 118.421 130.016C119.157 129.072 119.709 128.008 120.077 126.824C120.461 125.64 120.653 124.424 120.653 123.176V120.056H123.101V123.176ZM131.285 126.224H134.189V128.384H131.285V138.344H128.837V118.472H131.285V126.224Z" fill="#F5F5FA"/>
<path d="M151.462 188.736C151.462 190.272 151.854 191.752 152.638 193.176C153.422 194.6 154.526 195.664 155.95 196.368L154.63 198.24C153.622 197.76 152.742 197.064 151.99 196.152C151.238 195.224 150.654 194.168 150.238 192.984C149.822 194.264 149.214 195.4 148.414 196.392C147.63 197.368 146.71 198.104 145.654 198.6L144.31 196.656C145.286 196.192 146.126 195.544 146.83 194.712C147.55 193.864 148.094 192.92 148.462 191.88C148.83 190.84 149.014 189.792 149.014 188.736V187.776H144.91V185.76H148.99V182.904H151.462V185.76H155.446V187.776H151.462V188.736ZM159.718 190.32H162.622V192.408H159.718V202.344H157.27V182.472H159.718V190.32ZM180.055 192.72H177.607V190.608H173.815V192.096H164.791V183.336H167.239V185.808H171.391V183.336H173.815V185.088H177.607V182.472H180.055V192.72ZM180.055 198.672H169.807V200.112H180.655V202.104H167.359V196.824H177.607V195.504H167.335V193.536H180.055V198.672ZM171.391 190.104V187.728H167.239V190.104H171.391ZM177.607 188.688V186.96H173.815V188.688H177.607ZM198.688 184.968C198.688 186.04 198.656 186.992 198.592 187.824C198.544 188.64 198.416 189.568 198.208 190.608H200.8V192.624H183.208V190.608H195.736C195.944 189.664 196.08 188.792 196.144 187.992C196.208 187.176 196.24 186.328 196.24 185.448H185.392V183.408H198.688V184.968ZM198.64 202.104H185.32V194.904H198.64V202.104ZM187.744 200.088H196.192V196.872H187.744V200.088ZM209.808 188.064C209.808 189.168 210 190.256 210.384 191.328C210.784 192.384 211.352 193.336 212.088 194.184C212.824 195.032 213.696 195.672 214.704 196.104L213.408 198.096C212.304 197.6 211.336 196.872 210.504 195.912C209.688 194.936 209.056 193.808 208.608 192.528C208.16 193.904 207.528 195.128 206.712 196.2C205.896 197.256 204.936 198.056 203.832 198.6L202.416 196.584C203.408 196.12 204.272 195.44 205.008 194.544C205.76 193.632 206.328 192.608 206.712 191.472C207.112 190.336 207.312 189.2 207.312 188.064V186.48H203.112V184.44H214.008V186.48H209.808V188.064ZM218.544 202.344H216.072V182.472H218.544V202.344ZM225.129 186.168H229.305V183.504H231.729V187.128H235.497V182.472H237.969V193.344H235.497V189.168H231.729V192.72H222.681V183.504H225.129V186.168ZM229.305 190.704V188.112H225.129V190.704H229.305ZM227.673 196.176H235.497V194.208H237.969V202.056H225.249V194.208H227.673V196.176ZM235.497 200.04V198.144H227.673V200.04H235.497Z" fill="#F5F5FA"/>
</svg>
