<svg width="288" height="288" viewBox="0 0 288 288" fill="none" xmlns="http://www.w3.org/2000/svg">
<path d="M85.6233 119.744C85.6233 122.336 85.0313 124.536 83.8473 126.344C82.6793 128.136 80.7993 129.584 78.2073 130.688L77.0553 128.84C78.2233 128.36 79.2073 127.824 80.0073 127.232C80.8073 126.64 81.4553 125.968 81.9513 125.216L77.4873 125.72L77.1513 123.704L82.8153 123.392C82.9913 122.832 83.1033 122.288 83.1513 121.76H77.9913V119.744H85.6233ZM93.5193 130.112H91.1913V125.264H89.2713V129.968H86.9673V118.856H89.2713V123.224H91.1913V118.496H93.5193V130.112ZM93.5193 138.104H80.5353V130.952H93.5193V138.104ZM82.9353 136.088H91.1193V132.944H82.9353V136.088ZM107.52 122.336H105.552V131.36C106.608 131.28 107.432 131.2 108.024 131.12L108.168 132.944C106.424 133.248 104.584 133.456 102.648 133.568C100.712 133.664 98.664 133.712 96.504 133.712L96.264 131.648L98.544 131.624V122.336H96.792V120.32H107.52V122.336ZM112.512 138.344H110.088V127.784H106.944V125.768H110.088V118.472H112.512V138.344ZM100.92 131.576C101.656 131.576 102.416 131.552 103.2 131.504V122.336H100.92V131.576Z" fill="#F5F5FA"/>
<path d="M181.495 193.968H163.903V191.952H171.487V190.104H166.063V183.36H179.359V185.304H168.511V188.136H179.455V190.104H173.911V191.952H181.495V193.968ZM172.663 195.072C174.759 195.072 176.391 195.392 177.559 196.032C178.743 196.672 179.335 197.568 179.335 198.72C179.335 199.872 178.743 200.76 177.559 201.384C176.375 202.024 174.743 202.344 172.663 202.344C170.567 202.344 168.919 202.024 167.719 201.384C166.535 200.76 165.943 199.872 165.943 198.72C165.943 197.568 166.535 196.672 167.719 196.032C168.919 195.392 170.567 195.072 172.663 195.072ZM172.663 197.016C171.271 197.016 170.215 197.16 169.495 197.448C168.791 197.736 168.439 198.16 168.439 198.72C168.439 199.856 169.847 200.424 172.663 200.424C175.463 200.424 176.863 199.856 176.863 198.72C176.863 198.16 176.503 197.736 175.783 197.448C175.079 197.16 174.039 197.016 172.663 197.016ZM200.752 192.48H193.192V193.944H198.592V198.864H187.72V200.256H199.096V202.176H185.296V197.088H196.168V195.84H185.248V193.944H190.72V192.48H183.208V190.512H200.752V192.48ZM198.52 189.264H185.416V183.072H198.52V189.264ZM187.84 187.32H196.072V185.04H187.84V187.32ZM218.832 197.448H216.336V195.096H212.472V193.128H216.336V182.496H218.832V197.448ZM219.264 201.96H205.128V195.912H207.552V199.944H219.264V201.96ZM202.416 190.104C205.968 190.072 208.656 190 210.48 189.888C210.704 188.448 210.832 186.992 210.864 185.52H204.144V183.528H213.312V184.272C213.312 186.224 213.184 188.032 212.928 189.696L214.848 189.456L215.04 191.232C213.408 191.52 211.744 191.728 210.048 191.856V196.176H207.6V192C206.048 192.064 204.416 192.096 202.704 192.096L202.416 190.104Z" fill="#F5F5FA"/>
</svg>
