<svg width="288" height="288" viewBox="0 0 288 288" fill="none" xmlns="http://www.w3.org/2000/svg">
<path d="M71.2122 122.38H66.8722V123.94H71.0522V125.54H66.8722V127.22C67.8855 127.207 68.7522 127.173 69.4722 127.12C70.1922 127.067 70.9189 126.973 71.6522 126.84L71.8722 128.54C70.9922 128.7 70.1189 128.807 69.2522 128.86C68.3989 128.913 67.3055 128.94 65.9722 128.94H64.9122V120.7H71.2122V122.38ZM78.0122 129.64H76.0922V125.38H74.4722V129.54H72.5722V119.88H74.4722V123.68H76.0922V119.58H78.0122V129.64ZM78.0122 136.12H75.9922V132.06H67.0122V130.4H78.0122V136.12ZM82.9661 124.86H85.4861V121.06H87.3861V132.14H81.0461V121.06H82.9661V124.86ZM85.4861 130.44V126.52H82.9661V130.44H85.4861ZM94.4061 136.12H92.4461V127.66H90.7861V135.32H88.8661V119.84H90.7861V125.94H92.4461V119.56H94.4061V136.12ZM110.2 136.12H108.14V119.56H110.2V136.12ZM105.42 121.32C105.42 123.96 104.847 126.273 103.7 128.26C102.553 130.247 100.64 131.9 97.96 133.22L96.88 131.54C98.9467 130.527 100.493 129.327 101.52 127.94C102.547 126.54 103.147 124.88 103.32 122.96H97.74V121.32H105.42ZM118.834 123.48C118.834 125.013 119.174 126.447 119.854 127.78C120.534 129.113 121.481 130.08 122.694 130.68L121.454 132.36C120.614 131.92 119.887 131.293 119.274 130.48C118.661 129.667 118.181 128.727 117.834 127.66C117.474 128.807 116.967 129.813 116.314 130.68C115.661 131.547 114.887 132.213 113.994 132.68L112.774 130.96C113.614 130.547 114.334 129.953 114.934 129.18C115.547 128.393 116.007 127.507 116.314 126.52C116.634 125.533 116.794 124.52 116.794 123.48V120.88H118.834V123.48ZM125.654 126.02H128.074V127.82H125.654V136.12H123.614V119.56H125.654V126.02Z" fill="#F5F5FA"/>
<path d="M157.885 188.78C157.885 190.06 158.212 191.293 158.865 192.48C159.519 193.667 160.439 194.553 161.625 195.14L160.525 196.7C159.685 196.3 158.952 195.72 158.325 194.96C157.699 194.187 157.212 193.307 156.865 192.32C156.519 193.387 156.012 194.333 155.345 195.16C154.692 195.973 153.925 196.587 153.045 197L151.925 195.38C152.739 194.993 153.439 194.453 154.025 193.76C154.625 193.053 155.079 192.267 155.385 191.4C155.692 190.533 155.845 189.66 155.845 188.78V187.98H152.425V186.3H155.825V183.92H157.885V186.3H161.205V187.98H157.885V188.78ZM164.765 190.1H167.185V191.84H164.765V200.12H162.725V183.56H164.765V190.1ZM181.879 192.1H179.839V190.34H176.679V191.58H169.159V184.28H171.199V186.34H174.659V184.28H176.679V185.74H179.839V183.56H181.879V192.1ZM181.879 197.06H173.339V198.26H182.379V199.92H171.299V195.52H179.839V194.42H171.279V192.78H181.879V197.06ZM174.659 189.92V187.94H171.199V189.92H174.659ZM179.839 188.74V187.3H176.679V188.74H179.839ZM197.573 185.64C197.573 186.533 197.546 187.327 197.493 188.02C197.453 188.7 197.346 189.473 197.173 190.34H199.333V192.02H184.673V190.34H195.113C195.286 189.553 195.4 188.827 195.453 188.16C195.506 187.48 195.533 186.773 195.533 186.04H186.493V184.34H197.573V185.64ZM197.533 199.92H186.433V193.92H197.533V199.92ZM188.453 198.24H195.493V195.56H188.453V198.24ZM207.007 188.22C207.007 189.14 207.167 190.047 207.487 190.94C207.82 191.82 208.294 192.613 208.907 193.32C209.52 194.027 210.247 194.56 211.087 194.92L210.007 196.58C209.087 196.167 208.28 195.56 207.587 194.76C206.907 193.947 206.38 193.007 206.007 191.94C205.634 193.087 205.107 194.107 204.427 195C203.747 195.88 202.947 196.547 202.027 197L200.847 195.32C201.674 194.933 202.394 194.367 203.007 193.62C203.634 192.86 204.107 192.007 204.427 191.06C204.76 190.113 204.927 189.167 204.927 188.22V186.9H201.427V185.2H210.507V186.9H207.007V188.22ZM214.287 200.12H212.227V183.56H214.287V200.12ZM219.941 186.64H223.421V184.42H225.441V187.44H228.581V183.56H230.641V192.62H228.581V189.14H225.441V192.1H217.901V184.42H219.941V186.64ZM223.421 190.42V188.26H219.941V190.42H223.421ZM222.061 194.98H228.581V193.34H230.641V199.88H220.041V193.34H222.061V194.98ZM228.581 198.2V196.62H222.061V198.2H228.581Z" fill="#F5F5FA"/>
</svg>
