<svg width="288" height="288" viewBox="0 0 288 288" fill="none" xmlns="http://www.w3.org/2000/svg">
<path d="M80.6191 132.02H72.9791V121.16H80.6191V132.02ZM75.0191 130.36H78.5791V122.8H75.0191V130.36ZM85.0191 125.92H87.4591V127.66H85.0191V136.12H82.9791V119.56H85.0191V125.92ZM95.793 121.44C95.793 123.133 95.6264 124.62 95.293 125.9H97.193V119.96H99.113V135.36H97.193V127.6H94.693C93.7597 129.707 92.133 131.44 89.813 132.8L88.653 131.34C90.693 130.14 92.113 128.66 92.913 126.9L88.973 127.3L88.713 125.52L93.473 125.26C93.6197 124.633 93.7264 123.927 93.793 123.14H89.513V121.44H95.793ZM102.533 136.12H100.593V119.56H102.533V136.12ZM118.387 136.14H116.367V127.2H113.407V125.52H116.367V119.56H118.387V136.14ZM113.167 122.68H107.707V125.62H112.527V127.26H107.707V130.64C108.987 130.627 110.107 130.587 111.067 130.52C112.04 130.453 113.007 130.34 113.967 130.18L114.167 131.86C113.047 132.047 111.934 132.173 110.827 132.24C109.72 132.307 108.42 132.34 106.927 132.34H105.687V120.98H113.167V122.68Z" fill="#F5F5FA"/>
<path d="M173.352 192.5H168.652V196.48H174.952V198.14H160.292V196.48H166.572V192.5H161.992V184.86H164.072V190.82H173.352V192.5ZM191.206 193.14H176.546V191.46H182.866V189.92H178.346V184.3H189.426V185.92H180.386V188.28H189.506V189.92H184.886V191.46H191.206V193.14ZM183.846 194.06C185.593 194.06 186.953 194.327 187.926 194.86C188.913 195.393 189.406 196.14 189.406 197.1C189.406 198.06 188.913 198.8 187.926 199.32C186.939 199.853 185.579 200.12 183.846 200.12C182.099 200.12 180.726 199.853 179.726 199.32C178.739 198.8 178.246 198.06 178.246 197.1C178.246 196.14 178.739 195.393 179.726 194.86C180.726 194.327 182.099 194.06 183.846 194.06ZM183.846 195.68C182.686 195.68 181.806 195.8 181.206 196.04C180.619 196.28 180.326 196.633 180.326 197.1C180.326 198.047 181.499 198.52 183.846 198.52C186.179 198.52 187.346 198.047 187.346 197.1C187.346 196.633 187.046 196.28 186.446 196.04C185.859 195.8 184.993 195.68 183.846 195.68ZM207.46 198.14H192.8V196.44H199.1V192.64H201.16V196.44H207.46V198.14ZM206.2 186.58H201.2C201.227 187.367 201.487 188.113 201.98 188.82C202.473 189.527 203.147 190.127 204 190.62C204.853 191.1 205.813 191.42 206.88 191.58L206.08 193.24C204.72 192.987 203.513 192.507 202.46 191.8C201.42 191.093 200.64 190.233 200.12 189.22C199.613 190.26 198.84 191.147 197.8 191.88C196.773 192.6 195.587 193.087 194.24 193.34L193.44 191.68C194.493 191.507 195.44 191.167 196.28 190.66C197.12 190.153 197.78 189.547 198.26 188.84C198.753 188.12 199.013 187.367 199.04 186.58H194.04V184.9H206.2V186.58ZM221.734 187.64H223.954V189.36H221.734V193.24H219.694V183.56H221.734V187.64ZM213.374 195.3H219.694V193.9H221.734V199.92H211.334V193.9H213.374V195.3ZM219.694 198.26V196.9H213.374V198.26H219.694ZM218.594 186.74H209.074V185.1H212.814V183.44H214.874V185.1H218.594V186.74ZM213.854 187.3C215.014 187.3 215.954 187.567 216.674 188.1C217.407 188.633 217.774 189.34 217.774 190.22C217.774 191.1 217.407 191.807 216.674 192.34C215.954 192.873 215.014 193.14 213.854 193.14C212.667 193.14 211.707 192.873 210.974 192.34C210.254 191.807 209.894 191.1 209.894 190.22C209.894 189.34 210.254 188.633 210.974 188.1C211.707 187.567 212.667 187.3 213.854 187.3ZM213.854 188.84C213.254 188.84 212.774 188.967 212.414 189.22C212.067 189.46 211.894 189.793 211.894 190.22C211.894 190.647 212.067 190.98 212.414 191.22C212.774 191.46 213.254 191.58 213.854 191.58C214.454 191.58 214.927 191.46 215.274 191.22C215.634 190.98 215.814 190.647 215.814 190.22C215.814 189.793 215.634 189.46 215.274 189.22C214.914 188.967 214.441 188.84 213.854 188.84Z" fill="#F5F5FA"/>
</svg>
