<svg width="288" height="288" viewBox="0 0 288 288" fill="none" xmlns="http://www.w3.org/2000/svg">
<path d="M84.4913 123.176C84.4913 125.016 84.8993 126.736 85.7153 128.336C86.5313 129.936 87.6673 131.096 89.1233 131.816L87.6353 133.832C86.6273 133.304 85.7553 132.552 85.0193 131.576C84.2833 130.6 83.7073 129.472 83.2913 128.192C82.8593 129.568 82.2513 130.776 81.4673 131.816C80.6833 132.856 79.7553 133.656 78.6833 134.216L77.2193 132.152C78.2273 131.656 79.0913 130.944 79.8113 130.016C80.5473 129.072 81.0993 128.008 81.4673 126.824C81.8513 125.64 82.0433 124.424 82.0433 123.176V120.056H84.4913V123.176ZM92.6753 126.224H95.5793V128.384H92.6753V138.344H90.2273V118.472H92.6753V126.224ZM104.012 123.176C104.012 125.096 104.42 126.864 105.236 128.48C106.068 130.08 107.236 131.232 108.74 131.936L107.276 133.952C105.164 132.864 103.668 130.936 102.788 128.168C102.356 129.56 101.748 130.792 100.964 131.864C100.18 132.92 99.252 133.728 98.18 134.288L96.668 132.248C97.692 131.752 98.564 131.032 99.284 130.088C100.02 129.144 100.572 128.072 100.94 126.872C101.324 125.672 101.516 124.44 101.516 123.176V120.056H104.012V123.176ZM113.012 138.368H110.588V126.896H106.628V124.856H110.588V118.472H113.012V138.368Z" fill="#F5F5FA"/>
<path d="M176.843 191.352C179.707 191.32 182.323 191.048 184.691 190.536L184.955 192.576C182.299 193.136 179.323 193.416 176.027 193.416H174.395V183.84H176.843V191.352ZM188.771 188.184H191.435V190.248H188.771V196.776H186.323V182.496H188.771V188.184ZM189.443 201.96H176.435V195.432H178.907V199.944H189.443V201.96ZM203.132 193.608H193.844V184.104H203.132V193.608ZM196.292 191.592H200.756V186.096H196.292V191.592ZM208.916 196.656H206.468V182.496H208.916V196.656ZM209.444 201.84H196.148V195.36H198.62V199.8H209.444V201.84Z" fill="#F5F5FA"/>
</svg>
