<svg width="288" height="288" viewBox="0 0 288 288" fill="none" xmlns="http://www.w3.org/2000/svg">
<path d="M69.0252 135.92H57.8852V131.14H69.0252V135.92ZM59.9252 134.36H67.0252V132.68H59.9252V134.36ZM69.9852 122.4H56.9052V120.8H62.4452V119.4H64.5052V120.8H69.9852V122.4ZM63.4852 122.88C65.2052 122.88 66.5252 123.087 67.4452 123.5C68.3652 123.9 68.8252 124.48 68.8252 125.24C68.8252 125.933 68.4519 126.48 67.7052 126.88C66.9719 127.267 65.9052 127.5 64.5052 127.58V128.52H70.7852V130.14H56.1652V128.52H62.4452V127.58C61.0452 127.5 59.9719 127.26 59.2252 126.86C58.4919 126.46 58.1252 125.92 58.1252 125.24C58.1252 124.48 58.5852 123.9 59.5052 123.5C60.4386 123.087 61.7652 122.88 63.4852 122.88ZM63.4852 124.3C61.3786 124.3 60.3252 124.613 60.3252 125.24C60.3252 125.853 61.3786 126.16 63.4852 126.16C65.5919 126.16 66.6452 125.853 66.6452 125.24C66.6452 124.613 65.5919 124.3 63.4852 124.3ZM87.0791 134.14H72.4191V132.38H87.0791V134.14ZM85.8191 122.78H83.5191V127.98H85.7591V129.62H73.6991V127.98H75.9191V122.78H73.6191V121.08H85.8191V122.78ZM81.4791 127.98V122.78H77.9391V127.98H81.4791ZM103.333 134.22H88.673V132.5H94.953V129.82H90.413V124.38H99.573V122.38H90.393V120.68H101.633V126.02H92.453V128.12H101.993V129.82H96.993V132.5H103.333V134.22ZM111.727 122.36H107.567V124.02H111.087V125.62H107.567V127.42C108.567 127.407 109.42 127.373 110.127 127.32C110.834 127.267 111.554 127.167 112.287 127.02L112.507 128.68C111.627 128.827 110.76 128.927 109.907 128.98C109.067 129.033 107.987 129.06 106.667 129.06H105.607V120.7H111.727V122.36ZM118.647 136.12H116.627V132.24H107.607V130.56H118.647V136.12ZM118.647 129.86H116.727V119.58H118.647V129.86ZM115.487 129.74H113.547V125.5H111.807V123.82H113.547V119.9H115.487V129.74ZM134.641 136.14H132.621V127.2H129.661V125.52H132.621V119.56H134.641V136.14ZM129.421 122.68H123.961V125.62H128.781V127.26H123.961V130.64C125.241 130.627 126.361 130.587 127.321 130.52C128.294 130.453 129.261 130.34 130.221 130.18L130.421 131.86C129.301 132.047 128.188 132.173 127.081 132.24C125.974 132.307 124.674 132.34 123.181 132.34H121.941V120.98H129.421V122.68Z" fill="#F5F5FA"/>
<path d="M166.825 194.62H160.465V200.1H158.425V194.62H152.145V192.92H166.825V194.62ZM165.045 191.02H153.925V184.4H165.045V191.02ZM155.945 189.36H162.985V186.06H155.945V189.36ZM174.239 186.54C174.239 187.58 174.559 188.527 175.199 189.38C175.839 190.233 176.759 190.853 177.959 191.24L177.019 192.88C175.259 192.32 173.999 191.253 173.239 189.68C172.879 190.56 172.359 191.327 171.679 191.98C171.012 192.62 170.212 193.1 169.279 193.42L168.259 191.74C169.512 191.313 170.472 190.627 171.139 189.68C171.819 188.733 172.159 187.693 172.159 186.56V186.38H168.799V184.7H177.499V186.38H174.239V186.54ZM181.099 187.5H183.299V189.22H181.099V193.42H179.039V183.56H181.099V187.5ZM175.879 193.78C177.559 193.78 178.872 194.06 179.819 194.62C180.779 195.167 181.259 195.94 181.259 196.94C181.259 197.927 180.779 198.7 179.819 199.26C178.872 199.82 177.559 200.1 175.879 200.1C174.199 200.1 172.872 199.82 171.899 199.26C170.926 198.7 170.439 197.927 170.439 196.94C170.439 195.94 170.919 195.167 171.879 194.62C172.852 194.06 174.186 193.78 175.879 193.78ZM175.879 195.42C174.786 195.42 173.946 195.553 173.359 195.82C172.772 196.073 172.479 196.447 172.479 196.94C172.479 197.433 172.772 197.813 173.359 198.08C173.946 198.333 174.786 198.46 175.879 198.46C176.959 198.46 177.786 198.333 178.359 198.08C178.946 197.813 179.239 197.433 179.239 196.94C179.239 196.447 178.946 196.073 178.359 195.82C177.786 195.553 176.959 195.42 175.879 195.42ZM188.313 184.8C189.02 184.8 189.633 185.04 190.153 185.52C190.686 186 191.1 186.687 191.393 187.58C191.686 188.473 191.833 189.52 191.833 190.72C191.833 191.933 191.686 192.987 191.393 193.88C191.1 194.773 190.686 195.46 190.153 195.94C189.633 196.42 189.02 196.66 188.313 196.66C187.606 196.66 186.993 196.42 186.473 195.94C185.953 195.46 185.546 194.773 185.253 193.88C184.973 192.987 184.833 191.933 184.833 190.72C184.833 189.507 184.973 188.46 185.253 187.58C185.546 186.687 185.953 186 186.473 185.52C186.993 185.04 187.606 184.8 188.313 184.8ZM188.313 186.78C187.82 186.78 187.426 187.12 187.133 187.8C186.853 188.48 186.713 189.453 186.713 190.72C186.713 191.987 186.853 192.96 187.133 193.64C187.426 194.32 187.82 194.66 188.313 194.66C188.833 194.66 189.233 194.327 189.513 193.66C189.793 192.98 189.933 192 189.933 190.72C189.933 189.44 189.793 188.467 189.513 187.8C189.233 187.12 188.833 186.78 188.313 186.78ZM198.533 200.12H196.573V191.66H194.913V199.32H192.993V183.84H194.913V189.94H196.573V183.56H198.533V200.12ZM208.167 193.9C209.914 193.9 211.294 194.18 212.307 194.74C213.334 195.287 213.847 196.047 213.847 197.02C213.847 197.98 213.334 198.733 212.307 199.28C211.28 199.827 209.9 200.1 208.167 200.1C206.434 200.1 205.054 199.827 204.027 199.28C203.014 198.733 202.507 197.98 202.507 197.02C202.507 196.047 203.014 195.287 204.027 194.74C205.04 194.18 206.42 193.9 208.167 193.9ZM208.167 195.48C207.02 195.48 206.127 195.613 205.487 195.88C204.847 196.147 204.527 196.527 204.527 197.02C204.527 197.5 204.84 197.867 205.467 198.12C206.107 198.373 207.007 198.5 208.167 198.5C209.327 198.5 210.227 198.373 210.867 198.12C211.507 197.867 211.827 197.5 211.827 197.02C211.827 196.527 211.507 196.147 210.867 195.88C210.227 195.613 209.327 195.48 208.167 195.48ZM213.767 185.68C213.767 186.573 213.74 187.347 213.687 188C213.634 188.653 213.507 189.353 213.307 190.1L211.307 189.9C211.467 189.207 211.574 188.56 211.627 187.96C211.68 187.347 211.707 186.687 211.707 185.98H202.627V184.34H213.767V185.68ZM215.527 192.74H200.967V191.06H206.547V188.06H208.587V191.06H215.527V192.74ZM229.861 188.3H232.061V190.04H229.861V195.48H227.781V183.56H229.861V188.3ZM225.521 184.8C225.521 187 224.861 188.867 223.541 190.4C222.234 191.933 220.374 193.067 217.961 193.8L217.121 192.14C218.948 191.607 220.388 190.853 221.441 189.88C222.494 188.907 223.108 187.787 223.281 186.52H217.821V184.8H225.521ZM230.441 199.8H219.541V194.28H221.601V198.12H230.441V199.8Z" fill="#F5F5FA"/>
</svg>
