<svg width="288" height="288" viewBox="0 0 288 288" fill="none" xmlns="http://www.w3.org/2000/svg">
<path d="M66.5546 121.856H61.3466V123.728H66.3626V125.648H61.3466V127.664C62.5626 127.648 63.6026 127.608 64.4666 127.544C65.3306 127.48 66.2026 127.368 67.0826 127.208L67.3466 129.248C66.2906 129.44 65.2426 129.568 64.2026 129.632C63.1786 129.696 61.8666 129.728 60.2666 129.728H58.9946V119.84H66.5546V121.856ZM74.7146 130.568H72.4106V125.456H70.4666V130.448H68.1866V118.856H70.4666V123.416H72.4106V118.496H74.7146V130.568ZM74.7146 138.344H72.2906V133.472H61.5146V131.48H74.7146V138.344ZM80.4593 124.832H83.4833V120.272H85.7633V133.568H78.1553V120.272H80.4593V124.832ZM83.4833 131.528V126.824H80.4593V131.528H83.4833ZM94.1873 138.344H91.8353V128.192H89.8433V137.384H87.5393V118.808H89.8433V126.128H91.8353V118.472H94.1873V138.344ZM112.94 138.344H110.468V118.472H112.94V138.344ZM107.204 120.584C107.204 123.752 106.516 126.528 105.14 128.912C103.764 131.296 101.468 133.28 98.252 134.864L96.956 132.848C99.436 131.632 101.292 130.192 102.524 128.528C103.756 126.848 104.476 124.856 104.684 122.552H97.988V120.584H107.204ZM123.101 123.176C123.101 125.016 123.509 126.736 124.325 128.336C125.141 129.936 126.277 131.096 127.733 131.816L126.245 133.832C125.237 133.304 124.365 132.552 123.629 131.576C122.893 130.6 122.317 129.472 121.901 128.192C121.469 129.568 120.861 130.776 120.077 131.816C119.293 132.856 118.365 133.656 117.293 134.216L115.829 132.152C116.837 131.656 117.701 130.944 118.421 130.016C119.157 129.072 119.709 128.008 120.077 126.824C120.461 125.64 120.653 124.424 120.653 123.176V120.056H123.101V123.176ZM131.285 126.224H134.189V128.384H131.285V138.344H128.837V118.472H131.285V126.224Z" fill="#F5F5FA"/>
<path d="M190.259 202.344H187.907V192.288H186.035V201.384H183.731V182.808H186.035V190.224H187.907V182.472H190.259V202.344ZM179.579 187.512C179.579 189.384 179.899 191.056 180.539 192.528C181.195 194 182.203 195.096 183.563 195.816L182.147 197.736C180.419 196.808 179.187 195.208 178.451 192.936C177.763 195.512 176.523 197.352 174.731 198.456L173.219 196.512C174.595 195.728 175.603 194.544 176.243 192.96C176.883 191.376 177.203 189.56 177.203 187.512V186.624H173.819V184.608H182.675V186.624H179.579V187.512ZM196.148 191.352C199.012 191.32 201.628 191.048 203.996 190.536L204.26 192.576C201.604 193.136 198.628 193.416 195.332 193.416H193.7V183.84H196.148V191.352ZM208.076 188.184H210.74V190.248H208.076V196.776H205.628V182.496H208.076V188.184ZM208.748 201.96H195.74V195.432H198.212V199.944H208.748V201.96Z" fill="#F5F5FA"/>
</svg>
