<svg width="288" height="288" viewBox="0 0 288 288" fill="none" xmlns="http://www.w3.org/2000/svg">
<path d="M85.495 135.944H67.903V133.88H71.959V128.888C71.191 128.424 70.591 127.84 70.159 127.136C69.727 126.432 69.511 125.648 69.511 124.784C69.511 123.744 69.815 122.832 70.423 122.048C71.047 121.248 71.903 120.632 72.991 120.2C74.079 119.752 75.311 119.528 76.687 119.528C78.063 119.528 79.295 119.752 80.383 120.2C81.487 120.632 82.343 121.248 82.951 122.048C83.575 122.832 83.887 123.744 83.887 124.784C83.887 125.632 83.671 126.408 83.239 127.112C82.823 127.8 82.239 128.376 81.487 128.84V133.88H85.495V135.944ZM76.687 121.496C75.247 121.496 74.095 121.792 73.231 122.384C72.367 122.976 71.935 123.776 71.935 124.784C71.935 125.792 72.367 126.6 73.231 127.208C74.095 127.8 75.247 128.096 76.687 128.096C78.111 128.096 79.263 127.8 80.143 127.208C81.039 126.6 81.487 125.792 81.487 124.784C81.487 123.776 81.039 122.976 80.143 122.384C79.263 121.792 78.111 121.496 76.687 121.496ZM79.015 133.88V129.8C78.247 129.96 77.471 130.04 76.687 130.04C75.855 130.04 75.087 129.96 74.383 129.8V133.88H79.015ZM103.288 138.368H100.816V118.472H103.288V138.368ZM97.3357 127.688H90.7837V131.624C92.4317 131.608 93.9197 131.552 95.2477 131.456C96.5757 131.36 97.9437 131.184 99.3517 130.928L99.5437 132.968C98.0397 133.24 96.5437 133.424 95.0557 133.52C93.5837 133.616 91.8877 133.664 89.9677 133.664H88.2637V125.72H94.8157V122.216H88.2397V120.176H97.3357V127.688ZM113.448 123.176C113.448 125.016 113.856 126.736 114.672 128.336C115.488 129.936 116.624 131.096 118.08 131.816L116.592 133.832C115.584 133.304 114.712 132.552 113.976 131.576C113.24 130.6 112.664 129.472 112.248 128.192C111.816 129.568 111.208 130.776 110.424 131.816C109.64 132.856 108.712 133.656 107.64 134.216L106.176 132.152C107.184 131.656 108.048 130.944 108.768 130.016C109.504 129.072 110.056 128.008 110.424 126.824C110.808 125.64 111 124.424 111 123.176V120.056H113.448V123.176ZM121.632 126.224H124.536V128.384H121.632V138.344H119.184V118.472H121.632V126.224Z" fill="#F5F5FA"/>
<path d="M167.533 196.824H165.061V182.496H167.533V196.824ZM168.037 201.96H154.765V195.384H157.237V199.944H168.037V201.96ZM157.021 183.792C157.997 183.792 158.877 184.008 159.661 184.44C160.461 184.856 161.085 185.448 161.533 186.216C161.997 186.968 162.229 187.816 162.229 188.76C162.229 189.72 161.997 190.584 161.533 191.352C161.085 192.104 160.461 192.696 159.661 193.128C158.877 193.544 157.997 193.752 157.021 193.752C156.045 193.752 155.157 193.544 154.357 193.128C153.573 192.696 152.949 192.104 152.485 191.352C152.037 190.584 151.813 189.72 151.813 188.76C151.813 187.816 152.037 186.968 152.485 186.216C152.949 185.464 153.581 184.872 154.381 184.44C155.181 184.008 156.061 183.792 157.021 183.792ZM157.021 185.976C156.205 185.976 155.533 186.232 155.005 186.744C154.477 187.256 154.213 187.928 154.213 188.76C154.213 189.608 154.477 190.288 155.005 190.8C155.533 191.312 156.205 191.568 157.021 191.568C157.821 191.568 158.485 191.312 159.013 190.8C159.541 190.288 159.805 189.608 159.805 188.76C159.805 187.928 159.541 187.256 159.013 186.744C158.485 186.232 157.821 185.976 157.021 185.976ZM187.102 197.448H184.606V195.096H180.742V193.128H184.606V182.496H187.102V197.448ZM187.534 201.96H173.398V195.912H175.822V199.944H187.534V201.96ZM170.686 190.104C174.238 190.072 176.926 190 178.75 189.888C178.974 188.448 179.102 186.992 179.134 185.52H172.414V183.528H181.582V184.272C181.582 186.224 181.454 188.032 181.198 189.696L183.118 189.456L183.31 191.232C181.678 191.52 180.014 191.728 178.318 191.856V196.176H175.87V192C174.318 192.064 172.686 192.096 170.974 192.096L170.686 190.104ZM210.921 187.272H213.489V189.36H210.921V194.184H208.473V182.472H210.921V187.272ZM210.921 199.248H200.505V200.472H211.593V202.176H198.057V197.712H208.497V196.608H198.033V194.952H210.921V199.248ZM195.489 192.12C197.521 192.12 199.113 192.104 200.265 192.072V191.112C199.193 190.984 198.345 190.704 197.721 190.272C197.113 189.824 196.809 189.248 196.809 188.544C196.809 187.744 197.225 187.112 198.057 186.648C198.905 186.184 200.041 185.952 201.465 185.952C202.889 185.952 204.025 186.184 204.873 186.648C205.721 187.096 206.145 187.728 206.145 188.544C206.145 189.248 205.841 189.824 205.233 190.272C204.625 190.704 203.793 190.984 202.737 191.112V192C204.657 191.888 206.249 191.744 207.513 191.568L207.681 193.152C205.889 193.456 204.033 193.656 202.113 193.752C200.193 193.832 198.065 193.872 195.729 193.872L195.489 192.12ZM207.009 185.496H195.969V183.816H200.265V182.304H202.737V183.816H207.009V185.496ZM201.465 187.536C200.745 187.536 200.177 187.624 199.761 187.8C199.361 187.976 199.161 188.224 199.161 188.544C199.161 188.88 199.361 189.136 199.761 189.312C200.177 189.488 200.745 189.576 201.465 189.576C202.217 189.576 202.793 189.488 203.193 189.312C203.593 189.136 203.793 188.88 203.793 188.544C203.793 188.224 203.593 187.976 203.193 187.8C202.793 187.624 202.217 187.536 201.465 187.536ZM232.53 193.968H214.938V191.952H222.522V190.104H217.098V183.36H230.394V185.304H219.546V188.136H230.49V190.104H224.946V191.952H232.53V193.968ZM223.698 195.072C225.794 195.072 227.426 195.392 228.594 196.032C229.778 196.672 230.37 197.568 230.37 198.72C230.37 199.872 229.778 200.76 228.594 201.384C227.41 202.024 225.778 202.344 223.698 202.344C221.602 202.344 219.954 202.024 218.754 201.384C217.57 200.76 216.978 199.872 216.978 198.72C216.978 197.568 217.57 196.672 218.754 196.032C219.954 195.392 221.602 195.072 223.698 195.072ZM223.698 197.016C222.306 197.016 221.25 197.16 220.53 197.448C219.826 197.736 219.474 198.16 219.474 198.72C219.474 199.856 220.882 200.424 223.698 200.424C226.498 200.424 227.898 199.856 227.898 198.72C227.898 198.16 227.538 197.736 226.818 197.448C226.114 197.16 225.074 197.016 223.698 197.016Z" fill="#F5F5FA"/>
</svg>
