<svg width="288" height="288" viewBox="0 0 288 288" fill="none" xmlns="http://www.w3.org/2000/svg">
<path d="M36.5282 121.184C36.5282 122.192 36.8162 123.184 37.3922 124.16C37.9682 125.12 38.7762 125.952 39.8162 126.656C40.8722 127.344 42.0722 127.808 43.4162 128.048L42.3122 130.112C40.7122 129.776 39.2882 129.136 38.0402 128.192C36.7922 127.248 35.8562 126.12 35.2322 124.808C34.5922 126.136 33.6482 127.264 32.4002 128.192C31.1682 129.12 29.7442 129.76 28.1282 130.112L27.0722 128.048C28.3842 127.792 29.5602 127.32 30.6002 126.632C31.6402 125.928 32.4482 125.096 33.0242 124.136C33.6162 123.16 33.9122 122.176 33.9122 121.184V119.72H36.5282V121.184ZM44.1122 135.848H26.5202V133.76H44.1122V135.848ZM63.3688 131.048H45.8008V129.056H53.3368V127.424H48.0328V118.952H61.2808V120.872H50.5048V122.216H60.8248V124.088H50.5048V125.504H61.4488V127.424H55.8088V129.056H63.3688V131.048ZM61.1848 138.344H58.7128V134.408H47.7928V132.44H61.1848V138.344ZM82.7215 136.064H65.1295V133.952H72.6415V130.112H66.6655V128.12H69.3295V122.24H66.5695V120.2H81.2095V122.24H78.4495V128.12H81.1375V130.112H75.0895V133.952H82.7215V136.064ZM76.0015 128.12V122.24H71.7535V128.12H76.0015ZM100.106 130.472H94.4662V134H102.026V136.04H84.4342V134H91.9702V130.472H86.5702V119.912H99.9382V121.952H89.0662V124.16H99.4822V126.128H89.0662V128.48H100.106V130.472ZM116.222 123.176C116.222 125.016 116.63 126.736 117.446 128.336C118.262 129.936 119.398 131.096 120.854 131.816L119.366 133.832C118.358 133.304 117.486 132.552 116.75 131.576C116.014 130.6 115.438 129.472 115.022 128.192C114.59 129.568 113.982 130.776 113.198 131.816C112.414 132.856 111.486 133.656 110.414 134.216L108.95 132.152C109.958 131.656 110.822 130.944 111.542 130.016C112.278 129.072 112.83 128.008 113.198 126.824C113.582 125.64 113.774 124.424 113.774 123.176V120.056H116.222V123.176ZM124.406 126.224H127.31V128.384H124.406V138.344H121.958V118.472H124.406V126.224ZM135.958 122.48C135.958 123.76 136.358 124.936 137.158 126.008C137.958 127.08 139.102 127.856 140.59 128.336L139.366 130.304C138.31 129.952 137.39 129.424 136.606 128.72C135.822 128.016 135.206 127.184 134.758 126.224C134.31 127.264 133.678 128.176 132.862 128.96C132.062 129.728 131.11 130.304 130.006 130.688L128.71 128.72C130.214 128.208 131.382 127.376 132.214 126.224C133.046 125.072 133.462 123.824 133.462 122.48V121.976H129.382V119.96H139.942V121.976H135.958V122.48ZM144.646 132.896H142.174V118.496H144.646V132.896ZM145.15 137.96H131.878V131.576H134.326V135.944H145.15V137.96ZM163.015 126.2H165.799V128.288H163.015V138.296H160.567V118.472H163.015V126.2ZM157.903 120.536C157.903 127.064 154.999 131.808 149.191 134.768L147.823 132.872C150.143 131.656 151.927 130.208 153.175 128.528C154.439 126.832 155.191 124.856 155.431 122.6H148.831V120.536H157.903Z" fill="#F5F5FA"/>
<path d="M169.923 193.2H164.283V197.976H171.843V199.968H154.251V197.976H161.787V193.2H156.291V184.032H158.787V191.184H169.923V193.2ZM191.147 193.968H173.555V191.952H181.139V190.104H175.715V183.36H189.011V185.304H178.163V188.136H189.107V190.104H183.563V191.952H191.147V193.968ZM182.315 195.072C184.411 195.072 186.043 195.392 187.211 196.032C188.395 196.672 188.987 197.568 188.987 198.72C188.987 199.872 188.395 200.76 187.211 201.384C186.027 202.024 184.395 202.344 182.315 202.344C180.219 202.344 178.571 202.024 177.371 201.384C176.187 200.76 175.595 199.872 175.595 198.72C175.595 197.568 176.187 196.672 177.371 196.032C178.571 195.392 180.219 195.072 182.315 195.072ZM182.315 197.016C180.923 197.016 179.867 197.16 179.147 197.448C178.443 197.736 178.091 198.16 178.091 198.72C178.091 199.856 179.499 200.424 182.315 200.424C185.115 200.424 186.515 199.856 186.515 198.72C186.515 198.16 186.155 197.736 185.435 197.448C184.731 197.16 183.691 197.016 182.315 197.016ZM210.452 199.968H192.86V197.928H200.42V193.368H202.892V197.928H210.452V199.968ZM208.94 186.096H202.94C202.972 187.04 203.284 187.936 203.876 188.784C204.468 189.632 205.276 190.352 206.3 190.944C207.324 191.52 208.476 191.904 209.756 192.096L208.796 194.088C207.164 193.784 205.716 193.208 204.452 192.36C203.204 191.512 202.268 190.48 201.644 189.264C201.036 190.512 200.108 191.576 198.86 192.456C197.628 193.32 196.204 193.904 194.588 194.208L193.628 192.216C194.892 192.008 196.028 191.6 197.036 190.992C198.044 190.384 198.836 189.656 199.412 188.808C200.004 187.944 200.316 187.04 200.348 186.096H194.348V184.08H208.94V186.096ZM227.381 187.368H230.045V189.432H227.381V194.088H224.933V182.472H227.381V187.368ZM217.349 196.56H224.933V194.88H227.381V202.104H214.901V194.88H217.349V196.56ZM224.933 200.112V198.48H217.349V200.112H224.933ZM223.613 186.288H212.189V184.32H216.677V182.328H219.149V184.32H223.613V186.288ZM217.925 186.96C219.317 186.96 220.445 187.28 221.309 187.92C222.189 188.56 222.629 189.408 222.629 190.464C222.629 191.52 222.189 192.368 221.309 193.008C220.445 193.648 219.317 193.968 217.925 193.968C216.501 193.968 215.349 193.648 214.469 193.008C213.605 192.368 213.173 191.52 213.173 190.464C213.173 189.408 213.605 188.56 214.469 187.92C215.349 187.28 216.501 186.96 217.925 186.96ZM217.925 188.808C217.205 188.808 216.629 188.96 216.197 189.264C215.781 189.552 215.573 189.952 215.573 190.464C215.573 190.976 215.781 191.376 216.197 191.664C216.629 191.952 217.205 192.096 217.925 192.096C218.645 192.096 219.213 191.952 219.629 191.664C220.061 191.376 220.277 190.976 220.277 190.464C220.277 189.952 220.061 189.552 219.629 189.264C219.197 188.96 218.629 188.808 217.925 188.808Z" fill="#F5F5FA"/>
</svg>
