<svg width="288" height="288" viewBox="0 0 288 288" fill="none" xmlns="http://www.w3.org/2000/svg">
<path d="M56.4079 137L62.0479 118.952H65.2399L70.8319 137H67.8319L66.4879 132.512H60.8239L59.4319 137H56.4079ZM61.9039 128.96H65.4079L63.6559 123.296L61.9039 128.96ZM73.3775 137V118.952H76.3055V137H73.3775ZM95.67 138.344H93.318V128.144H91.302V137.432H89.022V118.976H91.302V126.128H93.318V118.472H95.67V138.344ZM87.462 120.944C87.462 123.856 86.926 126.408 85.854 128.6C84.782 130.792 82.958 132.656 80.382 134.192L78.942 132.44C80.91 131.288 82.374 129.944 83.334 128.408C84.294 126.856 84.862 125.048 85.038 122.984H79.854V120.944H87.462ZM101.511 121.832H105.855V119.336H108.303V128H99.0627V119.336H101.511V121.832ZM105.855 126.032V123.752H101.511V126.032H105.855ZM113.631 122.432H116.295V124.472H113.631V128.624H111.183V118.472H113.631V122.432ZM113.631 134.648H103.455V136.208H114.231V138.176H101.031V132.848H111.207V131.384H101.007V129.44H113.631V134.648ZM124.679 124.064C124.679 125.104 124.863 126.152 125.231 127.208C125.615 128.264 126.167 129.232 126.887 130.112C127.623 130.976 128.479 131.64 129.455 132.104L128.111 134.096C127.055 133.584 126.127 132.832 125.327 131.84C124.543 130.848 123.927 129.72 123.479 128.456C123.031 129.848 122.399 131.088 121.583 132.176C120.767 133.248 119.823 134.056 118.751 134.6L117.359 132.584C118.351 132.104 119.215 131.408 119.951 130.496C120.687 129.568 121.247 128.544 121.631 127.424C122.031 126.288 122.231 125.168 122.231 124.064V122.48H118.055V120.44H128.663V122.48H124.679V124.064ZM132.839 126.176H135.743V128.288H132.839V138.344H130.391V118.472H132.839V126.176Z" fill="#F5F5FA"/>
<path d="M159.417 195.624H155.169V202.344H152.673V195.624H148.497V202.344H145.977V195.624H141.801V193.608H159.417V195.624ZM150.561 183.168C151.921 183.168 153.129 183.352 154.185 183.72C155.241 184.072 156.057 184.584 156.633 185.256C157.225 185.928 157.521 186.712 157.521 187.608C157.521 188.488 157.225 189.264 156.633 189.936C156.057 190.592 155.241 191.096 154.185 191.448C153.129 191.8 151.921 191.976 150.561 191.976C149.201 191.976 148.001 191.8 146.961 191.448C145.921 191.096 145.105 190.592 144.513 189.936C143.937 189.264 143.649 188.488 143.649 187.608C143.649 186.712 143.937 185.928 144.513 185.256C145.105 184.584 145.921 184.072 146.961 183.72C148.001 183.352 149.201 183.168 150.561 183.168ZM150.561 185.184C149.201 185.184 148.129 185.4 147.345 185.832C146.561 186.248 146.169 186.84 146.169 187.608C146.169 188.36 146.561 188.944 147.345 189.36C148.129 189.776 149.201 189.984 150.561 189.984C151.937 189.984 153.017 189.776 153.801 189.36C154.601 188.944 155.001 188.36 155.001 187.608C155.001 186.84 154.601 186.248 153.801 185.832C153.017 185.4 151.937 185.184 150.561 185.184ZM177.21 202.344H174.738V182.472H177.21V202.344ZM171.474 184.584C171.474 187.752 170.786 190.528 169.41 192.912C168.034 195.296 165.738 197.28 162.522 198.864L161.226 196.848C163.706 195.632 165.562 194.192 166.794 192.528C168.026 190.848 168.746 188.856 168.954 186.552H162.258V184.584H171.474ZM196.034 189.6H190.442V191.784H198.026V193.824H180.434V191.784H187.994V189.6H182.714V182.808H185.162V187.584H196.034V189.6ZM189.194 195C191.274 195 192.906 195.328 194.09 195.984C195.274 196.624 195.866 197.52 195.866 198.672C195.866 199.824 195.274 200.72 194.09 201.36C192.906 202 191.274 202.32 189.194 202.32C187.098 202.32 185.45 202 184.25 201.36C183.066 200.72 182.474 199.824 182.474 198.672C182.474 197.52 183.066 196.624 184.25 195.984C185.45 195.328 187.098 195 189.194 195ZM189.194 196.92C187.818 196.92 186.77 197.072 186.05 197.376C185.33 197.664 184.97 198.096 184.97 198.672C184.97 199.232 185.33 199.664 186.05 199.968C186.77 200.256 187.818 200.4 189.194 200.4C190.554 200.4 191.594 200.256 192.314 199.968C193.034 199.664 193.394 199.232 193.394 198.672C193.394 198.096 193.034 197.664 192.314 197.376C191.61 197.072 190.57 196.92 189.194 196.92ZM220.886 189.6H215.294V191.784H222.878V193.824H205.286V191.784H212.846V189.6H207.566V182.808H210.014V187.584H220.886V189.6ZM214.046 195C216.126 195 217.758 195.328 218.942 195.984C220.126 196.624 220.718 197.52 220.718 198.672C220.718 199.824 220.126 200.72 218.942 201.36C217.758 202 216.126 202.32 214.046 202.32C211.95 202.32 210.302 202 209.102 201.36C207.918 200.72 207.326 199.824 207.326 198.672C207.326 197.52 207.918 196.624 209.102 195.984C210.302 195.328 211.95 195 214.046 195ZM214.046 196.92C212.67 196.92 211.622 197.072 210.902 197.376C210.182 197.664 209.822 198.096 209.822 198.672C209.822 199.232 210.182 199.664 210.902 199.968C211.622 200.256 212.67 200.4 214.046 200.4C215.406 200.4 216.446 200.256 217.166 199.968C217.886 199.664 218.246 199.232 218.246 198.672C218.246 198.096 217.886 197.664 217.166 197.376C216.462 197.072 215.422 196.92 214.046 196.92ZM229.966 183.336C231.214 183.336 232.286 183.672 233.182 184.344C234.078 185.016 234.646 185.896 234.886 186.984H238.27V182.472H240.742V193.152H238.27V189H234.886C234.662 190.104 234.094 191 233.182 191.688C232.286 192.376 231.214 192.72 229.966 192.72C228.99 192.72 228.11 192.52 227.326 192.12C226.558 191.704 225.95 191.144 225.502 190.44C225.07 189.72 224.854 188.904 224.854 187.992C224.854 187.096 225.07 186.296 225.502 185.592C225.95 184.888 226.558 184.336 227.326 183.936C228.11 183.536 228.99 183.336 229.966 183.336ZM229.966 185.448C229.15 185.448 228.478 185.68 227.95 186.144C227.438 186.608 227.182 187.224 227.182 187.992C227.182 188.776 227.438 189.408 227.95 189.888C228.478 190.368 229.15 190.608 229.966 190.608C230.75 190.608 231.39 190.368 231.886 189.888C232.398 189.408 232.654 188.776 232.654 187.992C232.654 187.24 232.398 186.632 231.886 186.168C231.39 185.688 230.75 185.448 229.966 185.448ZM230.446 196.128H238.27V194.04H240.742V202.104H227.998V194.04H230.446V196.128ZM238.27 200.064V198.072H230.446V200.064H238.27Z" fill="#F5F5FA"/>
</svg>
