<svg width="288" height="288" viewBox="0 0 288 288" fill="none" xmlns="http://www.w3.org/2000/svg">
<path d="M56.4079 137L62.0479 118.952H65.2399L70.8319 137H67.8319L66.4879 132.512H60.8239L59.4319 137H56.4079ZM61.9039 128.96H65.4079L63.6559 123.296L61.9039 128.96ZM73.3775 137V118.952H76.3055V137H73.3775ZM95.67 138.344H93.318V128.144H91.302V137.432H89.022V118.976H91.302V126.128H93.318V118.472H95.67V138.344ZM87.462 120.944C87.462 123.856 86.926 126.408 85.854 128.6C84.782 130.792 82.958 132.656 80.382 134.192L78.942 132.44C80.91 131.288 82.374 129.944 83.334 128.408C84.294 126.856 84.862 125.048 85.038 122.984H79.854V120.944H87.462ZM101.511 121.832H105.855V119.336H108.303V128H99.0627V119.336H101.511V121.832ZM105.855 126.032V123.752H101.511V126.032H105.855ZM113.631 122.432H116.295V124.472H113.631V128.624H111.183V118.472H113.631V122.432ZM113.631 134.648H103.455V136.208H114.231V138.176H101.031V132.848H111.207V131.384H101.007V129.44H113.631V134.648ZM124.679 124.064C124.679 125.104 124.863 126.152 125.231 127.208C125.615 128.264 126.167 129.232 126.887 130.112C127.623 130.976 128.479 131.64 129.455 132.104L128.111 134.096C127.055 133.584 126.127 132.832 125.327 131.84C124.543 130.848 123.927 129.72 123.479 128.456C123.031 129.848 122.399 131.088 121.583 132.176C120.767 133.248 119.823 134.056 118.751 134.6L117.359 132.584C118.351 132.104 119.215 131.408 119.951 130.496C120.687 129.568 121.247 128.544 121.631 127.424C122.031 126.288 122.231 125.168 122.231 124.064V122.48H118.055V120.44H128.663V122.48H124.679V124.064ZM132.839 126.176H135.743V128.288H132.839V138.344H130.391V118.472H132.839V126.176Z" fill="#F5F5FA"/>
<path d="M146.723 200V181.952H149.627V196.4H156.803V200H146.723ZM165.321 200.456C161.673 200.456 159.009 196.64 159.009 191.192C159.009 185.936 161.481 181.52 165.729 181.52C168.585 181.52 170.625 183.512 171.561 186.728L168.705 187.568C168.129 185.864 167.025 185.144 165.753 185.144C163.329 185.144 161.961 187.808 161.961 191.168C161.961 194.792 163.545 196.856 165.585 196.856C166.881 196.856 168.225 195.992 168.777 193.808H165.921V190.232H171.705V200H169.089L168.921 198.584C168.033 199.832 166.785 200.456 165.321 200.456ZM175.044 200V181.952H180.9C184.116 181.952 185.892 183.656 185.892 186.776C185.892 188.432 185.412 189.752 184.452 190.448C185.772 191.048 186.516 192.632 186.516 194.528C186.516 197.744 184.308 200 181.188 200H175.044ZM177.924 188.744H180.516C182.148 188.744 183.036 188.24 183.036 187.136C183.036 186.032 182.148 185.528 180.516 185.528H177.924V188.744ZM177.924 196.4H181.212C182.82 196.4 183.588 195.8 183.588 194.336C183.588 192.872 182.82 192.272 181.212 192.272H177.924V196.4ZM192.927 200V185.528H188.559V181.952H200.199V185.528H195.807V200H192.927ZM209.071 200.456C204.943 200.456 201.967 196.472 201.967 191.048C201.967 185.696 204.775 181.52 209.071 181.52C213.367 181.52 216.127 185.72 216.127 191.048C216.127 193.376 215.599 195.44 214.639 197.024C215.143 197.672 215.599 198.272 216.007 198.824L214.063 201.224C213.631 200.648 213.127 200 212.599 199.328C211.591 200.048 210.391 200.456 209.071 200.456ZM209.071 196.88C209.551 196.88 209.983 196.784 210.391 196.592C209.743 195.824 209.143 195.104 208.591 194.504L210.511 192.08C211.111 192.728 211.783 193.52 212.479 194.36C212.887 193.424 213.127 192.296 213.127 191.024C213.127 187.688 211.567 185.12 209.071 185.12C206.575 185.12 205.015 187.688 205.015 191.024C205.015 194.456 206.743 196.88 209.071 196.88ZM219.393 200V181.952H222.321V200H219.393ZM230.382 198.44V192.968H225.942V189.752H230.382V184.28H232.854V189.752H237.294V192.968H232.854V198.44H230.382Z" fill="#F5F5FA"/>
</svg>
