<svg width="288" height="288" viewBox="0 0 288 288" fill="none" xmlns="http://www.w3.org/2000/svg">
<path d="M80.6191 132.02H72.9791V121.16H80.6191V132.02ZM75.0191 130.36H78.5791V122.8H75.0191V130.36ZM85.0191 125.92H87.4591V127.66H85.0191V136.12H82.9791V119.56H85.0191V125.92ZM95.793 121.44C95.793 123.133 95.6264 124.62 95.293 125.9H97.193V119.96H99.113V135.36H97.193V127.6H94.693C93.7597 129.707 92.133 131.44 89.813 132.8L88.653 131.34C90.693 130.14 92.113 128.66 92.913 126.9L88.973 127.3L88.713 125.52L93.473 125.26C93.6197 124.633 93.7264 123.927 93.793 123.14H89.513V121.44H95.793ZM102.533 136.12H100.593V119.56H102.533V136.12ZM118.387 136.14H116.367V127.2H113.407V125.52H116.367V119.56H118.387V136.14ZM113.167 122.68H107.707V125.62H112.527V127.26H107.707V130.64C108.987 130.627 110.107 130.587 111.067 130.52C112.04 130.453 113.007 130.34 113.967 130.18L114.167 131.86C113.047 132.047 111.934 132.173 110.827 132.24C109.72 132.307 108.42 132.34 106.927 132.34H105.687V120.98H113.167V122.68Z" fill="#F5F5FA"/>
<path d="M179.286 190.96C181.673 190.933 183.853 190.707 185.826 190.28L186.046 191.98C183.833 192.447 181.353 192.68 178.606 192.68H177.246V184.7H179.286V190.96ZM189.226 188.32H191.446V190.04H189.226V195.48H187.186V183.58H189.226V188.32ZM189.786 199.8H178.946V194.36H181.006V198.12H189.786V199.8ZM201.36 192.84H193.62V184.92H201.36V192.84ZM195.66 191.16H199.38V186.58H195.66V191.16ZM206.18 195.38H204.14V183.58H206.18V195.38ZM206.62 199.7H195.54V194.3H197.6V198H206.62V199.7Z" fill="#F5F5FA"/>
</svg>
