<svg width="288" height="288" viewBox="0 0 288 288" fill="none" xmlns="http://www.w3.org/2000/svg">
<path d="M45.8568 121.82C45.8568 122.66 46.0968 123.487 46.5768 124.3C47.0568 125.1 47.7301 125.793 48.5968 126.38C49.4768 126.953 50.4768 127.34 51.5968 127.54L50.6768 129.26C49.3435 128.98 48.1568 128.447 47.1168 127.66C46.0768 126.873 45.2968 125.933 44.7768 124.84C44.2435 125.947 43.4568 126.887 42.4168 127.66C41.3901 128.433 40.2035 128.967 38.8568 129.26L37.9768 127.54C39.0701 127.327 40.0501 126.933 40.9168 126.36C41.7835 125.773 42.4568 125.08 42.9368 124.28C43.4301 123.467 43.6768 122.647 43.6768 121.82V120.6H45.8568V121.82ZM52.1768 134.04H37.5168V132.3H52.1768V134.04ZM68.3907 130.04H53.7507V128.38H60.0307V127.02H55.6107V119.96H66.6507V121.56H57.6707V122.68H66.2707V124.24H57.6707V125.42H66.7907V127.02H62.0907V128.38H68.3907V130.04ZM66.5707 136.12H64.5107V132.84H55.4107V131.2H66.5707V136.12ZM84.6846 134.22H70.0246V132.46H76.2846V129.26H71.3046V127.6H73.5246V122.7H71.2246V121H83.4246V122.7H81.1246V127.6H83.3646V129.26H78.3246V132.46H84.6846V134.22ZM79.0846 127.6V122.7H75.5446V127.6H79.0846ZM99.3385 129.56H94.6385V132.5H100.939V134.2H86.2785V132.5H92.5585V129.56H88.0585V120.76H99.1985V122.46H90.1385V124.3H98.8185V125.94H90.1385V127.9H99.3385V129.56ZM113.101 123.48C113.101 125.013 113.441 126.447 114.121 127.78C114.801 129.113 115.748 130.08 116.961 130.68L115.721 132.36C114.881 131.92 114.155 131.293 113.541 130.48C112.928 129.667 112.448 128.727 112.101 127.66C111.741 128.807 111.235 129.813 110.581 130.68C109.928 131.547 109.155 132.213 108.261 132.68L107.041 130.96C107.881 130.547 108.601 129.953 109.201 129.18C109.815 128.393 110.275 127.507 110.581 126.52C110.901 125.533 111.061 124.52 111.061 123.48V120.88H113.101V123.48ZM119.921 126.02H122.341V127.82H119.921V136.12H117.881V119.56H119.921V126.02ZM129.715 122.9C129.715 123.967 130.049 124.947 130.715 125.84C131.382 126.733 132.335 127.38 133.575 127.78L132.555 129.42C131.675 129.127 130.909 128.687 130.255 128.1C129.602 127.513 129.089 126.82 128.715 126.02C128.342 126.887 127.815 127.647 127.135 128.3C126.469 128.94 125.675 129.42 124.755 129.74L123.675 128.1C124.929 127.673 125.902 126.98 126.595 126.02C127.289 125.06 127.635 124.02 127.635 122.9V122.48H124.235V120.8H133.035V122.48H129.715V122.9ZM136.955 131.58H134.895V119.58H136.955V131.58ZM137.375 135.8H126.315V130.48H128.355V134.12H137.375V135.8ZM152.429 126H154.749V127.74H152.429V136.08H150.389V119.56H152.429V126ZM148.169 121.28C148.169 126.72 145.749 130.673 140.909 133.14L139.769 131.56C141.703 130.547 143.189 129.34 144.229 127.94C145.283 126.527 145.909 124.88 146.109 123H140.609V121.28H148.169Z" fill="#F5F5FA"/>
<path d="M173.352 192.5H168.652V196.48H174.952V198.14H160.292V196.48H166.572V192.5H161.992V184.86H164.072V190.82H173.352V192.5ZM191.206 193.14H176.546V191.46H182.866V189.92H178.346V184.3H189.426V185.92H180.386V188.28H189.506V189.92H184.886V191.46H191.206V193.14ZM183.846 194.06C185.593 194.06 186.953 194.327 187.926 194.86C188.913 195.393 189.406 196.14 189.406 197.1C189.406 198.06 188.913 198.8 187.926 199.32C186.939 199.853 185.579 200.12 183.846 200.12C182.099 200.12 180.726 199.853 179.726 199.32C178.739 198.8 178.246 198.06 178.246 197.1C178.246 196.14 178.739 195.393 179.726 194.86C180.726 194.327 182.099 194.06 183.846 194.06ZM183.846 195.68C182.686 195.68 181.806 195.8 181.206 196.04C180.619 196.28 180.326 196.633 180.326 197.1C180.326 198.047 181.499 198.52 183.846 198.52C186.179 198.52 187.346 198.047 187.346 197.1C187.346 196.633 187.046 196.28 186.446 196.04C185.859 195.8 184.993 195.68 183.846 195.68ZM207.46 198.14H192.8V196.44H199.1V192.64H201.16V196.44H207.46V198.14ZM206.2 186.58H201.2C201.227 187.367 201.487 188.113 201.98 188.82C202.473 189.527 203.147 190.127 204 190.62C204.853 191.1 205.813 191.42 206.88 191.58L206.08 193.24C204.72 192.987 203.513 192.507 202.46 191.8C201.42 191.093 200.64 190.233 200.12 189.22C199.613 190.26 198.84 191.147 197.8 191.88C196.773 192.6 195.587 193.087 194.24 193.34L193.44 191.68C194.493 191.507 195.44 191.167 196.28 190.66C197.12 190.153 197.78 189.547 198.26 188.84C198.753 188.12 199.013 187.367 199.04 186.58H194.04V184.9H206.2V186.58ZM221.734 187.64H223.954V189.36H221.734V193.24H219.694V183.56H221.734V187.64ZM213.374 195.3H219.694V193.9H221.734V199.92H211.334V193.9H213.374V195.3ZM219.694 198.26V196.9H213.374V198.26H219.694ZM218.594 186.74H209.074V185.1H212.814V183.44H214.874V185.1H218.594V186.74ZM213.854 187.3C215.014 187.3 215.954 187.567 216.674 188.1C217.407 188.633 217.774 189.34 217.774 190.22C217.774 191.1 217.407 191.807 216.674 192.34C215.954 192.873 215.014 193.14 213.854 193.14C212.667 193.14 211.707 192.873 210.974 192.34C210.254 191.807 209.894 191.1 209.894 190.22C209.894 189.34 210.254 188.633 210.974 188.1C211.707 187.567 212.667 187.3 213.854 187.3ZM213.854 188.84C213.254 188.84 212.774 188.967 212.414 189.22C212.067 189.46 211.894 189.793 211.894 190.22C211.894 190.647 212.067 190.98 212.414 191.22C212.774 191.46 213.254 191.58 213.854 191.58C214.454 191.58 214.927 191.46 215.274 191.22C215.634 190.98 215.814 190.647 215.814 190.22C215.814 189.793 215.634 189.46 215.274 189.22C214.914 188.967 214.441 188.84 213.854 188.84Z" fill="#F5F5FA"/>
</svg>
