<svg width="288" height="288" viewBox="0 0 288 288" fill="none" xmlns="http://www.w3.org/2000/svg">
<path d="M45.8568 121.82C45.8568 122.66 46.0968 123.487 46.5768 124.3C47.0568 125.1 47.7301 125.793 48.5968 126.38C49.4768 126.953 50.4768 127.34 51.5968 127.54L50.6768 129.26C49.3435 128.98 48.1568 128.447 47.1168 127.66C46.0768 126.873 45.2968 125.933 44.7768 124.84C44.2435 125.947 43.4568 126.887 42.4168 127.66C41.3901 128.433 40.2035 128.967 38.8568 129.26L37.9768 127.54C39.0701 127.327 40.0501 126.933 40.9168 126.36C41.7835 125.773 42.4568 125.08 42.9368 124.28C43.4301 123.467 43.6768 122.647 43.6768 121.82V120.6H45.8568V121.82ZM52.1768 134.04H37.5168V132.3H52.1768V134.04ZM68.3907 130.04H53.7507V128.38H60.0307V127.02H55.6107V119.96H66.6507V121.56H57.6707V122.68H66.2707V124.24H57.6707V125.42H66.7907V127.02H62.0907V128.38H68.3907V130.04ZM66.5707 136.12H64.5107V132.84H55.4107V131.2H66.5707V136.12ZM84.6846 134.22H70.0246V132.46H76.2846V129.26H71.3046V127.6H73.5246V122.7H71.2246V121H83.4246V122.7H81.1246V127.6H83.3646V129.26H78.3246V132.46H84.6846V134.22ZM79.0846 127.6V122.7H75.5446V127.6H79.0846ZM99.3385 129.56H94.6385V132.5H100.939V134.2H86.2785V132.5H92.5585V129.56H88.0585V120.76H99.1985V122.46H90.1385V124.3H98.8185V125.94H90.1385V127.9H99.3385V129.56ZM113.101 123.48C113.101 125.013 113.441 126.447 114.121 127.78C114.801 129.113 115.748 130.08 116.961 130.68L115.721 132.36C114.881 131.92 114.155 131.293 113.541 130.48C112.928 129.667 112.448 128.727 112.101 127.66C111.741 128.807 111.235 129.813 110.581 130.68C109.928 131.547 109.155 132.213 108.261 132.68L107.041 130.96C107.881 130.547 108.601 129.953 109.201 129.18C109.815 128.393 110.275 127.507 110.581 126.52C110.901 125.533 111.061 124.52 111.061 123.48V120.88H113.101V123.48ZM119.921 126.02H122.341V127.82H119.921V136.12H117.881V119.56H119.921V126.02ZM129.715 122.9C129.715 123.967 130.049 124.947 130.715 125.84C131.382 126.733 132.335 127.38 133.575 127.78L132.555 129.42C131.675 129.127 130.909 128.687 130.255 128.1C129.602 127.513 129.089 126.82 128.715 126.02C128.342 126.887 127.815 127.647 127.135 128.3C126.469 128.94 125.675 129.42 124.755 129.74L123.675 128.1C124.929 127.673 125.902 126.98 126.595 126.02C127.289 125.06 127.635 124.02 127.635 122.9V122.48H124.235V120.8H133.035V122.48H129.715V122.9ZM136.955 131.58H134.895V119.58H136.955V131.58ZM137.375 135.8H126.315V130.48H128.355V134.12H137.375V135.8ZM152.429 126H154.749V127.74H152.429V136.08H150.389V119.56H152.429V126ZM148.169 121.28C148.169 126.72 145.749 130.673 140.909 133.14L139.769 131.56C141.703 130.547 143.189 129.34 144.229 127.94C145.283 126.527 145.909 124.88 146.109 123H140.609V121.28H148.169Z" fill="#F5F5FA"/>
<path d="M153.77 199V183.96H156.19V196H162.17V199H153.77ZM169.434 199.38C166.394 199.38 164.174 196.2 164.174 191.66C164.174 187.28 166.234 183.6 169.774 183.6C172.154 183.6 173.854 185.26 174.634 187.94L172.254 188.64C171.774 187.22 170.854 186.62 169.794 186.62C167.774 186.62 166.634 188.84 166.634 191.64C166.634 194.66 167.954 196.38 169.654 196.38C170.734 196.38 171.854 195.66 172.314 193.84H169.934V190.86H174.754V199H172.574L172.434 197.82C171.694 198.86 170.654 199.38 169.434 199.38ZM177.703 199V183.96H182.583C185.263 183.96 186.743 185.38 186.743 187.98C186.743 189.36 186.343 190.46 185.543 191.04C186.643 191.54 187.263 192.86 187.263 194.44C187.263 197.12 185.423 199 182.823 199H177.703ZM180.103 189.62H182.263C183.623 189.62 184.363 189.2 184.363 188.28C184.363 187.36 183.623 186.94 182.263 186.94H180.103V189.62ZM180.103 196H182.843C184.183 196 184.823 195.5 184.823 194.28C184.823 193.06 184.183 192.56 182.843 192.56H180.103V196ZM192.773 199V186.94H189.133V183.96H198.833V186.94H195.173V199H192.773ZM206.392 199.38C202.952 199.38 200.472 196.06 200.472 191.54C200.472 187.08 202.812 183.6 206.392 183.6C209.972 183.6 212.272 187.1 212.272 191.54C212.272 193.48 211.832 195.2 211.032 196.52C211.452 197.06 211.832 197.56 212.172 198.02L210.552 200.02C210.192 199.54 209.772 199 209.332 198.44C208.492 199.04 207.492 199.38 206.392 199.38ZM206.392 196.4C206.792 196.4 207.152 196.32 207.492 196.16C206.952 195.52 206.452 194.92 205.992 194.42L207.592 192.4C208.092 192.94 208.652 193.6 209.232 194.3C209.572 193.52 209.772 192.58 209.772 191.52C209.772 188.74 208.472 186.6 206.392 186.6C204.312 186.6 203.012 188.74 203.012 191.52C203.012 194.38 204.452 196.4 206.392 196.4ZM215.161 199V183.96H217.601V199H215.161ZM224.485 197.7V193.14H220.785V190.46H224.485V185.9H226.545V190.46H230.245V193.14H226.545V197.7H224.485Z" fill="#F5F5FA"/>
</svg>
