<svg width="288" height="288" viewBox="0 0 288 288" fill="none" xmlns="http://www.w3.org/2000/svg">
<path d="M77.743 133.424H68.575V120.392H77.743V133.424ZM71.023 131.432H75.295V122.36H71.023V131.432ZM83.023 126.104H85.951V128.192H83.023V138.344H80.575V118.472H83.023V126.104ZM95.7517 120.728C95.7517 122.76 95.5517 124.544 95.1517 126.08H97.4317V118.952H99.7357V137.432H97.4317V128.12H94.4317C93.3117 130.648 91.3597 132.728 88.5757 134.36L87.1837 132.608C89.6317 131.168 91.3357 129.392 92.2957 127.28L87.5677 127.76L87.2557 125.624L92.9677 125.312C93.1437 124.56 93.2717 123.712 93.3517 122.768H88.2157V120.728H95.7517ZM103.84 138.344H101.512V118.472H103.84V138.344ZM122.664 138.368H120.24V127.64H116.688V125.624H120.24V118.472H122.664V138.368ZM116.4 122.216H109.848V125.744H115.632V127.712H109.848V131.768C111.384 131.752 112.728 131.704 113.88 131.624C115.048 131.544 116.208 131.408 117.36 131.216L117.6 133.232C116.256 133.456 114.92 133.608 113.592 133.688C112.264 133.768 110.704 133.808 108.912 133.808H107.424V120.176H116.4V122.216Z" fill="#F5F5FA"/>
<path d="M176.843 191.352C179.707 191.32 182.323 191.048 184.691 190.536L184.955 192.576C182.299 193.136 179.323 193.416 176.027 193.416H174.395V183.84H176.843V191.352ZM188.771 188.184H191.435V190.248H188.771V196.776H186.323V182.496H188.771V188.184ZM189.443 201.96H176.435V195.432H178.907V199.944H189.443V201.96ZM203.132 193.608H193.844V184.104H203.132V193.608ZM196.292 191.592H200.756V186.096H196.292V191.592ZM208.916 196.656H206.468V182.496H208.916V196.656ZM209.444 201.84H196.148V195.36H198.62V199.8H209.444V201.84Z" fill="#F5F5FA"/>
</svg>
