<svg width="288" height="288" viewBox="0 0 288 288" fill="none" xmlns="http://www.w3.org/2000/svg">
<path d="M84.4913 123.176C84.4913 125.016 84.8993 126.736 85.7153 128.336C86.5313 129.936 87.6673 131.096 89.1233 131.816L87.6353 133.832C86.6273 133.304 85.7553 132.552 85.0193 131.576C84.2833 130.6 83.7073 129.472 83.2913 128.192C82.8593 129.568 82.2513 130.776 81.4673 131.816C80.6833 132.856 79.7553 133.656 78.6833 134.216L77.2193 132.152C78.2273 131.656 79.0913 130.944 79.8113 130.016C80.5473 129.072 81.0993 128.008 81.4673 126.824C81.8513 125.64 82.0433 124.424 82.0433 123.176V120.056H84.4913V123.176ZM92.6753 126.224H95.5793V128.384H92.6753V138.344H90.2273V118.472H92.6753V126.224ZM104.012 123.176C104.012 125.096 104.42 126.864 105.236 128.48C106.068 130.08 107.236 131.232 108.74 131.936L107.276 133.952C105.164 132.864 103.668 130.936 102.788 128.168C102.356 129.56 101.748 130.792 100.964 131.864C100.18 132.92 99.252 133.728 98.18 134.288L96.668 132.248C97.692 131.752 98.564 131.032 99.284 130.088C100.02 129.144 100.572 128.072 100.94 126.872C101.324 125.672 101.516 124.44 101.516 123.176V120.056H104.012V123.176ZM113.012 138.368H110.588V126.896H106.628V124.856H110.588V118.472H113.012V138.368Z" fill="#F5F5FA"/>
<path d="M151.462 188.736C151.462 190.272 151.854 191.752 152.638 193.176C153.422 194.6 154.526 195.664 155.95 196.368L154.63 198.24C153.622 197.76 152.742 197.064 151.99 196.152C151.238 195.224 150.654 194.168 150.238 192.984C149.822 194.264 149.214 195.4 148.414 196.392C147.63 197.368 146.71 198.104 145.654 198.6L144.31 196.656C145.286 196.192 146.126 195.544 146.83 194.712C147.55 193.864 148.094 192.92 148.462 191.88C148.83 190.84 149.014 189.792 149.014 188.736V187.776H144.91V185.76H148.99V182.904H151.462V185.76H155.446V187.776H151.462V188.736ZM159.718 190.32H162.622V192.408H159.718V202.344H157.27V182.472H159.718V190.32ZM180.055 192.72H177.607V190.608H173.815V192.096H164.791V183.336H167.239V185.808H171.391V183.336H173.815V185.088H177.607V182.472H180.055V192.72ZM180.055 198.672H169.807V200.112H180.655V202.104H167.359V196.824H177.607V195.504H167.335V193.536H180.055V198.672ZM171.391 190.104V187.728H167.239V190.104H171.391ZM177.607 188.688V186.96H173.815V188.688H177.607ZM198.688 184.968C198.688 186.04 198.656 186.992 198.592 187.824C198.544 188.64 198.416 189.568 198.208 190.608H200.8V192.624H183.208V190.608H195.736C195.944 189.664 196.08 188.792 196.144 187.992C196.208 187.176 196.24 186.328 196.24 185.448H185.392V183.408H198.688V184.968ZM198.64 202.104H185.32V194.904H198.64V202.104ZM187.744 200.088H196.192V196.872H187.744V200.088ZM209.808 188.064C209.808 189.168 210 190.256 210.384 191.328C210.784 192.384 211.352 193.336 212.088 194.184C212.824 195.032 213.696 195.672 214.704 196.104L213.408 198.096C212.304 197.6 211.336 196.872 210.504 195.912C209.688 194.936 209.056 193.808 208.608 192.528C208.16 193.904 207.528 195.128 206.712 196.2C205.896 197.256 204.936 198.056 203.832 198.6L202.416 196.584C203.408 196.12 204.272 195.44 205.008 194.544C205.76 193.632 206.328 192.608 206.712 191.472C207.112 190.336 207.312 189.2 207.312 188.064V186.48H203.112V184.44H214.008V186.48H209.808V188.064ZM218.544 202.344H216.072V182.472H218.544V202.344ZM225.129 186.168H229.305V183.504H231.729V187.128H235.497V182.472H237.969V193.344H235.497V189.168H231.729V192.72H222.681V183.504H225.129V186.168ZM229.305 190.704V188.112H225.129V190.704H229.305ZM227.673 196.176H235.497V194.208H237.969V202.056H225.249V194.208H227.673V196.176ZM235.497 200.04V198.144H227.673V200.04H235.497Z" fill="#F5F5FA"/>
</svg>
