<svg width="288" height="288" viewBox="0 0 288 288" fill="none" xmlns="http://www.w3.org/2000/svg">
<path d="M85.495 135.944H67.903V133.88H71.959V128.888C71.191 128.424 70.591 127.84 70.159 127.136C69.727 126.432 69.511 125.648 69.511 124.784C69.511 123.744 69.815 122.832 70.423 122.048C71.047 121.248 71.903 120.632 72.991 120.2C74.079 119.752 75.311 119.528 76.687 119.528C78.063 119.528 79.295 119.752 80.383 120.2C81.487 120.632 82.343 121.248 82.951 122.048C83.575 122.832 83.887 123.744 83.887 124.784C83.887 125.632 83.671 126.408 83.239 127.112C82.823 127.8 82.239 128.376 81.487 128.84V133.88H85.495V135.944ZM76.687 121.496C75.247 121.496 74.095 121.792 73.231 122.384C72.367 122.976 71.935 123.776 71.935 124.784C71.935 125.792 72.367 126.6 73.231 127.208C74.095 127.8 75.247 128.096 76.687 128.096C78.111 128.096 79.263 127.8 80.143 127.208C81.039 126.6 81.487 125.792 81.487 124.784C81.487 123.776 81.039 122.976 80.143 122.384C79.263 121.792 78.111 121.496 76.687 121.496ZM79.015 133.88V129.8C78.247 129.96 77.471 130.04 76.687 130.04C75.855 130.04 75.087 129.96 74.383 129.8V133.88H79.015ZM103.288 138.368H100.816V118.472H103.288V138.368ZM97.3357 127.688H90.7837V131.624C92.4317 131.608 93.9197 131.552 95.2477 131.456C96.5757 131.36 97.9437 131.184 99.3517 130.928L99.5437 132.968C98.0397 133.24 96.5437 133.424 95.0557 133.52C93.5837 133.616 91.8877 133.664 89.9677 133.664H88.2637V125.72H94.8157V122.216H88.2397V120.176H97.3357V127.688ZM113.448 123.176C113.448 125.016 113.856 126.736 114.672 128.336C115.488 129.936 116.624 131.096 118.08 131.816L116.592 133.832C115.584 133.304 114.712 132.552 113.976 131.576C113.24 130.6 112.664 129.472 112.248 128.192C111.816 129.568 111.208 130.776 110.424 131.816C109.64 132.856 108.712 133.656 107.64 134.216L106.176 132.152C107.184 131.656 108.048 130.944 108.768 130.016C109.504 129.072 110.056 128.008 110.424 126.824C110.808 125.64 111 124.424 111 123.176V120.056H113.448V123.176ZM121.632 126.224H124.536V128.384H121.632V138.344H119.184V118.472H121.632V126.224Z" fill="#F5F5FA"/>
<path d="M170.331 202.344H167.859V182.472H170.331V202.344ZM164.595 184.584C164.595 187.752 163.907 190.528 162.531 192.912C161.155 195.296 158.859 197.28 155.643 198.864L154.347 196.848C156.827 195.632 158.683 194.192 159.915 192.528C161.147 190.848 161.867 188.856 162.075 186.552H155.379V184.584H164.595ZM190.163 186.624H174.443V184.584H181.091V182.424H183.539V184.584H190.163V186.624ZM191.147 197.376H183.539V202.368H181.091V197.376H173.555V195.336H191.147V197.376ZM182.339 187.512C184.403 187.512 186.003 187.8 187.139 188.376C188.291 188.952 188.867 189.784 188.867 190.872C188.867 191.944 188.291 192.776 187.139 193.368C185.987 193.96 184.387 194.256 182.339 194.256C180.275 194.256 178.667 193.96 177.515 193.368C176.363 192.776 175.787 191.944 175.787 190.872C175.787 189.784 176.363 188.952 177.515 188.376C178.667 187.8 180.275 187.512 182.339 187.512ZM182.339 189.384C179.667 189.384 178.331 189.88 178.331 190.872C178.331 191.864 179.667 192.36 182.339 192.36C184.995 192.36 186.323 191.864 186.323 190.872C186.323 189.88 184.995 189.384 182.339 189.384ZM209.012 194.28H206.54V189.456H203.324V187.392H206.54V182.472H209.012V194.28ZM202.484 194.784C204.532 194.784 206.132 195.12 207.284 195.792C208.452 196.448 209.036 197.376 209.036 198.576C209.036 199.76 208.452 200.68 207.284 201.336C206.132 202.008 204.532 202.344 202.484 202.344C200.42 202.344 198.804 202.008 197.636 201.336C196.484 200.68 195.908 199.76 195.908 198.576C195.908 197.376 196.484 196.448 197.636 195.792C198.804 195.12 200.42 194.784 202.484 194.784ZM202.484 196.704C201.156 196.704 200.132 196.864 199.412 197.184C198.692 197.504 198.332 197.968 198.332 198.576C198.332 199.168 198.692 199.624 199.412 199.944C200.132 200.264 201.156 200.424 202.484 200.424C203.812 200.424 204.828 200.264 205.532 199.944C206.252 199.624 206.612 199.168 206.612 198.576C206.612 197.968 206.252 197.504 205.532 197.184C204.828 196.864 203.812 196.704 202.484 196.704ZM199.988 185.808C199.988 187.072 200.372 188.256 201.14 189.36C201.924 190.448 203.028 191.24 204.452 191.736L203.252 193.728C202.228 193.36 201.332 192.824 200.564 192.12C199.812 191.4 199.22 190.568 198.788 189.624C198.356 190.696 197.74 191.632 196.94 192.432C196.14 193.216 195.18 193.816 194.06 194.232L192.788 192.264C194.292 191.736 195.444 190.88 196.244 189.696C197.06 188.512 197.468 187.224 197.468 185.832V185.784H193.508V183.744H203.9V185.784H199.988V185.808ZM218.405 183.84C219.413 183.84 220.317 184.048 221.117 184.464C221.933 184.864 222.565 185.432 223.013 186.168C223.477 186.904 223.709 187.736 223.709 188.664C223.709 189.592 223.477 190.424 223.013 191.16C222.565 191.88 221.933 192.448 221.117 192.864C220.317 193.264 219.413 193.464 218.405 193.464C217.413 193.464 216.509 193.264 215.693 192.864C214.893 192.448 214.261 191.88 213.797 191.16C213.333 190.424 213.101 189.592 213.101 188.664C213.101 187.736 213.333 186.904 213.797 186.168C214.261 185.432 214.893 184.864 215.693 184.464C216.509 184.048 217.413 183.84 218.405 183.84ZM218.405 186C217.573 186 216.885 186.24 216.341 186.72C215.797 187.2 215.525 187.848 215.525 188.664C215.525 189.464 215.797 190.104 216.341 190.584C216.885 191.064 217.573 191.304 218.405 191.304C219.253 191.304 219.949 191.064 220.493 190.584C221.037 190.104 221.309 189.464 221.309 188.664C221.309 187.848 221.037 187.2 220.493 186.72C219.949 186.24 219.253 186 218.405 186ZM228.221 202.368H225.773V182.472H228.221V202.368ZM212.261 196.176C214.597 196.176 216.781 196.136 218.813 196.056C220.861 195.976 222.797 195.8 224.621 195.528L224.837 197.376C222.949 197.744 221.029 197.984 219.077 198.096C217.125 198.192 214.949 198.24 212.549 198.24L212.261 196.176Z" fill="#F5F5FA"/>
</svg>
