<svg width="288" height="288" viewBox="0 0 288 288" fill="none" xmlns="http://www.w3.org/2000/svg">
<path d="M83.023 125.984H85.951V128.024H83.023V138.368H80.575V118.472H83.023V125.984ZM77.743 122.384H71.167V131.432C72.735 131.416 74.135 131.36 75.367 131.264C76.599 131.168 77.831 131.008 79.063 130.784L79.351 132.92C77.959 133.16 76.583 133.32 75.223 133.4C73.863 133.48 72.231 133.52 70.327 133.52H68.719V120.344H77.743V122.384ZM104.752 129.872H97.1677V138.32H94.6717V129.872H87.2077V127.808H91.6957C92.2397 125.792 92.5277 123.776 92.5597 121.76H88.6237V119.72H94.9597V120.8C94.9597 121.92 94.9117 123.016 94.8157 124.088C94.7357 125.16 94.5277 126.4 94.1917 127.808H99.7357C99.9757 126.656 100.136 125.608 100.216 124.664C100.312 123.72 100.368 122.752 100.384 121.76H96.3037V119.72H102.832V120.968C102.832 122.104 102.792 123.2 102.712 124.256C102.648 125.296 102.48 126.48 102.208 127.808H104.752V129.872ZM122.64 138.368H120.192V127.808H116.952V125.768H120.192V118.472H122.64V138.368ZM115.848 127.496H109.656V131.624C111.272 131.608 112.648 131.568 113.784 131.504C114.936 131.424 116.104 131.272 117.288 131.048L117.504 133.112C116.16 133.352 114.824 133.512 113.496 133.592C112.168 133.672 110.6 133.712 108.792 133.712H107.208V125.504H113.472V122.216H107.136V120.176H115.848V127.496Z" fill="#F5F5FA"/>
<path d="M167.533 196.824H165.061V182.496H167.533V196.824ZM168.037 201.96H154.765V195.384H157.237V199.944H168.037V201.96ZM157.021 183.792C157.997 183.792 158.877 184.008 159.661 184.44C160.461 184.856 161.085 185.448 161.533 186.216C161.997 186.968 162.229 187.816 162.229 188.76C162.229 189.72 161.997 190.584 161.533 191.352C161.085 192.104 160.461 192.696 159.661 193.128C158.877 193.544 157.997 193.752 157.021 193.752C156.045 193.752 155.157 193.544 154.357 193.128C153.573 192.696 152.949 192.104 152.485 191.352C152.037 190.584 151.813 189.72 151.813 188.76C151.813 187.816 152.037 186.968 152.485 186.216C152.949 185.464 153.581 184.872 154.381 184.44C155.181 184.008 156.061 183.792 157.021 183.792ZM157.021 185.976C156.205 185.976 155.533 186.232 155.005 186.744C154.477 187.256 154.213 187.928 154.213 188.76C154.213 189.608 154.477 190.288 155.005 190.8C155.533 191.312 156.205 191.568 157.021 191.568C157.821 191.568 158.485 191.312 159.013 190.8C159.541 190.288 159.805 189.608 159.805 188.76C159.805 187.928 159.541 187.256 159.013 186.744C158.485 186.232 157.821 185.976 157.021 185.976ZM187.102 197.448H184.606V195.096H180.742V193.128H184.606V182.496H187.102V197.448ZM187.534 201.96H173.398V195.912H175.822V199.944H187.534V201.96ZM170.686 190.104C174.238 190.072 176.926 190 178.75 189.888C178.974 188.448 179.102 186.992 179.134 185.52H172.414V183.528H181.582V184.272C181.582 186.224 181.454 188.032 181.198 189.696L183.118 189.456L183.31 191.232C181.678 191.52 180.014 191.728 178.318 191.856V196.176H175.87V192C174.318 192.064 172.686 192.096 170.974 192.096L170.686 190.104ZM210.921 187.272H213.489V189.36H210.921V194.184H208.473V182.472H210.921V187.272ZM210.921 199.248H200.505V200.472H211.593V202.176H198.057V197.712H208.497V196.608H198.033V194.952H210.921V199.248ZM195.489 192.12C197.521 192.12 199.113 192.104 200.265 192.072V191.112C199.193 190.984 198.345 190.704 197.721 190.272C197.113 189.824 196.809 189.248 196.809 188.544C196.809 187.744 197.225 187.112 198.057 186.648C198.905 186.184 200.041 185.952 201.465 185.952C202.889 185.952 204.025 186.184 204.873 186.648C205.721 187.096 206.145 187.728 206.145 188.544C206.145 189.248 205.841 189.824 205.233 190.272C204.625 190.704 203.793 190.984 202.737 191.112V192C204.657 191.888 206.249 191.744 207.513 191.568L207.681 193.152C205.889 193.456 204.033 193.656 202.113 193.752C200.193 193.832 198.065 193.872 195.729 193.872L195.489 192.12ZM207.009 185.496H195.969V183.816H200.265V182.304H202.737V183.816H207.009V185.496ZM201.465 187.536C200.745 187.536 200.177 187.624 199.761 187.8C199.361 187.976 199.161 188.224 199.161 188.544C199.161 188.88 199.361 189.136 199.761 189.312C200.177 189.488 200.745 189.576 201.465 189.576C202.217 189.576 202.793 189.488 203.193 189.312C203.593 189.136 203.793 188.88 203.793 188.544C203.793 188.224 203.593 187.976 203.193 187.8C202.793 187.624 202.217 187.536 201.465 187.536ZM232.53 193.968H214.938V191.952H222.522V190.104H217.098V183.36H230.394V185.304H219.546V188.136H230.49V190.104H224.946V191.952H232.53V193.968ZM223.698 195.072C225.794 195.072 227.426 195.392 228.594 196.032C229.778 196.672 230.37 197.568 230.37 198.72C230.37 199.872 229.778 200.76 228.594 201.384C227.41 202.024 225.778 202.344 223.698 202.344C221.602 202.344 219.954 202.024 218.754 201.384C217.57 200.76 216.978 199.872 216.978 198.72C216.978 197.568 217.57 196.672 218.754 196.032C219.954 195.392 221.602 195.072 223.698 195.072ZM223.698 197.016C222.306 197.016 221.25 197.16 220.53 197.448C219.826 197.736 219.474 198.16 219.474 198.72C219.474 199.856 220.882 200.424 223.698 200.424C226.498 200.424 227.898 199.856 227.898 198.72C227.898 198.16 227.538 197.736 226.818 197.448C226.114 197.16 225.074 197.016 223.698 197.016Z" fill="#F5F5FA"/>
</svg>
