<svg width="288" height="288" viewBox="0 0 288 288" fill="none" xmlns="http://www.w3.org/2000/svg">
<path d="M87.1861 120.62C87.1861 122.78 86.6928 124.613 85.7061 126.12C84.7328 127.613 83.1661 128.82 81.0061 129.74L80.0461 128.2C81.0194 127.8 81.8394 127.353 82.5061 126.86C83.1728 126.367 83.7128 125.807 84.1261 125.18L80.4061 125.6L80.1261 123.92L84.8461 123.66C84.9928 123.193 85.0861 122.74 85.1261 122.3H80.8261V120.62H87.1861ZM93.7661 129.26H91.8261V125.22H90.2261V129.14H88.3061V119.88H90.2261V123.52H91.8261V119.58H93.7661V129.26ZM93.7661 135.92H82.9461V129.96H93.7661V135.92ZM84.9461 134.24H91.7661V131.62H84.9461V134.24ZM105.6 122.78H103.96V130.3C104.84 130.233 105.527 130.167 106.02 130.1L106.14 131.62C104.687 131.873 103.153 132.047 101.54 132.14C99.9267 132.22 98.22 132.26 96.42 132.26L96.22 130.54L98.12 130.52V122.78H96.66V121.1H105.6V122.78ZM109.76 136.12H107.74V127.32H105.12V125.64H107.74V119.56H109.76V136.12ZM100.1 130.48C100.713 130.48 101.347 130.46 102 130.42V122.78H100.1V130.48Z" fill="#F5F5FA"/>
<path d="M183.079 193.14H168.419V191.46H174.739V189.92H170.219V184.3H181.299V185.92H172.259V188.28H181.379V189.92H176.759V191.46H183.079V193.14ZM175.719 194.06C177.466 194.06 178.826 194.327 179.799 194.86C180.786 195.393 181.279 196.14 181.279 197.1C181.279 198.06 180.786 198.8 179.799 199.32C178.812 199.853 177.452 200.12 175.719 200.12C173.972 200.12 172.599 199.853 171.599 199.32C170.612 198.8 170.119 198.06 170.119 197.1C170.119 196.14 170.612 195.393 171.599 194.86C172.599 194.327 173.972 194.06 175.719 194.06ZM175.719 195.68C174.559 195.68 173.679 195.8 173.079 196.04C172.492 196.28 172.199 196.633 172.199 197.1C172.199 198.047 173.372 198.52 175.719 198.52C178.052 198.52 179.219 198.047 179.219 197.1C179.219 196.633 178.919 196.28 178.319 196.04C177.732 195.8 176.866 195.68 175.719 195.68ZM199.293 191.9H192.993V193.12H197.493V197.22H188.433V198.38H197.913V199.98H186.413V195.74H195.473V194.7H186.373V193.12H190.933V191.9H184.673V190.26H199.293V191.9ZM197.433 189.22H186.513V184.06H197.433V189.22ZM188.533 187.6H195.393V185.7H188.533V187.6ZM214.527 196.04H212.447V194.08H209.227V192.44H212.447V183.58H214.527V196.04ZM214.887 199.8H203.107V194.76H205.127V198.12H214.887V199.8ZM200.847 189.92C203.807 189.893 206.047 189.833 207.567 189.74C207.754 188.54 207.86 187.327 207.887 186.1H202.287V184.44H209.927V185.06C209.927 186.687 209.82 188.193 209.607 189.58L211.207 189.38L211.367 190.86C210.007 191.1 208.62 191.273 207.207 191.38V194.98H205.167V191.5C203.874 191.553 202.514 191.58 201.087 191.58L200.847 189.92Z" fill="#F5F5FA"/>
</svg>
