<svg width="288" height="288" viewBox="0 0 288 288" fill="none" xmlns="http://www.w3.org/2000/svg">
<path d="M87.0791 134.12H72.4191V132.4H75.7991V128.24C75.1591 127.853 74.6591 127.367 74.2991 126.78C73.9391 126.193 73.7591 125.54 73.7591 124.82C73.7591 123.953 74.0125 123.193 74.5191 122.54C75.0391 121.873 75.7525 121.36 76.6591 121C77.5658 120.627 78.5925 120.44 79.7391 120.44C80.8858 120.44 81.9125 120.627 82.8191 121C83.7391 121.36 84.4525 121.873 84.9591 122.54C85.4791 123.193 85.7391 123.953 85.7391 124.82C85.7391 125.527 85.5591 126.173 85.1991 126.76C84.8525 127.333 84.3658 127.813 83.7391 128.2V132.4H87.0791V134.12ZM79.7391 122.08C78.5391 122.08 77.5791 122.327 76.8591 122.82C76.1391 123.313 75.7791 123.98 75.7791 124.82C75.7791 125.66 76.1391 126.333 76.8591 126.84C77.5791 127.333 78.5391 127.58 79.7391 127.58C80.9258 127.58 81.8858 127.333 82.6191 126.84C83.3658 126.333 83.7391 125.66 83.7391 124.82C83.7391 123.98 83.3658 123.313 82.6191 122.82C81.8858 122.327 80.9258 122.08 79.7391 122.08ZM81.6791 132.4V129C81.0391 129.133 80.3925 129.2 79.7391 129.2C79.0458 129.2 78.4058 129.133 77.8191 129V132.4H81.6791ZM102.073 136.14H100.013V119.56H102.073V136.14ZM97.113 127.24H91.653V130.52C93.0264 130.507 94.2664 130.46 95.373 130.38C96.4797 130.3 97.6197 130.153 98.793 129.94L98.953 131.64C97.6997 131.867 96.453 132.02 95.213 132.1C93.9864 132.18 92.573 132.22 90.973 132.22H89.553V125.6H95.013V122.68H89.533V120.98H97.113V127.24ZM110.707 123.48C110.707 125.013 111.047 126.447 111.727 127.78C112.407 129.113 113.354 130.08 114.567 130.68L113.327 132.36C112.487 131.92 111.76 131.293 111.147 130.48C110.534 129.667 110.054 128.727 109.707 127.66C109.347 128.807 108.84 129.813 108.187 130.68C107.534 131.547 106.76 132.213 105.867 132.68L104.647 130.96C105.487 130.547 106.207 129.953 106.807 129.18C107.42 128.393 107.88 127.507 108.187 126.52C108.507 125.533 108.667 124.52 108.667 123.48V120.88H110.707V123.48ZM117.527 126.02H119.947V127.82H117.527V136.12H115.487V119.56H117.527V126.02Z" fill="#F5F5FA"/>
<path d="M171.278 195.52H169.218V183.58H171.278V195.52ZM171.698 199.8H160.638V194.32H162.698V198.12H171.698V199.8ZM162.518 184.66C163.331 184.66 164.064 184.84 164.718 185.2C165.384 185.547 165.904 186.04 166.278 186.68C166.664 187.307 166.858 188.013 166.858 188.8C166.858 189.6 166.664 190.32 166.278 190.96C165.904 191.587 165.384 192.08 164.718 192.44C164.064 192.787 163.331 192.96 162.518 192.96C161.704 192.96 160.964 192.787 160.298 192.44C159.644 192.08 159.124 191.587 158.738 190.96C158.364 190.32 158.178 189.6 158.178 188.8C158.178 188.013 158.364 187.307 158.738 186.68C159.124 186.053 159.651 185.56 160.318 185.2C160.984 184.84 161.718 184.66 162.518 184.66ZM162.518 186.48C161.838 186.48 161.278 186.693 160.838 187.12C160.398 187.547 160.178 188.107 160.178 188.8C160.178 189.507 160.398 190.073 160.838 190.5C161.278 190.927 161.838 191.14 162.518 191.14C163.184 191.14 163.738 190.927 164.178 190.5C164.618 190.073 164.838 189.507 164.838 188.8C164.838 188.107 164.618 187.547 164.178 187.12C163.738 186.693 163.184 186.48 162.518 186.48ZM187.752 196.04H185.672V194.08H182.452V192.44H185.672V183.58H187.752V196.04ZM188.112 199.8H176.332V194.76H178.352V198.12H188.112V199.8ZM174.072 189.92C177.032 189.893 179.272 189.833 180.792 189.74C180.978 188.54 181.085 187.327 181.112 186.1H175.512V184.44H183.152V185.06C183.152 186.687 183.045 188.193 182.832 189.58L184.432 189.38L184.592 190.86C183.232 191.1 181.845 191.273 180.432 191.38V194.98H178.392V191.5C177.098 191.553 175.738 191.58 174.312 191.58L174.072 189.92ZM207.935 187.56H210.075V189.3H207.935V193.32H205.895V183.56H207.935V187.56ZM207.935 197.54H199.255V198.56H208.495V199.98H197.215V196.26H205.915V195.34H197.195V193.96H207.935V197.54ZM195.075 191.6C196.768 191.6 198.095 191.587 199.055 191.56V190.76C198.161 190.653 197.455 190.42 196.935 190.06C196.428 189.687 196.175 189.207 196.175 188.62C196.175 187.953 196.521 187.427 197.215 187.04C197.921 186.653 198.868 186.46 200.055 186.46C201.241 186.46 202.188 186.653 202.895 187.04C203.601 187.413 203.955 187.94 203.955 188.62C203.955 189.207 203.701 189.687 203.195 190.06C202.688 190.42 201.995 190.653 201.115 190.76V191.5C202.715 191.407 204.041 191.287 205.095 191.14L205.235 192.46C203.741 192.713 202.195 192.88 200.595 192.96C198.995 193.027 197.221 193.06 195.275 193.06L195.075 191.6ZM204.675 186.08H195.475V184.68H199.055V183.42H201.115V184.68H204.675V186.08ZM200.055 187.78C199.455 187.78 198.981 187.853 198.635 188C198.301 188.147 198.135 188.353 198.135 188.62C198.135 188.9 198.301 189.113 198.635 189.26C198.981 189.407 199.455 189.48 200.055 189.48C200.681 189.48 201.161 189.407 201.495 189.26C201.828 189.113 201.995 188.9 201.995 188.62C201.995 188.353 201.828 188.147 201.495 188C201.161 187.853 200.681 187.78 200.055 187.78ZM226.108 193.14H211.448V191.46H217.768V189.92H213.248V184.3H224.328V185.92H215.288V188.28H224.408V189.92H219.788V191.46H226.108V193.14ZM218.748 194.06C220.495 194.06 221.855 194.327 222.828 194.86C223.815 195.393 224.308 196.14 224.308 197.1C224.308 198.06 223.815 198.8 222.828 199.32C221.842 199.853 220.482 200.12 218.748 200.12C217.002 200.12 215.628 199.853 214.628 199.32C213.642 198.8 213.148 198.06 213.148 197.1C213.148 196.14 213.642 195.393 214.628 194.86C215.628 194.327 217.002 194.06 218.748 194.06ZM218.748 195.68C217.588 195.68 216.708 195.8 216.108 196.04C215.522 196.28 215.228 196.633 215.228 197.1C215.228 198.047 216.402 198.52 218.748 198.52C221.082 198.52 222.248 198.047 222.248 197.1C222.248 196.633 221.948 196.28 221.348 196.04C220.762 195.8 219.895 195.68 218.748 195.68Z" fill="#F5F5FA"/>
</svg>
