<svg width="288" height="288" viewBox="0 0 288 288" fill="none" xmlns="http://www.w3.org/2000/svg">
<path d="M86.3261 123.48C86.3261 125.013 86.6661 126.447 87.3461 127.78C88.0261 129.113 88.9728 130.08 90.1861 130.68L88.9461 132.36C88.1061 131.92 87.3794 131.293 86.7661 130.48C86.1528 129.667 85.6728 128.727 85.3261 127.66C84.9661 128.807 84.4594 129.813 83.8061 130.68C83.1528 131.547 82.3794 132.213 81.4861 132.68L80.2661 130.96C81.1061 130.547 81.8261 129.953 82.4261 129.18C83.0394 128.393 83.4994 127.507 83.8061 126.52C84.1261 125.533 84.2861 124.52 84.2861 123.48V120.88H86.3261V123.48ZM93.1461 126.02H95.5661V127.82H93.1461V136.12H91.1061V119.56H93.1461V126.02ZM102.76 123.48C102.76 125.08 103.1 126.553 103.78 127.9C104.473 129.233 105.447 130.193 106.7 130.78L105.48 132.46C103.72 131.553 102.473 129.947 101.74 127.64C101.38 128.8 100.873 129.827 100.22 130.72C99.5667 131.6 98.7933 132.273 97.9 132.74L96.64 131.04C97.4933 130.627 98.22 130.027 98.82 129.24C99.4333 128.453 99.8933 127.56 100.2 126.56C100.52 125.56 100.68 124.533 100.68 123.48V120.88H102.76V123.48ZM110.26 136.14H108.24V126.58H104.94V124.88H108.24V119.56H110.26V136.14Z" fill="#F5F5FA"/>
<path d="M157.885 188.78C157.885 190.06 158.212 191.293 158.865 192.48C159.519 193.667 160.439 194.553 161.625 195.14L160.525 196.7C159.685 196.3 158.952 195.72 158.325 194.96C157.699 194.187 157.212 193.307 156.865 192.32C156.519 193.387 156.012 194.333 155.345 195.16C154.692 195.973 153.925 196.587 153.045 197L151.925 195.38C152.739 194.993 153.439 194.453 154.025 193.76C154.625 193.053 155.079 192.267 155.385 191.4C155.692 190.533 155.845 189.66 155.845 188.78V187.98H152.425V186.3H155.825V183.92H157.885V186.3H161.205V187.98H157.885V188.78ZM164.765 190.1H167.185V191.84H164.765V200.12H162.725V183.56H164.765V190.1ZM181.879 192.1H179.839V190.34H176.679V191.58H169.159V184.28H171.199V186.34H174.659V184.28H176.679V185.74H179.839V183.56H181.879V192.1ZM181.879 197.06H173.339V198.26H182.379V199.92H171.299V195.52H179.839V194.42H171.279V192.78H181.879V197.06ZM174.659 189.92V187.94H171.199V189.92H174.659ZM179.839 188.74V187.3H176.679V188.74H179.839ZM197.573 185.64C197.573 186.533 197.546 187.327 197.493 188.02C197.453 188.7 197.346 189.473 197.173 190.34H199.333V192.02H184.673V190.34H195.113C195.286 189.553 195.4 188.827 195.453 188.16C195.506 187.48 195.533 186.773 195.533 186.04H186.493V184.34H197.573V185.64ZM197.533 199.92H186.433V193.92H197.533V199.92ZM188.453 198.24H195.493V195.56H188.453V198.24ZM207.007 188.22C207.007 189.14 207.167 190.047 207.487 190.94C207.82 191.82 208.294 192.613 208.907 193.32C209.52 194.027 210.247 194.56 211.087 194.92L210.007 196.58C209.087 196.167 208.28 195.56 207.587 194.76C206.907 193.947 206.38 193.007 206.007 191.94C205.634 193.087 205.107 194.107 204.427 195C203.747 195.88 202.947 196.547 202.027 197L200.847 195.32C201.674 194.933 202.394 194.367 203.007 193.62C203.634 192.86 204.107 192.007 204.427 191.06C204.76 190.113 204.927 189.167 204.927 188.22V186.9H201.427V185.2H210.507V186.9H207.007V188.22ZM214.287 200.12H212.227V183.56H214.287V200.12ZM219.941 186.64H223.421V184.42H225.441V187.44H228.581V183.56H230.641V192.62H228.581V189.14H225.441V192.1H217.901V184.42H219.941V186.64ZM223.421 190.42V188.26H219.941V190.42H223.421ZM222.061 194.98H228.581V193.34H230.641V199.88H220.041V193.34H222.061V194.98ZM228.581 198.2V196.62H222.061V198.2H228.581Z" fill="#F5F5FA"/>
</svg>
