<svg width="288" height="288" viewBox="0 0 288 288" fill="none" xmlns="http://www.w3.org/2000/svg">
<path d="M73.9226 130.856H60.3866V120.008H73.7546V122.048H62.8826V124.4H73.2986V126.368H62.8826V128.864H73.9226V130.856ZM75.8426 135.968H58.2506V133.904H75.8426V135.968ZM84.9473 127.88H80.5073V131.552C81.6113 131.536 82.6273 131.496 83.5553 131.432C84.4993 131.352 85.4673 131.216 86.4593 131.024L86.6273 133.064C85.4593 133.288 84.3313 133.44 83.2433 133.52C82.1713 133.584 80.9153 133.616 79.4753 133.616H78.1553V125.864H82.5953V122.528H78.1073V120.536H84.9473V127.88ZM94.1393 138.344H91.8113V118.472H94.1393V138.344ZM90.1793 137.336H87.8993V127.376H85.7873V125.36H87.8993V118.856H90.1793V137.336ZM112.892 138.368H110.42V118.472H112.892V138.368ZM102.524 119.912C103.484 119.912 104.34 120.2 105.092 120.776C105.86 121.352 106.46 122.176 106.892 123.248C107.324 124.304 107.54 125.536 107.54 126.944C107.54 128.352 107.324 129.592 106.892 130.664C106.46 131.72 105.86 132.536 105.092 133.112C104.34 133.688 103.484 133.976 102.524 133.976C101.548 133.976 100.676 133.688 99.908 133.112C99.14 132.536 98.54 131.72 98.108 130.664C97.676 129.592 97.46 128.352 97.46 126.944C97.46 125.536 97.676 124.304 98.108 123.248C98.54 122.176 99.14 121.352 99.908 120.776C100.676 120.2 101.548 119.912 102.524 119.912ZM102.524 122.168C101.692 122.168 101.036 122.592 100.556 123.44C100.076 124.272 99.836 125.44 99.836 126.944C99.836 128.432 100.076 129.6 100.556 130.448C101.036 131.28 101.692 131.696 102.524 131.696C103.324 131.696 103.964 131.28 104.444 130.448C104.924 129.6 105.164 128.432 105.164 126.944C105.164 125.456 104.924 124.288 104.444 123.44C103.964 122.592 103.324 122.168 102.524 122.168ZM132.341 138.368H129.893V126.776H124.445V124.736H129.893V118.472H132.341V138.368ZM119.645 131.552C122.509 131.504 125.109 131.248 127.445 130.784L127.685 132.848C126.261 133.152 124.837 133.36 123.413 133.472C122.005 133.584 120.461 133.64 118.781 133.64H117.173V120.632H119.645V131.552Z" fill="#F5F5FA"/>
<path d="M162.19 195.744H154.558V202.32H152.11V195.744H144.574V193.704H162.19V195.744ZM160.054 191.424H146.71V183.48H160.054V191.424ZM149.134 189.432H157.582V185.472H149.134V189.432ZM170.887 186.048C170.887 187.296 171.271 188.432 172.039 189.456C172.807 190.48 173.911 191.224 175.351 191.688L174.223 193.656C172.111 192.984 170.599 191.704 169.687 189.816C169.255 190.872 168.631 191.792 167.815 192.576C167.015 193.344 166.055 193.92 164.935 194.304L163.711 192.288C165.215 191.776 166.367 190.952 167.167 189.816C167.983 188.68 168.391 187.432 168.391 186.072V185.856H164.359V183.84H174.799V185.856H170.887V186.048ZM179.119 187.2H181.759V189.264H179.119V194.304H176.647V182.472H179.119V187.2ZM172.855 194.736C174.871 194.736 176.447 195.072 177.583 195.744C178.735 196.4 179.311 197.328 179.311 198.528C179.311 199.712 178.735 200.64 177.583 201.312C176.447 201.984 174.871 202.32 172.855 202.32C170.839 202.32 169.247 201.984 168.079 201.312C166.911 200.64 166.327 199.712 166.327 198.528C166.327 197.328 166.903 196.4 168.055 195.744C169.223 195.072 170.823 194.736 172.855 194.736ZM172.855 196.704C171.543 196.704 170.535 196.864 169.831 197.184C169.127 197.488 168.775 197.936 168.775 198.528C168.775 199.12 169.127 199.576 169.831 199.896C170.535 200.2 171.543 200.352 172.855 200.352C174.151 200.352 175.143 200.2 175.831 199.896C176.535 199.576 176.887 199.12 176.887 198.528C176.887 197.936 176.535 197.488 175.831 197.184C175.143 196.864 174.151 196.704 172.855 196.704ZM187.576 183.96C188.424 183.96 189.16 184.248 189.784 184.824C190.424 185.4 190.92 186.224 191.272 187.296C191.624 188.368 191.8 189.624 191.8 191.064C191.8 192.52 191.624 193.784 191.272 194.856C190.92 195.928 190.424 196.752 189.784 197.328C189.16 197.904 188.424 198.192 187.576 198.192C186.728 198.192 185.992 197.904 185.368 197.328C184.744 196.752 184.256 195.928 183.904 194.856C183.568 193.784 183.4 192.52 183.4 191.064C183.4 189.608 183.568 188.352 183.904 187.296C184.256 186.224 184.744 185.4 185.368 184.824C185.992 184.248 186.728 183.96 187.576 183.96ZM187.576 186.336C186.984 186.336 186.512 186.744 186.16 187.56C185.824 188.376 185.656 189.544 185.656 191.064C185.656 192.584 185.824 193.752 186.16 194.568C186.512 195.384 186.984 195.792 187.576 195.792C188.2 195.792 188.68 195.392 189.016 194.592C189.352 193.776 189.52 192.6 189.52 191.064C189.52 189.528 189.352 188.36 189.016 187.56C188.68 186.744 188.2 186.336 187.576 186.336ZM199.84 202.344H197.488V192.192H195.496V201.384H193.192V182.808H195.496V190.128H197.488V182.472H199.84V202.344ZM211.2 194.88C213.296 194.88 214.952 195.216 216.168 195.888C217.4 196.544 218.016 197.456 218.016 198.624C218.016 199.776 217.4 200.68 216.168 201.336C214.936 201.992 213.28 202.32 211.2 202.32C209.12 202.32 207.464 201.992 206.232 201.336C205.016 200.68 204.408 199.776 204.408 198.624C204.408 197.456 205.016 196.544 206.232 195.888C207.448 195.216 209.104 194.88 211.2 194.88ZM211.2 196.776C209.824 196.776 208.752 196.936 207.984 197.256C207.216 197.576 206.832 198.032 206.832 198.624C206.832 199.2 207.208 199.64 207.96 199.944C208.728 200.248 209.808 200.4 211.2 200.4C212.592 200.4 213.672 200.248 214.44 199.944C215.208 199.64 215.592 199.2 215.592 198.624C215.592 198.032 215.208 197.576 214.44 197.256C213.672 196.936 212.592 196.776 211.2 196.776ZM217.92 185.016C217.92 186.088 217.888 187.016 217.824 187.8C217.76 188.584 217.608 189.424 217.368 190.32L214.968 190.08C215.16 189.248 215.288 188.472 215.352 187.752C215.416 187.016 215.448 186.224 215.448 185.376H204.552V183.408H217.92V185.016ZM220.032 193.488H202.56V191.472H209.256V187.872H211.704V191.472H220.032V193.488ZM237.033 188.16H239.673V190.248H237.033V196.776H234.537V182.472H237.033V188.16ZM231.825 183.96C231.825 186.6 231.033 188.84 229.449 190.68C227.881 192.52 225.649 193.88 222.753 194.76L221.745 192.768C223.937 192.128 225.665 191.224 226.929 190.056C228.193 188.888 228.929 187.544 229.137 186.024H222.585V183.96H231.825ZM237.729 201.96H224.649V195.336H227.121V199.944H237.729V201.96Z" fill="#F5F5FA"/>
</svg>
