<svg width="320" height="279" viewBox="0 0 320 279" fill="none" xmlns="http://www.w3.org/2000/svg">
<rect y="0.847412" width="320" height="277.856" rx="24" fill="#1E1E28"/>
<path d="M18.9086 76.7031C19.0206 74.9531 19.3706 73.3291 20.9106 71.8731C22.3246 70.5151 22.6466 69.8991 22.6466 69.2551C22.6466 68.5551 22.2826 68.2331 21.7506 68.2331C21.0226 68.2331 20.6306 68.7931 20.5886 69.8151L18.9086 69.3671C19.0766 67.4071 20.1406 66.1751 21.7646 66.1751C23.4586 66.1751 24.3546 67.4911 24.3546 69.1991C24.3546 70.0391 24.1586 71.2011 22.6046 72.6711C21.9326 73.3151 21.4286 73.8751 21.1486 74.5751H24.4106V76.7031H18.9086ZM28.5905 76.8991C26.6865 76.8991 25.7485 75.0091 25.7485 71.6211C25.7485 68.2051 26.6865 66.3151 28.5905 66.3151C30.4945 66.3151 31.4325 68.2051 31.4325 71.6211C31.4325 75.0091 30.4945 76.8991 28.5905 76.8991ZM28.5905 74.8551C29.3045 74.8551 29.7525 73.8331 29.7525 71.6211C29.7525 69.3391 29.3045 68.3591 28.5905 68.3591C27.8905 68.3591 27.4425 69.3391 27.4425 71.6211C27.4425 73.8331 27.8765 74.8551 28.5905 74.8551ZM32.546 76.7031C32.658 74.9531 33.008 73.3291 34.548 71.8731C35.962 70.5151 36.284 69.8991 36.284 69.2551C36.284 68.5551 35.92 68.2331 35.388 68.2331C34.66 68.2331 34.268 68.7931 34.226 69.8151L32.546 69.3671C32.714 67.4071 33.778 66.1751 35.402 66.1751C37.096 66.1751 37.992 67.4911 37.992 69.1991C37.992 70.0391 37.796 71.2011 36.242 72.6711C35.57 73.3151 35.066 73.8751 34.786 74.5751H38.048V76.7031H32.546ZM42.1859 76.8991C40.8699 76.8991 39.8199 76.1011 39.3859 74.3651L41.0519 73.8611C41.2899 74.6171 41.7799 74.8411 42.2139 74.8411C42.9279 74.8411 43.3619 74.2391 43.3619 73.3291C43.3619 72.3071 42.7879 71.7611 42.1719 71.7611C41.6119 71.7611 41.2619 72.1811 40.9959 72.7971L39.6939 71.9011L39.9739 66.3851H44.5659V68.4151H41.4719L41.3879 69.8571C41.8359 69.7171 42.1019 69.6891 42.3539 69.6891C43.9499 69.6891 45.0699 71.1591 45.0699 73.2451C45.0699 75.2891 44.0619 76.8991 42.1859 76.8991Z" fill="#F5F5FA"/>
<path d="M35.765 56.7031C35.877 54.9531 36.227 53.3291 37.767 51.8731C39.181 50.5151 39.503 49.8991 39.503 49.2551C39.503 48.5551 39.139 48.2331 38.607 48.2331C37.879 48.2331 37.487 48.7931 37.445 49.8151L35.765 49.3671C35.933 47.4071 36.997 46.1751 38.621 46.1751C40.315 46.1751 41.211 47.4911 41.211 49.1991C41.211 50.0391 41.015 51.2011 39.461 52.6711C38.789 53.3151 38.285 53.8751 38.005 54.5751H41.267V56.7031H35.765ZM45.4469 56.8991C43.5429 56.8991 42.6049 55.0091 42.6049 51.6211C42.6049 48.2051 43.5429 46.3151 45.4469 46.3151C47.3509 46.3151 48.2889 48.2051 48.2889 51.6211C48.2889 55.0091 47.3509 56.8991 45.4469 56.8991ZM45.4469 54.8551C46.1609 54.8551 46.6089 53.8331 46.6089 51.6211C46.6089 49.3391 46.1609 48.3591 45.4469 48.3591C44.7469 48.3591 44.2989 49.3391 44.2989 51.6211C44.2989 53.8331 44.7329 54.8551 45.4469 54.8551ZM49.4024 56.7031C49.5144 54.9531 49.8644 53.3291 51.4044 51.8731C52.8184 50.5151 53.1404 49.8991 53.1404 49.2551C53.1404 48.5551 52.7764 48.2331 52.2444 48.2331C51.5164 48.2331 51.1244 48.7931 51.0824 49.8151L49.4024 49.3671C49.5704 47.4071 50.6344 46.1751 52.2584 46.1751C53.9524 46.1751 54.8484 47.4911 54.8484 49.1991C54.8484 50.0391 54.6524 51.2011 53.0984 52.6711C52.4264 53.3151 51.9224 53.8751 51.6424 54.5751H54.9044V56.7031H49.4024ZM59.3643 56.8991C57.3483 56.8991 56.2423 55.0371 56.2423 51.7331C56.2423 48.2751 57.4183 46.2451 59.5183 46.2451C60.7783 46.2451 61.6463 46.9731 62.0523 48.6111L60.4563 49.0871C60.2743 48.4991 59.9663 48.2891 59.5463 48.2891C58.9023 48.2891 58.1743 48.8071 58.0063 50.7531C58.4263 50.4031 58.8603 50.0531 59.6303 50.0531C61.1003 50.0531 62.2623 51.3831 62.2623 53.3851C62.2623 55.5271 61.0863 56.8991 59.3643 56.8991ZM59.4343 54.8411C60.0783 54.8411 60.5403 54.2671 60.5403 53.4551C60.5403 52.6571 60.0923 52.1531 59.4203 52.1531C58.9723 52.1531 58.5103 52.3771 58.1183 53.0911C58.2303 54.1271 58.7343 54.8411 59.4343 54.8411Z" fill="#F5F5FA"/>
<rect x="16" y="210.703" width="96" height="52" stroke="#F5F5FA" stroke-width="1.5"/>
<path d="M46.6386 238.171H36.1246V236.687H40.4646V235.833H37.3706V231.759H45.4066V233.201H39.2326V234.349H45.4346V235.833H42.2986V236.687H46.6386V238.171ZM41.3606 238.675C42.6206 238.675 43.6006 238.866 44.3006 239.249C45.01 239.622 45.3646 240.159 45.3646 240.859C45.3646 241.55 45.01 242.082 44.3006 242.455C43.5913 242.838 42.6113 243.029 41.3606 243.029C40.0913 243.029 39.0973 242.838 38.3786 242.455C37.66 242.082 37.3006 241.55 37.3006 240.859C37.3006 240.159 37.66 239.622 38.3786 239.249C39.0973 238.866 40.0913 238.675 41.3606 238.675ZM41.3606 240.103C40.614 240.103 40.0633 240.164 39.7086 240.285C39.3633 240.406 39.1906 240.598 39.1906 240.859C39.1906 241.12 39.3633 241.312 39.7086 241.433C40.054 241.545 40.6046 241.601 41.3606 241.601C42.098 241.601 42.6393 241.545 42.9846 241.433C43.33 241.312 43.5026 241.12 43.5026 240.859C43.5026 240.598 43.3253 240.406 42.9706 240.285C42.6253 240.164 42.0886 240.103 41.3606 240.103ZM57.6611 241.769H47.1611V240.229H49.7511V238.591H48.3511V234.503H54.6511V233.481H48.3371V231.969H56.5131V236.001H50.1991V237.079H56.7651V238.591H55.2251V240.229H57.6611V241.769ZM53.3911 240.229V238.591H51.5711V240.229H53.3911ZM61.5623 242.203V231.675H63.1863L65.6223 239.333L68.0163 231.675H69.6263V242.203H67.9463V237.331L66.4343 242.203H64.8103L63.2423 237.289V242.203H61.5623ZM71.1769 242.203V231.675H77.0569V233.761H72.8569V235.749H76.6789V237.835H72.8569V240.103H77.1549V242.203H71.1769ZM78.4673 242.203V231.675H84.3473V233.761H80.1473V235.749H83.9693V237.835H80.1473V240.103H84.4453V242.203H78.4673ZM87.7177 242.203V233.761H85.1697V231.675H91.9597V233.761H89.3977V242.203H87.7177Z" fill="#F5F5FA"/>
<rect x="112" y="210.703" width="96" height="52" stroke="#F5F5FA" stroke-width="1.5"/>
<path d="M145.272 238.563H143.508V235.567H142.85V238.213H141.114V231.465H142.85V234.055H143.508V231.241H145.272V238.563ZM140.848 233.817H135.318V232.375H137.166V231.353H139.014V232.375H140.848V233.817ZM138.09 234.139C138.827 234.139 139.429 234.33 139.896 234.713C140.372 235.096 140.61 235.595 140.61 236.211C140.61 236.808 140.372 237.298 139.896 237.681C139.429 238.054 138.827 238.241 138.09 238.241C137.623 238.241 137.198 238.157 136.816 237.989C136.442 237.812 136.144 237.569 135.92 237.261C135.705 236.953 135.598 236.603 135.598 236.211C135.598 235.81 135.705 235.45 135.92 235.133C136.144 234.816 136.442 234.573 136.816 234.405C137.198 234.228 137.623 234.139 138.09 234.139ZM138.09 235.483C137.828 235.483 137.623 235.548 137.474 235.679C137.324 235.8 137.25 235.978 137.25 236.211C137.25 236.435 137.324 236.612 137.474 236.743C137.632 236.874 137.838 236.939 138.09 236.939C138.351 236.939 138.556 236.874 138.706 236.743C138.864 236.612 138.944 236.435 138.944 236.211C138.944 235.978 138.864 235.8 138.706 235.679C138.556 235.548 138.351 235.483 138.09 235.483ZM141.296 238.675C142.565 238.675 143.554 238.866 144.264 239.249C144.982 239.622 145.342 240.154 145.342 240.845C145.342 241.526 144.982 242.058 144.264 242.441C143.545 242.824 142.556 243.015 141.296 243.015C140.045 243.015 139.065 242.824 138.356 242.441C137.646 242.058 137.292 241.526 137.292 240.845C137.292 240.154 137.646 239.622 138.356 239.249C139.065 238.866 140.045 238.675 141.296 238.675ZM141.296 240.061C140.558 240.061 140.012 240.122 139.658 240.243C139.312 240.364 139.14 240.565 139.14 240.845C139.14 241.106 139.312 241.298 139.658 241.419C140.012 241.54 140.558 241.601 141.296 241.601C142.042 241.601 142.588 241.54 142.934 241.419C143.288 241.298 143.466 241.106 143.466 240.845C143.466 240.565 143.288 240.364 142.934 240.243C142.588 240.122 142.042 240.061 141.296 240.061ZM156.91 238.171H146.396V236.687H150.736V235.833H147.642V231.759H155.678V233.201H149.504V234.349H155.706V235.833H152.57V236.687H156.91V238.171ZM151.632 238.675C152.892 238.675 153.872 238.866 154.572 239.249C155.281 239.622 155.636 240.159 155.636 240.859C155.636 241.55 155.281 242.082 154.572 242.455C153.863 242.838 152.883 243.029 151.632 243.029C150.363 243.029 149.369 242.838 148.65 242.455C147.931 242.082 147.572 241.55 147.572 240.859C147.572 240.159 147.931 239.622 148.65 239.249C149.369 238.866 150.363 238.675 151.632 238.675ZM151.632 240.103C150.885 240.103 150.335 240.164 149.98 240.285C149.635 240.406 149.462 240.598 149.462 240.859C149.462 241.12 149.635 241.312 149.98 241.433C150.325 241.545 150.876 241.601 151.632 241.601C152.369 241.601 152.911 241.545 153.256 241.433C153.601 241.312 153.774 241.12 153.774 240.859C153.774 240.598 153.597 240.406 153.242 240.285C152.897 240.164 152.36 240.103 151.632 240.103ZM160.139 242.203L163.429 231.675H165.291L168.553 242.203H166.803L166.019 239.585H162.715L161.903 242.203H160.139ZM163.345 237.513H165.389L164.367 234.209L163.345 237.513ZM173.333 242.469C170.911 242.469 169.175 240.257 169.175 237.079C169.175 233.845 171.009 231.423 173.459 231.423C175.139 231.423 176.497 232.543 177.155 234.433L175.419 235.147C174.957 234.041 174.327 233.551 173.431 233.551C171.975 233.551 170.939 235.021 170.939 237.023C170.939 238.983 171.919 240.355 173.319 240.355C174.341 240.355 175.139 239.697 175.517 238.507L177.197 238.997C176.553 241.195 175.181 242.469 173.333 242.469ZM180.483 242.203V233.761H177.935V231.675H184.725V233.761H182.163V242.203H180.483Z" fill="#F5F5FA"/>
<rect x="208" y="210.703" width="96" height="52" stroke="#F5F5FA" stroke-width="1.5"/>
<path d="M227.52 243.015H225.644V231.241H227.52V243.015ZM224.076 232.459C224.076 233.756 223.917 234.923 223.6 235.959C223.292 236.986 222.746 237.933 221.962 238.801C221.187 239.669 220.123 240.43 218.77 241.083L217.818 239.571C219.255 238.871 220.305 238.078 220.968 237.191C221.64 236.304 222.041 235.212 222.172 233.915H218.476V232.459H224.076ZM239.34 238.983H228.84V237.499H233.18V236.785H230.128V233.411H236.26V232.893H230.114V231.423H238.122V234.755H231.99V235.357H238.29V236.785H235.028V237.499H239.34V238.983ZM238.178 242.987H236.302V241.041H230.044V239.557H238.178V242.987ZM242.598 242.203L245.888 231.675H247.75L251.012 242.203H249.262L248.478 239.585H245.174L244.362 242.203H242.598ZM245.804 237.513H247.848L246.826 234.209L245.804 237.513ZM251.913 242.203V231.675H255.413C257.093 231.675 258.115 233.019 258.115 234.699C258.115 235.875 257.625 236.841 256.673 237.331C257.737 238.115 257.373 239.907 258.325 242.203H256.449C255.889 241.153 255.889 237.667 254.461 237.667H253.593V242.203H251.913ZM253.593 235.581H255.385C256.001 235.581 256.407 235.203 256.407 234.643C256.407 234.125 256.029 233.761 255.385 233.761H253.593V235.581ZM263.519 242.469C261.097 242.469 259.361 240.257 259.361 237.079C259.361 233.845 261.195 231.423 263.645 231.423C265.325 231.423 266.683 232.543 267.341 234.433L265.605 235.147C265.143 234.041 264.513 233.551 263.617 233.551C262.161 233.551 261.125 235.021 261.125 237.023C261.125 238.983 262.105 240.355 263.505 240.355C264.527 240.355 265.325 239.697 265.703 238.507L267.383 238.997C266.739 241.195 265.367 242.469 263.519 242.469ZM268.709 242.203V231.675H270.389V235.791H273.637V231.675H275.317V242.203H273.637V237.863H270.389V242.203H268.709ZM277.014 242.203V231.675H278.722V242.203H277.014ZM282.869 242.203L279.817 231.675H281.581L283.401 238.059L285.207 231.675H286.971L283.933 242.203H282.869ZM287.928 242.203V231.675H293.808V233.761H289.608V235.749H293.43V237.835H289.608V240.103H293.906V242.203H287.928Z" fill="#F5F5FA"/>
<rect x="32" y="150.703" width="85.3333" height="52" stroke="#F5F5FA" stroke-width="1.5"/>
<path d="M71.6218 163.835H73.1338V165.375H71.6218V169.239H69.7878V160.755H71.6218V163.835ZM68.1078 163.149H64.7478V165.837C65.8025 165.828 66.6285 165.804 67.2258 165.767C67.8325 165.72 68.4158 165.632 68.9758 165.501L69.1578 166.999C68.4952 167.139 67.7858 167.237 67.0298 167.293C66.2832 167.34 65.2378 167.363 63.8938 167.363H62.8858V161.637H68.1078V163.149ZM71.9998 172.319H64.1038V168.329H65.9378V170.835H71.9998V172.319ZM77.1843 164.297C77.1843 166.434 77.8983 167.895 79.3263 168.679L78.3323 170.093C77.4083 169.617 76.7363 168.819 76.3163 167.699C75.887 168.95 75.2103 169.836 74.2863 170.359L73.2503 168.945C74.0343 168.478 74.5943 167.834 74.9303 167.013C75.2663 166.192 75.4343 165.286 75.4343 164.297V164.157H73.7263V162.659H75.4343V161.133H77.1703V162.659H78.8363V164.157H77.1843V164.297ZM83.4843 172.515H81.7063V160.741H83.4843V172.515ZM81.1183 171.983H79.3823V166.663H78.2343V165.123H79.3823V160.895H81.1183V171.983ZM48.8676 189.969C46.4596 189.969 44.7236 187.645 44.7236 184.481C44.7236 181.359 46.3616 178.923 48.8676 178.923C51.3736 178.923 52.9836 181.373 52.9836 184.481C52.9836 187.645 51.2756 189.969 48.8676 189.969ZM48.8676 187.883C50.2256 187.883 51.2336 186.483 51.2336 184.467C51.2336 182.521 50.3236 181.023 48.8676 181.023C47.4116 181.023 46.5016 182.521 46.5016 184.467C46.5016 186.469 47.5096 187.883 48.8676 187.883ZM54.2491 189.703V179.175H57.7491C59.4291 179.175 60.4511 180.519 60.4511 182.199C60.4511 183.375 59.9611 184.341 59.0091 184.831C60.0731 185.615 59.7091 187.407 60.6611 189.703H58.7851C58.2251 188.653 58.2251 185.167 56.7971 185.167H55.9291V189.703H54.2491ZM55.9291 183.081H57.7211C58.3371 183.081 58.7431 182.703 58.7431 182.143C58.7431 181.625 58.3651 181.261 57.7211 181.261H55.9291V183.081ZM65.379 189.969C63.251 189.969 61.697 187.743 61.697 184.565C61.697 181.499 63.139 178.923 65.617 178.923C67.283 178.923 68.473 180.085 69.019 181.961L67.353 182.451C67.017 181.457 66.373 181.037 65.631 181.037C64.217 181.037 63.419 182.591 63.419 184.551C63.419 186.665 64.343 187.869 65.533 187.869C66.289 187.869 67.073 187.365 67.395 186.091H65.729V184.005H69.103V189.703H67.577L67.479 188.877C66.961 189.605 66.233 189.969 65.379 189.969ZM69.9492 189.703L73.2392 179.175H75.1012L78.3632 189.703H76.6132L75.8292 187.085H72.5252L71.7132 189.703H69.9492ZM73.1552 185.013H75.1992L74.1772 181.709L73.1552 185.013ZM79.2648 189.703V179.175H80.8328L84.2768 185.825V179.175H85.9568V189.703H84.4168L80.9588 183.039V189.703H79.2648ZM87.6385 189.703V179.175H89.3465V189.703H87.6385ZM90.8612 189.703V188.471L94.6692 181.261H90.9312V179.175H97.1892V180.491L93.4232 187.603H97.1892V189.703H90.8612ZM98.5793 189.703V179.175H104.459V181.261H100.259V183.249H104.081V185.335H100.259V187.603H104.557V189.703H98.5793Z" fill="#F5F5FA"/>
<rect x="117.333" y="150.703" width="85.3333" height="52" stroke="#F5F5FA" stroke-width="1.5"/>
<path d="M139.714 163.177C139.714 164.344 139.92 165.394 140.33 166.327C140.75 167.26 141.413 167.946 142.318 168.385L141.212 169.897C140.102 169.337 139.299 168.348 138.804 166.929C138.282 168.46 137.404 169.524 136.172 170.121L135.08 168.581C136.042 168.133 136.742 167.428 137.18 166.467C137.628 165.496 137.852 164.4 137.852 163.177V161.609H139.714V163.177ZM144.46 165.179H146.07V166.775H144.46V172.515H142.612V160.741H144.46V165.179ZM156.113 172.515H154.251V160.741H156.113V172.515ZM146.425 169.113C147.601 169.113 148.525 169.104 149.197 169.085V168.203C148.59 168.072 148.109 167.816 147.755 167.433C147.4 167.05 147.223 166.593 147.223 166.061C147.223 165.632 147.344 165.254 147.587 164.927C147.829 164.591 148.17 164.33 148.609 164.143C149.047 163.956 149.551 163.863 150.121 163.863C150.69 163.863 151.194 163.956 151.633 164.143C152.071 164.33 152.412 164.591 152.655 164.927C152.907 165.254 153.033 165.632 153.033 166.061C153.033 166.593 152.851 167.05 152.487 167.433C152.132 167.816 151.647 168.072 151.031 168.203V169.029C152.039 168.982 152.925 168.903 153.691 168.791L153.817 170.163C152.715 170.368 151.586 170.504 150.429 170.569C149.271 170.625 148.011 170.653 146.649 170.653L146.425 169.113ZM153.593 163.471H146.635V162.015H149.197V160.811H151.059V162.015H153.593V163.471ZM150.121 165.291C149.775 165.291 149.495 165.356 149.281 165.487C149.075 165.618 148.973 165.809 148.973 166.061C148.973 166.332 149.075 166.532 149.281 166.663C149.495 166.794 149.775 166.859 150.121 166.859C150.485 166.859 150.769 166.794 150.975 166.663C151.18 166.532 151.283 166.332 151.283 166.061C151.283 165.809 151.175 165.618 150.961 165.487C150.755 165.356 150.475 165.291 150.121 165.291ZM170.752 167.867H166.538V169.757H164.676V167.867H160.252V166.397H170.752V167.867ZM169.604 172.319H161.484V168.777H163.346V170.821H169.604V172.319ZM165.516 160.923C166.347 160.923 167.075 161.026 167.7 161.231C168.335 161.436 168.825 161.726 169.17 162.099C169.515 162.463 169.688 162.892 169.688 163.387C169.688 163.891 169.515 164.33 169.17 164.703C168.825 165.067 168.339 165.352 167.714 165.557C167.089 165.753 166.356 165.851 165.516 165.851C164.685 165.851 163.953 165.753 163.318 165.557C162.683 165.352 162.193 165.067 161.848 164.703C161.503 164.33 161.33 163.891 161.33 163.387C161.33 162.902 161.503 162.472 161.848 162.099C162.203 161.726 162.693 161.436 163.318 161.231C163.953 161.026 164.685 160.923 165.516 160.923ZM165.516 162.421C164.816 162.421 164.275 162.5 163.892 162.659C163.509 162.818 163.318 163.06 163.318 163.387C163.318 163.704 163.505 163.942 163.878 164.101C164.261 164.26 164.807 164.339 165.516 164.339C166.972 164.339 167.7 164.022 167.7 163.387C167.7 163.06 167.509 162.818 167.126 162.659C166.753 162.5 166.216 162.421 165.516 162.421ZM181.816 167.671H171.302V166.187H175.642V165.333H172.548V161.259H180.584V162.701H174.41V163.849H180.612V165.333H177.476V166.187H181.816V167.671ZM176.538 168.175C177.798 168.175 178.778 168.366 179.478 168.749C180.188 169.122 180.542 169.659 180.542 170.359C180.542 171.05 180.188 171.582 179.478 171.955C178.769 172.338 177.789 172.529 176.538 172.529C175.269 172.529 174.275 172.338 173.556 171.955C172.838 171.582 172.478 171.05 172.478 170.359C172.478 169.659 172.838 169.122 173.556 168.749C174.275 168.366 175.269 168.175 176.538 168.175ZM176.538 169.603C175.792 169.603 175.241 169.664 174.886 169.785C174.541 169.906 174.368 170.098 174.368 170.359C174.368 170.62 174.541 170.812 174.886 170.933C175.232 171.045 175.782 171.101 176.538 171.101C177.276 171.101 177.817 171.045 178.162 170.933C178.508 170.812 178.68 170.62 178.68 170.359C178.68 170.098 178.503 169.906 178.148 169.785C177.803 169.664 177.266 169.603 176.538 169.603ZM139.625 189.969C137.203 189.969 135.467 187.757 135.467 184.579C135.467 181.345 137.301 178.923 139.751 178.923C141.431 178.923 142.789 180.043 143.447 181.933L141.711 182.647C141.249 181.541 140.619 181.051 139.723 181.051C138.267 181.051 137.231 182.521 137.231 184.523C137.231 186.483 138.211 187.855 139.611 187.855C140.633 187.855 141.431 187.197 141.809 186.007L143.489 186.497C142.845 188.695 141.473 189.969 139.625 189.969ZM144.815 189.703V179.175H146.495V183.291H149.743V179.175H151.423V189.703H149.743V185.363H146.495V189.703H144.815ZM152.323 189.703L155.613 179.175H157.475L160.737 189.703H158.987L158.203 187.085H154.899L154.087 189.703H152.323ZM155.529 185.013H157.573L156.551 181.709L155.529 185.013ZM161.638 189.703V179.175H163.206L166.65 185.825V179.175H168.33V189.703H166.79L163.332 183.039V189.703H161.638ZM173.274 189.969C171.146 189.969 169.592 187.743 169.592 184.565C169.592 181.499 171.034 178.923 173.512 178.923C175.178 178.923 176.368 180.085 176.914 181.961L175.248 182.451C174.912 181.457 174.268 181.037 173.526 181.037C172.112 181.037 171.314 182.591 171.314 184.551C171.314 186.665 172.238 187.869 173.428 187.869C174.184 187.869 174.968 187.365 175.29 186.091H173.624V184.005H176.998V189.703H175.472L175.374 188.877C174.856 189.605 174.128 189.969 173.274 189.969ZM178.502 189.703V179.175H184.382V181.261H180.182V183.249H184.004V185.335H180.182V187.603H184.48V189.703H178.502Z" fill="#F5F5FA"/>
<rect x="202.667" y="150.703" width="85.3333" height="52" stroke="#F5F5FA" stroke-width="1.5"/>
<path d="M237.724 163.779C237.724 164.815 237.948 165.772 238.396 166.649C238.854 167.517 239.554 168.147 240.496 168.539L239.516 170.037C238.266 169.496 237.365 168.502 236.814 167.055C236.264 168.651 235.349 169.738 234.07 170.317L233.048 168.833C233.982 168.413 234.677 167.736 235.134 166.803C235.592 165.87 235.82 164.862 235.82 163.779V163.373H233.51V161.861H240.006V163.373H237.724V163.779ZM242.792 172.515H240.93V160.741H242.792V172.515ZM248.705 162.393C248.705 163.14 248.91 163.812 249.321 164.409C249.732 165.006 250.39 165.44 251.295 165.711L250.427 167.209C249.186 166.826 248.294 166.103 247.753 165.039C247.184 166.206 246.255 166.99 244.967 167.391L244.085 165.893C245.018 165.594 245.7 165.132 246.129 164.507C246.568 163.872 246.787 163.168 246.787 162.393V161.259H248.705V162.393ZM253.829 172.515H251.981V169.715H245.891V168.217H253.829V172.515ZM253.829 167.713H251.981V160.741H253.829V167.713ZM212.869 189.703V179.175H214.577V189.703H212.869ZM216.26 189.703V179.175H217.828L221.272 185.825V179.175H222.952V189.703H221.412L217.954 183.039V189.703H216.26ZM226.958 189.703L223.906 179.175H225.67L227.49 185.559L229.296 179.175H231.06L228.022 189.703H226.958ZM232.016 189.703V179.175H237.896V181.261H233.696V183.249H237.518V185.335H233.696V187.603H237.994V189.703H232.016ZM239.307 189.703V179.175H240.875L244.319 185.825V179.175H245.999V189.703H244.459L241.001 183.039V189.703H239.307ZM249.501 189.703V181.261H246.952V179.175H253.743V181.261H251.18V189.703H249.501ZM258.558 189.969C256.15 189.969 254.414 187.645 254.414 184.481C254.414 181.359 256.052 178.923 258.558 178.923C261.064 178.923 262.674 181.373 262.674 184.481C262.674 187.645 260.966 189.969 258.558 189.969ZM258.558 187.883C259.916 187.883 260.924 186.483 260.924 184.467C260.924 182.521 260.014 181.023 258.558 181.023C257.102 181.023 256.192 182.521 256.192 184.467C256.192 186.469 257.2 187.883 258.558 187.883ZM263.94 189.703V179.175H267.44C269.12 179.175 270.142 180.519 270.142 182.199C270.142 183.375 269.652 184.341 268.7 184.831C269.764 185.615 269.4 187.407 270.352 189.703H268.476C267.916 188.653 267.916 185.167 266.488 185.167H265.62V189.703H263.94ZM265.62 183.081H267.412C268.028 183.081 268.434 182.703 268.434 182.143C268.434 181.625 268.056 181.261 267.412 181.261H265.62V183.081ZM273.964 189.703V184.677L271.024 179.175H272.942L274.804 182.731L276.694 179.175H278.57L275.644 184.663V189.703H273.964Z" fill="#F5F5FA"/>
<rect x="48" y="90.7031" width="224" height="52" stroke="#F5F5FA" stroke-width="1.5"/>
<path d="M107.283 119.151H105.043V123.015H103.209V119.151H100.983V123.015H99.1351V119.151H96.7831V117.639H107.283V119.151ZM103.041 112.081C103.041 112.548 103.176 113.01 103.447 113.467C103.727 113.924 104.156 114.326 104.735 114.671C105.323 115.007 106.056 115.231 106.933 115.343L106.233 116.883C105.244 116.734 104.399 116.444 103.699 116.015C102.999 115.586 102.453 115.054 102.061 114.419C101.678 115.054 101.132 115.586 100.423 116.015C99.7137 116.444 98.8597 116.734 97.8611 116.883L97.1611 115.343C98.0477 115.231 98.7804 115.002 99.3591 114.657C99.9471 114.312 100.376 113.91 100.647 113.453C100.927 112.996 101.067 112.538 101.067 112.081V111.535H103.041V112.081ZM114.512 113.691H113.476V118.717C113.905 118.689 114.334 118.647 114.764 118.591L114.862 119.949C113.835 120.145 112.762 120.271 111.642 120.327C110.522 120.383 109.299 120.411 107.974 120.411L107.82 118.899L108.996 118.885V113.691H108.114V112.193H114.512V113.691ZM117.592 123.015H115.758V116.953H114.218V115.455H115.758V111.241H117.592V123.015ZM111.698 118.829V113.691H110.802V118.857L111.698 118.829ZM125.044 112.711C125.044 113.28 125.184 113.84 125.464 114.391C125.753 114.932 126.197 115.408 126.794 115.819C127.391 116.23 128.143 116.514 129.048 116.673L128.25 118.227C127.251 118.04 126.397 117.69 125.688 117.177C124.988 116.664 124.447 116.038 124.064 115.301C123.681 116.038 123.135 116.664 122.426 117.177C121.717 117.681 120.863 118.031 119.864 118.227L119.08 116.673C119.967 116.514 120.709 116.23 121.306 115.819C121.903 115.399 122.347 114.918 122.636 114.377C122.925 113.826 123.07 113.271 123.07 112.711V111.899H125.044V112.711ZM129.37 121.643H118.87V120.075H129.37V121.643ZM140.379 118.675H129.893V117.191H134.191V116.631H131.167V111.451H139.203V112.893H133.029V113.355H138.951V114.713H133.029V115.175H139.301V116.631H136.067V117.191H140.379V118.675ZM139.147 122.889H131.111V119.207H139.147V122.889ZM132.931 121.405H137.327V120.663H132.931V121.405ZM147.584 122.469C145.666 122.469 144.434 121.321 144.14 119.207L145.792 118.731C146.002 119.893 146.548 120.411 147.528 120.411C148.452 120.411 149.096 119.935 149.096 119.291C149.096 118.689 148.522 118.227 147.234 117.737C145.204 116.995 144.252 115.903 144.252 114.307C144.252 112.529 145.442 111.423 147.388 111.423C149.166 111.423 150.188 112.361 150.608 114.265L148.844 114.741C148.62 113.887 148.158 113.509 147.29 113.509C146.492 113.509 145.988 113.817 145.988 114.377C145.988 114.881 146.394 115.217 147.78 115.763C149.838 116.575 150.804 117.723 150.804 119.347C150.804 121.223 149.53 122.469 147.584 122.469ZM155.434 122.469C153.516 122.469 152.186 121.111 152.186 118.325V111.675H153.88V118.353C153.88 119.725 154.454 120.369 155.434 120.369C156.428 120.369 157.058 119.753 157.058 118.367V111.675H158.738V118.339C158.738 121.097 157.394 122.469 155.434 122.469ZM160.283 122.203V111.675H163.699C165.421 111.675 166.401 113.131 166.401 114.881C166.401 116.659 165.379 118.115 163.699 118.115H161.977V122.203H160.283ZM161.977 116.029H163.699C164.287 116.029 164.693 115.581 164.693 114.881C164.693 114.195 164.301 113.761 163.699 113.761H161.977V116.029ZM167.601 122.203V111.675H173.481V113.761H169.281V115.749H173.103V117.835H169.281V120.103H173.579V122.203H167.601ZM174.891 122.203V111.675H178.391C180.071 111.675 181.093 113.019 181.093 114.699C181.093 115.875 180.603 116.841 179.651 117.331C180.715 118.115 180.351 119.907 181.303 122.203H179.427C178.867 121.153 178.867 117.667 177.439 117.667H176.571V122.203H174.891ZM176.571 115.581H178.363C178.979 115.581 179.385 115.203 179.385 114.643C179.385 114.125 179.007 113.761 178.363 113.761H176.571V115.581ZM185.895 122.469C183.977 122.469 182.745 121.321 182.451 119.207L184.103 118.731C184.313 119.893 184.859 120.411 185.839 120.411C186.763 120.411 187.407 119.935 187.407 119.291C187.407 118.689 186.833 118.227 185.545 117.737C183.515 116.995 182.563 115.903 182.563 114.307C182.563 112.529 183.753 111.423 185.699 111.423C187.477 111.423 188.499 112.361 188.919 114.265L187.155 114.741C186.931 113.887 186.469 113.509 185.601 113.509C184.803 113.509 184.299 113.817 184.299 114.377C184.299 114.881 184.705 115.217 186.091 115.763C188.149 116.575 189.115 117.723 189.115 119.347C189.115 121.223 187.841 122.469 185.895 122.469ZM192.457 122.203V113.761H189.909V111.675H196.699V113.761H194.137V122.203H192.457ZM201.515 122.469C199.107 122.469 197.371 120.145 197.371 116.981C197.371 113.859 199.009 111.423 201.515 111.423C204.021 111.423 205.631 113.873 205.631 116.981C205.631 120.145 203.923 122.469 201.515 122.469ZM201.515 120.383C202.873 120.383 203.881 118.983 203.881 116.967C203.881 115.021 202.971 113.523 201.515 113.523C200.059 113.523 199.149 115.021 199.149 116.967C199.149 118.969 200.157 120.383 201.515 120.383ZM206.896 122.203V111.675H210.396C212.076 111.675 213.098 113.019 213.098 114.699C213.098 115.875 212.608 116.841 211.656 117.331C212.72 118.115 212.356 119.907 213.308 122.203H211.432C210.872 121.153 210.872 117.667 209.444 117.667H208.576V122.203H206.896ZM208.576 115.581H210.368C210.984 115.581 211.39 115.203 211.39 114.643C211.39 114.125 211.012 113.761 210.368 113.761H208.576V115.581ZM214.624 122.203V111.675H216.248L218.684 119.333L221.078 111.675H222.688V122.203H221.008V117.331L219.496 122.203H217.872L216.304 117.289V122.203H214.624Z" fill="#F5F5FA"/>
<path d="M15.25 203.203L11.6699 210.703H20.3301L16.75 203.203H15.25ZM15.25 67.2031C15.25 67.6173 15.5858 67.9531 16 67.9531C16.4142 67.9531 16.75 67.6173 16.75 67.2031H15.25ZM16.75 72.2031C16.75 71.7889 16.4142 71.4531 16 71.4531C15.5858 71.4531 15.25 71.7889 15.25 72.2031H16.75ZM15.25 73.2031C15.25 73.6173 15.5858 73.9531 16 73.9531C16.4142 73.9531 16.75 73.6173 16.75 73.2031H15.25ZM16.75 78.2031C16.75 77.7889 16.4142 77.4531 16 77.4531C15.5858 77.4531 15.25 77.7889 15.25 78.2031H16.75ZM15.25 79.2031C15.25 79.6173 15.5858 79.9531 16 79.9531C16.4142 79.9531 16.75 79.6173 16.75 79.2031H15.25ZM16.75 84.2031C16.75 83.7889 16.4142 83.4531 16 83.4531C15.5858 83.4531 15.25 83.7889 15.25 84.2031H16.75ZM15.25 85.2031C15.25 85.6173 15.5858 85.9531 16 85.9531C16.4142 85.9531 16.75 85.6173 16.75 85.2031H15.25ZM16.75 90.2031C16.75 89.7889 16.4142 89.4531 16 89.4531C15.5858 89.4531 15.25 89.7889 15.25 90.2031H16.75ZM15.25 91.2031C15.25 91.6173 15.5858 91.9531 16 91.9531C16.4142 91.9531 16.75 91.6173 16.75 91.2031H15.25ZM16.75 96.2031C16.75 95.7889 16.4142 95.4531 16 95.4531C15.5858 95.4531 15.25 95.7889 15.25 96.2031H16.75ZM15.25 97.2031C15.25 97.6173 15.5858 97.9531 16 97.9531C16.4142 97.9531 16.75 97.6173 16.75 97.2031H15.25ZM16.75 102.203C16.75 101.789 16.4142 101.453 16 101.453C15.5858 101.453 15.25 101.789 15.25 102.203H16.75ZM15.25 103.203C15.25 103.617 15.5858 103.953 16 103.953C16.4142 103.953 16.75 103.617 16.75 103.203H15.25ZM16.75 108.203C16.75 107.789 16.4142 107.453 16 107.453C15.5858 107.453 15.25 107.789 15.25 108.203H16.75ZM15.25 109.203C15.25 109.617 15.5858 109.953 16 109.953C16.4142 109.953 16.75 109.617 16.75 109.203H15.25ZM16.75 114.203C16.75 113.789 16.4142 113.453 16 113.453C15.5858 113.453 15.25 113.789 15.25 114.203H16.75ZM15.25 115.203C15.25 115.617 15.5858 115.953 16 115.953C16.4142 115.953 16.75 115.617 16.75 115.203H15.25ZM16.75 120.203C16.75 119.789 16.4142 119.453 16 119.453C15.5858 119.453 15.25 119.789 15.25 120.203H16.75ZM15.25 121.203C15.25 121.617 15.5858 121.953 16 121.953C16.4142 121.953 16.75 121.617 16.75 121.203H15.25ZM16.75 126.203C16.75 125.789 16.4142 125.453 16 125.453C15.5858 125.453 15.25 125.789 15.25 126.203H16.75ZM15.25 127.203C15.25 127.617 15.5858 127.953 16 127.953C16.4142 127.953 16.75 127.617 16.75 127.203H15.25ZM16.75 132.203C16.75 131.789 16.4142 131.453 16 131.453C15.5858 131.453 15.25 131.789 15.25 132.203H16.75ZM15.25 133.203C15.25 133.617 15.5858 133.953 16 133.953C16.4142 133.953 16.75 133.617 16.75 133.203H15.25ZM16.75 138.203C16.75 137.789 16.4142 137.453 16 137.453C15.5858 137.453 15.25 137.789 15.25 138.203H16.75ZM15.25 139.203C15.25 139.617 15.5858 139.953 16 139.953C16.4142 139.953 16.75 139.617 16.75 139.203H15.25ZM16.75 144.203C16.75 143.789 16.4142 143.453 16 143.453C15.5858 143.453 15.25 143.789 15.25 144.203H16.75ZM15.25 145.203C15.25 145.617 15.5858 145.953 16 145.953C16.4142 145.953 16.75 145.617 16.75 145.203H15.25ZM16.75 150.203C16.75 149.789 16.4142 149.453 16 149.453C15.5858 149.453 15.25 149.789 15.25 150.203H16.75ZM15.25 151.203C15.25 151.617 15.5858 151.953 16 151.953C16.4142 151.953 16.75 151.617 16.75 151.203H15.25ZM16.75 156.203C16.75 155.789 16.4142 155.453 16 155.453C15.5858 155.453 15.25 155.789 15.25 156.203H16.75ZM15.25 157.203C15.25 157.617 15.5858 157.953 16 157.953C16.4142 157.953 16.75 157.617 16.75 157.203H15.25ZM16.75 162.203C16.75 161.789 16.4142 161.453 16 161.453C15.5858 161.453 15.25 161.789 15.25 162.203H16.75ZM15.25 163.203C15.25 163.617 15.5858 163.953 16 163.953C16.4142 163.953 16.75 163.617 16.75 163.203H15.25ZM16.75 168.203C16.75 167.789 16.4142 167.453 16 167.453C15.5858 167.453 15.25 167.789 15.25 168.203H16.75ZM15.25 169.203C15.25 169.617 15.5858 169.953 16 169.953C16.4142 169.953 16.75 169.617 16.75 169.203H15.25ZM16.75 174.203C16.75 173.789 16.4142 173.453 16 173.453C15.5858 173.453 15.25 173.789 15.25 174.203H16.75ZM15.25 175.203C15.25 175.617 15.5858 175.953 16 175.953C16.4142 175.953 16.75 175.617 16.75 175.203H15.25ZM16.75 180.203C16.75 179.789 16.4142 179.453 16 179.453C15.5858 179.453 15.25 179.789 15.25 180.203H16.75ZM15.25 181.203C15.25 181.617 15.5858 181.953 16 181.953C16.4142 181.953 16.75 181.617 16.75 181.203H15.25ZM16.75 186.203C16.75 185.789 16.4142 185.453 16 185.453C15.5858 185.453 15.25 185.789 15.25 186.203H16.75ZM15.25 187.203C15.25 187.617 15.5858 187.953 16 187.953C16.4142 187.953 16.75 187.617 16.75 187.203H15.25ZM16.75 192.203C16.75 191.789 16.4142 191.453 16 191.453C15.5858 191.453 15.25 191.789 15.25 192.203H16.75ZM15.25 193.203C15.25 193.617 15.5858 193.953 16 193.953C16.4142 193.953 16.75 193.617 16.75 193.203H15.25ZM16.75 198.203C16.75 197.789 16.4142 197.453 16 197.453C15.5858 197.453 15.25 197.789 15.25 198.203H16.75ZM15.25 199.203C15.25 199.617 15.5858 199.953 16 199.953C16.4142 199.953 16.75 199.617 16.75 199.203H15.25ZM16.75 204.203C16.75 203.789 16.4142 203.453 16 203.453C15.5858 203.453 15.25 203.789 15.25 204.203H16.75ZM15.25 205.203C15.25 205.617 15.5858 205.953 16 205.953C16.4142 205.953 16.75 205.617 16.75 205.203H15.25ZM16.75 210.203C16.75 209.789 16.4142 209.453 16 209.453C15.5858 209.453 15.25 209.789 15.25 210.203H16.75ZM16 66.7031H15.25V67.2031H16H16.75V66.7031H16ZM16 72.2031H15.25V73.2031H16H16.75V72.2031H16ZM16 78.2031H15.25V79.2031H16H16.75V78.2031H16ZM16 84.2031H15.25V85.2031H16H16.75V84.2031H16ZM16 90.2031H15.25V91.2031H16H16.75V90.2031H16ZM16 96.2031H15.25V97.2031H16H16.75V96.2031H16ZM16 102.203H15.25V103.203H16H16.75V102.203H16ZM16 108.203H15.25V109.203H16H16.75V108.203H16ZM16 114.203H15.25V115.203H16H16.75V114.203H16ZM16 120.203H15.25V121.203H16H16.75V120.203H16ZM16 126.203H15.25V127.203H16H16.75V126.203H16ZM16 132.203H15.25V133.203H16H16.75V132.203H16ZM16 138.203H15.25V139.203H16H16.75V138.203H16ZM16 144.203H15.25V145.203H16H16.75V144.203H16ZM16 150.203H15.25V151.203H16H16.75V150.203H16ZM16 156.203H15.25V157.203H16H16.75V156.203H16ZM16 162.203H15.25V163.203H16H16.75V162.203H16ZM16 168.203H15.25V169.203H16H16.75V168.203H16ZM16 174.203H15.25V175.203H16H16.75V174.203H16ZM16 180.203H15.25V181.203H16H16.75V180.203H16ZM16 186.203H15.25V187.203H16H16.75V186.203H16ZM16 192.203H15.25V193.203H16H16.75V192.203H16ZM16 198.203H15.25V199.203H16H16.75V198.203H16ZM16 204.203H15.25V205.203H16H16.75V204.203H16Z" fill="#F5F5FA"/>
<path d="M31.25 143.203L27.6699 150.703H36.3301L32.75 143.203H31.25ZM31.25 47.7105C31.25 48.1247 31.5858 48.4605 32 48.4605C32.4142 48.4605 32.75 48.1247 32.75 47.7105H31.25ZM32.75 52.784C32.75 52.3698 32.4142 52.034 32 52.034C31.5858 52.034 31.25 52.3698 31.25 52.784H32.75ZM31.25 53.7987C31.25 54.2129 31.5858 54.5487 32 54.5487C32.4142 54.5487 32.75 54.2129 32.75 53.7987H31.25ZM32.75 58.8722C32.75 58.458 32.4142 58.1222 32 58.1222C31.5858 58.1222 31.25 58.458 31.25 58.8722H32.75ZM31.25 59.8869C31.25 60.3012 31.5858 60.6369 32 60.6369C32.4142 60.6369 32.75 60.3012 32.75 59.8869H31.25ZM32.75 64.9605C32.75 64.5463 32.4142 64.2105 32 64.2105C31.5858 64.2105 31.25 64.5463 31.25 64.9605H32.75ZM31.25 65.9752C31.25 66.3894 31.5858 66.7252 32 66.7252C32.4142 66.7252 32.75 66.3894 32.75 65.9752H31.25ZM32.75 71.0487C32.75 70.6345 32.4142 70.2987 32 70.2987C31.5858 70.2987 31.25 70.6345 31.25 71.0487H32.75ZM31.25 72.0634C31.25 72.4776 31.5858 72.8134 32 72.8134C32.4142 72.8134 32.75 72.4776 32.75 72.0634H31.25ZM32.75 77.1369C32.75 76.7227 32.4142 76.3869 32 76.3869C31.5858 76.3869 31.25 76.7227 31.25 77.1369H32.75ZM31.25 78.1516C31.25 78.5659 31.5858 78.9016 32 78.9016C32.4142 78.9016 32.75 78.5659 32.75 78.1516H31.25ZM32.75 83.2252C32.75 82.811 32.4142 82.4752 32 82.4752C31.5858 82.4752 31.25 82.811 31.25 83.2252H32.75ZM31.25 84.2399C31.25 84.6541 31.5858 84.9899 32 84.9899C32.4142 84.9899 32.75 84.6541 32.75 84.2399H31.25ZM32.75 89.3134C32.75 88.8992 32.4142 88.5634 32 88.5634C31.5858 88.5634 31.25 88.8992 31.25 89.3134H32.75ZM31.25 90.3281C31.25 90.7423 31.5858 91.0781 32 91.0781C32.4142 91.0781 32.75 90.7423 32.75 90.3281H31.25ZM32.75 95.4016C32.75 94.9874 32.4142 94.6516 32 94.6516C31.5858 94.6516 31.25 94.9874 31.25 95.4016H32.75ZM31.25 96.4164C31.25 96.8306 31.5858 97.1664 32 97.1664C32.4142 97.1664 32.75 96.8306 32.75 96.4164H31.25ZM32.75 101.49C32.75 101.076 32.4142 100.74 32 100.74C31.5858 100.74 31.25 101.076 31.25 101.49H32.75ZM31.25 102.505C31.25 102.919 31.5858 103.255 32 103.255C32.4142 103.255 32.75 102.919 32.75 102.505H31.25ZM32.75 107.578C32.75 107.164 32.4142 106.828 32 106.828C31.5858 106.828 31.25 107.164 31.25 107.578H32.75ZM31.25 108.593C31.25 109.007 31.5858 109.343 32 109.343C32.4142 109.343 32.75 109.007 32.75 108.593H31.25ZM32.75 113.666C32.75 113.252 32.4142 112.916 32 112.916C31.5858 112.916 31.25 113.252 31.25 113.666H32.75ZM31.25 114.681C31.25 115.095 31.5858 115.431 32 115.431C32.4142 115.431 32.75 115.095 32.75 114.681H31.25ZM32.75 119.755C32.75 119.34 32.4142 119.005 32 119.005C31.5858 119.005 31.25 119.34 31.25 119.755H32.75ZM31.25 120.769C31.25 121.184 31.5858 121.519 32 121.519C32.4142 121.519 32.75 121.184 32.75 120.769H31.25ZM32.75 125.843C32.75 125.429 32.4142 125.093 32 125.093C31.5858 125.093 31.25 125.429 31.25 125.843H32.75ZM31.25 126.858C31.25 127.272 31.5858 127.608 32 127.608C32.4142 127.608 32.75 127.272 32.75 126.858H31.25ZM32.75 131.931C32.75 131.517 32.4142 131.181 32 131.181C31.5858 131.181 31.25 131.517 31.25 131.931H32.75ZM31.25 132.946C31.25 133.36 31.5858 133.696 32 133.696C32.4142 133.696 32.75 133.36 32.75 132.946H31.25ZM32.75 138.019C32.75 137.605 32.4142 137.269 32 137.269C31.5858 137.269 31.25 137.605 31.25 138.019H32.75ZM31.25 139.034C31.25 139.448 31.5858 139.784 32 139.784C32.4142 139.784 32.75 139.448 32.75 139.034H31.25ZM32.75 144.108C32.75 143.693 32.4142 143.358 32 143.358C31.5858 143.358 31.25 143.693 31.25 144.108H32.75ZM31.25 145.122C31.25 145.536 31.5858 145.872 32 145.872C32.4142 145.872 32.75 145.536 32.75 145.122H31.25ZM32.75 150.196C32.75 149.782 32.4142 149.446 32 149.446C31.5858 149.446 31.25 149.782 31.25 150.196H32.75ZM32 47.2031H31.25V47.7105H32H32.75V47.2031H32ZM32 52.784H31.25V53.7987H32H32.75V52.784H32ZM32 58.8722H31.25V59.8869H32H32.75V58.8722H32ZM32 64.9605H31.25V65.9752H32H32.75V64.9605H32ZM32 71.0487H31.25V72.0634H32H32.75V71.0487H32ZM32 77.1369H31.25V78.1516H32H32.75V77.1369H32ZM32 83.2252H31.25V84.2399H32H32.75V83.2252H32ZM32 89.3134H31.25V90.3281H32H32.75V89.3134H32ZM32 95.4016H31.25V96.4164H32H32.75V95.4016H32ZM32 101.49H31.25V102.505H32H32.75V101.49H32ZM32 107.578H31.25V108.593H32H32.75V107.578H32ZM32 113.666H31.25V114.681H32H32.75V113.666H32ZM32 119.755H31.25V120.769H32H32.75V119.755H32ZM32 125.843H31.25V126.858H32H32.75V125.843H32ZM32 131.931H31.25V132.946H32H32.75V131.931H32ZM32 138.019H31.25V139.034H32H32.75V138.019H32ZM32 144.108H31.25V145.122H32H32.75V144.108H32Z" fill="#F5F5FA"/>
<path d="M16 210.703L32 202.703" stroke="#F5F5FA" stroke-width="1.5"/>
<path d="M304 210.703L288 202.703" stroke="#F5F5FA" stroke-width="1.5"/>
<path d="M288 150.703L272 142.703" stroke="#F5F5FA" stroke-width="1.5"/>
<path d="M272 90.7031L256 82.7031" stroke="#F5F5FA" stroke-width="1.5" stroke-dasharray="1 4"/>
<path d="M32 150.703L48 142.703" stroke="#F5F5FA" stroke-width="1.5"/>
<path d="M48 90.7031L64 82.7031" stroke="#F5F5FA" stroke-width="1.5" stroke-dasharray="1 4"/>
<path d="M112 210.703L117.5 202.703M208 210.703L202.5 202.703" stroke="#F5F5FA" stroke-width="1.5"/>
<path d="M91.5995 30.8474C91.7115 29.0974 92.0615 27.4734 93.6015 26.0174C95.0155 24.6594 95.3375 24.0434 95.3375 23.3994C95.3375 22.6994 94.9735 22.3774 94.4415 22.3774C93.7135 22.3774 93.3215 22.9374 93.2795 23.9594L91.5995 23.5114C91.7675 21.5514 92.8315 20.3194 94.4555 20.3194C96.1495 20.3194 97.0455 21.6354 97.0455 23.3434C97.0455 24.1834 96.8495 25.3454 95.2955 26.8154C94.6235 27.4594 94.1195 28.0194 93.8395 28.7194H97.1015V30.8474H91.5995ZM101.281 31.0434C99.3774 31.0434 98.4394 29.1534 98.4394 25.7654C98.4394 22.3494 99.3774 20.4594 101.281 20.4594C103.185 20.4594 104.123 22.3494 104.123 25.7654C104.123 29.1534 103.185 31.0434 101.281 31.0434ZM101.281 28.9994C101.995 28.9994 102.443 27.9774 102.443 25.7654C102.443 23.4834 101.995 22.5034 101.281 22.5034C100.581 22.5034 100.133 23.4834 100.133 25.7654C100.133 27.9774 100.567 28.9994 101.281 28.9994ZM105.237 30.8474C105.349 29.0974 105.699 27.4734 107.239 26.0174C108.653 24.6594 108.975 24.0434 108.975 23.3994C108.975 22.6994 108.611 22.3774 108.079 22.3774C107.351 22.3774 106.959 22.9374 106.917 23.9594L105.237 23.5114C105.405 21.5514 106.469 20.3194 108.093 20.3194C109.787 20.3194 110.683 21.6354 110.683 23.3434C110.683 24.1834 110.487 25.3454 108.933 26.8154C108.261 27.4594 107.757 28.0194 107.477 28.7194H110.739V30.8474H105.237ZM114.877 31.0434C113.561 31.0434 112.511 30.2454 112.077 28.5094L113.743 28.0054C113.981 28.7614 114.471 28.9854 114.905 28.9854C115.619 28.9854 116.053 28.3834 116.053 27.4734C116.053 26.4514 115.479 25.9054 114.863 25.9054C114.303 25.9054 113.953 26.3254 113.687 26.9414L112.385 26.0454L112.665 20.5294H117.257V22.5594H114.163L114.079 24.0014C114.527 23.8614 114.793 23.8334 115.045 23.8334C116.641 23.8334 117.761 25.3034 117.761 27.3894C117.761 29.4334 116.753 31.0434 114.877 31.0434ZM127.932 28.6354V24.4494L124.81 24.4494V22.9934L127.932 22.9934V22.0414L124.81 22.0414V20.5854H127.932V19.1574H129.78V28.6354H127.932ZM126.098 25.0654L126.28 26.5634C124.376 26.9134 122.668 26.9834 120.736 26.9834H119.7V19.9694H121.534V25.4714C123.088 25.4434 124.516 25.3454 126.098 25.0654ZM123.13 30.3574H130.074V31.8274H121.282V27.7954H123.13V30.3574ZM140.489 23.8894V22.5594H135.183V23.8894H140.489ZM142.309 19.6474V25.3594L133.349 25.3594V19.6474H135.183V21.1174H140.489V19.6474H142.309ZM143.695 26.5774V28.0474H138.739V32.0654H136.891V28.0474L132.019 28.0474V26.5774L143.695 26.5774ZM147.46 25.2614V27.6694C149.196 27.6554 150.61 27.5854 152.192 27.3334L152.36 28.8174C150.498 29.1114 148.846 29.1534 146.676 29.1534H145.626V20.2354H151.59V21.7194H147.46V23.8194H151.156V25.2614H147.46ZM154.012 19.1434H155.86V32.0794H154.012V25.1774H151.8V23.6934H154.012V19.1434ZM160.874 30.8474C160.986 29.0974 161.336 27.4734 162.876 26.0174C164.29 24.6594 164.612 24.0434 164.612 23.3994C164.612 22.6994 164.248 22.3774 163.716 22.3774C162.988 22.3774 162.596 22.9374 162.554 23.9594L160.874 23.5114C161.042 21.5514 162.106 20.3194 163.73 20.3194C165.424 20.3194 166.32 21.6354 166.32 23.3434C166.32 24.1834 166.124 25.3454 164.57 26.8154C163.898 27.4594 163.394 28.0194 163.114 28.7194L166.376 28.7194V30.8474L160.874 30.8474ZM170.556 31.0434C168.652 31.0434 167.714 29.1534 167.714 25.7654C167.714 22.3494 168.652 20.4594 170.556 20.4594C172.46 20.4594 173.398 22.3494 173.398 25.7654C173.398 29.1534 172.46 31.0434 170.556 31.0434ZM170.556 28.9994C171.27 28.9994 171.718 27.9774 171.718 25.7654C171.718 23.4834 171.27 22.5034 170.556 22.5034C169.856 22.5034 169.408 23.4834 169.408 25.7654C169.408 27.9774 169.842 28.9994 170.556 28.9994ZM174.511 30.8474C174.623 29.0974 174.973 27.4734 176.513 26.0174C177.927 24.6594 178.249 24.0434 178.249 23.3994C178.249 22.6994 177.885 22.3774 177.353 22.3774C176.625 22.3774 176.233 22.9374 176.191 23.9594L174.511 23.5114C174.679 21.5514 175.743 20.3194 177.367 20.3194C179.061 20.3194 179.957 21.6354 179.957 23.3434C179.957 24.1834 179.761 25.3454 178.207 26.8154C177.535 27.4594 177.031 28.0194 176.751 28.7194H180.013V30.8474H174.511ZM184.473 31.0434C182.457 31.0434 181.351 29.1814 181.351 25.8774C181.351 22.4194 182.527 20.3894 184.627 20.3894C185.887 20.3894 186.755 21.1174 187.161 22.7554L185.565 23.2314C185.383 22.6434 185.075 22.4334 184.655 22.4334C184.011 22.4334 183.283 22.9514 183.115 24.8974C183.535 24.5474 183.969 24.1974 184.739 24.1974C186.209 24.1974 187.371 25.5274 187.371 27.5294C187.371 29.6714 186.195 31.0434 184.473 31.0434ZM184.543 28.9854C185.187 28.9854 185.649 28.4114 185.649 27.5994C185.649 26.8014 185.201 26.2974 184.529 26.2974C184.081 26.2974 183.619 26.5214 183.227 27.2354C183.339 28.2714 183.843 28.9854 184.543 28.9854ZM197.494 28.6354V24.4494H194.372V22.9934H197.494V22.0414H194.372V20.5854H197.494V19.1574H199.342V28.6354H197.494ZM195.66 25.0654L195.842 26.5634C193.938 26.9134 192.23 26.9834 190.298 26.9834H189.262V19.9694H191.096V25.4714C192.65 25.4434 194.078 25.3454 195.66 25.0654ZM192.692 30.3574H199.636V31.8274H190.844V27.7954H192.692V30.3574ZM201.889 20.4734H205.375C205.375 24.0294 205.053 26.8014 202.757 29.3494L201.315 28.2994C203.023 26.4094 203.527 24.5474 203.625 21.9574H201.889V20.4734ZM205.823 20.4734H208.931C208.931 24.1974 208.637 27.3754 206.383 30.1614L204.927 29.1394C206.635 26.9834 207.097 24.8274 207.195 21.9574H205.823V20.4734ZM213.495 24.1974V25.7234H211.829V32.0374H209.967V19.1434H211.829V24.1974H213.495ZM219.584 21.9154V22.6294C219.584 24.7294 220.62 26.9554 222.776 27.8514L221.768 29.3074C220.27 28.6634 219.248 27.4034 218.674 25.8494C218.1 27.5294 217.064 28.9434 215.552 29.6294L214.502 28.1594C216.658 27.1934 217.708 24.8274 217.708 22.6294V21.9154H215.02V20.3894H222.244V21.9154H219.584ZM223.434 19.1574H225.282V32.0514H223.434V19.1574ZM102.877 44.7914L102.163 46.2894C99.9227 45.9394 98.2987 44.8614 97.4867 43.4614C96.6607 44.8754 95.0367 45.9394 92.7827 46.2894L92.0827 44.7914C95.0087 44.3714 96.4927 42.6914 96.4927 41.1514V40.5354H98.4667V41.1514C98.4667 42.6774 99.9507 44.3714 102.877 44.7914ZM103.311 47.2694V48.7394H100.693V53.0934H98.8447V48.7394H96.1427V53.0934H94.3087V48.7394H91.6347V47.2694H103.311ZM107.804 42.7614V48.5994C108.224 48.5854 108.644 48.5714 109.078 48.5434V42.7614H107.804ZM110.856 42.7614V48.4314C111.374 48.4034 111.892 48.3474 112.382 48.2914L112.494 49.6354C109.918 50.0834 106.992 50.1394 104.794 50.1394L104.598 48.6414C105.046 48.6414 105.522 48.6414 106.012 48.6414V42.7614H104.948V41.2914H112.06V42.7614H110.856ZM113.628 40.1574H115.476V53.0654H113.628V46.3314H111.71V44.8334H113.628V40.1574ZM128.943 46.2194L128.159 47.7734C125.919 47.3254 124.267 46.0794 123.441 44.4414C122.615 46.0794 120.977 47.3394 118.737 47.7734L117.953 46.2194C120.851 45.7294 122.461 43.6854 122.461 41.8374V40.9134H124.435V41.8374C124.435 43.7274 126.031 45.7294 128.943 46.2194ZM117.673 49.9854H129.349V51.4834H117.673V49.9854ZM133.855 50.3634V51.4554H139.133V50.3634H133.855ZM132.049 52.8974V48.9214H140.953V52.8974H132.049ZM137.425 46.7514H142.339V48.2074H130.677V46.7514H135.577V45.9534H132.133V40.4234H141.009V41.8234H133.967V42.4954H140.715V43.8394H133.967V44.5534H141.107V45.9534H137.425V46.7514ZM146.608 48.6974C147.322 48.6974 147.728 47.7314 147.728 45.7434C147.728 43.7694 147.322 42.8034 146.608 42.8034C145.908 42.8034 145.488 43.7694 145.488 45.7434C145.488 47.7314 145.908 48.6974 146.608 48.6974ZM150.402 44.9034V40.3674H152.124V52.4774H150.402V46.4014H149.394C149.226 48.9214 148.176 50.4334 146.608 50.4334C144.9 50.4334 143.822 48.6694 143.822 45.7434C143.822 42.8314 144.9 41.0674 146.608 41.0674C148.134 41.0674 149.17 42.4954 149.38 44.9034H150.402ZM153.02 40.1434H154.77V53.0374H153.02V40.1434ZM161.573 41.1514V43.0134C161.573 45.4494 162.511 47.8154 164.639 48.7674L163.547 50.2374C162.133 49.5514 161.195 48.2914 160.663 46.7374C160.103 48.3894 159.137 49.7334 157.695 50.4614L156.547 48.9774C158.731 47.9694 159.711 45.4634 159.711 43.0134V41.1514H161.573ZM165.703 40.1434H167.551V53.0794H165.703V45.6734H163.225V44.1894H165.703V40.1434ZM183.401 40.1574V46.6114H181.539V40.1574H183.401ZM174.665 43.4754C174.665 44.3994 175.379 44.9314 176.331 44.9314C177.283 44.9314 177.969 44.3994 177.969 43.4754C177.969 42.5654 177.283 42.0194 176.331 42.0194C175.379 42.0194 174.665 42.5654 174.665 43.4754ZM179.761 43.4754C179.761 45.1974 178.291 46.4294 176.331 46.4294C174.357 46.4294 172.873 45.1974 172.873 43.4754C172.873 41.7674 174.357 40.5354 176.331 40.5354C178.291 40.5354 179.761 41.7674 179.761 43.4754ZM176.653 51.4694H183.723V52.8974H174.819V49.3414H181.567V48.5574L174.805 48.5574V47.1434L183.401 47.1434V50.6574H176.653V51.4694ZM189.238 48.5854C190.19 48.5854 190.82 47.5634 190.82 45.6454C190.82 43.7414 190.19 42.7194 189.238 42.7194C188.3 42.7194 187.67 43.7414 187.67 45.6454C187.67 47.5634 188.3 48.5854 189.238 48.5854ZM194.684 40.1434H196.532V53.0794H194.684V46.2894H192.542C192.346 48.7534 191.03 50.2654 189.238 50.2654C187.32 50.2654 185.906 48.4874 185.906 45.6454C185.906 42.8174 187.32 41.0534 189.238 41.0534C190.974 41.0534 192.276 42.4674 192.528 44.7914H194.684V40.1434ZM205.981 44.1614L206.191 45.6314C204.091 46.0514 202.145 46.1774 200.339 46.1774H199.247V40.7174H201.095V44.6374C202.621 44.6094 204.259 44.4974 205.981 44.1614ZM202.229 50.6154V51.4554H209.257V52.8974H200.381V49.2574H207.031V48.5014H200.367V47.0454H208.879V50.6154H202.229ZM208.879 42.5654H210.587V44.0634H208.879V46.5134H207.031V40.1434H208.879V42.5654ZM225.4 40.1574V46.6114H223.538V40.1574H225.4ZM216.664 43.4754C216.664 44.3994 217.378 44.9314 218.33 44.9314C219.282 44.9314 219.968 44.3994 219.968 43.4754C219.968 42.5654 219.282 42.0194 218.33 42.0194C217.378 42.0194 216.664 42.5654 216.664 43.4754ZM221.76 43.4754C221.76 45.1974 220.29 46.4294 218.33 46.4294C216.356 46.4294 214.872 45.1974 214.872 43.4754C214.872 41.7674 216.356 40.5354 218.33 40.5354C220.29 40.5354 221.76 41.7674 221.76 43.4754ZM218.652 51.4694H225.722V52.8974H216.818V49.3414H223.566V48.5574H216.804V47.1434H225.4V50.6574H218.652V51.4694Z" fill="#F5F5FA"/>
</svg>
