<svg width="288" height="288" viewBox="0 0 288 288" fill="none" xmlns="http://www.w3.org/2000/svg">
<path d="M74.0161 22.702H68.5701V17.074H74.0161V22.702ZM70.1941 21.386H72.4201V18.404H70.1941V21.386ZM77.2501 19.482H78.7621V20.854H77.2501V24.634H75.6121V16.122H77.2501V19.482ZM77.6421 27.588H69.8861V23.808H71.4961V26.258H77.6421V27.588ZM89.3195 19.006H87.8635V20.154H89.3195V21.54H87.8635V22.996H86.2255V16.108H87.8635V17.634H89.3195V19.006ZM87.8635 27.798H86.2255V24.83H80.2195V23.472H87.8635V27.798ZM82.0255 16.752C82.6135 16.752 83.1455 16.878 83.6215 17.13C84.0975 17.3727 84.4662 17.7133 84.7275 18.152C84.9982 18.5813 85.1335 19.0667 85.1335 19.608C85.1335 20.1587 84.9982 20.6533 84.7275 21.092C84.4662 21.5213 84.0975 21.8573 83.6215 22.1C83.1455 22.3427 82.6135 22.464 82.0255 22.464C81.4468 22.464 80.9195 22.3427 80.4435 22.1C79.9675 21.8573 79.5942 21.5167 79.3235 21.078C79.0528 20.6393 78.9175 20.1493 78.9175 19.608C78.9175 19.0667 79.0528 18.5813 79.3235 18.152C79.5942 17.7133 79.9675 17.3727 80.4435 17.13C80.9195 16.878 81.4468 16.752 82.0255 16.752ZM82.0255 18.18C81.5868 18.18 81.2275 18.3107 80.9475 18.572C80.6675 18.824 80.5275 19.1693 80.5275 19.608C80.5275 20.056 80.6675 20.406 80.9475 20.658C81.2275 20.91 81.5868 21.036 82.0255 21.036C82.4735 21.036 82.8375 20.91 83.1175 20.658C83.4068 20.406 83.5515 20.056 83.5515 19.608C83.5515 19.16 83.4068 18.81 83.1175 18.558C82.8375 18.306 82.4735 18.18 82.0255 18.18ZM91.8126 27L95.1026 16.472H96.9646L100.227 27H98.4766L97.6926 24.382H94.3886L93.5766 27H91.8126ZM95.0186 22.31H97.0626L96.0406 19.006L95.0186 22.31ZM109.312 20.574H110.88V21.946H109.312V27.77H107.66V16.108H109.312V20.574ZM106.26 17.312C106.26 19.1693 105.859 20.812 105.056 22.24C104.263 23.668 102.956 24.844 101.136 25.768L100.226 24.494C101.561 23.794 102.583 22.9727 103.292 22.03C104.011 21.078 104.445 19.958 104.594 18.67H100.856V17.312H106.26ZM113.961 27V16.472H117.377C119.253 16.472 120.289 17.466 120.289 19.286C120.289 20.252 120.009 21.022 119.449 21.428C120.219 21.778 120.653 22.702 120.653 23.808C120.653 25.684 119.365 27 117.545 27H113.961ZM115.641 20.434H117.153C118.105 20.434 118.623 20.14 118.623 19.496C118.623 18.852 118.105 18.558 117.153 18.558H115.641V20.434ZM115.641 24.9H117.559C118.497 24.9 118.945 24.55 118.945 23.696C118.945 22.842 118.497 22.492 117.559 22.492H115.641V24.9ZM131.574 22.576H121.186V21.33H131.574V22.576ZM130.342 25.922H124.028V26.552H130.65V27.7H122.376V24.844H128.704V24.284H122.362V23.136H130.342V25.922ZM130.328 19.062H124.112V19.678H130.51V20.812H122.474V18.026H128.676V17.438H122.46V16.318H130.328V19.062ZM138.029 16.584C138.598 16.584 139.112 16.6913 139.569 16.906C140.026 17.1207 140.381 17.4193 140.633 17.802C140.894 18.1753 141.025 18.6047 141.025 19.09C141.025 19.566 140.894 19.9953 140.633 20.378C140.381 20.7513 140.026 21.0453 139.569 21.26C139.112 21.4653 138.598 21.568 138.029 21.568C137.46 21.568 136.946 21.4607 136.489 21.246C136.041 21.0313 135.686 20.7373 135.425 20.364C135.173 19.9907 135.047 19.566 135.047 19.09C135.047 18.6047 135.173 18.1753 135.425 17.802C135.686 17.4193 136.041 17.1207 136.489 16.906C136.946 16.6913 137.46 16.584 138.029 16.584ZM138.029 17.942C137.609 17.942 137.268 18.0447 137.007 18.25C136.755 18.446 136.629 18.726 136.629 19.09C136.629 19.4353 136.755 19.706 137.007 19.902C137.268 20.098 137.609 20.196 138.029 20.196C138.468 20.196 138.818 20.1027 139.079 19.916C139.34 19.72 139.471 19.4447 139.471 19.09C139.471 18.7167 139.34 18.432 139.079 18.236C138.818 18.04 138.468 17.942 138.029 17.942ZM143.909 27.784H142.271V16.122H143.909V27.784ZM134.361 22.254C135.724 22.254 137.007 22.2307 138.211 22.184C139.424 22.128 140.558 22.016 141.613 21.848L141.725 23.066C140.941 23.234 140.008 23.3647 138.925 23.458V27.448H137.273V23.57C136.545 23.598 135.864 23.612 135.229 23.612C135.08 23.6213 134.856 23.626 134.557 23.626L134.361 22.254ZM150.407 19.202H144.919V17.872H146.879V16.444H148.489V17.872H150.407V19.202ZM147.691 19.734C148.167 19.734 148.591 19.8507 148.965 20.084C149.347 20.3173 149.641 20.644 149.847 21.064C150.061 21.484 150.169 21.96 150.169 22.492C150.169 23.0333 150.061 23.5187 149.847 23.948C149.641 24.368 149.347 24.6993 148.965 24.942C148.591 25.1753 148.167 25.292 147.691 25.292C147.215 25.292 146.785 25.1753 146.403 24.942C146.029 24.6993 145.735 24.368 145.521 23.948C145.306 23.5187 145.199 23.0333 145.199 22.492C145.199 21.96 145.306 21.4887 145.521 21.078C145.735 20.658 146.029 20.3313 146.403 20.098C146.785 19.8553 147.215 19.734 147.691 19.734ZM147.691 21.12C147.373 21.12 147.117 21.246 146.921 21.498C146.725 21.7407 146.627 22.072 146.627 22.492C146.627 22.9213 146.725 23.2573 146.921 23.5C147.117 23.7427 147.373 23.864 147.691 23.864C148.008 23.864 148.26 23.7427 148.447 23.5C148.643 23.2573 148.741 22.9213 148.741 22.492C148.741 22.072 148.643 21.7407 148.447 21.498C148.251 21.246 147.999 21.12 147.691 21.12ZM154.775 27.798H153.221V22.198H152.339V27.308H150.799V16.332H152.339V20.854H153.221V16.108H154.775V27.798ZM163.26 16.276C164.529 16.276 165.532 16.4767 166.27 16.878C167.007 17.2793 167.376 17.8347 167.376 18.544C167.376 19.2347 167.007 19.776 166.27 20.168C165.532 20.56 164.529 20.756 163.26 20.756C161.99 20.756 160.982 20.56 160.236 20.168C159.489 19.776 159.116 19.2347 159.116 18.544C159.116 17.8347 159.489 17.2793 160.236 16.878C160.982 16.4767 161.99 16.276 163.26 16.276ZM163.26 17.55C162.466 17.55 161.86 17.634 161.44 17.802C161.02 17.97 160.81 18.2173 160.81 18.544C160.81 18.852 161.02 19.0853 161.44 19.244C161.869 19.4027 162.476 19.482 163.26 19.482C164.044 19.482 164.646 19.4027 165.066 19.244C165.486 19.0853 165.696 18.852 165.696 18.544C165.696 18.2173 165.486 17.97 165.066 17.802C164.646 17.634 164.044 17.55 163.26 17.55ZM167.194 27.672H159.284V23.682H162.42V22.688H158.08V21.344H168.426V22.688H164.072V23.682H167.194V27.672ZM160.908 26.328H165.584V25.012H160.908V26.328ZM178.185 23.136H176.547V16.108H178.185V23.136ZM178.185 27.798H176.547V24.998H170.401V23.668H178.185V27.798ZM175.385 18.124H173.145C173.164 18.852 173.397 19.5193 173.845 20.126C174.293 20.7327 174.951 21.176 175.819 21.456L174.993 22.744C174.368 22.548 173.831 22.254 173.383 21.862C172.944 21.47 172.594 21.0033 172.333 20.462C172.072 21.05 171.708 21.5587 171.241 21.988C170.774 22.4173 170.219 22.7393 169.575 22.954L168.735 21.666C169.612 21.3767 170.284 20.9053 170.751 20.252C171.218 19.5987 171.46 18.8893 171.479 18.124H169.169V16.78H175.385V18.124ZM188.813 24.508H187.161V16.122H188.813V24.508ZM189.107 27.588H181.197V23.668H182.849V26.258H189.107V27.588ZM182.583 16.864C183.161 16.864 183.689 16.99 184.165 17.242C184.641 17.494 185.014 17.8487 185.285 18.306C185.565 18.754 185.705 19.258 185.705 19.818C185.705 20.3873 185.565 20.896 185.285 21.344C185.014 21.792 184.641 22.142 184.165 22.394C183.689 22.646 183.161 22.772 182.583 22.772C182.004 22.772 181.477 22.646 181.001 22.394C180.534 22.142 180.161 21.792 179.881 21.344C179.61 20.896 179.475 20.3873 179.475 19.818C179.475 19.258 179.61 18.754 179.881 18.306C180.161 17.8487 180.539 17.494 181.015 17.242C181.491 16.99 182.013 16.864 182.583 16.864ZM182.583 18.32C182.153 18.32 181.794 18.4553 181.505 18.726C181.225 18.9967 181.085 19.3607 181.085 19.818C181.085 20.2847 181.225 20.6533 181.505 20.924C181.794 21.1853 182.153 21.316 182.583 21.316C183.012 21.316 183.367 21.1853 183.647 20.924C183.927 20.6533 184.067 20.2847 184.067 19.818C184.067 19.3607 183.927 18.9967 183.647 18.726C183.367 18.4553 183.012 18.32 182.583 18.32ZM198.894 20.434H200.546V21.792H198.894V27.812H197.242V16.108H198.894V20.434ZM195.716 18.544H192.02V23.612C192.879 23.6027 193.653 23.5747 194.344 23.528C195.044 23.472 195.744 23.3787 196.444 23.248L196.626 24.648C195.805 24.788 194.993 24.8813 194.19 24.928C193.387 24.9747 192.44 24.998 191.348 24.998H190.382V17.2H195.716V18.544ZM206.413 17.942H208.457V16.122H210.123V24.62H208.457V21.778H206.413V22.758H201.023V17.06H206.413V17.942ZM202.633 21.456H204.803V18.376H202.633V21.456ZM210.347 27.588H202.549V23.836H204.201V26.258H210.347V27.588ZM208.457 20.462V19.286H206.413V20.462H208.457ZM213.653 24.06C213.429 21.05 216.089 20.672 216.089 19.23C216.089 18.67 215.655 18.474 215.053 18.474C214.213 18.474 213.751 18.866 213.751 19.496H211.721C211.763 17.676 213.023 16.486 215.081 16.486C217.111 16.486 218.189 17.592 218.189 19.062C218.189 21.33 215.627 21.33 215.865 24.06H213.653ZM214.759 27.168C214.003 27.168 213.387 26.552 213.387 25.796C213.387 25.04 214.003 24.424 214.759 24.424C215.515 24.424 216.131 25.04 216.131 25.796C216.131 26.552 215.515 27.168 214.759 27.168Z" fill="#F5F5FA"/>
<circle cx="96" cy="128" r="80" stroke="#F5F5FA" stroke-width="1.5"/>
<circle cx="192" cy="192" r="80" stroke="#F5F5FA" stroke-width="1.5"/>
<rect width="24" height="21" transform="translate(84 38)" fill="#1E1E28"/>
<path d="M92.3856 53L95.2056 43.976H96.8016L99.5976 53H98.0976L97.4256 50.756H94.5936L93.8976 53H92.3856ZM95.1336 48.98H96.8856L96.0096 46.148L95.1336 48.98Z" fill="#F5F5FA"/>
<rect width="23" height="21" transform="translate(180 102)" fill="#1E1E28"/>
<path d="M188.719 117V107.976H191.647C193.255 107.976 194.143 108.828 194.143 110.388C194.143 111.216 193.903 111.876 193.423 112.224C194.083 112.524 194.455 113.316 194.455 114.264C194.455 115.872 193.351 117 191.791 117H188.719ZM190.159 111.372H191.455C192.271 111.372 192.715 111.12 192.715 110.568C192.715 110.016 192.271 109.764 191.455 109.764H190.159V111.372ZM190.159 115.2H191.803C192.607 115.2 192.991 114.9 192.991 114.168C192.991 113.436 192.607 113.136 191.803 113.136H190.159V115.2Z" fill="#F5F5FA"/>
</svg>
