<svg width="1000" height="573" viewBox="0 0 1000 573" fill="none" xmlns="http://www.w3.org/2000/svg">
<path d="M311.634 312.784H291.33V296.512H311.382V299.572H295.074V303.1H310.698V306.052H295.074V309.796H311.634V312.784ZM314.514 320.452H288.126V317.356H314.514V320.452ZM327.671 308.32H321.011V313.828C322.667 313.804 324.191 313.744 325.583 313.648C326.999 313.528 328.451 313.324 329.939 313.036L330.191 316.096C328.439 316.432 326.747 316.66 325.115 316.78C323.507 316.876 321.623 316.924 319.463 316.924H317.483V305.296H324.143V300.292H317.411V297.304H327.671V308.32ZM341.459 324.016H337.967V294.208H341.459V324.016ZM335.519 322.504H332.099V307.564H328.931V304.54H332.099V294.784H335.519V322.504ZM369.088 324.052H365.38V294.208H369.088V324.052ZM353.536 296.368C354.976 296.368 356.26 296.8 357.388 297.664C358.54 298.528 359.44 299.764 360.088 301.372C360.736 302.956 361.06 304.804 361.06 306.916C361.06 309.028 360.736 310.888 360.088 312.496C359.44 314.08 358.54 315.304 357.388 316.168C356.26 317.032 354.976 317.464 353.536 317.464C352.072 317.464 350.764 317.032 349.612 316.168C348.46 315.304 347.56 314.08 346.912 312.496C346.264 310.888 345.94 309.028 345.94 306.916C345.94 304.804 346.264 302.956 346.912 301.372C347.56 299.764 348.46 298.528 349.612 297.664C350.764 296.8 352.072 296.368 353.536 296.368ZM353.536 299.752C352.288 299.752 351.304 300.388 350.584 301.66C349.864 302.908 349.504 304.66 349.504 306.916C349.504 309.148 349.864 310.9 350.584 312.172C351.304 313.42 352.288 314.044 353.536 314.044C354.736 314.044 355.696 313.42 356.416 312.172C357.136 310.9 357.496 309.148 357.496 306.916C357.496 304.684 357.136 302.932 356.416 301.66C355.696 300.388 354.736 299.752 353.536 299.752ZM397.761 324.052H394.089V306.664H385.917V303.604H394.089V294.208H397.761V324.052ZM378.717 313.828C383.013 313.756 386.913 313.372 390.417 312.676L390.777 315.772C388.641 316.228 386.505 316.54 384.369 316.708C382.257 316.876 379.941 316.96 377.421 316.96H375.009V297.448H378.717V313.828Z" fill="#F5F5FA"/>
<path d="M620.285 314.116H608.837V323.98H605.165V314.116H593.861V311.056H620.285V314.116ZM617.081 307.636H597.065V295.72H617.081V307.636ZM600.701 304.648H613.373V298.708H600.701V304.648ZM632.83 299.572C632.83 301.444 633.406 303.148 634.558 304.684C635.71 306.22 637.366 307.336 639.526 308.032L637.834 310.984C634.666 309.976 632.398 308.056 631.03 305.224C630.382 306.808 629.446 308.188 628.222 309.364C627.022 310.516 625.582 311.38 623.902 311.956L622.066 308.932C624.322 308.164 626.05 306.928 627.25 305.224C628.474 303.52 629.086 301.648 629.086 299.608V299.284H623.038V296.26H638.698V299.284H632.83V299.572ZM645.178 301.3H649.138V304.396H645.178V311.956H641.47V294.208H645.178V301.3ZM635.782 312.604C638.806 312.604 641.17 313.108 642.874 314.116C644.602 315.1 645.466 316.492 645.466 318.292C645.466 320.068 644.602 321.46 642.874 322.468C641.17 323.476 638.806 323.98 635.782 323.98C632.758 323.98 630.37 323.476 628.618 322.468C626.866 321.46 625.99 320.068 625.99 318.292C625.99 316.492 626.854 315.1 628.582 314.116C630.334 313.108 632.734 312.604 635.782 312.604ZM635.782 315.556C633.814 315.556 632.302 315.796 631.246 316.276C630.19 316.732 629.662 317.404 629.662 318.292C629.662 319.18 630.19 319.864 631.246 320.344C632.302 320.8 633.814 321.028 635.782 321.028C637.726 321.028 639.214 320.8 640.246 320.344C641.302 319.864 641.83 319.18 641.83 318.292C641.83 317.404 641.302 316.732 640.246 316.276C639.214 315.796 637.726 315.556 635.782 315.556ZM657.363 296.44C658.635 296.44 659.739 296.872 660.675 297.736C661.635 298.6 662.379 299.836 662.907 301.444C663.435 303.052 663.699 304.936 663.699 307.096C663.699 309.28 663.435 311.176 662.907 312.784C662.379 314.392 661.635 315.628 660.675 316.492C659.739 317.356 658.635 317.788 657.363 317.788C656.091 317.788 654.987 317.356 654.051 316.492C653.115 315.628 652.383 314.392 651.855 312.784C651.351 311.176 651.099 309.28 651.099 307.096C651.099 304.912 651.351 303.028 651.855 301.444C652.383 299.836 653.115 298.6 654.051 297.736C654.987 296.872 656.091 296.44 657.363 296.44ZM657.363 300.004C656.475 300.004 655.767 300.616 655.239 301.84C654.735 303.064 654.483 304.816 654.483 307.096C654.483 309.376 654.735 311.128 655.239 312.352C655.767 313.576 656.475 314.188 657.363 314.188C658.299 314.188 659.019 313.588 659.523 312.388C660.027 311.164 660.279 309.4 660.279 307.096C660.279 304.792 660.027 303.04 659.523 301.84C659.019 300.616 658.299 300.004 657.363 300.004ZM675.759 324.016H672.231V308.788H669.243V322.576H665.787V294.712H669.243V305.692H672.231V294.208H675.759V324.016ZM692.301 312.82C695.445 312.82 697.929 313.324 699.753 314.332C701.601 315.316 702.525 316.684 702.525 318.436C702.525 320.164 701.601 321.52 699.753 322.504C697.905 323.488 695.421 323.98 692.301 323.98C689.181 323.98 686.697 323.488 684.849 322.504C683.025 321.52 682.113 320.164 682.113 318.436C682.113 316.684 683.025 315.316 684.849 314.332C686.673 313.324 689.157 312.82 692.301 312.82ZM692.301 315.664C690.237 315.664 688.629 315.904 687.477 316.384C686.325 316.864 685.749 317.548 685.749 318.436C685.749 319.3 686.313 319.96 687.441 320.416C688.593 320.872 690.213 321.1 692.301 321.1C694.389 321.1 696.009 320.872 697.161 320.416C698.313 319.96 698.889 319.3 698.889 318.436C698.889 317.548 698.313 316.864 697.161 316.384C696.009 315.904 694.389 315.664 692.301 315.664ZM702.381 298.024C702.381 299.632 702.333 301.024 702.237 302.2C702.141 303.376 701.913 304.636 701.553 305.98L697.953 305.62C698.241 304.372 698.433 303.208 698.529 302.128C698.625 301.024 698.673 299.836 698.673 298.564H682.329V295.612H702.381V298.024ZM705.549 310.732H679.341V307.708H689.385V302.308H693.057V307.708H705.549V310.732ZM730.55 302.74H734.51V305.872H730.55V315.664H726.806V294.208H730.55V302.74ZM722.738 296.44C722.738 300.4 721.55 303.76 719.174 306.52C716.822 309.28 713.474 311.32 709.13 312.64L707.618 309.652C710.906 308.692 713.498 307.336 715.394 305.584C717.29 303.832 718.394 301.816 718.706 299.536H708.878V296.44H722.738ZM731.594 323.44H711.974V313.504H715.682V320.416H731.594V323.44Z" fill="#F5F5FA"/>
</svg>
