<svg width="1000" height="573" viewBox="0 0 1000 573" fill="none" xmlns="http://www.w3.org/2000/svg">
<path d="M256.542 298.276C256.542 299.788 256.974 301.276 257.838 302.74C258.702 304.18 259.914 305.428 261.474 306.484C263.058 307.516 264.858 308.212 266.874 308.572L265.218 311.668C262.818 311.164 260.682 310.204 258.81 308.788C256.938 307.372 255.534 305.68 254.598 303.712C253.638 305.704 252.222 307.396 250.35 308.788C248.502 310.18 246.366 311.14 243.942 311.668L242.358 308.572C244.326 308.188 246.09 307.48 247.65 306.448C249.21 305.392 250.422 304.144 251.286 302.704C252.174 301.24 252.618 299.764 252.618 298.276V296.08H256.542V298.276ZM267.918 320.272H241.53V317.14H267.918V320.272ZM296.303 313.072H269.951V310.084H281.255V307.636H273.299V294.928H293.171V297.808H277.007V299.824H292.487V302.632H277.007V304.756H293.423V307.636H284.963V310.084H296.303V313.072ZM293.027 324.016H289.319V318.112H272.939V315.16H293.027V324.016ZM324.832 320.596H298.444V317.428H309.712V311.668H300.748V308.68H304.744V299.86H300.604V296.8H322.564V299.86H318.424V308.68H322.456V311.668H313.384V317.428H324.832V320.596ZM314.752 308.68V299.86H308.38V308.68H314.752ZM350.409 312.208H341.949V317.5H353.289V320.56H326.901V317.5H338.205V312.208H330.105V296.368H350.157V299.428H333.849V302.74H349.473V305.692H333.849V309.22H350.409V312.208ZM373.583 301.264C373.583 304.024 374.195 306.604 375.419 309.004C376.643 311.404 378.347 313.144 380.531 314.224L378.299 317.248C376.787 316.456 375.479 315.328 374.375 313.864C373.271 312.4 372.407 310.708 371.783 308.788C371.135 310.852 370.223 312.664 369.047 314.224C367.871 315.784 366.479 316.984 364.871 317.824L362.675 314.728C364.187 313.984 365.483 312.916 366.563 311.524C367.667 310.108 368.495 308.512 369.047 306.736C369.623 304.96 369.911 303.136 369.911 301.264V296.584H373.583V301.264ZM385.859 305.836H390.215V309.076H385.859V324.016H382.187V294.208H385.859V305.836ZM402.688 300.22C402.688 302.14 403.288 303.904 404.488 305.512C405.688 307.12 407.404 308.284 409.636 309.004L407.8 311.956C406.216 311.428 404.836 310.636 403.66 309.58C402.484 308.524 401.56 307.276 400.888 305.836C400.216 307.396 399.268 308.764 398.044 309.94C396.844 311.092 395.416 311.956 393.76 312.532L391.816 309.58C394.072 308.812 395.824 307.564 397.072 305.836C398.32 304.108 398.944 302.236 398.944 300.22V299.464H392.824V296.44H408.664V299.464H402.688V300.22ZM415.72 315.844H412.012V294.244H415.72V315.844ZM416.476 323.44H396.568V313.864H400.24V320.416H416.476V323.44ZM442.773 305.8H446.949V308.932H442.773V323.944H439.101V294.208H442.773V305.8ZM435.105 297.304C435.105 307.096 430.749 314.212 422.037 318.652L419.985 315.808C423.465 313.984 426.141 311.812 428.013 309.292C429.909 306.748 431.037 303.784 431.397 300.4H421.497V297.304H435.105Z" fill="#F5F5FA"/>
<path d="M597.585 319V291.928H601.941V313.6H612.705V319H597.585ZM624.982 319.684C619.51 319.684 615.514 313.96 615.514 305.788C615.514 297.904 619.222 291.28 625.594 291.28C629.878 291.28 632.938 294.268 634.342 299.092L630.058 300.352C629.194 297.796 627.538 296.716 625.63 296.716C621.994 296.716 619.942 300.712 619.942 305.752C619.942 311.188 622.318 314.284 625.378 314.284C627.322 314.284 629.338 312.988 630.166 309.712H625.882V304.348H634.558V319H630.634L630.382 316.876C629.05 318.748 627.178 319.684 624.982 319.684ZM639.066 319V291.928H647.85C652.674 291.928 655.338 294.484 655.338 299.164C655.338 301.648 654.618 303.628 653.178 304.672C655.158 305.572 656.274 307.948 656.274 310.792C656.274 315.616 652.962 319 648.282 319H639.066ZM643.386 302.116H647.274C649.722 302.116 651.054 301.36 651.054 299.704C651.054 298.048 649.722 297.292 647.274 297.292H643.386V302.116ZM643.386 313.6H648.318C650.73 313.6 651.882 312.7 651.882 310.504C651.882 308.308 650.73 307.408 648.318 307.408H643.386V313.6ZM665.391 319V297.292H658.839V291.928H676.299V297.292H669.711V319H665.391ZM689.106 319.684C682.914 319.684 678.45 313.708 678.45 305.572C678.45 297.544 682.662 291.28 689.106 291.28C695.55 291.28 699.69 297.58 699.69 305.572C699.69 309.064 698.898 312.16 697.458 314.536C698.214 315.508 698.898 316.408 699.51 317.236L696.594 320.836C695.946 319.972 695.19 319 694.398 317.992C692.886 319.072 691.086 319.684 689.106 319.684ZM689.106 314.32C689.826 314.32 690.474 314.176 691.086 313.888C690.114 312.736 689.214 311.656 688.386 310.756L691.266 307.12C692.166 308.092 693.174 309.28 694.218 310.54C694.83 309.136 695.19 307.444 695.19 305.536C695.19 300.532 692.85 296.68 689.106 296.68C685.362 296.68 683.022 300.532 683.022 305.536C683.022 310.684 685.614 314.32 689.106 314.32ZM704.09 319V291.928H708.482V319H704.09ZM720.072 316.66V308.452H713.412V303.628H720.072V295.42H723.78V303.628H730.44V308.452H723.78V316.66H720.072Z" fill="#F5F5FA"/>
</svg>
