<svg width="1000" height="573" viewBox="0 0 1000 573" fill="none" xmlns="http://www.w3.org/2000/svg">
<path d="M604.193 303.604C604.193 305.908 604.781 308.128 605.957 310.264C607.133 312.4 608.789 313.996 610.925 315.052L608.945 317.86C607.433 317.14 606.113 316.096 604.985 314.728C603.857 313.336 602.981 311.752 602.357 309.976C601.733 311.896 600.821 313.6 599.621 315.088C598.445 316.552 597.065 317.656 595.481 318.4L593.465 315.484C594.929 314.788 596.189 313.816 597.245 312.568C598.325 311.296 599.141 309.88 599.693 308.32C600.245 306.76 600.521 305.188 600.521 303.604V302.164H594.365V299.14H600.485V294.856H604.193V299.14H610.169V302.164H604.193V303.604ZM616.577 305.98H620.933V309.112H616.577V324.016H612.905V294.208H616.577V305.98ZM646.582 309.58H642.91V306.412H637.222V308.644H623.686V295.504H627.358V299.212H633.586V295.504H637.222V298.132H642.91V294.208H646.582V309.58ZM646.582 318.508H631.21V320.668H647.482V323.656H627.538V315.736H642.91V313.756H627.502V310.804H646.582V318.508ZM633.586 305.656V302.092H627.358V305.656H633.586ZM642.91 303.532V300.94H637.222V303.532H642.91ZM674.031 297.952C674.031 299.56 673.983 300.988 673.887 302.236C673.815 303.46 673.623 304.852 673.311 306.412H677.199V309.436H650.811V306.412H669.603C669.915 304.996 670.119 303.688 670.215 302.488C670.311 301.264 670.359 299.992 670.359 298.672H654.087V295.612H674.031V297.952ZM673.959 323.656H653.979V312.856H673.959V323.656ZM657.615 320.632H670.287V315.808H657.615V320.632ZM690.213 302.596C690.213 304.252 690.501 305.884 691.077 307.492C691.677 309.076 692.529 310.504 693.633 311.776C694.737 313.048 696.045 314.008 697.557 314.656L695.613 317.644C693.957 316.9 692.505 315.808 691.257 314.368C690.033 312.904 689.085 311.212 688.413 309.292C687.741 311.356 686.793 313.192 685.569 314.8C684.345 316.384 682.905 317.584 681.249 318.4L679.125 315.376C680.613 314.68 681.909 313.66 683.013 312.316C684.141 310.948 684.993 309.412 685.569 307.708C686.169 306.004 686.469 304.3 686.469 302.596V300.22H680.169V297.16H696.513V300.22H690.213V302.596ZM703.317 324.016H699.609V294.208H703.317V324.016ZM712.694 299.752H718.958V295.756H722.594V301.192H728.246V294.208H731.954V310.516H728.246V304.252H722.594V309.58H709.022V295.756H712.694V299.752ZM718.958 306.556V302.668H712.694V306.556H718.958ZM716.51 314.764H728.246V311.812H731.954V323.584H712.874V311.812H716.51V314.764ZM728.246 320.56V317.716H716.51V320.56H728.246Z" fill="#F5F5FA"/>
<path d="M326.987 301.264C326.987 304.024 327.599 306.604 328.823 309.004C330.047 311.404 331.751 313.144 333.935 314.224L331.703 317.248C330.191 316.456 328.883 315.328 327.779 313.864C326.675 312.4 325.811 310.708 325.187 308.788C324.539 310.852 323.627 312.664 322.451 314.224C321.275 315.784 319.883 316.984 318.275 317.824L316.079 314.728C317.591 313.984 318.887 312.916 319.967 311.524C321.071 310.108 321.899 308.512 322.451 306.736C323.027 304.96 323.315 303.136 323.315 301.264V296.584H326.987V301.264ZM339.263 305.836H343.619V309.076H339.263V324.016H335.591V294.208H339.263V305.836ZM355.768 301.264C355.768 304.144 356.38 306.796 357.604 309.22C358.852 311.62 360.604 313.348 362.86 314.404L360.664 317.428C357.496 315.796 355.252 312.904 353.932 308.752C353.284 310.84 352.372 312.688 351.196 314.296C350.02 315.88 348.628 317.092 347.02 317.932L344.752 314.872C346.288 314.128 347.596 313.048 348.676 311.632C349.78 310.216 350.608 308.608 351.16 306.808C351.736 305.008 352.024 303.16 352.024 301.264V296.584H355.768V301.264ZM369.268 324.052H365.632V306.844H359.692V303.784H365.632V294.208H369.268V324.052Z" fill="#F5F5FA"/>
</svg>
