<svg width="1000" height="573" viewBox="0 0 1000 573" fill="none" xmlns="http://www.w3.org/2000/svg">
<path d="M661.639 324.016H658.111V308.932H655.303V322.576H651.847V294.712H655.303V305.836H658.111V294.208H661.639V324.016ZM645.619 301.768C645.619 304.576 646.099 307.084 647.059 309.292C648.043 311.5 649.555 313.144 651.595 314.224L649.471 317.104C646.879 315.712 645.031 313.312 643.927 309.904C642.895 313.768 641.035 316.528 638.347 318.184L636.079 315.268C638.143 314.092 639.655 312.316 640.615 309.94C641.575 307.564 642.055 304.84 642.055 301.768V300.436H636.979V297.412H650.263V300.436H645.619V301.768ZM669.972 307.528C674.268 307.48 678.192 307.072 681.744 306.304L682.14 309.364C678.156 310.204 673.692 310.624 668.748 310.624H666.3V296.26H669.972V307.528ZM687.864 302.776H691.86V305.872H687.864V315.664H684.192V294.244H687.864V302.776ZM688.872 323.44H669.36V313.648H673.068V320.416H688.872V323.44Z" fill="#F5F5FA"/>
<path d="M300.582 299.284H292.77V302.092H300.294V304.972H292.77V307.996C294.594 307.972 296.154 307.912 297.45 307.816C298.746 307.72 300.054 307.552 301.374 307.312L301.77 310.372C300.186 310.66 298.614 310.852 297.054 310.948C295.518 311.044 293.55 311.092 291.15 311.092H289.242V296.26H300.582V299.284ZM312.822 312.352H309.366V304.684H306.45V312.172H303.03V294.784H306.45V301.624H309.366V294.244H312.822V312.352ZM312.822 324.016H309.186V316.708H293.022V313.72H312.822V324.016ZM320.939 303.748H325.475V296.908H328.895V316.852H317.483V296.908H320.939V303.748ZM325.475 313.792V306.736H320.939V313.792H325.475ZM341.531 324.016H338.003V308.788H335.015V322.576H331.559V294.712H335.015V305.692H338.003V294.208H341.531V324.016ZM369.16 324.016H365.452V294.208H369.16V324.016ZM360.556 297.376C360.556 302.128 359.524 306.292 357.46 309.868C355.396 313.444 351.952 316.42 347.128 318.796L345.184 315.772C348.904 313.948 351.688 311.788 353.536 309.292C355.384 306.772 356.464 303.784 356.776 300.328H346.732V297.376H360.556ZM383.901 301.264C383.901 304.024 384.513 306.604 385.737 309.004C386.961 311.404 388.665 313.144 390.849 314.224L388.617 317.248C387.105 316.456 385.797 315.328 384.693 313.864C383.589 312.4 382.725 310.708 382.101 308.788C381.453 310.852 380.541 312.664 379.365 314.224C378.189 315.784 376.797 316.984 375.189 317.824L372.993 314.728C374.505 313.984 375.801 312.916 376.881 311.524C377.985 310.108 378.813 308.512 379.365 306.736C379.941 304.96 380.229 303.136 380.229 301.264V296.584H383.901V301.264ZM396.177 305.836H400.533V309.076H396.177V324.016H392.505V294.208H396.177V305.836Z" fill="#F5F5FA"/>
</svg>
