<svg width="1000" height="573" viewBox="0 0 1000 573" fill="none" xmlns="http://www.w3.org/2000/svg">
<path d="M328.742 320.416H302.354V317.32H308.438V309.832C307.286 309.136 306.386 308.26 305.738 307.204C305.09 306.148 304.766 304.972 304.766 303.676C304.766 302.116 305.222 300.748 306.134 299.572C307.07 298.372 308.354 297.448 309.986 296.8C311.618 296.128 313.466 295.792 315.53 295.792C317.594 295.792 319.442 296.128 321.074 296.8C322.73 297.448 324.014 298.372 324.926 299.572C325.862 300.748 326.33 302.116 326.33 303.676C326.33 304.948 326.006 306.112 325.358 307.168C324.734 308.2 323.858 309.064 322.73 309.76V317.32H328.742V320.416ZM315.53 298.744C313.37 298.744 311.642 299.188 310.346 300.076C309.05 300.964 308.402 302.164 308.402 303.676C308.402 305.188 309.05 306.4 310.346 307.312C311.642 308.2 313.37 308.644 315.53 308.644C317.666 308.644 319.394 308.2 320.714 307.312C322.058 306.4 322.73 305.188 322.73 303.676C322.73 302.164 322.058 300.964 320.714 300.076C319.394 299.188 317.666 298.744 315.53 298.744ZM319.022 317.32V311.2C317.87 311.44 316.706 311.56 315.53 311.56C314.282 311.56 313.13 311.44 312.074 311.2V317.32H319.022ZM354.931 324.052H351.223V294.208H354.931V324.052ZM346.003 308.032H336.175V313.936C338.647 313.912 340.879 313.828 342.871 313.684C344.863 313.54 346.915 313.276 349.027 312.892L349.315 315.952C347.059 316.36 344.815 316.636 342.583 316.78C340.375 316.924 337.831 316.996 334.951 316.996H332.395V305.08H342.223V299.824H332.359V296.764H346.003V308.032ZM369.673 301.264C369.673 304.024 370.285 306.604 371.509 309.004C372.733 311.404 374.437 313.144 376.621 314.224L374.389 317.248C372.877 316.456 371.569 315.328 370.465 313.864C369.361 312.4 368.497 310.708 367.873 308.788C367.225 310.852 366.313 312.664 365.137 314.224C363.961 315.784 362.569 316.984 360.961 317.824L358.765 314.728C360.277 313.984 361.573 312.916 362.653 311.524C363.757 310.108 364.585 308.512 365.137 306.736C365.713 304.96 366.001 303.136 366.001 301.264V296.584H369.673V301.264ZM381.949 305.836H386.305V309.076H381.949V324.016H378.277V294.208H381.949V305.836Z" fill="#F5F5FA"/>
<path d="M632.246 324.016H628.538V294.208H632.246V324.016ZM623.642 297.376C623.642 302.128 622.61 306.292 620.546 309.868C618.482 313.444 615.038 316.42 610.214 318.796L608.27 315.772C611.99 313.948 614.774 311.788 616.622 309.292C618.47 306.772 619.55 303.784 619.862 300.328H609.818V297.376H623.642ZM661.495 300.436H637.915V297.376H647.887V294.136H651.559V297.376H661.495V300.436ZM662.971 316.564H651.559V324.052H647.887V316.564H636.583V313.504H662.971V316.564ZM649.759 301.768C652.855 301.768 655.255 302.2 656.959 303.064C658.687 303.928 659.551 305.176 659.551 306.808C659.551 308.416 658.687 309.664 656.959 310.552C655.231 311.44 652.831 311.884 649.759 311.884C646.663 311.884 644.251 311.44 642.523 310.552C640.795 309.664 639.931 308.416 639.931 306.808C639.931 305.176 640.795 303.928 642.523 303.064C644.251 302.2 646.663 301.768 649.759 301.768ZM649.759 304.576C645.751 304.576 643.747 305.32 643.747 306.808C643.747 308.296 645.751 309.04 649.759 309.04C653.743 309.04 655.735 308.296 655.735 306.808C655.735 305.32 653.743 304.576 649.759 304.576ZM689.268 311.92H685.56V304.684H680.736V301.588H685.56V294.208H689.268V311.92ZM679.476 312.676C682.548 312.676 684.948 313.18 686.676 314.188C688.428 315.172 689.304 316.564 689.304 318.364C689.304 320.14 688.428 321.52 686.676 322.504C684.948 323.512 682.548 324.016 679.476 324.016C676.38 324.016 673.956 323.512 672.204 322.504C670.476 321.52 669.612 320.14 669.612 318.364C669.612 316.564 670.476 315.172 672.204 314.188C673.956 313.18 676.38 312.676 679.476 312.676ZM679.476 315.556C677.484 315.556 675.948 315.796 674.868 316.276C673.788 316.756 673.248 317.452 673.248 318.364C673.248 319.252 673.788 319.936 674.868 320.416C675.948 320.896 677.484 321.136 679.476 321.136C681.468 321.136 682.992 320.896 684.048 320.416C685.128 319.936 685.668 319.252 685.668 318.364C685.668 317.452 685.128 316.756 684.048 316.276C682.992 315.796 681.468 315.556 679.476 315.556ZM675.732 299.212C675.732 301.108 676.308 302.884 677.46 304.54C678.636 306.172 680.292 307.36 682.428 308.104L680.628 311.092C679.092 310.54 677.748 309.736 676.596 308.68C675.468 307.6 674.58 306.352 673.932 304.936C673.284 306.544 672.36 307.948 671.16 309.148C669.96 310.324 668.52 311.224 666.84 311.848L664.932 308.896C667.188 308.104 668.916 306.82 670.116 305.044C671.34 303.268 671.952 301.336 671.952 299.248V299.176H666.012V296.116H681.6V299.176H675.732V299.212ZM702.857 296.26C704.369 296.26 705.725 296.572 706.925 297.196C708.149 297.796 709.097 298.648 709.769 299.752C710.465 300.856 710.813 302.104 710.813 303.496C710.813 304.888 710.465 306.136 709.769 307.24C709.097 308.32 708.149 309.172 706.925 309.796C705.725 310.396 704.369 310.696 702.857 310.696C701.369 310.696 700.013 310.396 698.789 309.796C697.589 309.172 696.641 308.32 695.945 307.24C695.249 306.136 694.901 304.888 694.901 303.496C694.901 302.104 695.249 300.856 695.945 299.752C696.641 298.648 697.589 297.796 698.789 297.196C700.013 296.572 701.369 296.26 702.857 296.26ZM702.857 299.5C701.609 299.5 700.577 299.86 699.761 300.58C698.945 301.3 698.537 302.272 698.537 303.496C698.537 304.696 698.945 305.656 699.761 306.376C700.577 307.096 701.609 307.456 702.857 307.456C704.129 307.456 705.173 307.096 705.989 306.376C706.805 305.656 707.213 304.696 707.213 303.496C707.213 302.272 706.805 301.3 705.989 300.58C705.173 299.86 704.129 299.5 702.857 299.5ZM717.581 324.052H713.909V294.208H717.581V324.052ZM693.641 314.764C697.145 314.764 700.421 314.704 703.469 314.584C706.541 314.464 709.445 314.2 712.181 313.792L712.505 316.564C709.673 317.116 706.793 317.476 703.865 317.644C700.937 317.788 697.673 317.86 694.073 317.86L693.641 314.764Z" fill="#F5F5FA"/>
</svg>
