<svg width="1000" height="573" viewBox="0 0 1000 573" fill="none" xmlns="http://www.w3.org/2000/svg">
<path d="M297.045 323.656H276.993V315.052H297.045V323.656ZM280.665 320.848H293.445V317.824H280.665V320.848ZM298.773 299.32H275.229V296.44H285.201V293.92H288.909V296.44H298.773V299.32ZM287.073 300.184C290.169 300.184 292.545 300.556 294.201 301.3C295.857 302.02 296.685 303.064 296.685 304.432C296.685 305.68 296.013 306.664 294.669 307.384C293.349 308.08 291.429 308.5 288.909 308.644V310.336H300.213V313.252H273.897V310.336H285.201V308.644C282.681 308.5 280.749 308.068 279.405 307.348C278.085 306.628 277.425 305.656 277.425 304.432C277.425 303.064 278.253 302.02 279.909 301.3C281.589 300.556 283.977 300.184 287.073 300.184ZM287.073 302.74C283.281 302.74 281.385 303.304 281.385 304.432C281.385 305.536 283.281 306.088 287.073 306.088C290.865 306.088 292.761 305.536 292.761 304.432C292.761 303.304 290.865 302.74 287.073 302.74ZM328.742 320.452H302.354V317.284H328.742V320.452ZM326.474 300.004H322.334V309.364H326.366V312.316H304.658V309.364H308.654V300.004H304.514V296.944H326.474V300.004ZM318.662 309.364V300.004H312.29V309.364H318.662ZM357.199 320.596H330.811V317.5H342.115V312.676H333.943V302.884H350.431V299.284H333.907V296.224H354.139V305.836H337.615V309.616H354.787V312.676H345.787V317.5H357.199V320.596ZM371.509 299.248H364.021V302.236H370.357V305.116H364.021V308.356C365.821 308.332 367.357 308.272 368.629 308.176C369.901 308.08 371.197 307.9 372.517 307.636L372.913 310.624C371.329 310.888 369.769 311.068 368.233 311.164C366.721 311.26 364.777 311.308 362.401 311.308H360.493V296.26H371.509V299.248ZM383.965 324.016H380.329V317.032H364.093V314.008H383.965V324.016ZM383.965 312.748H380.509V294.244H383.965V312.748ZM378.277 312.532H374.785V304.9H371.653V301.876H374.785V294.82H378.277V312.532ZM411.954 324.052H408.318V307.96H402.99V304.936H408.318V294.208H411.954V324.052ZM402.558 299.824H392.73V305.116H401.406V308.068H392.73V314.152C395.034 314.128 397.05 314.056 398.778 313.936C400.53 313.816 402.27 313.612 403.998 313.324L404.358 316.348C402.342 316.684 400.338 316.912 398.346 317.032C396.354 317.152 394.014 317.212 391.326 317.212H389.094V296.764H402.558V299.824Z" fill="#F5F5FA"/>
<path d="M661.639 324.016H658.111V308.932H655.303V322.576H651.847V294.712H655.303V305.836H658.111V294.208H661.639V324.016ZM645.619 301.768C645.619 304.576 646.099 307.084 647.059 309.292C648.043 311.5 649.555 313.144 651.595 314.224L649.471 317.104C646.879 315.712 645.031 313.312 643.927 309.904C642.895 313.768 641.035 316.528 638.347 318.184L636.079 315.268C638.143 314.092 639.655 312.316 640.615 309.94C641.575 307.564 642.055 304.84 642.055 301.768V300.436H636.979V297.412H650.263V300.436H645.619V301.768ZM669.972 307.528C674.268 307.48 678.192 307.072 681.744 306.304L682.14 309.364C678.156 310.204 673.692 310.624 668.748 310.624H666.3V296.26H669.972V307.528ZM687.864 302.776H691.86V305.872H687.864V315.664H684.192V294.244H687.864V302.776ZM688.872 323.44H669.36V313.648H673.068V320.416H688.872V323.44Z" fill="#F5F5FA"/>
</svg>
