<svg width="1000" height="573" viewBox="0 0 1000 573" fill="none" xmlns="http://www.w3.org/2000/svg">
<path d="M317.114 316.636H303.362V297.088H317.114V316.636ZM307.034 313.648H313.442V300.04H307.034V313.648ZM325.034 305.656H329.426V308.788H325.034V324.016H321.362V294.208H325.034V305.656ZM343.627 297.592C343.627 300.64 343.327 303.316 342.727 305.62H346.147V294.928H349.603V322.648H346.147V308.68H341.647C339.967 312.472 337.039 315.592 332.863 318.04L330.775 315.412C334.447 313.252 337.003 310.588 338.443 307.42L331.351 308.14L330.883 304.936L339.451 304.468C339.715 303.34 339.907 302.068 340.027 300.652H332.323V297.592H343.627ZM355.759 324.016H352.267V294.208H355.759V324.016ZM383.497 324.052H379.861V307.96H374.533V304.936H379.861V294.208H383.497V324.052ZM374.101 299.824H364.273V305.116H372.949V308.068H364.273V314.152C366.577 314.128 368.593 314.056 370.321 313.936C372.073 313.816 373.813 313.612 375.541 313.324L375.901 316.348C373.885 316.684 371.881 316.912 369.889 317.032C367.897 317.152 365.557 317.212 362.869 317.212H360.637V296.764H374.101V299.824Z" fill="#F5F5FA"/>
<path d="M631.634 310.3H623.174V317.464H634.514V320.452H608.126V317.464H619.43V310.3H611.186V296.548H614.93V307.276H631.634V310.3ZM662.971 311.452H636.583V308.428H647.959V305.656H639.823V295.54H659.767V298.456H643.495V302.704H659.911V305.656H651.595V308.428H662.971V311.452ZM649.723 313.108C652.867 313.108 655.315 313.588 657.067 314.548C658.843 315.508 659.731 316.852 659.731 318.58C659.731 320.308 658.843 321.64 657.067 322.576C655.291 323.536 652.843 324.016 649.723 324.016C646.579 324.016 644.107 323.536 642.307 322.576C640.531 321.64 639.643 320.308 639.643 318.58C639.643 316.852 640.531 315.508 642.307 314.548C644.107 313.588 646.579 313.108 649.723 313.108ZM649.723 316.024C647.635 316.024 646.051 316.24 644.971 316.672C643.915 317.104 643.387 317.74 643.387 318.58C643.387 320.284 645.499 321.136 649.723 321.136C653.923 321.136 656.023 320.284 656.023 318.58C656.023 317.74 655.483 317.104 654.403 316.672C653.347 316.24 651.787 316.024 649.723 316.024ZM691.428 320.452H665.04V317.392H676.38V310.552H680.088V317.392H691.428V320.452ZM689.16 299.644H680.16C680.208 301.06 680.676 302.404 681.564 303.676C682.452 304.948 683.664 306.028 685.2 306.916C686.736 307.78 688.464 308.356 690.384 308.644L688.944 311.632C686.496 311.176 684.324 310.312 682.428 309.04C680.556 307.768 679.152 306.22 678.216 304.396C677.304 306.268 675.912 307.864 674.04 309.184C672.192 310.48 670.056 311.356 667.632 311.812L666.192 308.824C668.088 308.512 669.792 307.9 671.304 306.988C672.816 306.076 674.004 304.984 674.868 303.712C675.756 302.416 676.224 301.06 676.272 299.644H667.272V296.62H689.16V299.644ZM716.321 301.552H720.317V304.648H716.321V311.632H712.649V294.208H716.321V301.552ZM701.273 315.34H712.649V312.82H716.321V323.656H697.601V312.82H701.273V315.34ZM712.649 320.668V318.22H701.273V320.668H712.649ZM710.669 299.932H693.533V296.98H700.265V293.992H703.973V296.98H710.669V299.932ZM702.137 300.94C704.225 300.94 705.917 301.42 707.213 302.38C708.533 303.34 709.193 304.612 709.193 306.196C709.193 307.78 708.533 309.052 707.213 310.012C705.917 310.972 704.225 311.452 702.137 311.452C700.001 311.452 698.273 310.972 696.953 310.012C695.657 309.052 695.009 307.78 695.009 306.196C695.009 304.612 695.657 303.34 696.953 302.38C698.273 301.42 700.001 300.94 702.137 300.94ZM702.137 303.712C701.057 303.712 700.193 303.94 699.545 304.396C698.921 304.828 698.609 305.428 698.609 306.196C698.609 306.964 698.921 307.564 699.545 307.996C700.193 308.428 701.057 308.644 702.137 308.644C703.217 308.644 704.069 308.428 704.693 307.996C705.341 307.564 705.665 306.964 705.665 306.196C705.665 305.428 705.341 304.828 704.693 304.396C704.045 303.94 703.193 303.712 702.137 303.712Z" fill="#F5F5FA"/>
</svg>
