<svg width="1000" height="573" viewBox="0 0 1000 573" fill="none" xmlns="http://www.w3.org/2000/svg">
<path d="M326.987 301.264C326.987 304.024 327.599 306.604 328.823 309.004C330.047 311.404 331.751 313.144 333.935 314.224L331.703 317.248C330.191 316.456 328.883 315.328 327.779 313.864C326.675 312.4 325.811 310.708 325.187 308.788C324.539 310.852 323.627 312.664 322.451 314.224C321.275 315.784 319.883 316.984 318.275 317.824L316.079 314.728C317.591 313.984 318.887 312.916 319.967 311.524C321.071 310.108 321.899 308.512 322.451 306.736C323.027 304.96 323.315 303.136 323.315 301.264V296.584H326.987V301.264ZM339.263 305.836H343.619V309.076H339.263V324.016H335.591V294.208H339.263V305.836ZM355.768 301.264C355.768 304.144 356.38 306.796 357.604 309.22C358.852 311.62 360.604 313.348 362.86 314.404L360.664 317.428C357.496 315.796 355.252 312.904 353.932 308.752C353.284 310.84 352.372 312.688 351.196 314.296C350.02 315.88 348.628 317.092 347.02 317.932L344.752 314.872C346.288 314.128 347.596 313.048 348.676 311.632C349.78 310.216 350.608 308.608 351.16 306.808C351.736 305.008 352.024 303.16 352.024 301.264V296.584H355.768V301.264ZM369.268 324.052H365.632V306.844H359.692V303.784H365.632V294.208H369.268V324.052Z" fill="#F5F5FA"/>
<path d="M641.515 307.528C645.811 307.48 649.735 307.072 653.287 306.304L653.683 309.364C649.699 310.204 645.235 310.624 640.291 310.624H637.843V296.26H641.515V307.528ZM659.407 302.776H663.403V305.872H659.407V315.664H655.735V294.244H659.407V302.776ZM660.415 323.44H640.903V313.648H644.611V320.416H660.415V323.44ZM680.448 310.912H666.516V296.656H680.448V310.912ZM670.188 307.888H676.884V299.644H670.188V307.888ZM689.124 315.484H685.452V294.244H689.124V315.484ZM689.916 323.26H669.972V313.54H673.68V320.2H689.916V323.26Z" fill="#F5F5FA"/>
</svg>
