<svg width="1000" height="573" viewBox="0 0 1000 573" fill="none" xmlns="http://www.w3.org/2000/svg">
<path d="M631.634 310.3H623.174V317.464H634.514V320.452H608.126V317.464H619.43V310.3H611.186V296.548H614.93V307.276H631.634V310.3ZM662.971 311.452H636.583V308.428H647.959V305.656H639.823V295.54H659.767V298.456H643.495V302.704H659.911V305.656H651.595V308.428H662.971V311.452ZM649.723 313.108C652.867 313.108 655.315 313.588 657.067 314.548C658.843 315.508 659.731 316.852 659.731 318.58C659.731 320.308 658.843 321.64 657.067 322.576C655.291 323.536 652.843 324.016 649.723 324.016C646.579 324.016 644.107 323.536 642.307 322.576C640.531 321.64 639.643 320.308 639.643 318.58C639.643 316.852 640.531 315.508 642.307 314.548C644.107 313.588 646.579 313.108 649.723 313.108ZM649.723 316.024C647.635 316.024 646.051 316.24 644.971 316.672C643.915 317.104 643.387 317.74 643.387 318.58C643.387 320.284 645.499 321.136 649.723 321.136C653.923 321.136 656.023 320.284 656.023 318.58C656.023 317.74 655.483 317.104 654.403 316.672C653.347 316.24 651.787 316.024 649.723 316.024ZM691.428 320.452H665.04V317.392H676.38V310.552H680.088V317.392H691.428V320.452ZM689.16 299.644H680.16C680.208 301.06 680.676 302.404 681.564 303.676C682.452 304.948 683.664 306.028 685.2 306.916C686.736 307.78 688.464 308.356 690.384 308.644L688.944 311.632C686.496 311.176 684.324 310.312 682.428 309.04C680.556 307.768 679.152 306.22 678.216 304.396C677.304 306.268 675.912 307.864 674.04 309.184C672.192 310.48 670.056 311.356 667.632 311.812L666.192 308.824C668.088 308.512 669.792 307.9 671.304 306.988C672.816 306.076 674.004 304.984 674.868 303.712C675.756 302.416 676.224 301.06 676.272 299.644H667.272V296.62H689.16V299.644ZM716.321 301.552H720.317V304.648H716.321V311.632H712.649V294.208H716.321V301.552ZM701.273 315.34H712.649V312.82H716.321V323.656H697.601V312.82H701.273V315.34ZM712.649 320.668V318.22H701.273V320.668H712.649ZM710.669 299.932H693.533V296.98H700.265V293.992H703.973V296.98H710.669V299.932ZM702.137 300.94C704.225 300.94 705.917 301.42 707.213 302.38C708.533 303.34 709.193 304.612 709.193 306.196C709.193 307.78 708.533 309.052 707.213 310.012C705.917 310.972 704.225 311.452 702.137 311.452C700.001 311.452 698.273 310.972 696.953 310.012C695.657 309.052 695.009 307.78 695.009 306.196C695.009 304.612 695.657 303.34 696.953 302.38C698.273 301.42 700.001 300.94 702.137 300.94ZM702.137 303.712C701.057 303.712 700.193 303.94 699.545 304.396C698.921 304.828 698.609 305.428 698.609 306.196C698.609 306.964 698.921 307.564 699.545 307.996C700.193 308.428 701.057 308.644 702.137 308.644C703.217 308.644 704.069 308.428 704.693 307.996C705.341 307.564 705.665 306.964 705.665 306.196C705.665 305.428 705.341 304.828 704.693 304.396C704.045 303.94 703.193 303.712 702.137 303.712Z" fill="#F5F5FA"/>
<path d="M256.542 298.776C256.542 300.288 256.974 301.776 257.838 303.24C258.702 304.68 259.914 305.928 261.474 306.984C263.058 308.016 264.858 308.712 266.874 309.072L265.218 312.168C262.818 311.664 260.682 310.704 258.81 309.288C256.938 307.872 255.534 306.18 254.598 304.212C253.638 306.204 252.222 307.896 250.35 309.288C248.502 310.68 246.366 311.64 243.942 312.168L242.358 309.072C244.326 308.688 246.09 307.98 247.65 306.948C249.21 305.892 250.422 304.644 251.286 303.204C252.174 301.74 252.618 300.264 252.618 298.776V296.58H256.542V298.776ZM267.918 320.772H241.53V317.64H267.918V320.772ZM296.303 313.572H269.951V310.584H281.255V308.136H273.299V295.428H293.171V298.308H277.007V300.324H292.487V303.132H277.007V305.256H293.423V308.136H284.963V310.584H296.303V313.572ZM293.027 324.516H289.319V318.612H272.939V315.66H293.027V324.516ZM324.832 321.096H298.444V317.928H309.712V312.168H300.748V309.18H304.744V300.36H300.604V297.3H322.564V300.36H318.424V309.18H322.456V312.168H313.384V317.928H324.832V321.096ZM314.752 309.18V300.36H308.38V309.18H314.752ZM350.409 312.708H341.949V318H353.289V321.06H326.901V318H338.205V312.708H330.105V296.868H350.157V299.928H333.849V303.24H349.473V306.192H333.849V309.72H350.409V312.708ZM373.583 301.764C373.583 304.524 374.195 307.104 375.419 309.504C376.643 311.904 378.347 313.644 380.531 314.724L378.299 317.748C376.787 316.956 375.479 315.828 374.375 314.364C373.271 312.9 372.407 311.208 371.783 309.288C371.135 311.352 370.223 313.164 369.047 314.724C367.871 316.284 366.479 317.484 364.871 318.324L362.675 315.228C364.187 314.484 365.483 313.416 366.563 312.024C367.667 310.608 368.495 309.012 369.047 307.236C369.623 305.46 369.911 303.636 369.911 301.764V297.084H373.583V301.764ZM385.859 306.336H390.215V309.576H385.859V324.516H382.187V294.708H385.859V306.336ZM402.688 300.72C402.688 302.64 403.288 304.404 404.488 306.012C405.688 307.62 407.404 308.784 409.636 309.504L407.8 312.456C406.216 311.928 404.836 311.136 403.66 310.08C402.484 309.024 401.56 307.776 400.888 306.336C400.216 307.896 399.268 309.264 398.044 310.44C396.844 311.592 395.416 312.456 393.76 313.032L391.816 310.08C394.072 309.312 395.824 308.064 397.072 306.336C398.32 304.608 398.944 302.736 398.944 300.72V299.964H392.824V296.94H408.664V299.964H402.688V300.72ZM415.72 316.344H412.012V294.744H415.72V316.344ZM416.476 323.94H396.568V314.364H400.24V320.916H416.476V323.94ZM442.773 306.3H446.949V309.432H442.773V324.444H439.101V294.708H442.773V306.3ZM435.105 297.804C435.105 307.596 430.749 314.712 422.037 319.152L419.985 316.308C423.465 314.484 426.141 312.312 428.013 309.792C429.909 307.248 431.037 304.284 431.397 300.9H421.497V297.804H435.105Z" fill="#F5F5FA"/>
</svg>
