<svg width="1000" height="573" viewBox="0 0 1000 573" fill="none" xmlns="http://www.w3.org/2000/svg">
<path d="M620.285 314.116H608.837V323.98H605.165V314.116H593.861V311.056H620.285V314.116ZM617.081 307.636H597.065V295.72H617.081V307.636ZM600.701 304.648H613.373V298.708H600.701V304.648ZM632.83 299.572C632.83 301.444 633.406 303.148 634.558 304.684C635.71 306.22 637.366 307.336 639.526 308.032L637.834 310.984C634.666 309.976 632.398 308.056 631.03 305.224C630.382 306.808 629.446 308.188 628.222 309.364C627.022 310.516 625.582 311.38 623.902 311.956L622.066 308.932C624.322 308.164 626.05 306.928 627.25 305.224C628.474 303.52 629.086 301.648 629.086 299.608V299.284H623.038V296.26H638.698V299.284H632.83V299.572ZM645.178 301.3H649.138V304.396H645.178V311.956H641.47V294.208H645.178V301.3ZM635.782 312.604C638.806 312.604 641.17 313.108 642.874 314.116C644.602 315.1 645.466 316.492 645.466 318.292C645.466 320.068 644.602 321.46 642.874 322.468C641.17 323.476 638.806 323.98 635.782 323.98C632.758 323.98 630.37 323.476 628.618 322.468C626.866 321.46 625.99 320.068 625.99 318.292C625.99 316.492 626.854 315.1 628.582 314.116C630.334 313.108 632.734 312.604 635.782 312.604ZM635.782 315.556C633.814 315.556 632.302 315.796 631.246 316.276C630.19 316.732 629.662 317.404 629.662 318.292C629.662 319.18 630.19 319.864 631.246 320.344C632.302 320.8 633.814 321.028 635.782 321.028C637.726 321.028 639.214 320.8 640.246 320.344C641.302 319.864 641.83 319.18 641.83 318.292C641.83 317.404 641.302 316.732 640.246 316.276C639.214 315.796 637.726 315.556 635.782 315.556ZM657.363 296.44C658.635 296.44 659.739 296.872 660.675 297.736C661.635 298.6 662.379 299.836 662.907 301.444C663.435 303.052 663.699 304.936 663.699 307.096C663.699 309.28 663.435 311.176 662.907 312.784C662.379 314.392 661.635 315.628 660.675 316.492C659.739 317.356 658.635 317.788 657.363 317.788C656.091 317.788 654.987 317.356 654.051 316.492C653.115 315.628 652.383 314.392 651.855 312.784C651.351 311.176 651.099 309.28 651.099 307.096C651.099 304.912 651.351 303.028 651.855 301.444C652.383 299.836 653.115 298.6 654.051 297.736C654.987 296.872 656.091 296.44 657.363 296.44ZM657.363 300.004C656.475 300.004 655.767 300.616 655.239 301.84C654.735 303.064 654.483 304.816 654.483 307.096C654.483 309.376 654.735 311.128 655.239 312.352C655.767 313.576 656.475 314.188 657.363 314.188C658.299 314.188 659.019 313.588 659.523 312.388C660.027 311.164 660.279 309.4 660.279 307.096C660.279 304.792 660.027 303.04 659.523 301.84C659.019 300.616 658.299 300.004 657.363 300.004ZM675.759 324.016H672.231V308.788H669.243V322.576H665.787V294.712H669.243V305.692H672.231V294.208H675.759V324.016ZM692.301 312.82C695.445 312.82 697.929 313.324 699.753 314.332C701.601 315.316 702.525 316.684 702.525 318.436C702.525 320.164 701.601 321.52 699.753 322.504C697.905 323.488 695.421 323.98 692.301 323.98C689.181 323.98 686.697 323.488 684.849 322.504C683.025 321.52 682.113 320.164 682.113 318.436C682.113 316.684 683.025 315.316 684.849 314.332C686.673 313.324 689.157 312.82 692.301 312.82ZM692.301 315.664C690.237 315.664 688.629 315.904 687.477 316.384C686.325 316.864 685.749 317.548 685.749 318.436C685.749 319.3 686.313 319.96 687.441 320.416C688.593 320.872 690.213 321.1 692.301 321.1C694.389 321.1 696.009 320.872 697.161 320.416C698.313 319.96 698.889 319.3 698.889 318.436C698.889 317.548 698.313 316.864 697.161 316.384C696.009 315.904 694.389 315.664 692.301 315.664ZM702.381 298.024C702.381 299.632 702.333 301.024 702.237 302.2C702.141 303.376 701.913 304.636 701.553 305.98L697.953 305.62C698.241 304.372 698.433 303.208 698.529 302.128C698.625 301.024 698.673 299.836 698.673 298.564H682.329V295.612H702.381V298.024ZM705.549 310.732H679.341V307.708H689.385V302.308H693.057V307.708H705.549V310.732ZM730.55 302.74H734.51V305.872H730.55V315.664H726.806V294.208H730.55V302.74ZM722.738 296.44C722.738 300.4 721.55 303.76 719.174 306.52C716.822 309.28 713.474 311.32 709.13 312.64L707.618 309.652C710.906 308.692 713.498 307.336 715.394 305.584C717.29 303.832 718.394 301.816 718.706 299.536H708.878V296.44H722.738ZM731.594 323.44H711.974V313.504H715.682V320.416H731.594V323.44Z" fill="#F5F5FA"/>
<path d="M297.045 323.656H276.993V315.052H297.045V323.656ZM280.665 320.848H293.445V317.824H280.665V320.848ZM298.773 299.32H275.229V296.44H285.201V293.92H288.909V296.44H298.773V299.32ZM287.073 300.184C290.169 300.184 292.545 300.556 294.201 301.3C295.857 302.02 296.685 303.064 296.685 304.432C296.685 305.68 296.013 306.664 294.669 307.384C293.349 308.08 291.429 308.5 288.909 308.644V310.336H300.213V313.252H273.897V310.336H285.201V308.644C282.681 308.5 280.749 308.068 279.405 307.348C278.085 306.628 277.425 305.656 277.425 304.432C277.425 303.064 278.253 302.02 279.909 301.3C281.589 300.556 283.977 300.184 287.073 300.184ZM287.073 302.74C283.281 302.74 281.385 303.304 281.385 304.432C281.385 305.536 283.281 306.088 287.073 306.088C290.865 306.088 292.761 305.536 292.761 304.432C292.761 303.304 290.865 302.74 287.073 302.74ZM328.742 320.452H302.354V317.284H328.742V320.452ZM326.474 300.004H322.334V309.364H326.366V312.316H304.658V309.364H308.654V300.004H304.514V296.944H326.474V300.004ZM318.662 309.364V300.004H312.29V309.364H318.662ZM357.199 320.596H330.811V317.5H342.115V312.676H333.943V302.884H350.431V299.284H333.907V296.224H354.139V305.836H337.615V309.616H354.787V312.676H345.787V317.5H357.199V320.596ZM371.509 299.248H364.021V302.236H370.357V305.116H364.021V308.356C365.821 308.332 367.357 308.272 368.629 308.176C369.901 308.08 371.197 307.9 372.517 307.636L372.913 310.624C371.329 310.888 369.769 311.068 368.233 311.164C366.721 311.26 364.777 311.308 362.401 311.308H360.493V296.26H371.509V299.248ZM383.965 324.016H380.329V317.032H364.093V314.008H383.965V324.016ZM383.965 312.748H380.509V294.244H383.965V312.748ZM378.277 312.532H374.785V304.9H371.653V301.876H374.785V294.82H378.277V312.532ZM411.954 324.052H408.318V307.96H402.99V304.936H408.318V294.208H411.954V324.052ZM402.558 299.824H392.73V305.116H401.406V308.068H392.73V314.152C395.034 314.128 397.05 314.056 398.778 313.936C400.53 313.816 402.27 313.612 403.998 313.324L404.358 316.348C402.342 316.684 400.338 316.912 398.346 317.032C396.354 317.152 394.014 317.212 391.326 317.212H389.094V296.764H402.558V299.824Z" fill="#F5F5FA"/>
</svg>
