<svg width="1000" height="573" viewBox="0 0 1000 573" fill="none" xmlns="http://www.w3.org/2000/svg">
<path d="M632.246 324.016H628.538V294.208H632.246V324.016ZM623.642 297.376C623.642 302.128 622.61 306.292 620.546 309.868C618.482 313.444 615.038 316.42 610.214 318.796L608.27 315.772C611.99 313.948 614.774 311.788 616.622 309.292C618.47 306.772 619.55 303.784 619.862 300.328H609.818V297.376H623.642ZM661.495 300.436H637.915V297.376H647.887V294.136H651.559V297.376H661.495V300.436ZM662.971 316.564H651.559V324.052H647.887V316.564H636.583V313.504H662.971V316.564ZM649.759 301.768C652.855 301.768 655.255 302.2 656.959 303.064C658.687 303.928 659.551 305.176 659.551 306.808C659.551 308.416 658.687 309.664 656.959 310.552C655.231 311.44 652.831 311.884 649.759 311.884C646.663 311.884 644.251 311.44 642.523 310.552C640.795 309.664 639.931 308.416 639.931 306.808C639.931 305.176 640.795 303.928 642.523 303.064C644.251 302.2 646.663 301.768 649.759 301.768ZM649.759 304.576C645.751 304.576 643.747 305.32 643.747 306.808C643.747 308.296 645.751 309.04 649.759 309.04C653.743 309.04 655.735 308.296 655.735 306.808C655.735 305.32 653.743 304.576 649.759 304.576ZM689.268 311.92H685.56V304.684H680.736V301.588H685.56V294.208H689.268V311.92ZM679.476 312.676C682.548 312.676 684.948 313.18 686.676 314.188C688.428 315.172 689.304 316.564 689.304 318.364C689.304 320.14 688.428 321.52 686.676 322.504C684.948 323.512 682.548 324.016 679.476 324.016C676.38 324.016 673.956 323.512 672.204 322.504C670.476 321.52 669.612 320.14 669.612 318.364C669.612 316.564 670.476 315.172 672.204 314.188C673.956 313.18 676.38 312.676 679.476 312.676ZM679.476 315.556C677.484 315.556 675.948 315.796 674.868 316.276C673.788 316.756 673.248 317.452 673.248 318.364C673.248 319.252 673.788 319.936 674.868 320.416C675.948 320.896 677.484 321.136 679.476 321.136C681.468 321.136 682.992 320.896 684.048 320.416C685.128 319.936 685.668 319.252 685.668 318.364C685.668 317.452 685.128 316.756 684.048 316.276C682.992 315.796 681.468 315.556 679.476 315.556ZM675.732 299.212C675.732 301.108 676.308 302.884 677.46 304.54C678.636 306.172 680.292 307.36 682.428 308.104L680.628 311.092C679.092 310.54 677.748 309.736 676.596 308.68C675.468 307.6 674.58 306.352 673.932 304.936C673.284 306.544 672.36 307.948 671.16 309.148C669.96 310.324 668.52 311.224 666.84 311.848L664.932 308.896C667.188 308.104 668.916 306.82 670.116 305.044C671.34 303.268 671.952 301.336 671.952 299.248V299.176H666.012V296.116H681.6V299.176H675.732V299.212ZM702.857 296.26C704.369 296.26 705.725 296.572 706.925 297.196C708.149 297.796 709.097 298.648 709.769 299.752C710.465 300.856 710.813 302.104 710.813 303.496C710.813 304.888 710.465 306.136 709.769 307.24C709.097 308.32 708.149 309.172 706.925 309.796C705.725 310.396 704.369 310.696 702.857 310.696C701.369 310.696 700.013 310.396 698.789 309.796C697.589 309.172 696.641 308.32 695.945 307.24C695.249 306.136 694.901 304.888 694.901 303.496C694.901 302.104 695.249 300.856 695.945 299.752C696.641 298.648 697.589 297.796 698.789 297.196C700.013 296.572 701.369 296.26 702.857 296.26ZM702.857 299.5C701.609 299.5 700.577 299.86 699.761 300.58C698.945 301.3 698.537 302.272 698.537 303.496C698.537 304.696 698.945 305.656 699.761 306.376C700.577 307.096 701.609 307.456 702.857 307.456C704.129 307.456 705.173 307.096 705.989 306.376C706.805 305.656 707.213 304.696 707.213 303.496C707.213 302.272 706.805 301.3 705.989 300.58C705.173 299.86 704.129 299.5 702.857 299.5ZM717.581 324.052H713.909V294.208H717.581V324.052ZM693.641 314.764C697.145 314.764 700.421 314.704 703.469 314.584C706.541 314.464 709.445 314.2 712.181 313.792L712.505 316.564C709.673 317.116 706.793 317.476 703.865 317.644C700.937 317.788 697.673 317.86 694.073 317.86L693.641 314.764Z" fill="#F5F5FA"/>
<path d="M329.435 296.116C329.435 300.004 328.547 303.304 326.771 306.016C325.019 308.704 322.199 310.876 318.311 312.532L316.583 309.76C318.335 309.04 319.811 308.236 321.011 307.348C322.211 306.46 323.183 305.452 323.927 304.324L317.231 305.08L316.727 302.056L325.223 301.588C325.487 300.748 325.655 299.932 325.727 299.14H317.987V296.116H329.435ZM341.279 311.668H337.787V304.396H334.907V311.452H331.451V294.784H334.907V301.336H337.787V294.244H341.279V311.668ZM341.279 323.656H321.803V312.928H341.279V323.656ZM325.403 320.632H337.679V315.916H325.403V320.632ZM361.78 300.004H358.828V313.54C360.412 313.42 361.648 313.3 362.536 313.18L362.752 315.916C360.136 316.372 357.376 316.684 354.472 316.852C351.568 316.996 348.496 317.068 345.256 317.068L344.896 313.972L348.316 313.936V300.004H345.688V296.98H361.78V300.004ZM369.268 324.016H365.632V308.176H360.916V305.152H365.632V294.208H369.268V324.016ZM351.88 313.864C352.984 313.864 354.124 313.828 355.3 313.756V300.004H351.88V313.864Z" fill="#F5F5FA"/>
</svg>
