<svg width="1000" height="573" viewBox="0 0 1000 573" fill="none" xmlns="http://www.w3.org/2000/svg">
<path d="M597.585 319V291.928H601.941V313.6H612.705V319H597.585ZM624.982 319.684C619.51 319.684 615.514 313.96 615.514 305.788C615.514 297.904 619.222 291.28 625.594 291.28C629.878 291.28 632.938 294.268 634.342 299.092L630.058 300.352C629.194 297.796 627.538 296.716 625.63 296.716C621.994 296.716 619.942 300.712 619.942 305.752C619.942 311.188 622.318 314.284 625.378 314.284C627.322 314.284 629.338 312.988 630.166 309.712H625.882V304.348H634.558V319H630.634L630.382 316.876C629.05 318.748 627.178 319.684 624.982 319.684ZM639.066 319V291.928H647.85C652.674 291.928 655.338 294.484 655.338 299.164C655.338 301.648 654.618 303.628 653.178 304.672C655.158 305.572 656.274 307.948 656.274 310.792C656.274 315.616 652.962 319 648.282 319H639.066ZM643.386 302.116H647.274C649.722 302.116 651.054 301.36 651.054 299.704C651.054 298.048 649.722 297.292 647.274 297.292H643.386V302.116ZM643.386 313.6H648.318C650.73 313.6 651.882 312.7 651.882 310.504C651.882 308.308 650.73 307.408 648.318 307.408H643.386V313.6ZM665.391 319V297.292H658.839V291.928H676.299V297.292H669.711V319H665.391ZM689.106 319.684C682.914 319.684 678.45 313.708 678.45 305.572C678.45 297.544 682.662 291.28 689.106 291.28C695.55 291.28 699.69 297.58 699.69 305.572C699.69 309.064 698.898 312.16 697.458 314.536C698.214 315.508 698.898 316.408 699.51 317.236L696.594 320.836C695.946 319.972 695.19 319 694.398 317.992C692.886 319.072 691.086 319.684 689.106 319.684ZM689.106 314.32C689.826 314.32 690.474 314.176 691.086 313.888C690.114 312.736 689.214 311.656 688.386 310.756L691.266 307.12C692.166 308.092 693.174 309.28 694.218 310.54C694.83 309.136 695.19 307.444 695.19 305.536C695.19 300.532 692.85 296.68 689.106 296.68C685.362 296.68 683.022 300.532 683.022 305.536C683.022 310.684 685.614 314.32 689.106 314.32ZM704.09 319V291.928H708.482V319H704.09ZM720.072 316.66V308.452H713.412V303.628H720.072V295.42H723.78V303.628H730.44V308.452H723.78V316.66H720.072Z" fill="#F5F5FA"/>
<path d="M285.612 322L294.072 294.928H298.86L307.248 322H302.748L300.732 315.268H292.236L290.148 322H285.612ZM293.856 309.94H299.112L296.484 301.444L293.856 309.94ZM310.566 322V294.928H314.958V322H310.566ZM343.505 324.016H339.977V308.716H336.953V322.648H333.533V294.964H336.953V305.692H339.977V294.208H343.505V324.016ZM331.193 297.916C331.193 302.284 330.389 306.112 328.781 309.4C327.173 312.688 324.437 315.484 320.573 317.788L318.413 315.16C321.365 313.432 323.561 311.416 325.001 309.112C326.441 306.784 327.293 304.072 327.557 300.976H319.781V297.916H331.193ZM351.766 299.248H358.282V295.504H361.954V308.5H348.094V295.504H351.766V299.248ZM358.282 305.548V302.128H351.766V305.548H358.282ZM369.946 300.148H373.942V303.208H369.946V309.436H366.274V294.208H369.946V300.148ZM369.946 318.472H354.682V320.812H370.846V323.764H351.046V315.772H366.31V313.576H351.01V310.66H369.946V318.472ZM386.019 302.596C386.019 304.156 386.295 305.728 386.847 307.312C387.423 308.896 388.251 310.348 389.331 311.668C390.435 312.964 391.719 313.96 393.183 314.656L391.167 317.644C389.583 316.876 388.191 315.748 386.991 314.26C385.815 312.772 384.891 311.08 384.219 309.184C383.547 311.272 382.599 313.132 381.375 314.764C380.151 316.372 378.735 317.584 377.127 318.4L375.039 315.376C376.527 314.656 377.823 313.612 378.927 312.244C380.031 310.852 380.871 309.316 381.447 307.636C382.047 305.932 382.347 304.252 382.347 302.596V300.22H376.083V297.16H391.995V300.22H386.019V302.596ZM398.259 305.764H402.615V308.932H398.259V324.016H394.587V294.208H398.259V305.764Z" fill="#F5F5FA"/>
</svg>
