<svg width="1000" height="573" viewBox="0 0 1000 573" fill="none" xmlns="http://www.w3.org/2000/svg">
<path d="M285.612 322L294.072 294.928H298.86L307.248 322H302.748L300.732 315.268H292.236L290.148 322H285.612ZM293.856 309.94H299.112L296.484 301.444L293.856 309.94ZM310.566 322V294.928H314.958V322H310.566ZM343.505 324.016H339.977V308.716H336.953V322.648H333.533V294.964H336.953V305.692H339.977V294.208H343.505V324.016ZM331.193 297.916C331.193 302.284 330.389 306.112 328.781 309.4C327.173 312.688 324.437 315.484 320.573 317.788L318.413 315.16C321.365 313.432 323.561 311.416 325.001 309.112C326.441 306.784 327.293 304.072 327.557 300.976H319.781V297.916H331.193ZM351.766 299.248H358.282V295.504H361.954V308.5H348.094V295.504H351.766V299.248ZM358.282 305.548V302.128H351.766V305.548H358.282ZM369.946 300.148H373.942V303.208H369.946V309.436H366.274V294.208H369.946V300.148ZM369.946 318.472H354.682V320.812H370.846V323.764H351.046V315.772H366.31V313.576H351.01V310.66H369.946V318.472ZM386.019 302.596C386.019 304.156 386.295 305.728 386.847 307.312C387.423 308.896 388.251 310.348 389.331 311.668C390.435 312.964 391.719 313.96 393.183 314.656L391.167 317.644C389.583 316.876 388.191 315.748 386.991 314.26C385.815 312.772 384.891 311.08 384.219 309.184C383.547 311.272 382.599 313.132 381.375 314.764C380.151 316.372 378.735 317.584 377.127 318.4L375.039 315.376C376.527 314.656 377.823 313.612 378.927 312.244C380.031 310.852 380.871 309.316 381.447 307.636C382.047 305.932 382.347 304.252 382.347 302.596V300.22H376.083V297.16H391.995V300.22H386.019V302.596ZM398.259 305.764H402.615V308.932H398.259V324.016H394.587V294.208H398.259V305.764Z" fill="#F5F5FA"/>
<path d="M616.375 313.936H610.003V324.016H606.259V313.936H599.995V324.016H596.215V313.936H589.951V310.912H616.375V313.936ZM603.091 295.252C605.131 295.252 606.943 295.528 608.527 296.08C610.111 296.608 611.335 297.376 612.199 298.384C613.087 299.392 613.531 300.568 613.531 301.912C613.531 303.232 613.087 304.396 612.199 305.404C611.335 306.388 610.111 307.144 608.527 307.672C606.943 308.2 605.131 308.464 603.091 308.464C601.051 308.464 599.251 308.2 597.691 307.672C596.131 307.144 594.907 306.388 594.019 305.404C593.155 304.396 592.723 303.232 592.723 301.912C592.723 300.568 593.155 299.392 594.019 298.384C594.907 297.376 596.131 296.608 597.691 296.08C599.251 295.528 601.051 295.252 603.091 295.252ZM603.091 298.276C601.051 298.276 599.443 298.6 598.267 299.248C597.091 299.872 596.503 300.76 596.503 301.912C596.503 303.04 597.091 303.916 598.267 304.54C599.443 305.164 601.051 305.476 603.091 305.476C605.155 305.476 606.775 305.164 607.951 304.54C609.151 303.916 609.751 303.04 609.751 301.912C609.751 300.76 609.151 299.872 607.951 299.248C606.775 298.6 605.155 298.276 603.091 298.276ZM642.564 324.016H638.856V294.208H642.564V324.016ZM633.96 297.376C633.96 302.128 632.928 306.292 630.864 309.868C628.8 313.444 625.356 316.42 620.532 318.796L618.588 315.772C622.308 313.948 625.092 311.788 626.94 309.292C628.788 306.772 629.868 303.784 630.18 300.328H620.136V297.376H633.96ZM670.301 304.9H661.913V308.176H673.289V311.236H646.901V308.176H658.241V304.9H650.321V294.712H653.993V301.876H670.301V304.9ZM660.041 313C663.161 313 665.609 313.492 667.385 314.476C669.161 315.436 670.049 316.78 670.049 318.508C670.049 320.236 669.161 321.58 667.385 322.54C665.609 323.5 663.161 323.98 660.041 323.98C656.897 323.98 654.425 323.5 652.625 322.54C650.849 321.58 649.961 320.236 649.961 318.508C649.961 316.78 650.849 315.436 652.625 314.476C654.425 313.492 656.897 313 660.041 313ZM660.041 315.88C657.977 315.88 656.405 316.108 655.325 316.564C654.245 316.996 653.705 317.644 653.705 318.508C653.705 319.348 654.245 319.996 655.325 320.452C656.405 320.884 657.977 321.1 660.041 321.1C662.081 321.1 663.641 320.884 664.721 320.452C665.801 319.996 666.341 319.348 666.341 318.508C666.341 317.644 665.801 316.996 664.721 316.564C663.665 316.108 662.105 315.88 660.041 315.88ZM706.579 304.9H698.191V308.176H709.567V311.236H683.179V308.176H694.519V304.9H686.599V294.712H690.271V301.876H706.579V304.9ZM696.319 313C699.439 313 701.887 313.492 703.663 314.476C705.439 315.436 706.327 316.78 706.327 318.508C706.327 320.236 705.439 321.58 703.663 322.54C701.887 323.5 699.439 323.98 696.319 323.98C693.175 323.98 690.703 323.5 688.903 322.54C687.127 321.58 686.239 320.236 686.239 318.508C686.239 316.78 687.127 315.436 688.903 314.476C690.703 313.492 693.175 313 696.319 313ZM696.319 315.88C694.255 315.88 692.683 316.108 691.603 316.564C690.523 316.996 689.983 317.644 689.983 318.508C689.983 319.348 690.523 319.996 691.603 320.452C692.683 320.884 694.255 321.1 696.319 321.1C698.359 321.1 699.919 320.884 700.999 320.452C702.079 319.996 702.619 319.348 702.619 318.508C702.619 317.644 702.079 316.996 700.999 316.564C699.943 316.108 698.383 315.88 696.319 315.88ZM719.7 295.504C721.572 295.504 723.18 296.008 724.524 297.016C725.868 298.024 726.72 299.344 727.08 300.976H732.156V294.208H735.864V310.228H732.156V304H727.08C726.744 305.656 725.892 307 724.524 308.032C723.18 309.064 721.572 309.58 719.7 309.58C718.236 309.58 716.916 309.28 715.74 308.68C714.588 308.056 713.676 307.216 713.004 306.16C712.356 305.08 712.032 303.856 712.032 302.488C712.032 301.144 712.356 299.944 713.004 298.888C713.676 297.832 714.588 297.004 715.74 296.404C716.916 295.804 718.236 295.504 719.7 295.504ZM719.7 298.672C718.476 298.672 717.468 299.02 716.676 299.716C715.908 300.412 715.524 301.336 715.524 302.488C715.524 303.664 715.908 304.612 716.676 305.332C717.468 306.052 718.476 306.412 719.7 306.412C720.876 306.412 721.836 306.052 722.58 305.332C723.348 304.612 723.732 303.664 723.732 302.488C723.732 301.36 723.348 300.448 722.58 299.752C721.836 299.032 720.876 298.672 719.7 298.672ZM720.42 314.692H732.156V311.56H735.864V323.656H716.748V311.56H720.42V314.692ZM732.156 320.596V317.608H720.42V320.596H732.156Z" fill="#F5F5FA"/>
</svg>
