<svg width="1000" height="573" viewBox="0 0 1000 573" fill="none" xmlns="http://www.w3.org/2000/svg">
<path d="M641.515 307.528C645.811 307.48 649.735 307.072 653.287 306.304L653.683 309.364C649.699 310.204 645.235 310.624 640.291 310.624H637.843V296.26H641.515V307.528ZM659.407 302.776H663.403V305.872H659.407V315.664H655.735V294.244H659.407V302.776ZM660.415 323.44H640.903V313.648H644.611V320.416H660.415V323.44ZM680.448 310.912H666.516V296.656H680.448V310.912ZM670.188 307.888H676.884V299.644H670.188V307.888ZM689.124 315.484H685.452V294.244H689.124V315.484ZM689.916 323.26H669.972V313.54H673.68V320.2H689.916V323.26Z" fill="#F5F5FA"/>
<path d="M317.114 316.636H303.362V297.088H317.114V316.636ZM307.034 313.648H313.442V300.04H307.034V313.648ZM325.034 305.656H329.426V308.788H325.034V324.016H321.362V294.208H325.034V305.656ZM343.627 297.592C343.627 300.64 343.327 303.316 342.727 305.62H346.147V294.928H349.603V322.648H346.147V308.68H341.647C339.967 312.472 337.039 315.592 332.863 318.04L330.775 315.412C334.447 313.252 337.003 310.588 338.443 307.42L331.351 308.14L330.883 304.936L339.451 304.468C339.715 303.34 339.907 302.068 340.027 300.652H332.323V297.592H343.627ZM355.759 324.016H352.267V294.208H355.759V324.016ZM383.497 324.052H379.861V307.96H374.533V304.936H379.861V294.208H383.497V324.052ZM374.101 299.824H364.273V305.116H372.949V308.068H364.273V314.152C366.577 314.128 368.593 314.056 370.321 313.936C372.073 313.816 373.813 313.612 375.541 313.324L375.901 316.348C373.885 316.684 371.881 316.912 369.889 317.032C367.897 317.152 365.557 317.212 362.869 317.212H360.637V296.764H374.101V299.824Z" fill="#F5F5FA"/>
</svg>
