<svg width="1000" height="573" viewBox="0 0 1000 573" fill="none" xmlns="http://www.w3.org/2000/svg">
<path d="M648.742 311.452H622.354V308.428H633.73V305.656H625.594V295.54H645.538V298.456H629.266V302.704H645.682V305.656H637.366V308.428H648.742V311.452ZM635.494 313.108C638.638 313.108 641.086 313.588 642.838 314.548C644.614 315.508 645.502 316.852 645.502 318.58C645.502 320.308 644.614 321.64 642.838 322.576C641.062 323.536 638.614 324.016 635.494 324.016C632.35 324.016 629.878 323.536 628.078 322.576C626.302 321.64 625.414 320.308 625.414 318.58C625.414 316.852 626.302 315.508 628.078 314.548C629.878 313.588 632.35 313.108 635.494 313.108ZM635.494 316.024C633.406 316.024 631.822 316.24 630.742 316.672C629.686 317.104 629.158 317.74 629.158 318.58C629.158 320.284 631.27 321.136 635.494 321.136C639.694 321.136 641.794 320.284 641.794 318.58C641.794 317.74 641.254 317.104 640.174 316.672C639.118 316.24 637.558 316.024 635.494 316.024ZM677.127 309.22H665.787V311.416H673.887V318.796H657.579V320.884H674.643V323.764H653.943V316.132H670.251V314.26H653.871V311.416H662.079V309.22H650.811V306.268H677.127V309.22ZM673.779 304.396H654.123V295.108H673.779V304.396ZM657.759 301.48H670.107V298.06H657.759V301.48ZM703.749 316.672H700.005V313.144H694.209V310.192H700.005V294.244H703.749V316.672ZM704.397 323.44H683.193V314.368H686.829V320.416H704.397V323.44ZM679.125 305.656C684.453 305.608 688.485 305.5 691.221 305.332C691.557 303.172 691.749 300.988 691.797 298.78H681.717V295.792H695.469V296.908C695.469 299.836 695.277 302.548 694.893 305.044L697.773 304.684L698.061 307.348C695.613 307.78 693.117 308.092 690.573 308.284V314.764H686.901V308.5C684.573 308.596 682.125 308.644 679.557 308.644L679.125 305.656Z" fill="#F5F5FA"/>
<path d="M311.634 312.784H291.33V296.512H311.382V299.572H295.074V303.1H310.698V306.052H295.074V309.796H311.634V312.784ZM314.514 320.452H288.126V317.356H314.514V320.452ZM327.671 308.32H321.011V313.828C322.667 313.804 324.191 313.744 325.583 313.648C326.999 313.528 328.451 313.324 329.939 313.036L330.191 316.096C328.439 316.432 326.747 316.66 325.115 316.78C323.507 316.876 321.623 316.924 319.463 316.924H317.483V305.296H324.143V300.292H317.411V297.304H327.671V308.32ZM341.459 324.016H337.967V294.208H341.459V324.016ZM335.519 322.504H332.099V307.564H328.931V304.54H332.099V294.784H335.519V322.504ZM369.088 324.052H365.38V294.208H369.088V324.052ZM353.536 296.368C354.976 296.368 356.26 296.8 357.388 297.664C358.54 298.528 359.44 299.764 360.088 301.372C360.736 302.956 361.06 304.804 361.06 306.916C361.06 309.028 360.736 310.888 360.088 312.496C359.44 314.08 358.54 315.304 357.388 316.168C356.26 317.032 354.976 317.464 353.536 317.464C352.072 317.464 350.764 317.032 349.612 316.168C348.46 315.304 347.56 314.08 346.912 312.496C346.264 310.888 345.94 309.028 345.94 306.916C345.94 304.804 346.264 302.956 346.912 301.372C347.56 299.764 348.46 298.528 349.612 297.664C350.764 296.8 352.072 296.368 353.536 296.368ZM353.536 299.752C352.288 299.752 351.304 300.388 350.584 301.66C349.864 302.908 349.504 304.66 349.504 306.916C349.504 309.148 349.864 310.9 350.584 312.172C351.304 313.42 352.288 314.044 353.536 314.044C354.736 314.044 355.696 313.42 356.416 312.172C357.136 310.9 357.496 309.148 357.496 306.916C357.496 304.684 357.136 302.932 356.416 301.66C355.696 300.388 354.736 299.752 353.536 299.752ZM397.761 324.052H394.089V306.664H385.917V303.604H394.089V294.208H397.761V324.052ZM378.717 313.828C383.013 313.756 386.913 313.372 390.417 312.676L390.777 315.772C388.641 316.228 386.505 316.54 384.369 316.708C382.257 316.876 379.941 316.96 377.421 316.96H375.009V297.448H378.717V313.828Z" fill="#F5F5FA"/>
</svg>
