<svg width="1000" height="573" viewBox="0 0 1000 573" fill="none" xmlns="http://www.w3.org/2000/svg">
<path d="M329.435 296.116C329.435 300.004 328.547 303.304 326.771 306.016C325.019 308.704 322.199 310.876 318.311 312.532L316.583 309.76C318.335 309.04 319.811 308.236 321.011 307.348C322.211 306.46 323.183 305.452 323.927 304.324L317.231 305.08L316.727 302.056L325.223 301.588C325.487 300.748 325.655 299.932 325.727 299.14H317.987V296.116H329.435ZM341.279 311.668H337.787V304.396H334.907V311.452H331.451V294.784H334.907V301.336H337.787V294.244H341.279V311.668ZM341.279 323.656H321.803V312.928H341.279V323.656ZM325.403 320.632H337.679V315.916H325.403V320.632ZM361.78 300.004H358.828V313.54C360.412 313.42 361.648 313.3 362.536 313.18L362.752 315.916C360.136 316.372 357.376 316.684 354.472 316.852C351.568 316.996 348.496 317.068 345.256 317.068L344.896 313.972L348.316 313.936V300.004H345.688V296.98H361.78V300.004ZM369.268 324.016H365.632V308.176H360.916V305.152H365.632V294.208H369.268V324.016ZM351.88 313.864C352.984 313.864 354.124 313.828 355.3 313.756V300.004H351.88V313.864Z" fill="#F5F5FA"/>
<path d="M648.742 311.452H622.354V308.428H633.73V305.656H625.594V295.54H645.538V298.456H629.266V302.704H645.682V305.656H637.366V308.428H648.742V311.452ZM635.494 313.108C638.638 313.108 641.086 313.588 642.838 314.548C644.614 315.508 645.502 316.852 645.502 318.58C645.502 320.308 644.614 321.64 642.838 322.576C641.062 323.536 638.614 324.016 635.494 324.016C632.35 324.016 629.878 323.536 628.078 322.576C626.302 321.64 625.414 320.308 625.414 318.58C625.414 316.852 626.302 315.508 628.078 314.548C629.878 313.588 632.35 313.108 635.494 313.108ZM635.494 316.024C633.406 316.024 631.822 316.24 630.742 316.672C629.686 317.104 629.158 317.74 629.158 318.58C629.158 320.284 631.27 321.136 635.494 321.136C639.694 321.136 641.794 320.284 641.794 318.58C641.794 317.74 641.254 317.104 640.174 316.672C639.118 316.24 637.558 316.024 635.494 316.024ZM677.127 309.22H665.787V311.416H673.887V318.796H657.579V320.884H674.643V323.764H653.943V316.132H670.251V314.26H653.871V311.416H662.079V309.22H650.811V306.268H677.127V309.22ZM673.779 304.396H654.123V295.108H673.779V304.396ZM657.759 301.48H670.107V298.06H657.759V301.48ZM703.749 316.672H700.005V313.144H694.209V310.192H700.005V294.244H703.749V316.672ZM704.397 323.44H683.193V314.368H686.829V320.416H704.397V323.44ZM679.125 305.656C684.453 305.608 688.485 305.5 691.221 305.332C691.557 303.172 691.749 300.988 691.797 298.78H681.717V295.792H695.469V296.908C695.469 299.836 695.277 302.548 694.893 305.044L697.773 304.684L698.061 307.348C695.613 307.78 693.117 308.092 690.573 308.284V314.764H686.901V308.5C684.573 308.596 682.125 308.644 679.557 308.644L679.125 305.656Z" fill="#F5F5FA"/>
</svg>
