<svg width="1000" height="573" viewBox="0 0 1000 573" fill="none" xmlns="http://www.w3.org/2000/svg">
<path d="M628.3 315.736H624.592V294.244H628.3V315.736ZM629.056 323.44H609.148V313.576H612.856V320.416H629.056V323.44ZM612.532 296.188C613.996 296.188 615.316 296.512 616.492 297.16C617.692 297.784 618.628 298.672 619.3 299.824C619.996 300.952 620.344 302.224 620.344 303.64C620.344 305.08 619.996 306.376 619.3 307.528C618.628 308.656 617.692 309.544 616.492 310.192C615.316 310.816 613.996 311.128 612.532 311.128C611.068 311.128 609.736 310.816 608.536 310.192C607.36 309.544 606.424 308.656 605.728 307.528C605.056 306.376 604.72 305.08 604.72 303.64C604.72 302.224 605.056 300.952 605.728 299.824C606.424 298.696 607.372 297.808 608.572 297.16C609.772 296.512 611.092 296.188 612.532 296.188ZM612.532 299.464C611.308 299.464 610.3 299.848 609.508 300.616C608.716 301.384 608.32 302.392 608.32 303.64C608.32 304.912 608.716 305.932 609.508 306.7C610.3 307.468 611.308 307.852 612.532 307.852C613.732 307.852 614.728 307.468 615.52 306.7C616.312 305.932 616.708 304.912 616.708 303.64C616.708 302.392 616.312 301.384 615.52 300.616C614.728 299.848 613.732 299.464 612.532 299.464ZM657.153 316.672H653.409V313.144H647.613V310.192H653.409V294.244H657.153V316.672ZM657.801 323.44H636.597V314.368H640.233V320.416H657.801V323.44ZM632.529 305.656C637.857 305.608 641.889 305.5 644.625 305.332C644.961 303.172 645.153 300.988 645.201 298.78H635.121V295.792H648.873V296.908C648.873 299.836 648.681 302.548 648.297 305.044L651.177 304.684L651.465 307.348C649.017 307.78 646.521 308.092 643.977 308.284V314.764H640.305V308.5C637.977 308.596 635.529 308.644 632.961 308.644L632.529 305.656ZM691.882 301.408H695.734V304.54H691.882V311.776H688.21V294.208H691.882V301.408ZM691.882 319.372H676.258V321.208H692.89V323.764H672.586V317.068H688.246V315.412H672.55V312.928H691.882V319.372ZM668.734 308.68C671.782 308.68 674.17 308.656 675.898 308.608V307.168C674.29 306.976 673.018 306.556 672.082 305.908C671.17 305.236 670.714 304.372 670.714 303.316C670.714 302.116 671.338 301.168 672.586 300.472C673.858 299.776 675.562 299.428 677.698 299.428C679.834 299.428 681.538 299.776 682.81 300.472C684.082 301.144 684.718 302.092 684.718 303.316C684.718 304.372 684.262 305.236 683.35 305.908C682.438 306.556 681.19 306.976 679.606 307.168V308.5C682.486 308.332 684.874 308.116 686.77 307.852L687.022 310.228C684.334 310.684 681.55 310.984 678.67 311.128C675.79 311.248 672.598 311.308 669.094 311.308L668.734 308.68ZM686.014 298.744H669.454V296.224H675.898V293.956H679.606V296.224H686.014V298.744ZM677.698 301.804C676.618 301.804 675.766 301.936 675.142 302.2C674.542 302.464 674.242 302.836 674.242 303.316C674.242 303.82 674.542 304.204 675.142 304.468C675.766 304.732 676.618 304.864 677.698 304.864C678.826 304.864 679.69 304.732 680.29 304.468C680.89 304.204 681.19 303.82 681.19 303.316C681.19 302.836 680.89 302.464 680.29 302.2C679.69 301.936 678.826 301.804 677.698 301.804ZM723.795 311.452H697.407V308.428H708.783V305.656H700.647V295.54H720.591V298.456H704.319V302.704H720.735V305.656H712.419V308.428H723.795V311.452ZM710.547 313.108C713.691 313.108 716.139 313.588 717.891 314.548C719.667 315.508 720.555 316.852 720.555 318.58C720.555 320.308 719.667 321.64 717.891 322.576C716.115 323.536 713.667 324.016 710.547 324.016C707.403 324.016 704.931 323.536 703.131 322.576C701.355 321.64 700.467 320.308 700.467 318.58C700.467 316.852 701.355 315.508 703.131 314.548C704.931 313.588 707.403 313.108 710.547 313.108ZM710.547 316.024C708.459 316.024 706.875 316.24 705.795 316.672C704.739 317.104 704.211 317.74 704.211 318.58C704.211 320.284 706.323 321.136 710.547 321.136C714.747 321.136 716.847 320.284 716.847 318.58C716.847 317.74 716.307 317.104 715.227 316.672C714.171 316.24 712.611 316.024 710.547 316.024Z" fill="#F5F5FA"/>
<path d="M328.742 320.416H302.354V317.32H308.438V309.832C307.286 309.136 306.386 308.26 305.738 307.204C305.09 306.148 304.766 304.972 304.766 303.676C304.766 302.116 305.222 300.748 306.134 299.572C307.07 298.372 308.354 297.448 309.986 296.8C311.618 296.128 313.466 295.792 315.53 295.792C317.594 295.792 319.442 296.128 321.074 296.8C322.73 297.448 324.014 298.372 324.926 299.572C325.862 300.748 326.33 302.116 326.33 303.676C326.33 304.948 326.006 306.112 325.358 307.168C324.734 308.2 323.858 309.064 322.73 309.76V317.32H328.742V320.416ZM315.53 298.744C313.37 298.744 311.642 299.188 310.346 300.076C309.05 300.964 308.402 302.164 308.402 303.676C308.402 305.188 309.05 306.4 310.346 307.312C311.642 308.2 313.37 308.644 315.53 308.644C317.666 308.644 319.394 308.2 320.714 307.312C322.058 306.4 322.73 305.188 322.73 303.676C322.73 302.164 322.058 300.964 320.714 300.076C319.394 299.188 317.666 298.744 315.53 298.744ZM319.022 317.32V311.2C317.87 311.44 316.706 311.56 315.53 311.56C314.282 311.56 313.13 311.44 312.074 311.2V317.32H319.022ZM354.931 324.052H351.223V294.208H354.931V324.052ZM346.003 308.032H336.175V313.936C338.647 313.912 340.879 313.828 342.871 313.684C344.863 313.54 346.915 313.276 349.027 312.892L349.315 315.952C347.059 316.36 344.815 316.636 342.583 316.78C340.375 316.924 337.831 316.996 334.951 316.996H332.395V305.08H342.223V299.824H332.359V296.764H346.003V308.032ZM369.673 301.264C369.673 304.024 370.285 306.604 371.509 309.004C372.733 311.404 374.437 313.144 376.621 314.224L374.389 317.248C372.877 316.456 371.569 315.328 370.465 313.864C369.361 312.4 368.497 310.708 367.873 308.788C367.225 310.852 366.313 312.664 365.137 314.224C363.961 315.784 362.569 316.984 360.961 317.824L358.765 314.728C360.277 313.984 361.573 312.916 362.653 311.524C363.757 310.108 364.585 308.512 365.137 306.736C365.713 304.96 366.001 303.136 366.001 301.264V296.584H369.673V301.264ZM381.949 305.836H386.305V309.076H381.949V324.016H378.277V294.208H381.949V305.836Z" fill="#F5F5FA"/>
</svg>
