<svg width="1000" height="573" viewBox="0 0 1000 573" fill="none" xmlns="http://www.w3.org/2000/svg">
<path d="M300.582 299.284H292.77V302.092H300.294V304.972H292.77V307.996C294.594 307.972 296.154 307.912 297.45 307.816C298.746 307.72 300.054 307.552 301.374 307.312L301.77 310.372C300.186 310.66 298.614 310.852 297.054 310.948C295.518 311.044 293.55 311.092 291.15 311.092H289.242V296.26H300.582V299.284ZM312.822 312.352H309.366V304.684H306.45V312.172H303.03V294.784H306.45V301.624H309.366V294.244H312.822V312.352ZM312.822 324.016H309.186V316.708H293.022V313.72H312.822V324.016ZM320.939 303.748H325.475V296.908H328.895V316.852H317.483V296.908H320.939V303.748ZM325.475 313.792V306.736H320.939V313.792H325.475ZM341.531 324.016H338.003V308.788H335.015V322.576H331.559V294.712H335.015V305.692H338.003V294.208H341.531V324.016ZM369.16 324.016H365.452V294.208H369.16V324.016ZM360.556 297.376C360.556 302.128 359.524 306.292 357.46 309.868C355.396 313.444 351.952 316.42 347.128 318.796L345.184 315.772C348.904 313.948 351.688 311.788 353.536 309.292C355.384 306.772 356.464 303.784 356.776 300.328H346.732V297.376H360.556ZM383.901 301.264C383.901 304.024 384.513 306.604 385.737 309.004C386.961 311.404 388.665 313.144 390.849 314.224L388.617 317.248C387.105 316.456 385.797 315.328 384.693 313.864C383.589 312.4 382.725 310.708 382.101 308.788C381.453 310.852 380.541 312.664 379.365 314.224C378.189 315.784 376.797 316.984 375.189 317.824L372.993 314.728C374.505 313.984 375.801 312.916 376.881 311.524C377.985 310.108 378.813 308.512 379.365 306.736C379.941 304.96 380.229 303.136 380.229 301.264V296.584H383.901V301.264ZM396.177 305.836H400.533V309.076H396.177V324.016H392.505V294.208H396.177V305.836Z" fill="#F5F5FA"/>
<path d="M604.193 303.604C604.193 305.908 604.781 308.128 605.957 310.264C607.133 312.4 608.789 313.996 610.925 315.052L608.945 317.86C607.433 317.14 606.113 316.096 604.985 314.728C603.857 313.336 602.981 311.752 602.357 309.976C601.733 311.896 600.821 313.6 599.621 315.088C598.445 316.552 597.065 317.656 595.481 318.4L593.465 315.484C594.929 314.788 596.189 313.816 597.245 312.568C598.325 311.296 599.141 309.88 599.693 308.32C600.245 306.76 600.521 305.188 600.521 303.604V302.164H594.365V299.14H600.485V294.856H604.193V299.14H610.169V302.164H604.193V303.604ZM616.577 305.98H620.933V309.112H616.577V324.016H612.905V294.208H616.577V305.98ZM646.582 309.58H642.91V306.412H637.222V308.644H623.686V295.504H627.358V299.212H633.586V295.504H637.222V298.132H642.91V294.208H646.582V309.58ZM646.582 318.508H631.21V320.668H647.482V323.656H627.538V315.736H642.91V313.756H627.502V310.804H646.582V318.508ZM633.586 305.656V302.092H627.358V305.656H633.586ZM642.91 303.532V300.94H637.222V303.532H642.91ZM674.031 297.952C674.031 299.56 673.983 300.988 673.887 302.236C673.815 303.46 673.623 304.852 673.311 306.412H677.199V309.436H650.811V306.412H669.603C669.915 304.996 670.119 303.688 670.215 302.488C670.311 301.264 670.359 299.992 670.359 298.672H654.087V295.612H674.031V297.952ZM673.959 323.656H653.979V312.856H673.959V323.656ZM657.615 320.632H670.287V315.808H657.615V320.632ZM690.213 302.596C690.213 304.252 690.501 305.884 691.077 307.492C691.677 309.076 692.529 310.504 693.633 311.776C694.737 313.048 696.045 314.008 697.557 314.656L695.613 317.644C693.957 316.9 692.505 315.808 691.257 314.368C690.033 312.904 689.085 311.212 688.413 309.292C687.741 311.356 686.793 313.192 685.569 314.8C684.345 316.384 682.905 317.584 681.249 318.4L679.125 315.376C680.613 314.68 681.909 313.66 683.013 312.316C684.141 310.948 684.993 309.412 685.569 307.708C686.169 306.004 686.469 304.3 686.469 302.596V300.22H680.169V297.16H696.513V300.22H690.213V302.596ZM703.317 324.016H699.609V294.208H703.317V324.016ZM712.694 299.752H718.958V295.756H722.594V301.192H728.246V294.208H731.954V310.516H728.246V304.252H722.594V309.58H709.022V295.756H712.694V299.752ZM718.958 306.556V302.668H712.694V306.556H718.958ZM716.51 314.764H728.246V311.812H731.954V323.584H712.874V311.812H716.51V314.764ZM728.246 320.56V317.716H716.51V320.56H728.246Z" fill="#F5F5FA"/>
</svg>
