<svg width="1000" height="527" viewBox="0 0 1000 527" fill="none" xmlns="http://www.w3.org/2000/svg">
<path d="M73.5509 249.582C73.5509 251.168 73.7509 252.568 74.1509 253.782C74.5509 254.995 75.2709 255.955 76.3109 256.662L74.9109 258.762C73.6709 257.975 72.7842 256.735 72.2509 255.042C71.6375 256.948 70.6775 258.315 69.3709 259.142L67.7709 257.102C69.8909 255.742 70.9509 253.275 70.9509 249.702V246.962H73.5509V249.582ZM82.4109 262.402H79.8509V245.582H82.4109V262.402ZM78.9509 261.622H76.4709V253.302H74.6509V251.122H76.4709V245.782H78.9509V261.622ZM90.0773 248.202C90.0773 249.255 90.3639 250.202 90.9373 251.042C91.5106 251.868 92.4173 252.468 93.6573 252.842L92.3173 254.942C90.6906 254.408 89.5106 253.428 88.7773 252.002C88.0173 253.708 86.7573 254.848 84.9973 255.422L83.5973 253.302C84.9306 252.848 85.8973 252.148 86.4973 251.202C87.0973 250.242 87.3973 249.148 87.3973 247.922V246.502H90.0773V248.202ZM96.9773 249.342H99.0773V251.562H96.9773V255.442H94.3373V245.582H96.9773V249.342ZM91.5373 255.742C93.2706 255.742 94.6373 256.042 95.6373 256.642C96.6506 257.228 97.1573 258.042 97.1573 259.082C97.1573 260.122 96.6506 260.935 95.6373 261.522C94.6373 262.108 93.2706 262.402 91.5373 262.402C89.7773 262.402 88.3906 262.108 87.3773 261.522C86.3639 260.935 85.8573 260.122 85.8573 259.082C85.8573 258.042 86.3639 257.228 87.3773 256.642C88.4039 256.042 89.7906 255.742 91.5373 255.742ZM91.5373 257.862C89.5106 257.862 88.4973 258.268 88.4973 259.082C88.4973 259.508 88.7506 259.822 89.2573 260.022C89.7639 260.208 90.5239 260.302 91.5373 260.302C92.5506 260.302 93.2973 260.208 93.7773 260.022C94.2706 259.822 94.5173 259.508 94.5173 259.082C94.5173 258.268 93.5239 257.862 91.5373 257.862ZM107.144 245.802C109.064 245.802 110.544 246.048 111.584 246.542C112.637 247.035 113.164 247.742 113.164 248.662C113.164 249.568 112.637 250.268 111.584 250.762C110.53 251.255 109.05 251.502 107.144 251.502C105.21 251.502 103.724 251.255 102.684 250.762C101.644 250.268 101.124 249.568 101.124 248.662C101.124 247.728 101.644 247.022 102.684 246.542C103.724 246.048 105.21 245.802 107.144 245.802ZM107.144 247.762C106.01 247.762 105.177 247.835 104.644 247.982C104.124 248.128 103.864 248.355 103.864 248.662C103.864 248.995 104.11 249.222 104.604 249.342C105.11 249.462 105.957 249.522 107.144 249.522C108.33 249.522 109.17 249.462 109.664 249.342C110.17 249.222 110.424 248.995 110.424 248.662C110.424 248.355 110.164 248.128 109.644 247.982C109.124 247.835 108.29 247.762 107.144 247.762ZM114.604 254.322H99.6437V252.182H114.604V254.322ZM112.844 259.582H103.964V260.282H113.224V262.302H101.344V257.702H110.224V257.042H101.344V255.082H112.844V259.582ZM134.497 260.482H119.497V258.302H125.657V255.122H121.037V246.762H132.917V255.122H128.297V258.302H134.497V260.482ZM123.657 253.002H130.317V248.922H123.657V253.002ZM148.563 253.542H137.123V246.422H148.443V248.562H139.823V251.462H148.563V253.542ZM150.243 257.182H144.023V262.382H141.383V257.182H135.243V255.042H150.243V257.182ZM165.33 262.402H162.77V245.582H165.33V262.402ZM161.83 261.622H159.35V253.822H158.35C158.256 255.462 157.89 256.748 157.25 257.682C156.61 258.615 155.776 259.082 154.75 259.082C154.016 259.082 153.376 258.835 152.83 258.342C152.296 257.835 151.883 257.115 151.59 256.182C151.296 255.248 151.15 254.142 151.15 252.862C151.15 251.595 151.296 250.502 151.59 249.582C151.883 248.648 152.296 247.935 152.83 247.442C153.376 246.948 154.016 246.702 154.75 246.702C155.736 246.702 156.55 247.142 157.19 248.022C157.83 248.888 158.216 250.102 158.35 251.662H159.35V245.782H161.83V261.622ZM154.75 249.262C153.976 249.262 153.59 250.462 153.59 252.862C153.59 255.275 153.976 256.482 154.75 256.482C155.15 256.482 155.45 256.195 155.65 255.622C155.85 255.035 155.95 254.115 155.95 252.862C155.95 251.622 155.85 250.715 155.65 250.142C155.45 249.555 155.15 249.262 154.75 249.262ZM181.076 262.402H178.576V245.582H181.076V262.402ZM177.556 261.702H175.096V254.002H172.776C171.843 255.962 170.256 257.608 168.016 258.942L166.516 257.042C168.103 256.082 169.269 255.022 170.016 253.862C170.776 252.702 171.229 251.302 171.376 249.662H167.516V247.502H173.996C173.996 249.168 173.836 250.635 173.516 251.902H175.096V245.942H177.556V261.702ZM9.01805 279.182H4.23805V286.222C6.30471 286.182 8.14471 286.022 9.75805 285.742L10.058 287.902C9.01805 288.102 7.95805 288.242 6.87805 288.322C5.81138 288.388 4.49805 288.422 2.93805 288.422H1.53805V277.022H9.01805V279.182ZM14.738 292.442H12.098V283.482H8.27805V281.302H12.098V275.582H14.738V292.442ZM34.5512 285.542H31.9112V281.742H29.6712V279.562H31.9112V275.582H34.5512V285.542ZM28.8912 285.882C30.6645 285.882 32.0512 286.168 33.0512 286.742C34.0645 287.315 34.5712 288.122 34.5712 289.162C34.5712 290.175 34.0645 290.968 33.0512 291.542C32.0512 292.128 30.6645 292.422 28.8912 292.422C27.1178 292.422 25.7245 292.135 24.7112 291.562C23.7112 290.988 23.2112 290.188 23.2112 289.162C23.2112 288.122 23.7112 287.315 24.7112 286.742C25.7112 286.168 27.1045 285.882 28.8912 285.882ZM28.8912 287.922C27.8645 287.922 27.0912 288.022 26.5712 288.222C26.0645 288.422 25.8112 288.735 25.8112 289.162C25.8112 289.575 26.0645 289.882 26.5712 290.082C27.0912 290.282 27.8645 290.382 28.8912 290.382C29.9178 290.382 30.6845 290.282 31.1912 290.082C31.6978 289.882 31.9512 289.575 31.9512 289.162C31.9512 288.735 31.6978 288.422 31.1912 288.222C30.6845 288.022 29.9178 287.922 28.8912 287.922ZM30.1112 278.662H27.0512C27.1312 279.622 27.4645 280.502 28.0512 281.302C28.6512 282.088 29.5312 282.682 30.6912 283.082L29.3912 285.222C27.7245 284.662 26.5045 283.615 25.7312 282.082C24.9445 283.828 23.6445 285.002 21.8312 285.602L20.4912 283.502C21.7445 283.075 22.6712 282.428 23.2712 281.562C23.8845 280.695 24.2245 279.728 24.2912 278.662H21.2112V276.522H30.1112V278.662ZM41.6976 276.662C42.5642 276.662 43.3442 276.842 44.0376 277.202C44.7442 277.562 45.2976 278.062 45.6976 278.702C46.1109 279.342 46.3176 280.062 46.3176 280.862C46.3176 281.662 46.1109 282.382 45.6976 283.022C45.2976 283.662 44.7442 284.162 44.0376 284.522C43.3442 284.882 42.5642 285.062 41.6976 285.062C40.8442 285.062 40.0642 284.882 39.3576 284.522C38.6642 284.162 38.1109 283.662 37.6976 283.022C37.2976 282.382 37.0976 281.662 37.0976 280.862C37.0976 280.062 37.2976 279.342 37.6976 278.702C38.1109 278.062 38.6642 277.562 39.3576 277.202C40.0642 276.842 40.8442 276.662 41.6976 276.662ZM41.6976 278.982C41.1242 278.982 40.6509 279.148 40.2776 279.482C39.9042 279.815 39.7176 280.275 39.7176 280.862C39.7176 281.462 39.9042 281.928 40.2776 282.262C40.6509 282.582 41.1242 282.742 41.6976 282.742C42.2842 282.742 42.7642 282.582 43.1376 282.262C43.5109 281.928 43.6976 281.462 43.6976 280.862C43.6976 280.275 43.5109 279.815 43.1376 279.482C42.7642 279.148 42.2842 278.982 41.6976 278.982ZM50.3176 292.442H47.6576V275.582H50.3176V292.442ZM36.4776 286.922C38.4242 286.922 40.2576 286.888 41.9776 286.822C43.6976 286.755 45.3109 286.615 46.8176 286.402L46.9976 288.362C45.4109 288.682 43.7909 288.888 42.1376 288.982C40.4976 289.075 38.7042 289.122 36.7576 289.122L36.4776 286.922ZM67.164 290.622H52.164V288.422H58.324V286.122H53.864V280.282H62.864V278.782H53.844V276.622H65.524V282.382H56.504V283.942H65.884V286.122H60.964V288.422H67.164V290.622ZM82.9104 285.762H76.8904V288.462H74.2304V285.762H67.9104V283.662H82.9104V285.762ZM81.2704 292.122H69.6704V287.062H72.3304V289.982H81.2704V292.122ZM75.4304 275.842C76.6171 275.842 77.6571 275.988 78.5504 276.282C79.4571 276.575 80.1571 276.988 80.6504 277.522C81.1437 278.042 81.3904 278.655 81.3904 279.362C81.3904 280.082 81.1437 280.708 80.6504 281.242C80.1571 281.762 79.4637 282.168 78.5704 282.462C77.6771 282.742 76.6304 282.882 75.4304 282.882C74.2437 282.882 73.1971 282.742 72.2904 282.462C71.3837 282.168 70.6837 281.762 70.1904 281.242C69.6971 280.708 69.4504 280.082 69.4504 279.362C69.4504 278.668 69.6971 278.055 70.1904 277.522C70.6971 276.988 71.3971 276.575 72.2904 276.282C73.1971 275.988 74.2437 275.842 75.4304 275.842ZM75.4304 277.982C74.4304 277.982 73.6571 278.095 73.1104 278.322C72.5637 278.548 72.2904 278.895 72.2904 279.362C72.2904 279.815 72.5571 280.155 73.0904 280.382C73.6371 280.608 74.4171 280.722 75.4304 280.722C77.5104 280.722 78.5504 280.268 78.5504 279.362C78.5504 278.895 78.2771 278.548 77.7304 278.322C77.1971 278.095 76.4304 277.982 75.4304 277.982ZM95.4435 285.782C97.1769 285.782 98.5435 286.075 99.5435 286.662C100.557 287.248 101.064 288.055 101.064 289.082C101.064 290.122 100.557 290.935 99.5435 291.522C98.5435 292.122 97.1769 292.422 95.4435 292.422C93.6969 292.422 92.3169 292.122 91.3035 291.522C90.2902 290.935 89.7835 290.122 89.7835 289.082C89.7835 288.042 90.2902 287.235 91.3035 286.662C92.3169 286.075 93.6969 285.782 95.4435 285.782ZM95.4435 287.842C94.4302 287.842 93.6769 287.942 93.1835 288.142C92.6902 288.342 92.4435 288.655 92.4435 289.082C92.4435 289.522 92.6902 289.842 93.1835 290.042C93.6902 290.242 94.4435 290.342 95.4435 290.342C96.4569 290.342 97.2102 290.242 97.7035 290.042C98.1969 289.842 98.4435 289.522 98.4435 289.082C98.4435 288.642 98.1969 288.328 97.7035 288.142C97.2235 287.942 96.4702 287.842 95.4435 287.842ZM100.864 279.382H103.004V281.602H100.864V285.382H98.2435V275.582H100.864V279.382ZM90.8435 278.602H93.6035V276.642H96.2635V284.562H88.2035V276.642H90.8435V278.602ZM93.6035 282.482V280.662H90.8435V282.482H93.6035ZM118.65 280.002H116.65V281.482H118.65V283.662H116.65V286.182H114.01V275.582H116.65V277.802H118.65V280.002ZM111.23 286.362C112.95 286.362 114.31 286.635 115.31 287.182C116.323 287.715 116.83 288.455 116.83 289.402C116.83 290.015 116.597 290.548 116.13 291.002C115.677 291.442 115.03 291.782 114.19 292.022C113.35 292.275 112.363 292.402 111.23 292.402C109.497 292.402 108.123 292.128 107.11 291.582C106.11 291.048 105.61 290.322 105.61 289.402C105.61 288.455 106.11 287.715 107.11 287.182C108.123 286.635 109.497 286.362 111.23 286.362ZM111.23 288.402C110.203 288.402 109.45 288.482 108.97 288.642C108.49 288.788 108.25 289.042 108.25 289.402C108.25 289.735 108.49 289.988 108.97 290.162C109.463 290.322 110.217 290.402 111.23 290.402C113.177 290.402 114.15 290.068 114.15 289.402C114.15 289.055 113.91 288.802 113.43 288.642C112.95 288.482 112.217 288.402 111.23 288.402ZM113.27 279.162H103.53V277.062H107.09V275.482H109.77V277.062H113.27V279.162ZM108.43 279.602C109.203 279.602 109.897 279.735 110.51 280.002C111.137 280.255 111.623 280.615 111.97 281.082C112.317 281.548 112.49 282.075 112.49 282.662C112.49 283.248 112.317 283.775 111.97 284.242C111.623 284.695 111.143 285.048 110.53 285.302C109.917 285.555 109.217 285.682 108.43 285.682C107.63 285.682 106.917 285.555 106.29 285.302C105.663 285.048 105.177 284.695 104.83 284.242C104.483 283.775 104.31 283.248 104.31 282.662C104.31 282.062 104.483 281.535 104.83 281.082C105.177 280.615 105.663 280.255 106.29 280.002C106.917 279.735 107.63 279.602 108.43 279.602ZM108.43 281.582C107.95 281.582 107.57 281.675 107.29 281.862C107.023 282.035 106.89 282.302 106.89 282.662C106.89 283.008 107.023 283.275 107.29 283.462C107.57 283.635 107.95 283.722 108.43 283.722C108.91 283.722 109.283 283.635 109.55 283.462C109.817 283.275 109.95 283.008 109.95 282.662C109.95 282.302 109.817 282.035 109.55 281.862C109.283 281.675 108.91 281.582 108.43 281.582ZM126.816 276.342C127.976 276.342 129.03 276.548 129.976 276.962C130.936 277.375 131.69 277.955 132.236 278.702C132.796 279.448 133.076 280.302 133.076 281.262C133.076 282.235 132.796 283.095 132.236 283.842C131.69 284.588 130.936 285.168 129.976 285.582C129.03 285.982 127.976 286.182 126.816 286.182C125.656 286.182 124.603 285.982 123.656 285.582C122.723 285.168 121.983 284.588 121.436 283.842C120.89 283.095 120.616 282.235 120.616 281.262C120.616 280.302 120.89 279.448 121.436 278.702C121.983 277.955 122.723 277.375 123.656 276.962C124.603 276.548 125.656 276.342 126.816 276.342ZM126.816 278.522C125.736 278.522 124.856 278.768 124.176 279.262C123.51 279.742 123.176 280.408 123.176 281.262C123.176 282.115 123.51 282.782 124.176 283.262C124.856 283.742 125.736 283.982 126.816 283.982C127.896 283.982 128.77 283.742 129.436 283.262C130.116 282.782 130.456 282.115 130.456 281.262C130.456 280.408 130.116 279.742 129.436 279.262C128.77 278.768 127.896 278.522 126.816 278.522ZM134.316 290.422H119.316V288.222H134.316V290.422ZM150.083 290.622H135.083V288.422H141.243V286.122H136.783V280.282H145.783V278.782H136.763V276.622H148.443V282.382H139.423V283.942H148.803V286.122H143.883V288.422H150.083V290.622ZM162.436 275.782C164.289 275.782 165.756 276.075 166.836 276.662C167.916 277.248 168.456 278.048 168.456 279.062C168.456 280.062 167.916 280.848 166.836 281.422C165.756 281.995 164.289 282.282 162.436 282.282C160.596 282.282 159.129 281.995 158.036 281.422C156.956 280.848 156.416 280.062 156.416 279.062C156.416 278.395 156.663 277.815 157.156 277.322C157.649 276.828 158.349 276.448 159.256 276.182C160.163 275.915 161.223 275.782 162.436 275.782ZM162.436 277.842C160.236 277.842 159.136 278.248 159.136 279.062C159.136 279.848 160.236 280.242 162.436 280.242C164.623 280.242 165.716 279.848 165.716 279.062C165.716 278.248 164.623 277.842 162.436 277.842ZM168.136 292.222H156.656V286.422H161.056V285.142H154.936V283.002H169.896V285.142H163.736V286.422H168.136V292.222ZM159.256 290.082H165.536V288.542H159.256V290.082ZM184.502 285.682H181.862V275.582H184.502V285.682ZM184.502 292.402H181.862V288.522H173.162V286.382H184.502V292.402ZM180.402 278.622H177.322C177.376 279.595 177.702 280.488 178.302 281.302C178.916 282.115 179.836 282.715 181.062 283.102L179.762 285.162C178.042 284.628 176.789 283.588 176.002 282.042C175.202 283.735 173.889 284.875 172.062 285.462L170.722 283.402C171.962 283.002 172.902 282.368 173.542 281.502C174.182 280.622 174.529 279.662 174.582 278.622H171.422V276.482H180.402V278.622ZM200.269 292.442H197.609V275.582H200.269V292.442ZM191.309 276.702C192.135 276.702 192.882 276.948 193.549 277.442C194.215 277.935 194.735 278.642 195.109 279.562C195.495 280.482 195.689 281.548 195.689 282.762C195.689 283.988 195.495 285.062 195.109 285.982C194.735 286.888 194.215 287.588 193.549 288.082C192.895 288.575 192.149 288.822 191.309 288.822C190.469 288.822 189.709 288.575 189.029 288.082C188.362 287.588 187.835 286.882 187.449 285.962C187.075 285.042 186.889 283.975 186.889 282.762C186.889 281.548 187.075 280.482 187.449 279.562C187.835 278.642 188.362 277.935 189.029 277.442C189.709 276.948 190.469 276.702 191.309 276.702ZM191.309 279.142C190.722 279.142 190.269 279.448 189.949 280.062C189.629 280.675 189.469 281.575 189.469 282.762C189.469 283.935 189.629 284.828 189.949 285.442C190.269 286.042 190.722 286.342 191.309 286.342C191.869 286.342 192.309 286.042 192.629 285.442C192.962 284.828 193.129 283.935 193.129 282.762C193.129 281.575 192.962 280.675 192.629 280.062C192.309 279.448 191.869 279.142 191.309 279.142ZM215.575 282.042H204.055V276.162H206.675V279.962H215.575V282.042ZM217.215 285.782H202.215V283.702H217.215V285.782ZM215.655 292.042H203.855V287.022H206.555V289.902H215.655V292.042ZM226.768 276.002C227.608 276.002 228.362 276.175 229.028 276.522C229.708 276.855 230.242 277.322 230.628 277.922C231.015 278.508 231.208 279.168 231.208 279.902C231.208 280.648 231.015 281.315 230.628 281.902C230.242 282.488 229.708 282.948 229.028 283.282C228.362 283.602 227.608 283.762 226.768 283.762C225.928 283.762 225.168 283.602 224.488 283.282C223.822 282.948 223.295 282.488 222.908 281.902C222.522 281.315 222.328 280.648 222.328 279.902C222.328 279.168 222.522 278.508 222.908 277.922C223.295 277.322 223.822 276.855 224.488 276.522C225.168 276.175 225.928 276.002 226.768 276.002ZM226.768 278.222C226.195 278.222 225.735 278.368 225.388 278.662C225.042 278.955 224.868 279.368 224.868 279.902C224.868 280.448 225.042 280.868 225.388 281.162C225.735 281.442 226.195 281.582 226.768 281.582C227.328 281.582 227.782 281.442 228.128 281.162C228.475 280.868 228.648 280.448 228.648 279.902C228.648 279.368 228.475 278.955 228.128 278.662C227.782 278.368 227.328 278.222 226.768 278.222ZM235.908 283.902H233.248V275.582H235.908V283.902ZM235.908 289.342H227.388V290.122H236.248V292.222H224.808V287.382H233.268V286.622H224.748V284.562H235.908V289.342ZM238.535 289.822C238.535 289.368 238.681 288.995 238.975 288.702C239.281 288.408 239.681 288.262 240.175 288.262C240.655 288.262 241.041 288.408 241.335 288.702C241.641 288.995 241.795 289.368 241.795 289.822C241.795 290.262 241.641 290.628 241.335 290.922C241.041 291.202 240.655 291.342 240.175 291.342C239.668 291.342 239.268 291.202 238.975 290.922C238.681 290.642 238.535 290.275 238.535 289.822ZM243.91 289.822C243.91 289.368 244.057 288.995 244.35 288.702C244.657 288.408 245.057 288.262 245.55 288.262C246.03 288.262 246.417 288.408 246.71 288.702C247.017 288.995 247.17 289.368 247.17 289.822C247.17 290.262 247.017 290.628 246.71 290.922C246.417 291.202 246.03 291.342 245.55 291.342C245.044 291.342 244.644 291.202 244.35 290.922C244.057 290.642 243.91 290.275 243.91 289.822ZM249.286 289.822C249.286 289.368 249.433 288.995 249.726 288.702C250.033 288.408 250.433 288.262 250.926 288.262C251.406 288.262 251.793 288.408 252.086 288.702C252.393 288.995 252.546 289.368 252.546 289.822C252.546 290.262 252.393 290.628 252.086 290.922C251.793 291.202 251.406 291.342 250.926 291.342C250.42 291.342 250.02 291.202 249.726 290.922C249.433 290.642 249.286 290.275 249.286 289.822Z" fill="#1E1E28"/>
<path d="M743.415 259.822C743.415 259.368 743.561 258.995 743.855 258.702C744.161 258.408 744.561 258.262 745.055 258.262C745.535 258.262 745.921 258.408 746.215 258.702C746.521 258.995 746.675 259.368 746.675 259.822C746.675 260.262 746.521 260.628 746.215 260.922C745.921 261.202 745.535 261.342 745.055 261.342C744.548 261.342 744.148 261.202 743.855 260.922C743.561 260.642 743.415 260.275 743.415 259.822ZM748.79 259.822C748.79 259.368 748.937 258.995 749.23 258.702C749.537 258.408 749.937 258.262 750.43 258.262C750.91 258.262 751.297 258.408 751.59 258.702C751.897 258.995 752.05 259.368 752.05 259.822C752.05 260.262 751.897 260.628 751.59 260.922C751.297 261.202 750.91 261.342 750.43 261.342C749.924 261.342 749.524 261.202 749.23 260.922C748.937 260.642 748.79 260.275 748.79 259.822ZM754.166 259.822C754.166 259.368 754.313 258.995 754.606 258.702C754.913 258.408 755.313 258.262 755.806 258.262C756.286 258.262 756.673 258.408 756.966 258.702C757.273 258.995 757.426 259.368 757.426 259.822C757.426 260.262 757.273 260.628 756.966 260.922C756.673 261.202 756.286 261.342 755.806 261.342C755.3 261.342 754.9 261.202 754.606 260.922C754.313 260.642 754.166 260.275 754.166 259.822ZM773.162 262.402H770.602V245.582H773.162V262.402ZM769.662 261.622H767.182V253.822H766.182C766.089 255.462 765.722 256.748 765.082 257.682C764.442 258.615 763.609 259.082 762.582 259.082C761.849 259.082 761.209 258.835 760.662 258.342C760.129 257.835 759.715 257.115 759.422 256.182C759.129 255.248 758.982 254.142 758.982 252.862C758.982 251.595 759.129 250.502 759.422 249.582C759.715 248.648 760.129 247.935 760.662 247.442C761.209 246.948 761.849 246.702 762.582 246.702C763.569 246.702 764.382 247.142 765.022 248.022C765.662 248.888 766.049 250.102 766.182 251.662H767.182V245.782H769.662V261.622ZM762.582 249.262C761.809 249.262 761.422 250.462 761.422 252.862C761.422 255.275 761.809 256.482 762.582 256.482C762.982 256.482 763.282 256.195 763.482 255.622C763.682 255.035 763.782 254.115 763.782 252.862C763.782 251.622 763.682 250.715 763.482 250.142C763.282 249.555 762.982 249.262 762.582 249.262ZM792.975 262.402H790.475V254.122H789.255V261.582H786.815V245.822H789.255V251.942H790.475V245.582H792.975V262.402ZM785.235 249.642H781.795V256.462C783.328 256.435 784.708 256.315 785.935 256.102L786.115 258.302C785.208 258.462 784.315 258.568 783.435 258.622C782.555 258.675 781.515 258.702 780.315 258.702H779.175V247.482H785.235V249.642ZM807.582 250.602H809.682V252.762H807.582V258.142H804.942V245.602H807.582V250.602ZM804.202 249.342H794.482V247.242H798.022V245.582H800.702V247.242H804.202V249.342ZM799.362 249.822C800.135 249.822 800.828 249.962 801.442 250.242C802.068 250.522 802.555 250.915 802.902 251.422C803.262 251.915 803.442 252.482 803.442 253.122C803.442 253.762 803.262 254.328 802.902 254.822C802.555 255.315 802.068 255.702 801.442 255.982C800.828 256.248 800.135 256.382 799.362 256.382C798.562 256.382 797.848 256.248 797.222 255.982C796.595 255.702 796.108 255.315 795.762 254.822C795.415 254.328 795.242 253.762 795.242 253.122C795.242 252.482 795.415 251.915 795.762 251.422C796.108 250.915 796.595 250.522 797.222 250.242C797.848 249.962 798.562 249.822 799.362 249.822ZM799.362 251.882C798.882 251.882 798.502 251.988 798.222 252.202C797.955 252.402 797.822 252.708 797.822 253.122C797.822 253.522 797.955 253.822 798.222 254.022C798.502 254.222 798.882 254.322 799.362 254.322C799.842 254.322 800.215 254.222 800.482 254.022C800.748 253.822 800.882 253.522 800.882 253.122C800.882 252.708 800.748 252.402 800.482 252.202C800.215 251.988 799.842 251.882 799.362 251.882ZM808.102 262.122H796.822V257.202H799.422V260.002H808.102V262.122ZM827.655 247.802C827.655 248.935 827.628 249.895 827.575 250.682C827.521 251.468 827.395 252.355 827.195 253.342L824.575 253.122C824.695 252.588 824.788 251.982 824.855 251.302L815.895 251.682L815.595 249.502L824.975 249.342L824.995 248.282H816.015V246.162H827.655V247.802ZM829.255 256.202H814.415V254.082H819.735V252.142H822.375V254.082H829.255V256.202ZM827.875 262.142H816.075V257.102H818.735V260.002H827.875V262.142ZM844.281 258.142H841.741V245.602H844.281V258.142ZM840.981 257.742H838.481V252.222H837.081V250.102H838.481V245.902H840.981V257.742ZM844.641 262.122H833.161V256.802H835.821V260.002H844.641V262.122ZM836.981 248.962H833.261V250.362H836.361V252.362H833.261V253.802C834.181 253.788 834.948 253.762 835.561 253.722C836.174 253.682 836.801 253.608 837.441 253.502L837.721 255.582C836.841 255.728 835.968 255.828 835.101 255.882C834.248 255.922 833.174 255.942 831.881 255.942H830.741V246.822H836.981V248.962ZM860.867 260.542H845.867V258.362H860.867V260.542ZM859.627 249.942H854.767C854.847 250.568 855.101 251.182 855.527 251.782C855.954 252.368 856.581 252.882 857.407 253.322C858.247 253.762 859.281 254.062 860.507 254.222L859.507 256.362C858.054 256.162 856.807 255.762 855.767 255.162C854.741 254.562 853.941 253.815 853.367 252.922C852.794 253.815 851.987 254.562 850.947 255.162C849.921 255.762 848.681 256.162 847.227 256.362L846.247 254.222C847.474 254.062 848.501 253.762 849.327 253.322C850.154 252.882 850.774 252.368 851.187 251.782C851.614 251.182 851.867 250.568 851.947 249.942H847.147V247.782H852.047V245.802H854.687V247.782H859.627V249.942ZM866.534 246.522C867.361 246.522 868.121 246.708 868.814 247.082C869.507 247.442 870.054 247.942 870.454 248.582C870.854 249.222 871.054 249.942 871.054 250.742C871.054 251.702 870.754 252.542 870.154 253.262C869.567 253.982 868.807 254.468 867.874 254.722V256.842C869.301 256.775 870.461 256.675 871.354 256.542L871.534 258.502C869.467 258.928 866.847 259.142 863.674 259.142L861.794 259.122L861.454 256.962L865.214 256.942V254.742C864.227 254.502 863.434 254.022 862.834 253.302C862.247 252.582 861.954 251.728 861.954 250.742C861.954 249.942 862.147 249.222 862.534 248.582C862.934 247.942 863.481 247.442 864.174 247.082C864.881 246.708 865.667 246.522 866.534 246.522ZM866.534 248.842C865.947 248.842 865.467 249.008 865.094 249.342C864.721 249.662 864.534 250.128 864.534 250.742C864.534 251.342 864.721 251.808 865.094 252.142C865.467 252.475 865.947 252.642 866.534 252.642C867.094 252.642 867.554 252.475 867.914 252.142C868.287 251.795 868.474 251.328 868.474 250.742C868.474 250.142 868.287 249.675 867.914 249.342C867.554 249.008 867.094 248.842 866.534 248.842ZM874.814 252.042H876.874V254.322H874.814V262.402H872.154V245.582H874.814V252.042ZM886.787 246.662C887.654 246.662 888.434 246.842 889.127 247.202C889.834 247.562 890.387 248.062 890.787 248.702C891.2 249.342 891.407 250.062 891.407 250.862C891.407 251.662 891.2 252.382 890.787 253.022C890.387 253.662 889.834 254.162 889.127 254.522C888.434 254.882 887.654 255.062 886.787 255.062C885.934 255.062 885.154 254.882 884.447 254.522C883.754 254.162 883.2 253.662 882.787 253.022C882.387 252.382 882.187 251.662 882.187 250.862C882.187 250.062 882.387 249.342 882.787 248.702C883.2 248.062 883.754 247.562 884.447 247.202C885.154 246.842 885.934 246.662 886.787 246.662ZM886.787 248.982C886.214 248.982 885.74 249.148 885.367 249.482C884.994 249.815 884.807 250.275 884.807 250.862C884.807 251.462 884.994 251.928 885.367 252.262C885.74 252.582 886.214 252.742 886.787 252.742C887.374 252.742 887.854 252.582 888.227 252.262C888.6 251.928 888.787 251.462 888.787 250.862C888.787 250.275 888.6 249.815 888.227 249.482C887.854 249.148 887.374 248.982 886.787 248.982ZM895.407 262.442H892.747V245.582H895.407V262.442ZM881.567 256.922C883.514 256.922 885.347 256.888 887.067 256.822C888.787 256.755 890.4 256.615 891.907 256.402L892.087 258.362C890.5 258.682 888.88 258.888 887.227 258.982C885.587 259.075 883.794 259.122 881.847 259.122L881.567 256.922ZM903.513 249.062C903.513 250.728 903.807 252.228 904.393 253.562C904.993 254.895 905.94 255.875 907.233 256.502L905.653 258.662C904.067 257.862 902.92 256.448 902.213 254.422C901.467 256.608 900.213 258.128 898.453 258.982L896.893 256.782C898.267 256.142 899.267 255.135 899.893 253.762C900.533 252.375 900.853 250.808 900.853 249.062V246.822H903.513V249.062ZM910.293 251.922H912.593V254.202H910.293V262.402H907.653V245.582H910.293V251.922ZM928.02 260.462H913.02V258.342H919.12V254.642H921.76V258.342H928.02V260.462ZM921.84 247.622C921.84 248.408 922.04 249.182 922.44 249.942C922.853 250.688 923.487 251.348 924.34 251.922C925.207 252.482 926.287 252.862 927.58 253.062L926.48 255.302C925.027 255.035 923.793 254.555 922.78 253.862C921.767 253.168 920.987 252.308 920.44 251.282C919.893 252.295 919.107 253.155 918.08 253.862C917.067 254.568 915.847 255.048 914.42 255.302L913.3 253.062C914.593 252.862 915.667 252.475 916.52 251.902C917.373 251.328 918 250.668 918.4 249.922C918.813 249.162 919.02 248.395 919.02 247.622V246.502H921.84V247.622ZM943.746 256.242H928.766V254.142H934.906V253.382H930.586V245.962H942.066V248.022H933.246V248.702H941.706V250.642H933.246V251.302H942.206V253.382H937.586V254.142H943.746V256.242ZM936.266 256.822C938.08 256.822 939.486 257.062 940.486 257.542C941.486 258.022 941.986 258.708 941.986 259.602C941.986 260.508 941.486 261.202 940.486 261.682C939.5 262.162 938.093 262.402 936.266 262.402C934.4 262.402 932.966 262.162 931.966 261.682C930.966 261.215 930.466 260.522 930.466 259.602C930.466 258.708 930.966 258.022 931.966 257.542C932.98 257.062 934.413 256.822 936.266 256.822ZM936.266 258.802C935.16 258.802 934.36 258.868 933.866 259.002C933.386 259.122 933.146 259.322 933.146 259.602C933.146 259.895 933.386 260.108 933.866 260.242C934.346 260.362 935.146 260.422 936.266 260.422C937.346 260.422 938.126 260.362 938.606 260.242C939.086 260.108 939.326 259.895 939.326 259.602C939.326 259.322 939.08 259.122 938.586 259.002C938.106 258.868 937.333 258.802 936.266 258.802ZM956.299 255.782C958.033 255.782 959.399 256.075 960.399 256.662C961.413 257.248 961.919 258.055 961.919 259.082C961.919 260.122 961.413 260.935 960.399 261.522C959.399 262.122 958.033 262.422 956.299 262.422C954.553 262.422 953.173 262.122 952.159 261.522C951.146 260.935 950.639 260.122 950.639 259.082C950.639 258.042 951.146 257.235 952.159 256.662C953.173 256.075 954.553 255.782 956.299 255.782ZM956.299 257.842C955.286 257.842 954.533 257.942 954.039 258.142C953.546 258.342 953.299 258.655 953.299 259.082C953.299 259.522 953.546 259.842 954.039 260.042C954.546 260.242 955.299 260.342 956.299 260.342C957.313 260.342 958.066 260.242 958.559 260.042C959.053 259.842 959.299 259.522 959.299 259.082C959.299 258.642 959.053 258.328 958.559 258.142C958.079 257.942 957.326 257.842 956.299 257.842ZM961.719 249.382H963.859V251.602H961.719V255.382H959.099V245.582H961.719V249.382ZM951.699 248.602H954.459V246.642H957.119V254.562H949.059V246.642H951.699V248.602ZM954.459 252.482V250.662H951.699V252.482H954.459ZM967.726 248.382H970.386V246.442H973.006V249.302H975.666V245.582H978.346V254.762H975.666V251.482H973.006V254.342H965.086V246.442H967.726V248.382ZM970.386 252.222V250.442H967.726V252.222H970.386ZM969.866 256.802H975.666V255.442H978.326V262.182H967.226V255.442H969.866V256.802ZM975.666 260.022V258.842H969.866V260.022H975.666ZM987.672 245.802C989.592 245.802 991.072 246.048 992.112 246.542C993.166 247.035 993.692 247.742 993.692 248.662C993.692 249.568 993.166 250.268 992.112 250.762C991.059 251.255 989.579 251.502 987.672 251.502C985.739 251.502 984.252 251.255 983.212 250.762C982.172 250.268 981.652 249.568 981.652 248.662C981.652 247.728 982.172 247.022 983.212 246.542C984.252 246.048 985.739 245.802 987.672 245.802ZM987.672 247.762C986.539 247.762 985.706 247.835 985.172 247.982C984.652 248.128 984.392 248.355 984.392 248.662C984.392 248.995 984.639 249.222 985.132 249.342C985.639 249.462 986.486 249.522 987.672 249.522C988.859 249.522 989.699 249.462 990.192 249.342C990.699 249.222 990.952 248.995 990.952 248.662C990.952 248.355 990.692 248.128 990.172 247.982C989.652 247.835 988.819 247.762 987.672 247.762ZM995.132 254.322H980.172V252.182H995.132V254.322ZM993.372 259.582H984.492V260.282H993.752V262.302H981.872V257.702H990.752V257.042H981.872V255.082H993.372V259.582ZM769.865 286.202H763.925V288.682H761.325V286.202H754.865V284.102H769.865V286.202ZM768.225 292.122H756.585V287.442H759.205V290.002H768.225V292.122ZM759.405 277.722H765.345V276.122H767.945V283.082H756.765V276.122H759.405V277.722ZM765.345 281.002V279.702H759.405V281.002H765.345ZM784.571 284.162H781.951V282.682H779.251V283.762H771.351V276.262H773.971V278.042H776.631V276.262H779.251V277.602H781.951V275.582H784.571V284.162ZM784.571 289.422H776.231V290.122H784.991V292.222H773.571V287.462H781.951V286.822H773.551V284.722H784.571V289.422ZM776.631 281.642V280.082H773.971V281.642H776.631ZM781.951 280.662V279.602H779.251V280.662H781.951ZM792.598 286.182C792.598 286.862 792.731 287.515 792.998 288.142C793.278 288.755 793.711 289.282 794.298 289.722C794.885 289.268 795.318 288.735 795.598 288.122C795.891 287.495 796.038 286.848 796.038 286.182V285.742H798.658V286.182C798.658 287.128 798.891 287.955 799.358 288.662C799.825 289.355 800.585 289.868 801.638 290.202L800.338 292.142C798.911 291.648 797.891 290.742 797.278 289.422C796.678 290.808 795.698 291.768 794.338 292.302C792.951 291.782 791.951 290.835 791.338 289.462C790.725 290.755 789.718 291.648 788.318 292.142L787.038 290.202C788.065 289.842 788.818 289.302 789.298 288.582C789.778 287.862 790.018 287.062 790.018 286.182V285.742H792.598V286.182ZM800.238 285.042H797.598V275.602H800.238V285.042ZM791.178 276.382C792.031 276.382 792.805 276.562 793.498 276.922C794.191 277.268 794.738 277.755 795.138 278.382C795.538 278.995 795.738 279.695 795.738 280.482C795.738 281.255 795.538 281.948 795.138 282.562C794.738 283.175 794.191 283.662 793.498 284.022C792.805 284.368 792.031 284.542 791.178 284.542C790.338 284.542 789.565 284.368 788.858 284.022C788.165 283.662 787.618 283.175 787.218 282.562C786.818 281.935 786.618 281.242 786.618 280.482C786.618 279.708 786.818 279.008 787.218 278.382C787.618 277.755 788.165 277.268 788.858 276.922C789.565 276.562 790.338 276.382 791.178 276.382ZM791.178 278.642C790.605 278.642 790.138 278.802 789.778 279.122C789.418 279.442 789.238 279.895 789.238 280.482C789.238 281.055 789.418 281.502 789.778 281.822C790.138 282.142 790.605 282.302 791.178 282.302C791.765 282.302 792.238 282.142 792.598 281.822C792.958 281.502 793.138 281.055 793.138 280.482C793.138 279.895 792.958 279.442 792.598 279.122C792.238 278.802 791.765 278.642 791.178 278.642ZM816.464 292.402H813.964V275.582H816.464V292.402ZM812.944 291.702H810.484V284.002H808.164C807.231 285.962 805.644 287.608 803.404 288.942L801.904 287.042C803.491 286.082 804.658 285.022 805.404 283.862C806.164 282.702 806.618 281.302 806.764 279.662H802.904V277.502H809.384C809.384 279.168 809.224 280.635 808.904 281.902H810.484V275.942H812.944V291.702ZM835.837 292.442H833.177V275.582H835.837V292.442ZM826.877 276.702C827.704 276.702 828.451 276.948 829.117 277.442C829.784 277.935 830.304 278.642 830.677 279.562C831.064 280.482 831.257 281.548 831.257 282.762C831.257 283.988 831.064 285.062 830.677 285.982C830.304 286.888 829.784 287.588 829.117 288.082C828.464 288.575 827.717 288.822 826.877 288.822C826.037 288.822 825.277 288.575 824.597 288.082C823.931 287.588 823.404 286.882 823.017 285.962C822.644 285.042 822.457 283.975 822.457 282.762C822.457 281.548 822.644 280.482 823.017 279.562C823.404 278.642 823.931 277.935 824.597 277.442C825.277 276.948 826.037 276.702 826.877 276.702ZM826.877 279.142C826.291 279.142 825.837 279.448 825.517 280.062C825.197 280.675 825.037 281.575 825.037 282.762C825.037 283.935 825.197 284.828 825.517 285.442C825.837 286.042 826.291 286.342 826.877 286.342C827.437 286.342 827.877 286.042 828.197 285.442C828.531 284.828 828.697 283.935 828.697 282.762C828.697 281.575 828.531 280.675 828.197 280.062C827.877 279.448 827.437 279.142 826.877 279.142ZM845.604 280.142H837.784V277.982H840.444V276.042H843.044V277.982H845.604V280.142ZM841.744 280.762C842.437 280.762 843.057 280.935 843.604 281.282C844.15 281.628 844.577 282.108 844.884 282.722C845.19 283.335 845.344 284.028 845.344 284.802C845.344 285.588 845.19 286.295 844.884 286.922C844.577 287.535 844.15 288.015 843.604 288.362C843.057 288.708 842.437 288.882 841.744 288.882C841.05 288.882 840.43 288.708 839.884 288.362C839.337 288.015 838.904 287.535 838.584 286.922C838.277 286.295 838.124 285.588 838.124 284.802C838.124 284.028 838.277 283.335 838.584 282.722C838.904 282.108 839.337 281.628 839.884 281.282C840.444 280.935 841.064 280.762 841.744 280.762ZM841.744 282.982C841.357 282.982 841.037 283.142 840.784 283.462C840.544 283.782 840.424 284.228 840.424 284.802C840.424 285.388 840.544 285.835 840.784 286.142C841.024 286.448 841.344 286.602 841.744 286.602C842.144 286.602 842.457 286.448 842.684 286.142C842.924 285.835 843.044 285.388 843.044 284.802C843.044 284.228 842.924 283.782 842.684 283.462C842.444 283.142 842.13 282.982 841.744 282.982ZM852.084 292.402H849.584V284.462H848.584V291.742H846.104V275.882H848.584V282.322H849.584V275.582H852.084V292.402ZM866.61 282.022H868.91V284.222H866.61V292.402H864.01V275.582H866.61V282.022ZM863.07 280.182H853.51V278.022H857.01V275.862H859.67V278.022H863.07V280.182ZM858.33 280.922C859.13 280.922 859.857 281.095 860.51 281.442C861.164 281.788 861.67 282.275 862.03 282.902C862.404 283.515 862.59 284.215 862.59 285.002C862.59 285.788 862.404 286.488 862.03 287.102C861.67 287.715 861.164 288.195 860.51 288.542C859.857 288.875 859.13 289.042 858.33 289.042C857.53 289.042 856.804 288.875 856.15 288.542C855.51 288.195 855.004 287.715 854.63 287.102C854.257 286.475 854.07 285.775 854.07 285.002C854.07 284.228 854.257 283.528 854.63 282.902C855.004 282.275 855.51 281.788 856.15 281.442C856.804 281.095 857.53 280.922 858.33 280.922ZM858.33 283.102C857.81 283.102 857.39 283.275 857.07 283.622C856.764 283.955 856.61 284.415 856.61 285.002C856.61 285.602 856.764 286.062 857.07 286.382C857.39 286.688 857.81 286.842 858.33 286.842C858.85 286.842 859.27 286.682 859.59 286.362C859.91 286.042 860.07 285.588 860.07 285.002C860.07 284.428 859.904 283.968 859.57 283.622C859.25 283.275 858.837 283.102 858.33 283.102ZM882.997 278.502C882.997 279.942 882.957 281.255 882.877 282.442C882.81 283.615 882.623 285.015 882.317 286.642L879.677 286.362C879.957 284.975 880.137 283.715 880.217 282.582C880.31 281.435 880.357 280.262 880.357 279.062H870.897V276.922H882.997V278.502ZM884.297 290.462H869.337V288.282H874.477V282.602H877.137V288.282H884.297V290.462ZM902.41 279.402H904.39V281.662H902.41V285.462H899.77V275.582H902.41V279.402ZM902.41 289.922H893.83V290.542H902.95V292.302H891.17V288.322H899.79V287.762H891.15V286.022H902.41V289.922ZM889.01 283.542C890.61 283.542 891.863 283.528 892.77 283.502V282.882C891.903 282.762 891.223 282.515 890.73 282.142C890.236 281.768 889.99 281.302 889.99 280.742C889.99 280.062 890.356 279.528 891.09 279.142C891.836 278.755 892.836 278.562 894.09 278.562C895.33 278.562 896.316 278.755 897.05 279.142C897.783 279.528 898.15 280.062 898.15 280.742C898.15 281.302 897.91 281.768 897.43 282.142C896.95 282.502 896.283 282.742 895.43 282.862V283.402C896.79 283.335 898.023 283.228 899.13 283.082L899.31 284.742C897.776 285.008 896.21 285.182 894.61 285.262C893.023 285.328 891.236 285.362 889.25 285.362L889.01 283.542ZM898.75 278.302H889.43V276.542H892.77V275.442H895.43V276.542H898.75V278.302ZM894.09 280.202C893.556 280.202 893.163 280.248 892.91 280.342C892.656 280.422 892.53 280.555 892.53 280.742C892.53 280.942 892.656 281.088 892.91 281.182C893.163 281.262 893.556 281.302 894.09 281.302C894.61 281.302 894.996 281.262 895.25 281.182C895.503 281.088 895.63 280.942 895.63 280.742C895.63 280.382 895.116 280.202 894.09 280.202ZM919.916 285.542H904.956V283.442H908.216V281.522C907.03 280.948 906.436 280.128 906.436 279.062C906.436 278.395 906.683 277.815 907.176 277.322C907.67 276.828 908.37 276.455 909.276 276.202C910.183 275.935 911.243 275.802 912.456 275.802C913.67 275.802 914.73 275.935 915.636 276.202C916.543 276.455 917.243 276.828 917.736 277.322C918.23 277.815 918.476 278.395 918.476 279.062C918.476 279.608 918.31 280.095 917.976 280.522C917.656 280.935 917.19 281.282 916.576 281.562V283.442H919.916V285.542ZM912.436 286.282C914.223 286.282 915.623 286.548 916.636 287.082C917.65 287.602 918.156 288.342 918.156 289.302C918.156 290.302 917.65 291.062 916.636 291.582C915.636 292.115 914.236 292.382 912.436 292.382C910.61 292.382 909.183 292.115 908.156 291.582C907.143 291.062 906.636 290.302 906.636 289.302C906.636 288.342 907.15 287.602 908.176 287.082C909.203 286.548 910.623 286.282 912.436 286.282ZM912.436 288.302C911.37 288.302 910.583 288.382 910.076 288.542C909.583 288.702 909.336 288.955 909.336 289.302C909.336 289.675 909.583 289.948 910.076 290.122C910.57 290.295 911.356 290.382 912.436 290.382C913.476 290.382 914.243 290.295 914.736 290.122C915.243 289.948 915.496 289.675 915.496 289.302C915.496 288.968 915.243 288.722 914.736 288.562C914.23 288.388 913.463 288.302 912.436 288.302ZM912.456 277.862C911.376 277.862 910.556 277.962 909.996 278.162C909.436 278.362 909.156 278.662 909.156 279.062C909.156 279.475 909.43 279.782 909.976 279.982C910.536 280.168 911.363 280.262 912.456 280.262C913.55 280.262 914.37 280.168 914.916 279.982C915.463 279.782 915.736 279.475 915.736 279.062C915.736 278.662 915.456 278.362 914.896 278.162C914.336 277.962 913.523 277.862 912.456 277.862ZM913.956 283.442V282.202C913.53 282.255 913.03 282.282 912.456 282.282C911.843 282.282 911.316 282.255 910.876 282.202V283.442H913.956ZM933.763 282.022H936.063V284.222H933.763V292.402H931.163V275.582H933.763V282.022ZM930.223 280.182H920.663V278.022H924.163V275.862H926.823V278.022H930.223V280.182ZM925.483 280.922C926.283 280.922 927.009 281.095 927.663 281.442C928.316 281.788 928.823 282.275 929.183 282.902C929.556 283.515 929.743 284.215 929.743 285.002C929.743 285.788 929.556 286.488 929.183 287.102C928.823 287.715 928.316 288.195 927.663 288.542C927.009 288.875 926.283 289.042 925.483 289.042C924.683 289.042 923.956 288.875 923.303 288.542C922.663 288.195 922.156 287.715 921.783 287.102C921.409 286.475 921.223 285.775 921.223 285.002C921.223 284.228 921.409 283.528 921.783 282.902C922.156 282.275 922.663 281.788 923.303 281.442C923.956 281.095 924.683 280.922 925.483 280.922ZM925.483 283.102C924.963 283.102 924.543 283.275 924.223 283.622C923.916 283.955 923.763 284.415 923.763 285.002C923.763 285.602 923.916 286.062 924.223 286.382C924.543 286.688 924.963 286.842 925.483 286.842C926.003 286.842 926.423 286.682 926.743 286.362C927.063 286.042 927.223 285.588 927.223 285.002C927.223 284.428 927.056 283.968 926.723 283.622C926.403 283.275 925.989 283.102 925.483 283.102ZM949.829 282.042H938.309V276.162H940.929V279.962H949.829V282.042ZM951.469 285.782H936.469V283.702H951.469V285.782ZM949.909 292.042H938.109V287.022H940.809V289.902H949.909V292.042ZM970.262 292.402H967.622V288.362H958.922V286.222H970.262V292.402ZM970.262 285.522H967.622V283.522H964.202C963.802 283.935 963.322 284.262 962.762 284.502C962.215 284.742 961.622 284.862 960.982 284.862C960.155 284.862 959.402 284.682 958.722 284.322C958.055 283.948 957.522 283.442 957.122 282.802C956.735 282.148 956.542 281.422 956.542 280.622C956.542 279.835 956.735 279.122 957.122 278.482C957.522 277.842 958.055 277.342 958.722 276.982C959.402 276.622 960.155 276.442 960.982 276.442C961.609 276.442 962.195 276.555 962.742 276.782C963.302 277.008 963.782 277.328 964.182 277.742H967.622V275.582H970.262V285.522ZM960.982 278.742C960.409 278.742 959.942 278.908 959.582 279.242C959.222 279.562 959.042 280.022 959.042 280.622C959.042 281.235 959.215 281.708 959.562 282.042C959.922 282.375 960.395 282.542 960.982 282.542C961.515 282.542 961.949 282.375 962.282 282.042C962.629 281.708 962.802 281.235 962.802 280.622C962.802 280.035 962.629 279.575 962.282 279.242C961.935 278.908 961.502 278.742 960.982 278.742ZM967.622 281.382V279.902H965.262C965.302 280.142 965.322 280.382 965.322 280.622C965.322 280.888 965.302 281.142 965.262 281.382H967.622ZM987.349 279.922H985.189V281.242H987.349V283.462H985.189V285.702H982.569V275.602H985.189V277.702H987.349V279.922ZM980.249 281.782H975.349V282.902C976.655 282.888 977.789 282.848 978.749 282.782C979.709 282.715 980.649 282.602 981.569 282.442L981.809 284.542C980.769 284.768 979.695 284.915 978.589 284.982C977.495 285.048 976.002 285.082 974.109 285.082H972.649V279.782H977.669V278.662H972.669V276.582H980.249V281.782ZM979.729 285.902C981.462 285.902 982.835 286.195 983.849 286.782C984.875 287.368 985.389 288.168 985.389 289.182C985.389 290.195 984.882 290.982 983.869 291.542C982.855 292.102 981.475 292.382 979.729 292.382C977.969 292.382 976.589 292.102 975.589 291.542C974.589 290.982 974.089 290.195 974.089 289.182C974.089 288.168 974.589 287.368 975.589 286.782C976.602 286.195 977.982 285.902 979.729 285.902ZM979.729 287.942C978.702 287.942 977.935 288.042 977.429 288.242C976.922 288.442 976.669 288.755 976.669 289.182C976.669 289.982 977.689 290.382 979.729 290.382C980.755 290.382 981.515 290.288 982.009 290.102C982.515 289.902 982.769 289.595 982.769 289.182C982.769 288.755 982.522 288.442 982.029 288.242C981.535 288.042 980.769 287.942 979.729 287.942Z" fill="#1E1E28"/>
<circle cx="500" cy="269.242" r="225" fill="#F5F5FA" stroke="#1E1E28" stroke-width="2"/>
<path d="M335.218 267.972C335.218 270.472 335.658 272.722 336.538 274.722C337.438 276.722 338.858 278.192 340.798 279.132L338.428 282.372C336.048 281.172 334.328 279.052 333.268 276.012C332.148 279.292 330.268 281.572 327.628 282.852L325.288 279.552C327.348 278.592 328.848 277.082 329.788 275.022C330.748 272.942 331.228 270.592 331.228 267.972V264.612H335.218V267.972ZM345.388 272.262H348.838V275.682H345.388V287.982H341.428V262.752H345.388V272.262ZM370.357 287.982H366.367V262.752H370.357V287.982ZM349.597 280.692C352.117 280.692 354.097 280.672 355.537 280.632V278.742C354.237 278.462 353.207 277.912 352.447 277.092C351.687 276.272 351.307 275.292 351.307 274.152C351.307 273.232 351.567 272.422 352.087 271.722C352.607 271.002 353.337 270.442 354.277 270.042C355.217 269.642 356.297 269.442 357.517 269.442C358.737 269.442 359.817 269.642 360.757 270.042C361.697 270.442 362.427 271.002 362.947 271.722C363.487 272.422 363.757 273.232 363.757 274.152C363.757 275.292 363.367 276.272 362.587 277.092C361.827 277.912 360.787 278.462 359.467 278.742V280.512C361.627 280.412 363.527 280.242 365.167 280.002L365.437 282.942C363.077 283.382 360.657 283.672 358.177 283.812C355.697 283.932 352.997 283.992 350.077 283.992L349.597 280.692ZM364.957 268.602H350.047V265.482H355.537V262.902H359.527V265.482H364.957V268.602ZM357.517 272.502C356.777 272.502 356.177 272.642 355.717 272.922C355.277 273.202 355.057 273.612 355.057 274.152C355.057 274.732 355.277 275.162 355.717 275.442C356.177 275.722 356.777 275.862 357.517 275.862C358.297 275.862 358.907 275.722 359.347 275.442C359.787 275.162 360.007 274.732 360.007 274.152C360.007 273.612 359.777 273.202 359.317 272.922C358.877 272.642 358.277 272.502 357.517 272.502ZM395.597 278.022H386.567V282.072H382.577V278.022H373.097V274.872H395.597V278.022ZM393.137 287.562H375.737V279.972H379.727V284.352H393.137V287.562ZM384.377 263.142C386.157 263.142 387.717 263.362 389.057 263.802C390.417 264.242 391.467 264.862 392.207 265.662C392.947 266.442 393.317 267.362 393.317 268.422C393.317 269.502 392.947 270.442 392.207 271.242C391.467 272.022 390.427 272.632 389.087 273.072C387.747 273.492 386.177 273.702 384.377 273.702C382.597 273.702 381.027 273.492 379.667 273.072C378.307 272.632 377.257 272.022 376.517 271.242C375.777 270.442 375.407 269.502 375.407 268.422C375.407 267.382 375.777 266.462 376.517 265.662C377.277 264.862 378.327 264.242 379.667 263.802C381.027 263.362 382.597 263.142 384.377 263.142ZM384.377 266.352C382.877 266.352 381.717 266.522 380.897 266.862C380.077 267.202 379.667 267.722 379.667 268.422C379.667 269.102 380.067 269.612 380.867 269.952C381.687 270.292 382.857 270.462 384.377 270.462C387.497 270.462 389.057 269.782 389.057 268.422C389.057 267.722 388.647 267.202 387.827 266.862C387.027 266.522 385.877 266.352 384.377 266.352ZM419.306 277.602H396.776V274.422H406.076V272.592H399.446V263.862H416.666V266.952H403.436V269.412H416.726V272.592H410.006V274.422H419.306V277.602ZM407.996 278.682C410.696 278.682 412.796 279.092 414.296 279.912C415.816 280.712 416.576 281.862 416.576 283.362C416.576 284.842 415.816 285.982 414.296 286.782C412.776 287.602 410.676 288.012 407.996 288.012C405.276 288.012 403.146 287.602 401.606 286.782C400.066 285.982 399.296 284.842 399.296 283.362C399.296 281.862 400.066 280.712 401.606 279.912C403.146 279.092 405.276 278.682 407.996 278.682ZM407.996 281.742C406.396 281.742 405.216 281.872 404.456 282.132C403.716 282.392 403.346 282.802 403.346 283.362C403.346 283.922 403.716 284.332 404.456 284.592C405.196 284.832 406.376 284.952 407.996 284.952C409.576 284.952 410.736 284.832 411.476 284.592C412.216 284.332 412.586 283.922 412.586 283.362C412.586 282.802 412.206 282.392 411.446 282.132C410.706 281.872 409.556 281.742 407.996 281.742ZM439.786 282.102H427.756V264.942H439.786V282.102ZM431.716 278.892H435.946V268.092H431.716V278.892ZM447.286 288.042H443.266V262.752H447.286V288.042ZM470.936 288.042H466.946V262.752H470.936V288.042ZM463.706 268.152H455.636V278.742C457.976 278.722 459.826 278.672 461.186 278.592C462.546 278.492 463.906 278.312 465.266 278.052L465.626 281.352C464.106 281.672 462.496 281.882 460.796 281.982C459.116 282.082 456.816 282.132 453.896 282.132H451.676V264.912H463.706V268.152ZM480.725 264.432C482.405 264.432 483.815 265.082 484.955 266.382C486.115 267.662 486.825 269.422 487.085 271.662H490.835V262.752H494.765V288.042H490.835V274.872H487.145C487.025 276.452 486.675 277.832 486.095 279.012C485.515 280.172 484.765 281.062 483.845 281.682C482.925 282.302 481.885 282.612 480.725 282.612C479.485 282.612 478.365 282.242 477.365 281.502C476.385 280.762 475.615 279.712 475.055 278.352C474.515 276.972 474.245 275.362 474.245 273.522C474.245 271.702 474.515 270.102 475.055 268.722C475.615 267.342 476.385 266.282 477.365 265.542C478.365 264.802 479.485 264.432 480.725 264.432ZM480.725 268.092C479.905 268.092 479.245 268.562 478.745 269.502C478.265 270.422 478.025 271.762 478.025 273.522C478.025 275.262 478.265 276.592 478.745 277.512C479.245 278.432 479.905 278.892 480.725 278.892C481.565 278.892 482.225 278.442 482.705 277.542C483.205 276.622 483.455 275.282 483.455 273.522C483.455 271.762 483.205 270.422 482.705 269.502C482.225 268.562 481.565 268.092 480.725 268.092ZM524.395 288.042H520.405V262.752H524.395V288.042ZM516.685 274.782H509.005V278.922C510.925 278.882 512.665 278.802 514.225 278.682C515.785 278.562 517.355 278.362 518.935 278.082L519.235 281.322C517.475 281.662 515.695 281.892 513.895 282.012C512.095 282.112 509.865 282.162 507.205 282.162H504.955V271.662H512.605V268.032H504.925V264.762H516.685V274.782ZM548.195 288.042H544.265V274.632H540.305V271.392H544.265V262.752H548.195V288.042ZM539.945 268.032H532.385V271.812H539.075V274.932H532.385V279.222C535.665 279.162 538.525 278.952 540.965 278.592L541.325 281.802C539.625 282.062 537.915 282.242 536.195 282.342C534.475 282.442 532.555 282.492 530.435 282.492H528.425V264.762H539.945V268.032ZM571.814 288.042H567.824V274.842H564.254V271.602H567.824V262.752H571.814V288.042ZM562.904 274.452H555.764V278.892C557.564 278.872 559.134 278.822 560.474 278.742C561.814 278.642 563.174 278.472 564.554 278.232L564.884 281.532C563.224 281.812 561.544 282.002 559.844 282.102C558.164 282.182 556.184 282.222 553.904 282.222H551.774V271.302H559.034V268.032H551.714V264.762H562.904V274.452ZM584.514 267.972C584.514 270.532 584.994 272.822 585.954 274.842C586.934 276.862 588.464 278.312 590.544 279.192L588.204 282.432C585.604 281.232 583.724 279.082 582.564 275.982C581.404 279.442 579.404 281.822 576.564 283.122L574.284 279.732C576.404 278.812 577.964 277.302 578.964 275.202C579.964 273.082 580.464 270.672 580.464 267.972V264.612H584.514V267.972ZM595.284 288.042H591.294V262.752H595.284V288.042ZM606.183 264.372C607.483 264.372 608.653 264.642 609.693 265.182C610.753 265.722 611.583 266.472 612.183 267.432C612.803 268.392 613.113 269.472 613.113 270.672C613.113 271.872 612.803 272.952 612.183 273.912C611.583 274.872 610.753 275.622 609.693 276.162C608.653 276.702 607.483 276.972 606.183 276.972C604.903 276.972 603.733 276.702 602.673 276.162C601.633 275.622 600.803 274.872 600.183 273.912C599.583 272.952 599.283 271.872 599.283 270.672C599.283 269.472 599.583 268.392 600.183 267.432C600.803 266.472 601.633 265.722 602.673 265.182C603.733 264.642 604.903 264.372 606.183 264.372ZM606.183 267.852C605.323 267.852 604.613 268.102 604.053 268.602C603.493 269.102 603.213 269.792 603.213 270.672C603.213 271.572 603.493 272.272 604.053 272.772C604.613 273.252 605.323 273.492 606.183 273.492C607.063 273.492 607.783 273.252 608.343 272.772C608.903 272.272 609.183 271.572 609.183 270.672C609.183 269.792 608.903 269.102 608.343 268.602C607.783 268.102 607.063 267.852 606.183 267.852ZM619.113 288.042H615.123V262.752H619.113V288.042ZM598.353 279.762C601.273 279.762 604.023 279.712 606.603 279.612C609.183 279.512 611.603 279.302 613.863 278.982L614.133 281.922C611.753 282.402 609.323 282.712 606.843 282.852C604.383 282.992 601.693 283.062 598.773 283.062L598.353 279.762ZM650.483 280.272H641.153V287.982H637.193V280.272H627.983V277.122H650.483V280.272ZM634.463 266.352H643.943V263.712H647.933V274.932H630.563V263.712H634.463V266.352ZM643.943 271.692V269.502H634.463V271.692H643.943ZM672.093 266.802H665.823C666.183 267.642 666.963 268.382 668.163 269.022C669.383 269.662 671.083 270.082 673.263 270.282L671.823 273.402C669.503 273.162 667.593 272.642 666.093 271.842C664.613 271.042 663.543 270.032 662.883 268.812C662.223 270.052 661.153 271.072 659.673 271.872C658.193 272.652 656.283 273.162 653.943 273.402L652.593 270.282C654.733 270.082 656.403 269.662 657.603 269.022C658.803 268.382 659.583 267.642 659.943 266.802H653.763V263.622H672.093V266.802ZM674.103 278.082H651.663V274.902H660.843V271.782H664.833V274.902H674.103V278.082ZM671.433 287.982H667.443V282.882H654.213V279.672H671.433V287.982Z" fill="#1E1E28"/>
<rect width="182" height="48" transform="translate(409 32.2417)" fill="#F5F5FA"/>
<path d="M440.324 58.8817H437.124V64.4017H434.504V58.8817H431.324V64.4017H428.684V58.8817H425.324V56.7217H440.324V58.8817ZM434.264 48.7817C434.264 49.4484 434.458 50.1084 434.844 50.7617C435.244 51.415 435.858 51.9884 436.684 52.4817C437.524 52.9617 438.571 53.2817 439.824 53.4417L438.824 55.6417C437.411 55.4284 436.204 55.015 435.204 54.4017C434.204 53.7884 433.424 53.0284 432.864 52.1217C432.318 53.0284 431.538 53.7884 430.524 54.4017C429.511 55.015 428.291 55.4284 426.864 55.6417L425.864 53.4417C427.131 53.2817 428.178 52.955 429.004 52.4617C429.844 51.9684 430.458 51.395 430.844 50.7417C431.244 50.0884 431.444 49.435 431.444 48.7817V48.0017H434.264V48.7817ZM450.651 51.0817H449.171V58.2617C449.784 58.2217 450.398 58.1617 451.011 58.0817L451.151 60.0217C449.684 60.3017 448.151 60.4817 446.551 60.5617C444.951 60.6417 443.204 60.6817 441.311 60.6817L441.091 58.5217L442.771 58.5017V51.0817H441.511V48.9417H450.651V51.0817ZM455.051 64.4017H452.431V55.7417H450.231V53.6017H452.431V47.5817H455.051V64.4017ZM446.631 58.4217V51.0817H445.351V58.4617L446.631 58.4217ZM465.697 49.6817C465.697 50.495 465.897 51.295 466.297 52.0817C466.711 52.855 467.344 53.535 468.197 54.1217C469.051 54.7084 470.124 55.115 471.417 55.3417L470.277 57.5617C468.851 57.295 467.631 56.795 466.617 56.0617C465.617 55.3284 464.844 54.435 464.297 53.3817C463.751 54.435 462.971 55.3284 461.957 56.0617C460.944 56.7817 459.724 57.2817 458.297 57.5617L457.177 55.3417C458.444 55.115 459.504 54.7084 460.357 54.1217C461.211 53.5217 461.844 52.835 462.257 52.0617C462.671 51.275 462.877 50.4817 462.877 49.6817V48.5217H465.697V49.6817ZM471.877 62.4417H456.877V60.2017H471.877V62.4417ZM487.604 58.2017H472.624V56.0817H478.764V55.2817H474.444V47.8817H485.924V49.9417H477.104V50.6017H485.564V52.5417H477.104V53.2017H486.064V55.2817H481.444V56.0817H487.604V58.2017ZM485.844 64.2217H474.364V58.9617H485.844V64.2217ZM476.964 62.1017H483.244V61.0417H476.964V62.1017ZM502.21 64.4417H499.55V47.5817H502.21V64.4417ZM493.25 48.7017C494.077 48.7017 494.823 48.9484 495.49 49.4417C496.157 49.935 496.677 50.6417 497.05 51.5617C497.437 52.4817 497.63 53.5484 497.63 54.7617C497.63 55.9884 497.437 57.0617 497.05 57.9817C496.677 58.8884 496.157 59.5884 495.49 60.0817C494.837 60.575 494.09 60.8217 493.25 60.8217C492.41 60.8217 491.65 60.575 490.97 60.0817C490.303 59.5884 489.777 58.8817 489.39 57.9617C489.017 57.0417 488.83 55.975 488.83 54.7617C488.83 53.5484 489.017 52.4817 489.39 51.5617C489.777 50.6417 490.303 49.935 490.97 49.4417C491.65 48.9484 492.41 48.7017 493.25 48.7017ZM493.25 51.1417C492.663 51.1417 492.21 51.4484 491.89 52.0617C491.57 52.675 491.41 53.575 491.41 54.7617C491.41 55.935 491.57 56.8284 491.89 57.4417C492.21 58.0417 492.663 58.3417 493.25 58.3417C493.81 58.3417 494.25 58.0417 494.57 57.4417C494.903 56.8284 495.07 55.935 495.07 54.7617C495.07 53.575 494.903 52.675 494.57 52.0617C494.25 51.4484 493.81 51.1417 493.25 51.1417ZM523.263 62.5017H508.263V60.3217H514.423V57.4217H509.803V48.5817H512.463V51.0417H519.023V48.5817H521.663V57.4217H517.063V60.3217H523.263V62.5017ZM519.023 55.2617V53.1617H512.463V55.2617H519.023ZM537.37 54.0417H525.85V48.1617H528.47V51.9617H537.37V54.0417ZM539.01 57.7817H524.01V55.7017H539.01V57.7817ZM537.45 64.0417H525.65V59.0217H528.35V61.9017H537.45V64.0417ZM558.863 57.9017H552.923V60.5617H550.323V57.9017H543.863V55.7417H558.863V57.9017ZM556.963 54.6017H545.703V48.2817H556.963V54.6017ZM548.323 52.5217H554.363V50.3417H548.323V52.5217ZM557.223 64.1217H545.583V59.2217H548.223V62.0017H557.223V64.1217ZM573.909 64.4017H571.389V47.5817H573.909V64.4017ZM570.529 63.6417H568.049V59.0417L566.589 60.9217C565.282 60.135 564.336 58.835 563.749 57.0217C563.149 59.0217 562.182 60.4484 560.849 61.3017L559.289 59.3217C560.422 58.575 561.229 57.555 561.709 56.2617C562.189 54.9684 562.429 53.5284 562.429 51.9417V51.3217H559.969V49.2017H567.269V51.3217H565.009V51.9417C565.009 55.355 566.022 57.6817 568.049 58.9217V55.4217H566.089V53.2417H568.049V47.8017H570.529V63.6417Z" fill="#1E1E28"/>
<path d="M326 295.242H420" stroke="#1E1E28" stroke-width="2"/>
<path d="M427 295.242H595" stroke="#1E1E28" stroke-width="2"/>
<path d="M373 337.242V338.242H374V337.242H373ZM118 337.242H117V338.242H118V337.242ZM118.707 306.535C118.317 306.144 117.683 306.144 117.293 306.535L110.929 312.899C110.538 313.289 110.538 313.922 110.929 314.313C111.319 314.703 111.953 314.703 112.343 314.313L118 308.656L123.657 314.313C124.047 314.703 124.681 314.703 125.071 314.313C125.462 313.922 125.462 313.289 125.071 312.899L118.707 306.535ZM373 307.242H372V337.242H373H374V307.242H373ZM373 337.242V336.242H118V337.242V338.242H373V337.242ZM118 337.242H119V307.242H118H117V337.242H118Z" fill="#1E1E28"/>
<path d="M500 337.242V338.242H499V337.242H500ZM870 337.242H871V338.242H870V337.242ZM869.293 306.535C869.683 306.144 870.317 306.144 870.707 306.535L877.071 312.899C877.462 313.289 877.462 313.922 877.071 314.313C876.681 314.703 876.047 314.703 875.657 314.313L870 308.656L864.343 314.313C863.953 314.703 863.319 314.703 862.929 314.313C862.538 313.922 862.538 313.289 862.929 312.899L869.293 306.535ZM500 307.242H501V337.242H500H499V307.242H500ZM500 337.242V336.242H870V337.242V338.242H500V337.242ZM870 337.242H869V307.242H870H871V337.242H870Z" fill="#1E1E28"/>
</svg>
