<svg width="1000" height="574" viewBox="0 0 1000 574" fill="none" xmlns="http://www.w3.org/2000/svg">
<rect y="0.741699" width="1000" height="572.5" rx="32" fill="#1E1E28"/>
<path d="M399.654 41.6017H391.874V33.5617H399.654V41.6017ZM394.194 39.7217H397.374V35.4617H394.194V39.7217ZM404.274 37.0017H406.434V38.9617H404.274V44.3617H401.934V32.2017H404.274V37.0017ZM404.834 48.5817H393.754V43.1817H396.054V46.6817H404.834V48.5817ZM421.585 36.3217H419.505V37.9617H421.585V39.9417H419.505V42.0217H417.165V32.1817H419.505V34.3617H421.585V36.3217ZM419.505 48.8817H417.165V44.6417H408.585V42.7017H419.505V48.8817ZM411.165 33.1017C412.005 33.1017 412.765 33.2817 413.445 33.6417C414.125 33.9884 414.652 34.475 415.025 35.1017C415.412 35.715 415.605 36.4084 415.605 37.1817C415.605 37.9684 415.412 38.675 415.025 39.3017C414.652 39.915 414.125 40.395 413.445 40.7417C412.765 41.0884 412.005 41.2617 411.165 41.2617C410.338 41.2617 409.585 41.0884 408.905 40.7417C408.225 40.395 407.692 39.9084 407.305 39.2817C406.918 38.655 406.725 37.955 406.725 37.1817C406.725 36.4084 406.918 35.715 407.305 35.1017C407.692 34.475 408.225 33.9884 408.905 33.6417C409.585 33.2817 410.338 33.1017 411.165 33.1017ZM411.165 35.1417C410.538 35.1417 410.025 35.3284 409.625 35.7017C409.225 36.0617 409.025 36.555 409.025 37.1817C409.025 37.8217 409.225 38.3217 409.625 38.6817C410.025 39.0417 410.538 39.2217 411.165 39.2217C411.805 39.2217 412.325 39.0417 412.725 38.6817C413.138 38.3217 413.345 37.8217 413.345 37.1817C413.345 36.5417 413.138 36.0417 412.725 35.6817C412.325 35.3217 411.805 35.1417 411.165 35.1417ZM425.284 47.7417L429.984 32.7017H432.644L437.304 47.7417H434.804L433.684 44.0017H428.964L427.804 47.7417H425.284ZM429.864 41.0417H432.784L431.324 36.3217L429.864 41.0417ZM450.352 38.5617H452.592V40.5217H450.352V48.8417H447.992V32.1817H450.352V38.5617ZM445.992 33.9017C445.992 36.555 445.418 38.9017 444.272 40.9417C443.138 42.9817 441.272 44.6617 438.672 45.9817L437.372 44.1617C439.278 43.1617 440.738 41.9884 441.752 40.6417C442.778 39.2817 443.398 37.6817 443.612 35.8417H438.272V33.9017H445.992ZM457.13 47.7417V32.7017H462.01C464.69 32.7017 466.17 34.1217 466.17 36.7217C466.17 38.1017 465.77 39.2017 464.97 39.7817C466.07 40.2817 466.69 41.6017 466.69 43.1817C466.69 45.8617 464.85 47.7417 462.25 47.7417H457.13ZM459.53 38.3617H461.69C463.05 38.3617 463.79 37.9417 463.79 37.0217C463.79 36.1017 463.05 35.6817 461.69 35.6817H459.53V38.3617ZM459.53 44.7417H462.27C463.61 44.7417 464.25 44.2417 464.25 43.0217C464.25 41.8017 463.61 41.3017 462.27 41.3017H459.53V44.7417ZM482.36 41.4217H467.52V39.6417H482.36V41.4217ZM480.6 46.2017H471.58V47.1017H481.04V48.7417H469.22V44.6617H478.26V43.8617H469.2V42.2217H480.6V46.2017ZM480.58 36.4017H471.7V37.2817H480.84V38.9017H469.36V34.9217H478.22V34.0817H469.34V32.4817H480.58V36.4017ZM491.719 32.8617C492.532 32.8617 493.265 33.015 493.919 33.3217C494.572 33.6284 495.079 34.055 495.439 34.6017C495.812 35.135 495.999 35.7484 495.999 36.4417C495.999 37.1217 495.812 37.735 495.439 38.2817C495.079 38.815 494.572 39.235 493.919 39.5417C493.265 39.835 492.532 39.9817 491.719 39.9817C490.905 39.9817 490.172 39.8284 489.519 39.5217C488.879 39.215 488.372 38.795 487.999 38.2617C487.639 37.7284 487.459 37.1217 487.459 36.4417C487.459 35.7484 487.639 35.135 487.999 34.6017C488.372 34.055 488.879 33.6284 489.519 33.3217C490.172 33.015 490.905 32.8617 491.719 32.8617ZM491.719 34.8017C491.119 34.8017 490.632 34.9484 490.259 35.2417C489.899 35.5217 489.719 35.9217 489.719 36.4417C489.719 36.935 489.899 37.3217 490.259 37.6017C490.632 37.8817 491.119 38.0217 491.719 38.0217C492.345 38.0217 492.845 37.8884 493.219 37.6217C493.592 37.3417 493.779 36.9484 493.779 36.4417C493.779 35.9084 493.592 35.5017 493.219 35.2217C492.845 34.9417 492.345 34.8017 491.719 34.8017ZM500.119 48.8617H497.779V32.2017H500.119V48.8617ZM486.479 40.9617C488.425 40.9617 490.259 40.9284 491.979 40.8617C493.712 40.7817 495.332 40.6217 496.839 40.3817L496.999 42.1217C495.879 42.3617 494.545 42.5484 492.999 42.6817V48.3817H490.639V42.8417C489.599 42.8817 488.625 42.9017 487.719 42.9017C487.505 42.915 487.185 42.9217 486.759 42.9217L486.479 40.9617ZM509.469 36.6017H501.629V34.7017H504.429V32.6617H506.729V34.7017H509.469V36.6017ZM505.589 37.3617C506.269 37.3617 506.876 37.5284 507.409 37.8617C507.956 38.195 508.376 38.6617 508.669 39.2617C508.976 39.8617 509.129 40.5417 509.129 41.3017C509.129 42.075 508.976 42.7684 508.669 43.3817C508.376 43.9817 507.956 44.455 507.409 44.8017C506.876 45.135 506.269 45.3017 505.589 45.3017C504.909 45.3017 504.296 45.135 503.749 44.8017C503.216 44.455 502.796 43.9817 502.489 43.3817C502.183 42.7684 502.029 42.075 502.029 41.3017C502.029 40.5417 502.183 39.8684 502.489 39.2817C502.796 38.6817 503.216 38.215 503.749 37.8817C504.296 37.535 504.909 37.3617 505.589 37.3617ZM505.589 39.3417C505.136 39.3417 504.769 39.5217 504.489 39.8817C504.209 40.2284 504.069 40.7017 504.069 41.3017C504.069 41.915 504.209 42.395 504.489 42.7417C504.769 43.0884 505.136 43.2617 505.589 43.2617C506.043 43.2617 506.403 43.0884 506.669 42.7417C506.949 42.395 507.089 41.915 507.089 41.3017C507.089 40.7017 506.949 40.2284 506.669 39.8817C506.389 39.5217 506.029 39.3417 505.589 39.3417ZM515.709 48.8817H513.489V40.8817H512.229V48.1817H510.029V32.5017H512.229V38.9617H513.489V32.1817H515.709V48.8817ZM527.968 32.4217C529.781 32.4217 531.215 32.7084 532.268 33.2817C533.321 33.855 533.848 34.6484 533.848 35.6617C533.848 36.6484 533.321 37.4217 532.268 37.9817C531.215 38.5417 529.781 38.8217 527.968 38.8217C526.155 38.8217 524.715 38.5417 523.648 37.9817C522.581 37.4217 522.048 36.6484 522.048 35.6617C522.048 34.6484 522.581 33.855 523.648 33.2817C524.715 32.7084 526.155 32.4217 527.968 32.4217ZM527.968 34.2417C526.835 34.2417 525.968 34.3617 525.368 34.6017C524.768 34.8417 524.468 35.195 524.468 35.6617C524.468 36.1017 524.768 36.435 525.368 36.6617C525.981 36.8884 526.848 37.0017 527.968 37.0017C529.088 37.0017 529.948 36.8884 530.548 36.6617C531.148 36.435 531.448 36.1017 531.448 35.6617C531.448 35.195 531.148 34.8417 530.548 34.6017C529.948 34.3617 529.088 34.2417 527.968 34.2417ZM533.588 48.7017H522.288V43.0017H526.768V41.5817H520.568V39.6617H535.348V41.5817H529.128V43.0017H533.588V48.7017ZM524.608 46.7817H531.288V44.9017H524.608V46.7817ZM549.359 42.2217H547.019V32.1817H549.359V42.2217ZM549.359 48.8817H547.019V44.8817H538.239V42.9817H549.359V48.8817ZM545.359 35.0617H542.159C542.185 36.1017 542.519 37.055 543.159 37.9217C543.799 38.7884 544.739 39.4217 545.979 39.8217L544.799 41.6617C543.905 41.3817 543.139 40.9617 542.499 40.4017C541.872 39.8417 541.372 39.175 540.999 38.4017C540.625 39.2417 540.105 39.9684 539.439 40.5817C538.772 41.195 537.979 41.655 537.059 41.9617L535.859 40.1217C537.112 39.7084 538.072 39.035 538.739 38.1017C539.405 37.1684 539.752 36.155 539.779 35.0617H536.479V33.1417H545.359V35.0617ZM564.609 44.1817H562.249V32.2017H564.609V44.1817ZM565.029 48.5817H553.729V42.9817H556.089V46.6817H565.029V48.5817ZM555.709 33.2617C556.536 33.2617 557.289 33.4417 557.969 33.8017C558.649 34.1617 559.183 34.6684 559.569 35.3217C559.969 35.9617 560.169 36.6817 560.169 37.4817C560.169 38.295 559.969 39.0217 559.569 39.6617C559.183 40.3017 558.649 40.8017 557.969 41.1617C557.289 41.5217 556.536 41.7017 555.709 41.7017C554.883 41.7017 554.129 41.5217 553.449 41.1617C552.783 40.8017 552.249 40.3017 551.849 39.6617C551.463 39.0217 551.269 38.295 551.269 37.4817C551.269 36.6817 551.463 35.9617 551.849 35.3217C552.249 34.6684 552.789 34.1617 553.469 33.8017C554.149 33.4417 554.896 33.2617 555.709 33.2617ZM555.709 35.3417C555.096 35.3417 554.583 35.535 554.169 35.9217C553.769 36.3084 553.569 36.8284 553.569 37.4817C553.569 38.1484 553.769 38.675 554.169 39.0617C554.583 39.435 555.096 39.6217 555.709 39.6217C556.323 39.6217 556.829 39.435 557.229 39.0617C557.629 38.675 557.829 38.1484 557.829 37.4817C557.829 36.8284 557.629 36.3084 557.229 35.9217C556.829 35.535 556.323 35.3417 555.709 35.3417ZM579.08 38.3617H581.44V40.3017H579.08V48.9017H576.72V32.1817H579.08V38.3617ZM574.54 35.6617H569.26V42.9017C570.487 42.8884 571.593 42.8484 572.58 42.7817C573.58 42.7017 574.58 42.5684 575.58 42.3817L575.84 44.3817C574.667 44.5817 573.507 44.715 572.36 44.7817C571.213 44.8484 569.86 44.8817 568.3 44.8817H566.92V33.7417H574.54V35.6617ZM589.891 34.8017H592.811V32.2017H595.191V44.3417H592.811V40.2817H589.891V41.6817H582.191V33.5417H589.891V34.8017ZM584.491 39.8217H587.591V35.4217H584.491V39.8217ZM595.511 48.5817H584.371V43.2217H586.731V46.6817H595.511V48.5817ZM592.811 38.4017V36.7217H589.891V38.4017H592.811ZM600.301 43.5417C599.981 39.2417 603.781 38.7017 603.781 36.6417C603.781 35.8417 603.161 35.5617 602.301 35.5617C601.101 35.5617 600.441 36.1217 600.441 37.0217H597.541C597.601 34.4217 599.401 32.7217 602.341 32.7217C605.241 32.7217 606.781 34.3017 606.781 36.4017C606.781 39.6417 603.121 39.6417 603.461 43.5417H600.301ZM601.881 47.9817C600.801 47.9817 599.921 47.1017 599.921 46.0217C599.921 44.9417 600.801 44.0617 601.881 44.0617C602.961 44.0617 603.841 44.9417 603.841 46.0217C603.841 47.1017 602.961 47.9817 601.881 47.9817Z" fill="#F5F5FA"/>
<circle cx="344" cy="309.742" r="199" stroke="#F5F5FA" stroke-width="2"/>
<circle cx="664" cy="309.742" r="199" stroke="#F5F5FA" stroke-width="2"/>
<rect width="39" height="41" transform="translate(325 86.7417)" fill="#1E1E28"/>
<path d="M338.476 118.742L343.176 103.702H345.836L350.496 118.742H347.996L346.876 115.002H342.156L340.996 118.742H338.476ZM343.056 112.042H345.976L344.516 107.322L343.056 112.042Z" fill="#F5F5FA"/>
<rect width="39" height="41" transform="translate(645 86.7417)" fill="#1E1E28"/>
<path d="M659.865 118.742V103.702H664.745C667.425 103.702 668.905 105.122 668.905 107.722C668.905 109.102 668.505 110.202 667.705 110.782C668.805 111.282 669.425 112.602 669.425 114.182C669.425 116.862 667.585 118.742 664.985 118.742H659.865ZM662.265 109.362H664.425C665.785 109.362 666.525 108.942 666.525 108.022C666.525 107.102 665.785 106.682 664.425 106.682H662.265V109.362ZM662.265 115.742H665.005C666.345 115.742 666.985 115.242 666.985 114.022C666.985 112.802 666.345 112.302 665.005 112.302H662.265V115.742Z" fill="#F5F5FA"/>
<path d="M317.114 317.378H303.362V297.83H317.114V317.378ZM307.034 314.39H313.442V300.782H307.034V314.39ZM325.034 306.398H329.426V309.53H325.034V324.758H321.362V294.95H325.034V306.398ZM343.627 298.334C343.627 301.382 343.327 304.058 342.727 306.362H346.147V295.67H349.603V323.39H346.147V309.422H341.647C339.967 313.214 337.039 316.334 332.863 318.782L330.775 316.154C334.447 313.994 337.003 311.33 338.443 308.162L331.351 308.882L330.883 305.678L339.451 305.21C339.715 304.082 339.907 302.81 340.027 301.394H332.323V298.334H343.627ZM355.759 324.758H352.267V294.95H355.759V324.758ZM383.497 324.794H379.861V308.702H374.533V305.678H379.861V294.95H383.497V324.794ZM374.101 300.566H364.273V305.858H372.949V308.81H364.273V314.894C366.577 314.87 368.593 314.798 370.321 314.678C372.073 314.558 373.813 314.354 375.541 314.066L375.901 317.09C373.885 317.426 371.881 317.654 369.889 317.774C367.897 317.894 365.557 317.954 362.869 317.954H360.637V297.506H374.101V300.566Z" fill="#F5F5FA"/>
<path d="M631.634 311.042H623.174V318.206H634.514V321.194H608.126V318.206H619.43V311.042H611.186V297.29H614.93V308.018H631.634V311.042ZM662.971 312.194H636.583V309.17H647.959V306.398H639.823V296.282H659.767V299.198H643.495V303.446H659.911V306.398H651.595V309.17H662.971V312.194ZM649.723 313.85C652.867 313.85 655.315 314.33 657.067 315.29C658.843 316.25 659.731 317.594 659.731 319.322C659.731 321.05 658.843 322.382 657.067 323.318C655.291 324.278 652.843 324.758 649.723 324.758C646.579 324.758 644.107 324.278 642.307 323.318C640.531 322.382 639.643 321.05 639.643 319.322C639.643 317.594 640.531 316.25 642.307 315.29C644.107 314.33 646.579 313.85 649.723 313.85ZM649.723 316.766C647.635 316.766 646.051 316.982 644.971 317.414C643.915 317.846 643.387 318.482 643.387 319.322C643.387 321.026 645.499 321.878 649.723 321.878C653.923 321.878 656.023 321.026 656.023 319.322C656.023 318.482 655.483 317.846 654.403 317.414C653.347 316.982 651.787 316.766 649.723 316.766ZM691.428 321.194H665.04V318.134H676.38V311.294H680.088V318.134H691.428V321.194ZM689.16 300.386H680.16C680.208 301.802 680.676 303.146 681.564 304.418C682.452 305.69 683.664 306.77 685.2 307.658C686.736 308.522 688.464 309.098 690.384 309.386L688.944 312.374C686.496 311.918 684.324 311.054 682.428 309.782C680.556 308.51 679.152 306.962 678.216 305.138C677.304 307.01 675.912 308.606 674.04 309.926C672.192 311.222 670.056 312.098 667.632 312.554L666.192 309.566C668.088 309.254 669.792 308.642 671.304 307.73C672.816 306.818 674.004 305.726 674.868 304.454C675.756 303.158 676.224 301.802 676.272 300.386H667.272V297.362H689.16V300.386ZM716.321 302.294H720.317V305.39H716.321V312.374H712.649V294.95H716.321V302.294ZM701.273 316.082H712.649V313.562H716.321V324.398H697.601V313.562H701.273V316.082ZM712.649 321.41V318.962H701.273V321.41H712.649ZM710.669 300.674H693.533V297.722H700.265V294.734H703.973V297.722H710.669V300.674ZM702.137 301.682C704.225 301.682 705.917 302.162 707.213 303.122C708.533 304.082 709.193 305.354 709.193 306.938C709.193 308.522 708.533 309.794 707.213 310.754C705.917 311.714 704.225 312.194 702.137 312.194C700.001 312.194 698.273 311.714 696.953 310.754C695.657 309.794 695.009 308.522 695.009 306.938C695.009 305.354 695.657 304.082 696.953 303.122C698.273 302.162 700.001 301.682 702.137 301.682ZM702.137 304.454C701.057 304.454 700.193 304.682 699.545 305.138C698.921 305.57 698.609 306.17 698.609 306.938C698.609 307.706 698.921 308.306 699.545 308.738C700.193 309.17 701.057 309.386 702.137 309.386C703.217 309.386 704.069 309.17 704.693 308.738C705.341 308.306 705.665 307.706 705.665 306.938C705.665 306.17 705.341 305.57 704.693 305.138C704.045 304.682 703.193 304.454 702.137 304.454Z" fill="#F5F5FA"/>
</svg>
