<svg width="1000" height="447" viewBox="0 0 1000 447" fill="none" xmlns="http://www.w3.org/2000/svg">
<rect y="0.241699" width="1000" height="446.27" rx="32" fill="#1E1E28"/>
<path d="M53 115.202C50.5 115.042 48.18 114.542 46.1 112.342C44.16 110.322 43.28 109.862 42.36 109.862C41.36 109.862 40.9 110.382 40.9 111.142C40.9 112.182 41.7 112.742 43.16 112.802L42.52 115.202C39.72 114.962 37.96 113.442 37.96 111.122C37.96 108.702 39.84 107.422 42.28 107.422C43.48 107.422 45.14 107.702 47.24 109.922C48.16 110.882 48.96 111.602 49.96 112.002V107.342H53V115.202ZM53.28 101.371C53.28 104.091 50.58 105.431 45.74 105.431C40.86 105.431 38.16 104.091 38.16 101.371C38.16 98.6508 40.86 97.3108 45.74 97.3108C50.58 97.3108 53.28 98.6508 53.28 101.371ZM50.36 101.371C50.36 100.351 48.9 99.7108 45.74 99.7108C42.48 99.7108 41.08 100.351 41.08 101.371C41.08 102.371 42.48 103.011 45.74 103.011C48.9 103.011 50.36 102.391 50.36 101.371ZM53 95.72C50.5 95.56 48.18 95.06 46.1 92.86C44.16 90.84 43.28 90.38 42.36 90.38C41.36 90.38 40.9 90.9 40.9 91.66C40.9 92.7 41.7 93.26 43.16 93.32L42.52 95.72C39.72 95.48 37.96 93.96 37.96 91.64C37.96 89.22 39.84 87.94 42.28 87.94C43.48 87.94 45.14 88.22 47.24 90.44C48.16 91.4 48.96 92.12 49.96 92.52V87.86H53V95.72ZM53.28 81.9487C53.28 83.8287 52.14 85.3287 49.66 85.9487L48.94 83.5687C50.02 83.2287 50.34 82.5287 50.34 81.9087C50.34 80.8887 49.48 80.2687 48.18 80.2687C46.72 80.2687 45.94 81.0887 45.94 81.9687C45.94 82.7687 46.54 83.2687 47.42 83.6487L46.14 85.5087L38.26 85.1087V78.5487H41.16V82.9687L43.22 83.0887C43.02 82.4487 42.98 82.0687 42.98 81.7087C42.98 79.4287 45.08 77.8287 48.06 77.8287C50.98 77.8287 53.28 79.2687 53.28 81.9487Z" fill="#F5F5FA"/>
<path d="M111 115.149C108.5 114.989 106.18 114.489 104.1 112.289C102.16 110.269 101.28 109.809 100.36 109.809C99.36 109.809 98.9 110.329 98.9 111.089C98.9 112.129 99.7 112.689 101.16 112.749L100.52 115.149C97.72 114.909 95.96 113.389 95.96 111.069C95.96 108.649 97.84 107.369 100.28 107.369C101.48 107.369 103.14 107.649 105.24 109.869C106.16 110.829 106.96 111.549 107.96 111.949V107.289H111V115.149ZM111.28 101.318C111.28 104.038 108.58 105.378 103.74 105.378C98.86 105.378 96.16 104.038 96.16 101.318C96.16 98.5976 98.86 97.2576 103.74 97.2576C108.58 97.2576 111.28 98.5976 111.28 101.318ZM108.36 101.318C108.36 100.298 106.9 99.6576 103.74 99.6576C100.48 99.6576 99.08 100.298 99.08 101.318C99.08 102.318 100.48 102.958 103.74 102.958C106.9 102.958 108.36 102.338 108.36 101.318ZM111 95.6668C108.5 95.5068 106.18 95.0068 104.1 92.8068C102.16 90.7868 101.28 90.3268 100.36 90.3268C99.36 90.3268 98.9 90.8468 98.9 91.6068C98.9 92.6468 99.7 93.2068 101.16 93.2668L100.52 95.6668C97.72 95.4268 95.96 93.9068 95.96 91.5868C95.96 89.1668 97.84 87.8868 100.28 87.8868C101.48 87.8868 103.14 88.1668 105.24 90.3868C106.16 91.3468 106.96 92.0668 107.96 92.4668V87.8068H111V95.6668ZM111.28 81.4355C111.28 84.3155 108.62 85.8955 103.9 85.8955C98.96 85.8955 96.06 84.2155 96.06 81.2155C96.06 79.4155 97.1 78.1755 99.44 77.5955L100.12 79.8755C99.28 80.1355 98.98 80.5755 98.98 81.1755C98.98 82.0955 99.72 83.1355 102.5 83.3755C102 82.7755 101.5 82.1555 101.5 81.0555C101.5 78.9555 103.4 77.2955 106.26 77.2955C109.32 77.2955 111.28 78.9755 111.28 81.4355ZM108.34 81.3355C108.34 80.4155 107.52 79.7555 106.36 79.7555C105.22 79.7555 104.5 80.3955 104.5 81.3555C104.5 81.9955 104.82 82.6555 105.84 83.2155C107.32 83.0555 108.34 82.3355 108.34 81.3355Z" fill="#F5F5FA"/>
<path d="M304.916 47.2417C305.076 44.7417 305.576 42.4217 307.776 40.3417C309.796 38.4017 310.256 37.5217 310.256 36.6017C310.256 35.6017 309.736 35.1417 308.976 35.1417C307.936 35.1417 307.376 35.9417 307.316 37.4017L304.916 36.7617C305.156 33.9617 306.676 32.2017 308.996 32.2017C311.416 32.2017 312.696 34.0817 312.696 36.5217C312.696 37.7217 312.416 39.3817 310.196 41.4817C309.236 42.4017 308.516 43.2017 308.116 44.2017H312.776V47.2417H304.916ZM318.747 47.5217C316.027 47.5217 314.687 44.8217 314.687 39.9817C314.687 35.1017 316.027 32.4017 318.747 32.4017C321.467 32.4017 322.807 35.1017 322.807 39.9817C322.807 44.8217 321.467 47.5217 318.747 47.5217ZM318.747 44.6017C319.767 44.6017 320.407 43.1417 320.407 39.9817C320.407 36.7217 319.767 35.3217 318.747 35.3217C317.747 35.3217 317.107 36.7217 317.107 39.9817C317.107 43.1417 317.727 44.6017 318.747 44.6017ZM324.398 47.2417C324.558 44.7417 325.058 42.4217 327.258 40.3417C329.278 38.4017 329.738 37.5217 329.738 36.6017C329.738 35.6017 329.218 35.1417 328.458 35.1417C327.418 35.1417 326.858 35.9417 326.798 37.4017L324.398 36.7617C324.638 33.9617 326.158 32.2017 328.478 32.2017C330.898 32.2017 332.178 34.0817 332.178 36.5217C332.178 37.7217 331.898 39.3817 329.678 41.4817C328.718 42.4017 327.998 43.2017 327.598 44.2017H332.258V47.2417H324.398ZM338.169 47.5217C336.289 47.5217 334.789 46.3817 334.169 43.9017L336.549 43.1817C336.889 44.2617 337.589 44.5817 338.209 44.5817C339.229 44.5817 339.849 43.7217 339.849 42.4217C339.849 40.9617 339.029 40.1817 338.149 40.1817C337.349 40.1817 336.849 40.7817 336.469 41.6617L334.609 40.3817L335.009 32.5017H341.569V35.4017H337.149L337.029 37.4617C337.669 37.2617 338.049 37.2217 338.409 37.2217C340.689 37.2217 342.289 39.3217 342.289 42.3017C342.289 45.2217 340.849 47.5217 338.169 47.5217ZM356.82 44.0817V38.1017H352.36V36.0217H356.82V34.6617H352.36V32.5817H356.82V30.5417H359.46V44.0817H356.82ZM354.2 38.9817L354.46 41.1217C351.74 41.6217 349.3 41.7217 346.54 41.7217H345.06V31.7017H347.68V39.5617C349.9 39.5217 351.94 39.3817 354.2 38.9817ZM349.96 46.5417H359.88V48.6417H347.32V42.8817H349.96V46.5417ZM374.758 37.3017V35.4017H367.178V37.3017H374.758ZM377.358 31.2417V39.4017L364.558 39.4017V31.2417H367.178V33.3417L374.758 33.3417V31.2417H377.358ZM379.338 41.1417V43.2417H372.258V48.9817H369.618V43.2417H362.658V41.1417L379.338 41.1417ZM384.716 39.2617V42.7017C387.196 42.6817 389.216 42.5817 391.476 42.2217L391.716 44.3417C389.056 44.7617 386.696 44.8217 383.596 44.8217H382.096V32.0817H390.616V34.2017H384.716V37.2017H389.996V39.2617H384.716ZM394.076 30.5217H396.716V49.0017H394.076V39.1417H390.916V37.0217H394.076V30.5217ZM403.879 47.2417C404.039 44.7417 404.539 42.4217 406.739 40.3417C408.759 38.4017 409.219 37.5217 409.219 36.6017C409.219 35.6017 408.699 35.1417 407.939 35.1417C406.899 35.1417 406.339 35.9417 406.279 37.4017L403.879 36.7617C404.119 33.9617 405.639 32.2017 407.959 32.2017C410.379 32.2017 411.659 34.0817 411.659 36.5217C411.659 37.7217 411.379 39.3817 409.159 41.4817C408.199 42.4017 407.479 43.2017 407.079 44.2017H411.739V47.2417H403.879ZM417.71 47.5217C414.99 47.5217 413.65 44.8217 413.65 39.9817C413.65 35.1017 414.99 32.4017 417.71 32.4017C420.43 32.4017 421.77 35.1017 421.77 39.9817C421.77 44.8217 420.43 47.5217 417.71 47.5217ZM417.71 44.6017C418.73 44.6017 419.37 43.1417 419.37 39.9817C419.37 36.7217 418.73 35.3217 417.71 35.3217C416.71 35.3217 416.07 36.7217 416.07 39.9817C416.07 43.1417 416.69 44.6017 417.71 44.6017ZM423.361 47.2417C423.521 44.7417 424.021 42.4217 426.221 40.3417C428.241 38.4017 428.701 37.5217 428.701 36.6017C428.701 35.6017 428.181 35.1417 427.421 35.1417C426.381 35.1417 425.821 35.9417 425.761 37.4017L423.361 36.7617C423.601 33.9617 425.121 32.2017 427.441 32.2017C429.861 32.2017 431.141 34.0817 431.141 36.5217C431.141 37.7217 430.861 39.3817 428.641 41.4817C427.681 42.4017 426.961 43.2017 426.561 44.2017H431.221V47.2417H423.361ZM437.592 47.5217C434.712 47.5217 433.132 44.8617 433.132 40.1417C433.132 35.2017 434.812 32.3017 437.812 32.3017C439.612 32.3017 440.852 33.3417 441.432 35.6817L439.152 36.3617C438.892 35.5217 438.452 35.2217 437.852 35.2217C436.932 35.2217 435.892 35.9617 435.652 38.7417C436.252 38.2417 436.872 37.7417 437.972 37.7417C440.072 37.7417 441.732 39.6417 441.732 42.5017C441.732 45.5617 440.052 47.5217 437.592 47.5217ZM437.692 44.5817C438.612 44.5817 439.272 43.7617 439.272 42.6017C439.272 41.4617 438.632 40.7417 437.672 40.7417C437.032 40.7417 436.372 41.0617 435.812 42.0817C435.972 43.5617 436.692 44.5817 437.692 44.5817ZM456.193 44.0817V38.1017H451.733V36.0217H456.193V34.6617H451.733V32.5817H456.193V30.5417L458.833 30.5417V44.0817H456.193ZM453.573 38.9817L453.833 41.1217C451.113 41.6217 448.673 41.7217 445.913 41.7217H444.433V31.7017H447.053V39.5617C449.273 39.5217 451.313 39.3817 453.573 38.9817ZM449.333 46.5417H459.253V48.6417L446.693 48.6417V42.8817L449.333 42.8817V46.5417ZM462.471 32.4217H467.451C467.451 37.5017 466.991 41.4617 463.711 45.1017L461.651 43.6017C464.091 40.9017 464.811 38.2417 464.951 34.5417L462.471 34.5417V32.4217ZM468.091 32.4217L472.531 32.4217C472.531 37.7417 472.111 42.2817 468.891 46.2617L466.811 44.8017C469.251 41.7217 469.911 38.6417 470.051 34.5417H468.091V32.4217ZM479.051 37.7417V39.9217H476.671V48.9417H474.011V30.5217H476.671V37.7417H479.051ZM487.75 34.4817V35.5017C487.75 38.5017 489.23 41.6817 492.31 42.9617L490.87 45.0417C488.73 44.1217 487.27 42.3217 486.45 40.1017C485.63 42.5017 484.15 44.5217 481.99 45.5017L480.49 43.4017C483.57 42.0217 485.07 38.6417 485.07 35.5017V34.4817H481.23V32.3017H491.55V34.4817H487.75ZM493.25 30.5417H495.89V48.9617H493.25V30.5417ZM519.492 37.1617L518.472 39.3017C515.272 38.8017 512.952 37.2617 511.792 35.2617C510.612 37.2817 508.292 38.8017 505.072 39.3017L504.072 37.1617C508.252 36.5617 510.372 34.1617 510.372 31.9617V31.0817H513.192V31.9617C513.192 34.1417 515.312 36.5617 519.492 37.1617ZM520.112 40.7017V42.8017H516.372V49.0217H513.732V42.8017H509.872V49.0217H507.252V42.8017H503.432V40.7017H520.112ZM526.531 34.2617V42.6017C527.131 42.5817 527.731 42.5617 528.351 42.5217V34.2617H526.531ZM530.891 34.2617V42.3617C531.631 42.3217 532.371 42.2417 533.071 42.1617L533.231 44.0817C529.551 44.7217 525.371 44.8017 522.231 44.8017L521.951 42.6617C522.591 42.6617 523.271 42.6617 523.971 42.6617V34.2617H522.451V32.1617H532.611V34.2617H530.891ZM534.851 30.5417H537.491V48.9817H534.851V39.3617H532.111V37.2217H534.851V30.5417ZM556.729 39.2017L555.609 41.4217C552.409 40.7817 550.049 39.0017 548.869 36.6617C547.689 39.0017 545.349 40.8017 542.149 41.4217L541.029 39.2017C545.169 38.5017 547.469 35.5817 547.469 32.9417V31.6217H550.289V32.9417C550.289 35.6417 552.569 38.5017 556.729 39.2017ZM540.629 44.5817H557.309V46.7217H540.629V44.5817ZM563.748 45.1217V46.6817H571.288V45.1217H563.748ZM561.168 48.7417V43.0617H573.888V48.7417H561.168ZM568.848 39.9617H575.868V42.0417H559.208V39.9617H566.208V38.8217H561.288V30.9217L573.968 30.9217V32.9217H563.908V33.8817H573.548V35.8017H563.908V36.8217H574.108V38.8217H568.848V39.9617ZM581.966 42.7417C582.986 42.7417 583.566 41.3617 583.566 38.5217C583.566 35.7017 582.986 34.3217 581.966 34.3217C580.966 34.3217 580.366 35.7017 580.366 38.5217C580.366 41.3617 580.966 42.7417 581.966 42.7417ZM587.386 37.3217V30.8417H589.846V48.1417H587.386V39.4617H585.946C585.706 43.0617 584.206 45.2217 581.966 45.2217C579.526 45.2217 577.986 42.7017 577.986 38.5217C577.986 34.3617 579.526 31.8417 581.966 31.8417C584.146 31.8417 585.626 33.8817 585.926 37.3217H587.386ZM591.126 30.5217H593.626V48.9417H591.126V30.5217ZM603.344 31.9617V34.6217C603.344 38.1017 604.684 41.4817 607.724 42.8417L606.164 44.9417C604.144 43.9617 602.804 42.1617 602.044 39.9417C601.244 42.3017 599.864 44.2217 597.804 45.2617L596.164 43.1417C599.284 41.7017 600.684 38.1217 600.684 34.6217V31.9617H603.344ZM609.244 30.5217H611.884V49.0017H609.244V38.4217L605.704 38.4217V36.3017L609.244 36.3017V30.5217ZM634.527 30.5417V39.7617H631.867V30.5417H634.527ZM622.047 35.2817C622.047 36.6017 623.067 37.3617 624.427 37.3617C625.787 37.3617 626.767 36.6017 626.767 35.2817C626.767 33.9817 625.787 33.2017 624.427 33.2017C623.067 33.2017 622.047 33.9817 622.047 35.2817ZM629.327 35.2817C629.327 37.7417 627.227 39.5017 624.427 39.5017C621.607 39.5017 619.487 37.7417 619.487 35.2817C619.487 32.8417 621.607 31.0817 624.427 31.0817C627.227 31.0817 629.327 32.8417 629.327 35.2817ZM624.887 46.7017H634.987V48.7417L622.267 48.7417V43.6617L631.907 43.6617V42.5417L622.247 42.5417V40.5217H634.527V45.5417H624.887V46.7017ZM642.865 42.5817C644.225 42.5817 645.125 41.1217 645.125 38.3817C645.125 35.6617 644.225 34.2017 642.865 34.2017C641.525 34.2017 640.625 35.6617 640.625 38.3817C640.625 41.1217 641.525 42.5817 642.865 42.5817ZM650.645 30.5217H653.285V49.0017H650.645V39.3017H647.585C647.305 42.8217 645.425 44.9817 642.865 44.9817C640.125 44.9817 638.105 42.4417 638.105 38.3817C638.105 34.3417 640.125 31.8217 642.865 31.8217C645.345 31.8217 647.205 33.8417 647.565 37.1617H650.645V30.5217ZM666.784 36.2617L667.084 38.3617C664.084 38.9617 661.304 39.1417 658.724 39.1417H657.164V31.3417H659.804V36.9417C661.984 36.9017 664.324 36.7417 666.784 36.2617ZM661.424 45.4817V46.6817H671.464V48.7417H658.784V43.5417H668.284V42.4617H658.764V40.3817H670.924V45.4817H661.424ZM670.924 33.9817H673.364V36.1217H670.924V39.6217H668.284V30.5217H670.924V33.9817ZM694.526 30.5417V39.7617H691.866V30.5417H694.526ZM682.046 35.2817C682.046 36.6017 683.066 37.3617 684.426 37.3617C685.786 37.3617 686.766 36.6017 686.766 35.2817C686.766 33.9817 685.786 33.2017 684.426 33.2017C683.066 33.2017 682.046 33.9817 682.046 35.2817ZM689.326 35.2817C689.326 37.7417 687.226 39.5017 684.426 39.5017C681.606 39.5017 679.486 37.7417 679.486 35.2817C679.486 32.8417 681.606 31.0817 684.426 31.0817C687.226 31.0817 689.326 32.8417 689.326 35.2817ZM684.886 46.7017H694.986V48.7417H682.266V43.6617H691.906V42.5417H682.246V40.5217H694.526V45.5417H684.886V46.7017Z" fill="#F5F5FA"/>
<rect x="32" y="334.511" width="312" height="80" stroke="#F5F5FA" stroke-width="2"/>
<path d="M158.238 376.599H140.214V374.055H147.654V372.591H142.35V365.607H156.126V368.079H145.542V370.047H156.174V372.591H150.798V374.055H158.238V376.599ZM149.19 377.463C151.35 377.463 153.03 377.791 154.23 378.447C155.446 379.087 156.054 380.007 156.054 381.207C156.054 382.391 155.446 383.303 154.23 383.943C153.014 384.599 151.334 384.927 149.19 384.927C147.014 384.927 145.31 384.599 144.078 383.943C142.846 383.303 142.23 382.391 142.23 381.207C142.23 380.007 142.846 379.087 144.078 378.447C145.31 377.791 147.014 377.463 149.19 377.463ZM149.19 379.911C147.91 379.911 146.966 380.015 146.358 380.223C145.766 380.431 145.47 380.759 145.47 381.207C145.47 381.655 145.766 381.983 146.358 382.191C146.95 382.383 147.894 382.479 149.19 382.479C150.454 382.479 151.382 382.383 151.974 382.191C152.566 381.983 152.862 381.655 152.862 381.207C152.862 380.759 152.558 380.431 151.95 380.223C151.358 380.015 150.438 379.911 149.19 379.911ZM177.133 382.767H159.133V380.127H163.573V377.319H161.173V370.311H171.973V368.559H161.149V365.967H175.165V372.879H164.341V374.727H175.597V377.319H172.957V380.127H177.133V382.767ZM169.813 380.127V377.319H166.693V380.127H169.813ZM183.821 383.511V365.463H186.605L190.781 378.591L194.885 365.463H197.645V383.511H194.765V375.159L192.173 383.511H189.389L186.701 375.087V383.511H183.821ZM200.303 383.511V365.463H210.383V369.039H203.183V372.447H209.735V376.023H203.183V379.911H210.551V383.511H200.303ZM212.801 383.511V365.463H222.881V369.039H215.681V372.447H222.233V376.023H215.681V379.911H223.049V383.511H212.801ZM228.659 383.511V369.039H224.291V365.463H235.931V369.039H231.539V383.511H228.659Z" fill="#F5F5FA"/>
<rect x="344" y="334.511" width="312" height="80" stroke="#F5F5FA" stroke-width="2"/>
<path d="M474.751 377.271H471.727V372.135H470.599V376.671H467.623V365.103H470.599V369.543H471.727V364.719H474.751V377.271ZM467.167 369.135H457.687V366.663H460.855V364.911H464.023V366.663H467.167V369.135ZM462.439 369.687C463.703 369.687 464.735 370.015 465.535 370.671C466.351 371.327 466.759 372.183 466.759 373.239C466.759 374.263 466.351 375.103 465.535 375.759C464.735 376.399 463.703 376.719 462.439 376.719C461.639 376.719 460.911 376.575 460.255 376.287C459.615 375.983 459.103 375.567 458.719 375.039C458.351 374.511 458.167 373.911 458.167 373.239C458.167 372.551 458.351 371.935 458.719 371.391C459.103 370.847 459.615 370.431 460.255 370.143C460.911 369.839 461.639 369.687 462.439 369.687ZM462.439 371.991C461.991 371.991 461.639 372.103 461.383 372.327C461.127 372.535 460.999 372.839 460.999 373.239C460.999 373.623 461.127 373.927 461.383 374.151C461.655 374.375 462.007 374.487 462.439 374.487C462.887 374.487 463.239 374.375 463.495 374.151C463.767 373.927 463.903 373.623 463.903 373.239C463.903 372.839 463.767 372.535 463.495 372.327C463.239 372.103 462.887 371.991 462.439 371.991ZM467.935 377.463C470.111 377.463 471.807 377.791 473.023 378.447C474.255 379.087 474.871 379.999 474.871 381.183C474.871 382.351 474.255 383.263 473.023 383.919C471.791 384.575 470.095 384.903 467.935 384.903C465.791 384.903 464.111 384.575 462.895 383.919C461.679 383.263 461.071 382.351 461.071 381.183C461.071 379.999 461.679 379.087 462.895 378.447C464.111 377.791 465.791 377.463 467.935 377.463ZM467.935 379.839C466.671 379.839 465.735 379.943 465.127 380.151C464.535 380.359 464.239 380.703 464.239 381.183C464.239 381.631 464.535 381.959 465.127 382.167C465.735 382.375 466.671 382.479 467.935 382.479C469.215 382.479 470.151 382.375 470.743 382.167C471.351 381.959 471.655 381.631 471.655 381.183C471.655 380.703 471.351 380.359 470.743 380.151C470.151 379.943 469.215 379.839 467.935 379.839ZM494.703 376.599H476.679V374.055H484.119V372.591H478.815V365.607H492.591V368.079H482.007V370.047H492.639V372.591H487.263V374.055H494.703V376.599ZM485.655 377.463C487.815 377.463 489.495 377.791 490.695 378.447C491.911 379.087 492.519 380.007 492.519 381.207C492.519 382.391 491.911 383.303 490.695 383.943C489.479 384.599 487.799 384.927 485.655 384.927C483.479 384.927 481.775 384.599 480.543 383.943C479.311 383.303 478.695 382.391 478.695 381.207C478.695 380.007 479.311 379.087 480.543 378.447C481.775 377.791 483.479 377.463 485.655 377.463ZM485.655 379.911C484.375 379.911 483.431 380.015 482.823 380.223C482.231 380.431 481.935 380.759 481.935 381.207C481.935 381.655 482.231 381.983 482.823 382.191C483.415 382.383 484.359 382.479 485.655 382.479C486.919 382.479 487.847 382.383 488.439 382.191C489.031 381.983 489.327 381.655 489.327 381.207C489.327 380.759 489.023 380.431 488.415 380.223C487.823 380.015 486.903 379.911 485.655 379.911ZM500.239 383.511L505.879 365.463H509.071L514.663 383.511H511.663L510.319 379.023H504.655L503.263 383.511H500.239ZM505.735 375.471H509.239L507.487 369.807L505.735 375.471ZM522.856 383.967C518.704 383.967 515.728 380.175 515.728 374.727C515.728 369.183 518.872 365.031 523.072 365.031C525.952 365.031 528.28 366.951 529.408 370.191L526.432 371.415C525.64 369.519 524.56 368.679 523.024 368.679C520.528 368.679 518.752 371.199 518.752 374.631C518.752 377.991 520.432 380.343 522.832 380.343C524.584 380.343 525.952 379.215 526.6 377.175L529.48 378.015C528.376 381.783 526.024 383.967 522.856 383.967ZM535.113 383.511V369.039H530.745V365.463H542.385V369.039H537.993V383.511H535.113Z" fill="#F5F5FA"/>
<rect x="656" y="334.511" width="312" height="80" stroke="#F5F5FA" stroke-width="2"/>
<path d="M763.177 384.903H759.961V364.719H763.177V384.903ZM757.273 366.807C757.273 369.031 757.001 371.031 756.457 372.807C755.929 374.567 754.993 376.191 753.649 377.679C752.321 379.167 750.497 380.471 748.177 381.591L746.545 378.999C749.009 377.799 750.809 376.439 751.945 374.919C753.097 373.399 753.785 371.527 754.009 369.303H747.673V366.807H757.273ZM783.441 377.991H765.441V375.447H772.881V374.223H767.649V368.439H778.161V367.551H767.625V365.031H781.353V370.743H770.841V371.775H781.641V374.223H776.049V375.447H783.441V377.991ZM781.449 384.855H778.233V381.519H767.505V378.975H781.449V384.855ZM789.024 383.511L794.664 365.463H797.856L803.449 383.511H800.449L799.104 379.023H793.44L792.048 383.511H789.024ZM794.52 375.471H798.024L796.272 369.807L794.52 375.471ZM804.994 383.511V365.463H810.994C813.874 365.463 815.626 367.767 815.626 370.647C815.626 372.663 814.786 374.319 813.154 375.159C814.978 376.503 814.354 379.575 815.986 383.511H812.77C811.81 381.711 811.81 375.735 809.362 375.735H807.874V383.511H804.994ZM807.874 372.159H810.946C812.002 372.159 812.698 371.511 812.698 370.551C812.698 369.663 812.05 369.039 810.946 369.039H807.874V372.159ZM824.89 383.967C820.738 383.967 817.762 380.175 817.762 374.727C817.762 369.183 820.906 365.031 825.106 365.031C827.986 365.031 830.314 366.951 831.442 370.191L828.466 371.415C827.674 369.519 826.594 368.679 825.058 368.679C822.562 368.679 820.786 371.199 820.786 374.631C820.786 377.991 822.466 380.343 824.866 380.343C826.618 380.343 827.986 379.215 828.634 377.175L831.514 378.015C830.41 381.783 828.058 383.967 824.89 383.967ZM833.787 383.511V365.463H836.667V372.519H842.235V365.463H845.115V383.511H842.235V376.071H836.667V383.511H833.787ZM848.024 383.511V365.463H850.952V383.511H848.024ZM858.061 383.511L852.829 365.463H855.853L858.973 376.407L862.069 365.463H865.093L859.885 383.511H858.061ZM866.733 383.511V365.463H876.813V369.039H869.613V372.447H876.165V376.023H869.613V379.911H876.981V383.511H866.733Z" fill="#F5F5FA"/>
<rect x="90.032" y="239.655" width="273" height="80" stroke="#F5F5FA" stroke-width="2"/>
<path d="M169.141 274.667H171.733V277.307H169.141V283.931H165.997V269.387H169.141V274.667ZM163.117 273.491H157.357V278.099C159.165 278.083 160.581 278.043 161.605 277.979C162.645 277.899 163.645 277.747 164.605 277.523L164.917 280.091C163.781 280.331 162.565 280.499 161.269 280.595C159.989 280.675 158.197 280.715 155.893 280.715H154.165V270.899H163.117V273.491ZM169.789 289.211H156.253V282.371H159.397V286.667H169.789V289.211ZM178.677 275.459C178.677 279.123 179.901 281.627 182.349 282.971L180.645 285.395C179.061 284.579 177.909 283.211 177.189 281.291C176.453 283.435 175.293 284.955 173.709 285.851L171.933 283.427C173.277 282.627 174.237 281.523 174.813 280.115C175.389 278.707 175.677 277.155 175.677 275.459V275.219H172.749V272.651H175.677V270.035H178.653V272.651H181.509V275.219H178.677V275.459ZM189.477 289.547H186.429V269.363H189.477V289.547ZM185.421 288.635H182.445V279.515H180.477V276.875H182.445V269.627H185.421V288.635ZM203.677 288.611C199.549 288.611 196.573 284.627 196.573 279.203C196.573 273.851 199.381 269.675 203.677 269.675C207.973 269.675 210.733 273.875 210.733 279.203C210.733 284.627 207.805 288.611 203.677 288.611ZM203.677 285.035C206.005 285.035 207.733 282.635 207.733 279.179C207.733 275.843 206.173 273.275 203.677 273.275C201.181 273.275 199.621 275.843 199.621 279.179C199.621 282.611 201.349 285.035 203.677 285.035ZM212.902 288.155V270.107H218.902C221.782 270.107 223.534 272.411 223.534 275.291C223.534 277.307 222.694 278.963 221.062 279.803C222.886 281.147 222.262 284.219 223.894 288.155H220.678C219.718 286.355 219.718 280.379 217.27 280.379H215.782V288.155H212.902ZM215.782 276.803H218.854C219.91 276.803 220.606 276.155 220.606 275.195C220.606 274.307 219.958 273.683 218.854 273.683H215.782V276.803ZM231.982 288.611C228.334 288.611 225.67 284.795 225.67 279.347C225.67 274.091 228.142 269.675 232.39 269.675C235.246 269.675 237.286 271.667 238.222 274.883L235.366 275.723C234.79 274.019 233.686 273.299 232.414 273.299C229.99 273.299 228.622 275.963 228.622 279.323C228.622 282.947 230.206 285.011 232.246 285.011C233.542 285.011 234.886 284.147 235.438 281.963H232.582V278.387H238.366V288.155H235.75L235.582 286.739C234.694 287.987 233.446 288.611 231.982 288.611ZM239.817 288.155L245.457 270.107H248.649L254.241 288.155H251.241L249.897 283.667H244.233L242.841 288.155H239.817ZM245.313 280.115H248.817L247.065 274.451L245.313 280.115ZM255.786 288.155V270.107H258.474L264.378 281.507V270.107H267.258V288.155H264.618L258.69 276.731V288.155H255.786ZM270.141 288.155V270.107H273.069V288.155H270.141ZM275.666 288.155V286.043L282.194 273.683H275.786V270.107H286.514V272.363L280.058 284.555H286.514V288.155H275.666ZM288.897 288.155V270.107H298.977V273.683H291.777V277.091H298.329V280.667H291.777V284.555H299.145V288.155H288.897Z" fill="#F5F5FA"/>
<rect x="363.032" y="239.655" width="273" height="80" stroke="#F5F5FA" stroke-width="2"/>
<path d="M421.861 273.539C421.861 275.539 422.213 277.339 422.917 278.939C423.637 280.539 424.773 281.715 426.325 282.467L424.429 285.059C422.525 284.099 421.149 282.403 420.301 279.971C419.405 282.595 417.901 284.419 415.789 285.443L413.917 282.803C415.565 282.035 416.765 280.827 417.517 279.179C418.285 277.515 418.669 275.635 418.669 273.539V270.851H421.861V273.539ZM429.997 276.971H432.757V279.707H429.997V289.547H426.829V269.363H429.997V276.971ZM449.972 289.547H446.78V269.363H449.972V289.547ZM433.364 283.715C435.38 283.715 436.964 283.699 438.116 283.667V282.155C437.076 281.931 436.252 281.491 435.644 280.835C435.036 280.179 434.732 279.395 434.732 278.483C434.732 277.747 434.94 277.099 435.356 276.539C435.772 275.963 436.356 275.515 437.108 275.195C437.86 274.875 438.724 274.715 439.7 274.715C440.676 274.715 441.54 274.875 442.292 275.195C443.044 275.515 443.628 275.963 444.044 276.539C444.476 277.099 444.692 277.747 444.692 278.483C444.692 279.395 444.38 280.179 443.756 280.835C443.148 281.491 442.316 281.931 441.26 282.155V283.571C442.988 283.491 444.508 283.355 445.82 283.163L446.036 285.515C444.148 285.867 442.212 286.099 440.228 286.211C438.244 286.307 436.084 286.355 433.748 286.355L433.364 283.715ZM445.652 274.043H433.724V271.547H438.116V269.483H441.308V271.547H445.652V274.043ZM439.7 277.163C439.108 277.163 438.628 277.275 438.26 277.499C437.908 277.723 437.732 278.051 437.732 278.483C437.732 278.947 437.908 279.291 438.26 279.515C438.628 279.739 439.108 279.851 439.7 279.851C440.324 279.851 440.812 279.739 441.164 279.515C441.516 279.291 441.692 278.947 441.692 278.483C441.692 278.051 441.508 277.723 441.14 277.499C440.788 277.275 440.308 277.163 439.7 277.163ZM475.068 281.579H467.844V284.819H464.652V281.579H457.068V279.059H475.068V281.579ZM473.1 289.211H459.18V283.139H462.372V286.643H473.1V289.211ZM466.092 269.675C467.516 269.675 468.764 269.851 469.836 270.203C470.924 270.555 471.764 271.051 472.356 271.691C472.948 272.315 473.244 273.051 473.244 273.899C473.244 274.763 472.948 275.515 472.356 276.155C471.764 276.779 470.932 277.267 469.86 277.619C468.788 277.955 467.532 278.123 466.092 278.123C464.668 278.123 463.412 277.955 462.324 277.619C461.236 277.267 460.396 276.779 459.804 276.155C459.212 275.515 458.916 274.763 458.916 273.899C458.916 273.067 459.212 272.331 459.804 271.691C460.412 271.051 461.252 270.555 462.324 270.203C463.412 269.851 464.668 269.675 466.092 269.675ZM466.092 272.243C464.892 272.243 463.964 272.379 463.308 272.651C462.652 272.923 462.324 273.339 462.324 273.899C462.324 274.443 462.644 274.851 463.284 275.123C463.94 275.395 464.876 275.531 466.092 275.531C468.588 275.531 469.836 274.987 469.836 273.899C469.836 273.339 469.508 272.923 468.852 272.651C468.212 272.379 467.292 272.243 466.092 272.243ZM494.036 281.243H476.012V278.699H483.452V277.235H478.148V270.251H491.924V272.723H481.34V274.691H491.972V277.235H486.596V278.699H494.036V281.243ZM484.988 282.107C487.148 282.107 488.828 282.435 490.028 283.091C491.244 283.731 491.852 284.651 491.852 285.851C491.852 287.035 491.244 287.947 490.028 288.587C488.812 289.243 487.132 289.571 484.988 289.571C482.812 289.571 481.108 289.243 479.876 288.587C478.644 287.947 478.028 287.035 478.028 285.851C478.028 284.651 478.644 283.731 479.876 283.091C481.108 282.435 482.812 282.107 484.988 282.107ZM484.988 284.555C483.708 284.555 482.764 284.659 482.156 284.867C481.564 285.075 481.268 285.403 481.268 285.851C481.268 286.299 481.564 286.627 482.156 286.835C482.748 287.027 483.692 287.123 484.988 287.123C486.252 287.123 487.18 287.027 487.772 286.835C488.364 286.627 488.66 286.299 488.66 285.851C488.66 285.403 488.356 285.075 487.748 284.867C487.156 284.659 486.236 284.555 484.988 284.555ZM507.348 288.611C503.196 288.611 500.22 284.819 500.22 279.371C500.22 273.827 503.364 269.675 507.564 269.675C510.444 269.675 512.772 271.595 513.9 274.835L510.924 276.059C510.132 274.163 509.052 273.323 507.516 273.323C505.02 273.323 503.244 275.843 503.244 279.275C503.244 282.635 504.924 284.987 507.324 284.987C509.076 284.987 510.444 283.859 511.092 281.819L513.972 282.659C512.868 286.427 510.516 288.611 507.348 288.611ZM516.244 288.155V270.107H519.124V277.163H524.692V270.107H527.572V288.155H524.692V280.715H519.124V288.155H516.244ZM529.114 288.155L534.754 270.107H537.946L543.538 288.155H540.538L539.194 283.667H533.53L532.138 288.155H529.114ZM534.61 280.115H538.114L536.362 274.451L534.61 280.115ZM545.084 288.155V270.107H547.772L553.676 281.507V270.107H556.556V288.155H553.916L547.988 276.731V288.155H545.084ZM565.031 288.611C561.383 288.611 558.719 284.795 558.719 279.347C558.719 274.091 561.191 269.675 565.439 269.675C568.295 269.675 570.335 271.667 571.271 274.883L568.415 275.723C567.839 274.019 566.735 273.299 565.463 273.299C563.039 273.299 561.671 275.963 561.671 279.323C561.671 282.947 563.255 285.011 565.295 285.011C566.591 285.011 567.935 284.147 568.487 281.963H565.631V278.387H571.415V288.155H568.799L568.631 286.739C567.743 287.987 566.495 288.611 565.031 288.611ZM573.993 288.155V270.107H584.073V273.683H576.873V277.091H583.425V280.667H576.873V284.555H584.241V288.155H573.993Z" fill="#F5F5FA"/>
<rect x="636.032" y="239.655" width="273" height="80" stroke="#F5F5FA" stroke-width="2"/>
<path d="M702.275 274.571C702.275 276.347 702.659 277.987 703.427 279.491C704.211 280.979 705.411 282.059 707.027 282.731L705.347 285.299C703.203 284.371 701.659 282.667 700.715 280.187C699.771 282.923 698.203 284.787 696.011 285.779L694.259 283.235C695.859 282.515 697.051 281.355 697.835 279.755C698.619 278.155 699.011 276.427 699.011 274.571V273.875H695.051V271.283H706.187V273.875H702.275V274.571ZM710.963 289.547H707.771V269.363H710.963V289.547ZM721.099 272.195C721.099 273.475 721.451 274.627 722.155 275.651C722.859 276.675 723.987 277.419 725.539 277.883L724.051 280.451C721.923 279.795 720.395 278.555 719.467 276.731C718.491 278.731 716.899 280.075 714.691 280.763L713.179 278.195C714.779 277.683 715.947 276.891 716.683 275.819C717.435 274.731 717.811 273.523 717.811 272.195V270.251H721.099V272.195ZM729.883 289.547H726.715V284.747H716.275V282.179H729.883V289.547ZM729.883 281.315H726.715V269.363H729.883V281.315ZM738.251 288.155V270.107H741.179V288.155H738.251ZM744.063 288.155V270.107H746.751L752.655 281.507V270.107H755.535V288.155H752.895L746.967 276.731V288.155H744.063ZM762.402 288.155L757.17 270.107H760.194L763.314 281.051L766.41 270.107H769.434L764.226 288.155H762.402ZM771.075 288.155V270.107H781.155V273.683H773.955V277.091H780.507V280.667H773.955V284.555H781.323V288.155H771.075ZM783.572 288.155V270.107H786.26L792.164 281.507V270.107H795.044V288.155H792.404L786.476 276.731V288.155H783.572ZM801.047 288.155V273.683H796.679V270.107H808.319V273.683H803.927V288.155H801.047ZM816.575 288.611C812.447 288.611 809.471 284.627 809.471 279.203C809.471 273.851 812.279 269.675 816.575 269.675C820.871 269.675 823.631 273.875 823.631 279.203C823.631 284.627 820.703 288.611 816.575 288.611ZM816.575 285.035C818.903 285.035 820.631 282.635 820.631 279.179C820.631 275.843 819.071 273.275 816.575 273.275C814.079 273.275 812.519 275.843 812.519 279.179C812.519 282.611 814.247 285.035 816.575 285.035ZM825.8 288.155V270.107H831.8C834.68 270.107 836.432 272.411 836.432 275.291C836.432 277.307 835.592 278.963 833.96 279.803C835.784 281.147 835.16 284.219 836.792 288.155H833.576C832.616 286.355 832.616 280.379 830.168 280.379H828.68V288.155H825.8ZM828.68 276.803H831.752C832.808 276.803 833.504 276.155 833.504 275.195C833.504 274.307 832.856 273.683 831.752 273.683H828.68V276.803ZM842.984 288.155V279.539L837.944 270.107H841.232L844.424 276.203L847.664 270.107H850.88L845.864 279.515V288.155H842.984Z" fill="#F5F5FA"/>
<rect x="149" y="147.239" width="702" height="80" stroke="#F5F5FA" stroke-width="2"/>
<path d="M409.628 191.007H405.788V197.631H402.644V191.007H398.828V197.631H395.66V191.007H391.628V188.415H409.628V191.007ZM402.356 178.887C402.356 179.687 402.588 180.479 403.052 181.263C403.532 182.047 404.268 182.735 405.26 183.327C406.268 183.903 407.524 184.287 409.028 184.479L407.828 187.119C406.132 186.863 404.684 186.367 403.484 185.631C402.284 184.895 401.348 183.983 400.676 182.895C400.02 183.983 399.084 184.895 397.868 185.631C396.652 186.367 395.188 186.863 393.476 187.119L392.276 184.479C393.796 184.287 395.052 183.895 396.044 183.303C397.052 182.711 397.788 182.023 398.252 181.239C398.732 180.455 398.972 179.671 398.972 178.887V177.951H402.356V178.887ZM422.02 181.647H420.244V190.263C420.98 190.215 421.716 190.143 422.452 190.047L422.62 192.375C420.86 192.711 419.02 192.927 417.1 193.023C415.18 193.119 413.084 193.167 410.812 193.167L410.548 190.575L412.564 190.551V181.647H411.052V179.079H422.02V181.647ZM427.3 197.631H424.156V187.239H421.516V184.671H424.156V177.447H427.3V197.631ZM417.196 190.455V181.647H415.66V190.503L417.196 190.455ZM440.075 179.967C440.075 180.943 440.315 181.903 440.795 182.847C441.291 183.775 442.051 184.591 443.075 185.295C444.099 185.999 445.387 186.487 446.939 186.759L445.571 189.423C443.859 189.103 442.395 188.503 441.179 187.623C439.979 186.743 439.051 185.671 438.395 184.407C437.739 185.671 436.803 186.743 435.587 187.623C434.371 188.487 432.907 189.087 431.195 189.423L429.851 186.759C431.371 186.487 432.643 185.999 433.667 185.295C434.691 184.575 435.451 183.751 435.947 182.823C436.443 181.879 436.691 180.927 436.691 179.967V178.575H440.075V179.967ZM447.491 195.279H429.491V192.591H447.491V195.279ZM466.363 190.191H448.387V187.647H455.755V186.687H450.571V177.807H464.347V180.279H453.763V181.071H463.915V183.399H453.763V184.191H464.515V186.687H458.971V187.647H466.363V190.191ZM464.251 197.415H450.475V191.103H464.251V197.415ZM453.595 194.871H461.131V193.599H453.595V194.871ZM478.715 196.695C475.427 196.695 473.315 194.727 472.811 191.103L475.643 190.287C476.003 192.279 476.939 193.167 478.619 193.167C480.203 193.167 481.307 192.351 481.307 191.247C481.307 190.215 480.323 189.423 478.115 188.583C474.635 187.311 473.003 185.439 473.003 182.703C473.003 179.655 475.043 177.759 478.379 177.759C481.427 177.759 483.179 179.367 483.899 182.631L480.875 183.447C480.491 181.983 479.699 181.335 478.211 181.335C476.843 181.335 475.979 181.863 475.979 182.823C475.979 183.687 476.675 184.263 479.051 185.199C482.579 186.591 484.235 188.559 484.235 191.343C484.235 194.559 482.051 196.695 478.715 196.695ZM492.173 196.695C488.885 196.695 486.605 194.367 486.605 189.591V178.191H489.509V189.639C489.509 191.991 490.493 193.095 492.173 193.095C493.877 193.095 494.957 192.039 494.957 189.663V178.191H497.837V189.615C497.837 194.343 495.533 196.695 492.173 196.695ZM500.485 196.239V178.191H506.341C509.293 178.191 510.973 180.687 510.973 183.687C510.973 186.735 509.221 189.231 506.341 189.231H503.389V196.239H500.485ZM503.389 185.655H506.341C507.349 185.655 508.045 184.887 508.045 183.687C508.045 182.511 507.373 181.767 506.341 181.767H503.389V185.655ZM513.03 196.239V178.191H523.11V181.767H515.91V185.175H522.462V188.751H515.91V192.639H523.278V196.239H513.03ZM525.528 196.239V178.191H531.528C534.408 178.191 536.16 180.495 536.16 183.375C536.16 185.391 535.32 187.047 533.688 187.887C535.512 189.231 534.888 192.303 536.52 196.239H533.304C532.344 194.439 532.344 188.463 529.896 188.463H528.408V196.239H525.528ZM528.408 184.887H531.48C532.536 184.887 533.232 184.239 533.232 183.279C533.232 182.391 532.584 181.767 531.48 181.767H528.408V184.887ZM544.391 196.695C541.103 196.695 538.991 194.727 538.487 191.103L541.319 190.287C541.679 192.279 542.615 193.167 544.295 193.167C545.879 193.167 546.983 192.351 546.983 191.247C546.983 190.215 545.999 189.423 543.791 188.583C540.311 187.311 538.679 185.439 538.679 182.703C538.679 179.655 540.719 177.759 544.055 177.759C547.103 177.759 548.855 179.367 549.575 182.631L546.551 183.447C546.167 181.983 545.375 181.335 543.887 181.335C542.519 181.335 541.655 181.863 541.655 182.823C541.655 183.687 542.351 184.263 544.727 185.199C548.255 186.591 549.911 188.559 549.911 191.343C549.911 194.559 547.727 196.695 544.391 196.695ZM555.641 196.239V181.767H551.273V178.191H562.913V181.767H558.521V196.239H555.641ZM571.169 196.695C567.041 196.695 564.065 192.711 564.065 187.287C564.065 181.935 566.873 177.759 571.169 177.759C575.465 177.759 578.225 181.959 578.225 187.287C578.225 192.711 575.297 196.695 571.169 196.695ZM571.169 193.119C573.497 193.119 575.225 190.719 575.225 187.263C575.225 183.927 573.665 181.359 571.169 181.359C568.673 181.359 567.113 183.927 567.113 187.263C567.113 190.695 568.841 193.119 571.169 193.119ZM580.394 196.239V178.191H586.394C589.274 178.191 591.026 180.495 591.026 183.375C591.026 185.391 590.186 187.047 588.554 187.887C590.378 189.231 589.754 192.303 591.386 196.239H588.17C587.21 194.439 587.21 188.463 584.762 188.463H583.274V196.239H580.394ZM583.274 184.887H586.346C587.402 184.887 588.098 184.239 588.098 183.279C588.098 182.391 587.45 181.767 586.346 181.767H583.274V184.887ZM593.642 196.239V178.191H596.426L600.602 191.319L604.706 178.191H607.466V196.239H604.586V187.887L601.994 196.239H599.21L596.522 187.815V196.239H593.642Z" fill="#F5F5FA"/>
<path d="M32 334.511L90.032 319.535" stroke="#F5F5FA" stroke-width="2"/>
<path d="M90.032 241.655L149 226.679" stroke="#F5F5FA" stroke-width="2"/>
<path d="M149 147.863L207.968 132.887" stroke="#F5F5FA" stroke-width="2" stroke-dasharray="1 5"/>
<path d="M968 334.511L909.032 319.535" stroke="#F5F5FA" stroke-width="2"/>
<path d="M909.032 241.655L850.064 226.679" stroke="#F5F5FA" stroke-width="2"/>
<path d="M851 147.863L792.032 132.887" stroke="#F5F5FA" stroke-width="2" stroke-dasharray="1 5"/>
<path d="M343.688 334.979L362.876 319.535" stroke="#F5F5FA" stroke-width="2"/>
<path d="M655.844 334.511L636.188 319.535" stroke="#F5F5FA" stroke-width="2"/>
<path d="M31 324.511L26.2265 334.511H37.7735L33 324.511H31ZM31 80.4246C31 80.9769 31.4477 81.4246 32 81.4246C32.5523 81.4246 33 80.9769 33 80.4246H31ZM33 85.476C33 84.9237 32.5523 84.476 32 84.476C31.4477 84.476 31 84.9237 31 85.476H33ZM31 86.4863C31 87.0386 31.4477 87.4863 32 87.4863C32.5523 87.4863 33 87.0386 33 86.4863H31ZM33 91.5377C33 90.9854 32.5523 90.5377 32 90.5377C31.4477 90.5377 31 90.9854 31 91.5377H33ZM31 92.548C31 93.1003 31.4477 93.548 32 93.548C32.5523 93.548 33 93.1003 33 92.548H31ZM33 97.5994C33 97.0471 32.5523 96.5994 32 96.5994C31.4477 96.5994 31 97.0471 31 97.5994H33ZM31 98.6097C31 99.162 31.4477 99.6097 32 99.6097C32.5523 99.6097 33 99.162 33 98.6097H31ZM33 103.661C33 103.109 32.5523 102.661 32 102.661C31.4477 102.661 31 103.109 31 103.661H33ZM31 104.671C31 105.224 31.4477 105.671 32 105.671C32.5523 105.671 33 105.224 33 104.671H31ZM33 109.723C33 109.171 32.5523 108.723 32 108.723C31.4477 108.723 31 109.171 31 109.723H33ZM31 110.733C31 111.285 31.4477 111.733 32 111.733C32.5523 111.733 33 111.285 33 110.733H31ZM33 115.785C33 115.232 32.5523 114.785 32 114.785C31.4477 114.785 31 115.232 31 115.785H33ZM31 116.795C31 117.347 31.4477 117.795 32 117.795C32.5523 117.795 33 117.347 33 116.795H31ZM33 121.846C33 121.294 32.5523 120.846 32 120.846C31.4477 120.846 31 121.294 31 121.846H33ZM31 122.857C31 123.409 31.4477 123.857 32 123.857C32.5523 123.857 33 123.409 33 122.857H31ZM33 127.908C33 127.356 32.5523 126.908 32 126.908C31.4477 126.908 31 127.356 31 127.908H33ZM31 128.918C31 129.471 31.4477 129.918 32 129.918C32.5523 129.918 33 129.471 33 128.918H31ZM33 133.97C33 133.417 32.5523 132.97 32 132.97C31.4477 132.97 31 133.417 31 133.97H33ZM31 134.98C31 135.532 31.4477 135.98 32 135.98C32.5523 135.98 33 135.532 33 134.98H31ZM33 140.031C33 139.479 32.5523 139.031 32 139.031C31.4477 139.031 31 139.479 31 140.031H33ZM31 141.042C31 141.594 31.4477 142.042 32 142.042C32.5523 142.042 33 141.594 33 141.042H31ZM33 146.093C33 145.541 32.5523 145.093 32 145.093C31.4477 145.093 31 145.541 31 146.093H33ZM31 147.103C31 147.656 31.4477 148.103 32 148.103C32.5523 148.103 33 147.656 33 147.103H31ZM33 152.155C33 151.603 32.5523 151.155 32 151.155C31.4477 151.155 31 151.603 31 152.155H33ZM31 153.165C31 153.717 31.4477 154.165 32 154.165C32.5523 154.165 33 153.717 33 153.165H31ZM33 158.217C33 157.664 32.5523 157.217 32 157.217C31.4477 157.217 31 157.664 31 158.217H33ZM31 159.227C31 159.779 31.4477 160.227 32 160.227C32.5523 160.227 33 159.779 33 159.227H31ZM33 164.278C33 163.726 32.5523 163.278 32 163.278C31.4477 163.278 31 163.726 31 164.278H33ZM31 165.289C31 165.841 31.4477 166.289 32 166.289C32.5523 166.289 33 165.841 33 165.289H31ZM33 170.34C33 169.788 32.5523 169.34 32 169.34C31.4477 169.34 31 169.788 31 170.34H33ZM31 171.35C31 171.903 31.4477 172.35 32 172.35C32.5523 172.35 33 171.903 33 171.35H31ZM33 176.402C33 175.849 32.5523 175.402 32 175.402C31.4477 175.402 31 175.849 31 176.402H33ZM31 177.412C31 177.964 31.4477 178.412 32 178.412C32.5523 178.412 33 177.964 33 177.412H31ZM33 182.463C33 181.911 32.5523 181.463 32 181.463C31.4477 181.463 31 181.911 31 182.463H33ZM31 183.474C31 184.026 31.4477 184.474 32 184.474C32.5523 184.474 33 184.026 33 183.474H31ZM33 188.525C33 187.973 32.5523 187.525 32 187.525C31.4477 187.525 31 187.973 31 188.525H33ZM31 189.535C31 190.088 31.4477 190.535 32 190.535C32.5523 190.535 33 190.088 33 189.535H31ZM33 194.587C33 194.035 32.5523 193.587 32 193.587C31.4477 193.587 31 194.035 31 194.587H33ZM31 195.597C31 196.149 31.4477 196.597 32 196.597C32.5523 196.597 33 196.149 33 195.597H31ZM33 200.649C33 200.096 32.5523 199.649 32 199.649C31.4477 199.649 31 200.096 31 200.649H33ZM31 201.659C31 202.211 31.4477 202.659 32 202.659C32.5523 202.659 33 202.211 33 201.659H31ZM33 206.71C33 206.158 32.5523 205.71 32 205.71C31.4477 205.71 31 206.158 31 206.71H33ZM31 207.721C31 208.273 31.4477 208.721 32 208.721C32.5523 208.721 33 208.273 33 207.721H31ZM33 212.772C33 212.22 32.5523 211.772 32 211.772C31.4477 211.772 31 212.22 31 212.772H33ZM31 213.782C31 214.335 31.4477 214.782 32 214.782C32.5523 214.782 33 214.335 33 213.782H31ZM33 218.834C33 218.281 32.5523 217.834 32 217.834C31.4477 217.834 31 218.281 31 218.834H33ZM31 219.844C31 220.396 31.4477 220.844 32 220.844C32.5523 220.844 33 220.396 33 219.844H31ZM33 224.895C33 224.343 32.5523 223.895 32 223.895C31.4477 223.895 31 224.343 31 224.895H33ZM31 225.906C31 226.458 31.4477 226.906 32 226.906C32.5523 226.906 33 226.458 33 225.906H31ZM33 230.957C33 230.405 32.5523 229.957 32 229.957C31.4477 229.957 31 230.405 31 230.957H33ZM31 231.967C31 232.52 31.4477 232.967 32 232.967C32.5523 232.967 33 232.52 33 231.967H31ZM33 237.019C33 236.467 32.5523 236.019 32 236.019C31.4477 236.019 31 236.467 31 237.019H33ZM31 238.029C31 238.581 31.4477 239.029 32 239.029C32.5523 239.029 33 238.581 33 238.029H31ZM33 243.081C33 242.528 32.5523 242.081 32 242.081C31.4477 242.081 31 242.528 31 243.081H33ZM31 244.091C31 244.643 31.4477 245.091 32 245.091C32.5523 245.091 33 244.643 33 244.091H31ZM33 249.142C33 248.59 32.5523 248.142 32 248.142C31.4477 248.142 31 248.59 31 249.142H33ZM31 250.153C31 250.705 31.4477 251.153 32 251.153C32.5523 251.153 33 250.705 33 250.153H31ZM33 255.204C33 254.652 32.5523 254.204 32 254.204C31.4477 254.204 31 254.652 31 255.204H33ZM31 256.214C31 256.767 31.4477 257.214 32 257.214C32.5523 257.214 33 256.767 33 256.214H31ZM33 261.266C33 260.713 32.5523 260.266 32 260.266C31.4477 260.266 31 260.713 31 261.266H33ZM31 262.276C31 262.828 31.4477 263.276 32 263.276C32.5523 263.276 33 262.828 33 262.276H31ZM33 267.327C33 266.775 32.5523 266.327 32 266.327C31.4477 266.327 31 266.775 31 267.327H33ZM31 268.338C31 268.89 31.4477 269.338 32 269.338C32.5523 269.338 33 268.89 33 268.338H31ZM33 273.389C33 272.837 32.5523 272.389 32 272.389C31.4477 272.389 31 272.837 31 273.389H33ZM31 274.399C31 274.952 31.4477 275.399 32 275.399C32.5523 275.399 33 274.952 33 274.399H31ZM33 279.451C33 278.898 32.5523 278.451 32 278.451C31.4477 278.451 31 278.898 31 279.451H33ZM31 280.461C31 281.013 31.4477 281.461 32 281.461C32.5523 281.461 33 281.013 33 280.461H31ZM33 285.512C33 284.96 32.5523 284.512 32 284.512C31.4477 284.512 31 284.96 31 285.512H33ZM31 286.523C31 287.075 31.4477 287.523 32 287.523C32.5523 287.523 33 287.075 33 286.523H31ZM33 291.574C33 291.022 32.5523 290.574 32 290.574C31.4477 290.574 31 291.022 31 291.574H33ZM31 292.584C31 293.137 31.4477 293.584 32 293.584C32.5523 293.584 33 293.137 33 292.584H31ZM33 297.636C33 297.084 32.5523 296.636 32 296.636C31.4477 296.636 31 297.084 31 297.636H33ZM31 298.646C31 299.198 31.4477 299.646 32 299.646C32.5523 299.646 33 299.198 33 298.646H31ZM33 303.698C33 303.145 32.5523 302.698 32 302.698C31.4477 302.698 31 303.145 31 303.698H33ZM31 304.708C31 305.26 31.4477 305.708 32 305.708C32.5523 305.708 33 305.26 33 304.708H31ZM33 309.759C33 309.207 32.5523 308.759 32 308.759C31.4477 308.759 31 309.207 31 309.759H33ZM31 310.77C31 311.322 31.4477 311.77 32 311.77C32.5523 311.77 33 311.322 33 310.77H31ZM33 315.821C33 315.269 32.5523 314.821 32 314.821C31.4477 314.821 31 315.269 31 315.821H33ZM31 316.831C31 317.384 31.4477 317.831 32 317.831C32.5523 317.831 33 317.384 33 316.831H31ZM33 321.883C33 321.33 32.5523 320.883 32 320.883C31.4477 320.883 31 321.33 31 321.883H33ZM31 322.893C31 323.445 31.4477 323.893 32 323.893C32.5523 323.893 33 323.445 33 322.893H31ZM33 327.944C33 327.392 32.5523 326.944 32 326.944C31.4477 326.944 31 327.392 31 327.944H33ZM31 328.955C31 329.507 31.4477 329.955 32 329.955C32.5523 329.955 33 329.507 33 328.955H31ZM33 334.006C33 333.454 32.5523 333.006 32 333.006C31.4477 333.006 31 333.454 31 334.006H33ZM32 79.9194H31V80.4246H32H33V79.9194H32ZM32 85.476H31V86.4863H32H33V85.476H32ZM32 91.5377H31V92.548H32H33V91.5377H32ZM32 97.5994H31V98.6097H32H33V97.5994H32ZM32 103.661H31V104.671H32H33V103.661H32ZM32 109.723H31V110.733H32H33V109.723H32ZM32 115.785H31V116.795H32H33V115.785H32ZM32 121.846H31V122.857H32H33V121.846H32ZM32 127.908H31V128.918H32H33V127.908H32ZM32 133.97H31V134.98H32H33V133.97H32ZM32 140.031H31V141.042H32H33V140.031H32ZM32 146.093H31V147.103H32H33V146.093H32ZM32 152.155H31V153.165H32H33V152.155H32ZM32 158.217H31V159.227H32H33V158.217H32ZM32 164.278H31V165.289H32H33V164.278H32ZM32 170.34H31V171.35H32H33V170.34H32ZM32 176.402H31V177.412H32H33V176.402H32ZM32 182.463H31V183.474H32H33V182.463H32ZM32 188.525H31V189.535H32H33V188.525H32ZM32 194.587H31V195.597H32H33V194.587H32ZM32 200.649H31V201.659H32H33V200.649H32ZM32 206.71H31V207.721H32H33V206.71H32ZM32 212.772H31V213.782H32H33V212.772H32ZM32 218.834H31V219.844H32H33V218.834H32ZM32 224.895H31V225.906H32H33V224.895H32ZM32 230.957H31V231.967H32H33V230.957H32ZM32 237.019H31V238.029H32H33V237.019H32ZM32 243.081H31V244.091H32H33V243.081H32ZM32 249.142H31V250.153H32H33V249.142H32ZM32 255.204H31V256.214H32H33V255.204H32ZM32 261.266H31V262.276H32H33V261.266H32ZM32 267.327H31V268.338H32H33V267.327H32ZM32 273.389H31V274.399H32H33V273.389H32ZM32 279.451H31V280.461H32H33V279.451H32ZM32 285.512H31V286.523H32H33V285.512H32ZM32 291.574H31V292.584H32H33V291.574H32ZM32 297.636H31V298.646H32H33V297.636H32ZM32 303.698H31V304.708H32H33V303.698H32ZM32 309.759H31V310.77H32H33V309.759H32ZM32 315.821H31V316.831H32H33V315.821H32ZM32 321.883H31V322.893H32H33V321.883H32ZM32 327.944H31V328.955H32H33V327.944H32Z" fill="#F5F5FA"/>
<path d="M89.032 229.903L84.2585 239.903H95.8055L91.032 229.903H89.032ZM89.032 80.6598C89.032 81.212 89.4797 81.6598 90.032 81.6598C90.5843 81.6598 91.032 81.212 91.032 80.6598H89.032ZM91.032 85.5899C91.032 85.0376 90.5843 84.5899 90.032 84.5899C89.4797 84.5899 89.032 85.0376 89.032 85.5899H91.032ZM89.032 86.5759C89.032 87.1282 89.4797 87.5759 90.032 87.5759C90.5843 87.5759 91.032 87.1282 91.032 86.5759H89.032ZM91.032 91.506C91.032 90.9537 90.5843 90.506 90.032 90.506C89.4797 90.506 89.032 90.9537 89.032 91.506H91.032ZM89.032 92.4921C89.032 93.0443 89.4797 93.4921 90.032 93.4921C90.5843 93.4921 91.032 93.0443 91.032 92.4921H89.032ZM91.032 97.4222C91.032 96.8699 90.5843 96.4222 90.032 96.4222C89.4797 96.4222 89.032 96.8699 89.032 97.4222H91.032ZM89.032 98.4082C89.032 98.9605 89.4797 99.4082 90.032 99.4082C90.5843 99.4082 91.032 98.9605 91.032 98.4082H89.032ZM91.032 103.338C91.032 102.786 90.5843 102.338 90.032 102.338C89.4797 102.338 89.032 102.786 89.032 103.338H91.032ZM89.032 104.324C89.032 104.877 89.4797 105.324 90.032 105.324C90.5843 105.324 91.032 104.877 91.032 104.324H89.032ZM91.032 109.254C91.032 108.702 90.5843 108.254 90.032 108.254C89.4797 108.254 89.032 108.702 89.032 109.254H91.032ZM89.032 110.241C89.032 110.793 89.4797 111.241 90.032 111.241C90.5843 111.241 91.032 110.793 91.032 110.241H89.032ZM91.032 115.171C91.032 114.618 90.5843 114.171 90.032 114.171C89.4797 114.171 89.032 114.618 89.032 115.171H91.032ZM89.032 116.157C89.032 116.709 89.4797 117.157 90.032 117.157C90.5843 117.157 91.032 116.709 91.032 116.157H89.032ZM91.032 121.087C91.032 120.534 90.5843 120.087 90.032 120.087C89.4797 120.087 89.032 120.534 89.032 121.087H91.032ZM89.032 122.073C89.032 122.625 89.4797 123.073 90.032 123.073C90.5843 123.073 91.032 122.625 91.032 122.073H89.032ZM91.032 127.003C91.032 126.451 90.5843 126.003 90.032 126.003C89.4797 126.003 89.032 126.451 89.032 127.003H91.032ZM89.032 127.989C89.032 128.541 89.4797 128.989 90.032 128.989C90.5843 128.989 91.032 128.541 91.032 127.989H89.032ZM91.032 132.919C91.032 132.367 90.5843 131.919 90.032 131.919C89.4797 131.919 89.032 132.367 89.032 132.919H91.032ZM89.032 133.905C89.032 134.457 89.4797 134.905 90.032 134.905C90.5843 134.905 91.032 134.457 91.032 133.905H89.032ZM91.032 138.835C91.032 138.283 90.5843 137.835 90.032 137.835C89.4797 137.835 89.032 138.283 89.032 138.835H91.032ZM89.032 139.821C89.032 140.374 89.4797 140.821 90.032 140.821C90.5843 140.821 91.032 140.374 91.032 139.821H89.032ZM91.032 144.751C91.032 144.199 90.5843 143.751 90.032 143.751C89.4797 143.751 89.032 144.199 89.032 144.751H91.032ZM89.032 145.737C89.032 146.29 89.4797 146.737 90.032 146.737C90.5843 146.737 91.032 146.29 91.032 145.737H89.032ZM91.032 150.668C91.032 150.115 90.5843 149.668 90.032 149.668C89.4797 149.668 89.032 150.115 89.032 150.668H91.032ZM89.032 151.654C89.032 152.206 89.4797 152.654 90.032 152.654C90.5843 152.654 91.032 152.206 91.032 151.654H89.032ZM91.032 156.584C91.032 156.031 90.5843 155.584 90.032 155.584C89.4797 155.584 89.032 156.031 89.032 156.584H91.032ZM89.032 157.57C89.032 158.122 89.4797 158.57 90.032 158.57C90.5843 158.57 91.032 158.122 91.032 157.57H89.032ZM91.032 162.5C91.032 161.948 90.5843 161.5 90.032 161.5C89.4797 161.5 89.032 161.948 89.032 162.5H91.032ZM89.032 163.486C89.032 164.038 89.4797 164.486 90.032 164.486C90.5843 164.486 91.032 164.038 91.032 163.486H89.032ZM91.032 168.416C91.032 167.864 90.5843 167.416 90.032 167.416C89.4797 167.416 89.032 167.864 89.032 168.416H91.032ZM89.032 169.402C89.032 169.954 89.4797 170.402 90.032 170.402C90.5843 170.402 91.032 169.954 91.032 169.402H89.032ZM91.032 174.332C91.032 173.78 90.5843 173.332 90.032 173.332C89.4797 173.332 89.032 173.78 89.032 174.332H91.032ZM89.032 175.318C89.032 175.87 89.4797 176.318 90.032 176.318C90.5843 176.318 91.032 175.87 91.032 175.318H89.032ZM91.032 180.248C91.032 179.696 90.5843 179.248 90.032 179.248C89.4797 179.248 89.032 179.696 89.032 180.248H91.032ZM89.032 181.234C89.032 181.787 89.4797 182.234 90.032 182.234C90.5843 182.234 91.032 181.787 91.032 181.234H89.032ZM91.032 186.164C91.032 185.612 90.5843 185.164 90.032 185.164C89.4797 185.164 89.032 185.612 89.032 186.164H91.032ZM89.032 187.15C89.032 187.703 89.4797 188.15 90.032 188.15C90.5843 188.15 91.032 187.703 91.032 187.15H89.032ZM91.032 192.081C91.032 191.528 90.5843 191.081 90.032 191.081C89.4797 191.081 89.032 191.528 89.032 192.081H91.032ZM89.032 193.067C89.032 193.619 89.4797 194.067 90.032 194.067C90.5843 194.067 91.032 193.619 91.032 193.067H89.032ZM91.032 197.997C91.032 197.444 90.5843 196.997 90.032 196.997C89.4797 196.997 89.032 197.444 89.032 197.997H91.032ZM89.032 198.983C89.032 199.535 89.4797 199.983 90.032 199.983C90.5843 199.983 91.032 199.535 91.032 198.983H89.032ZM91.032 203.913C91.032 203.361 90.5843 202.913 90.032 202.913C89.4797 202.913 89.032 203.361 89.032 203.913H91.032ZM89.032 204.899C89.032 205.451 89.4797 205.899 90.032 205.899C90.5843 205.899 91.032 205.451 91.032 204.899H89.032ZM91.032 209.829C91.032 209.277 90.5843 208.829 90.032 208.829C89.4797 208.829 89.032 209.277 89.032 209.829H91.032ZM89.032 210.815C89.032 211.367 89.4797 211.815 90.032 211.815C90.5843 211.815 91.032 211.367 91.032 210.815H89.032ZM91.032 215.745C91.032 215.193 90.5843 214.745 90.032 214.745C89.4797 214.745 89.032 215.193 89.032 215.745H91.032ZM89.032 216.731C89.032 217.283 89.4797 217.731 90.032 217.731C90.5843 217.731 91.032 217.283 91.032 216.731H89.032ZM91.032 221.661C91.032 221.109 90.5843 220.661 90.032 220.661C89.4797 220.661 89.032 221.109 89.032 221.661H91.032ZM89.032 222.647C89.032 223.2 89.4797 223.647 90.032 223.647C90.5843 223.647 91.032 223.2 91.032 222.647H89.032ZM91.032 227.577C91.032 227.025 90.5843 226.577 90.032 226.577C89.4797 226.577 89.032 227.025 89.032 227.577H91.032ZM89.032 228.563C89.032 229.116 89.4797 229.563 90.032 229.563C90.5843 229.563 91.032 229.116 91.032 228.563H89.032ZM91.032 233.494C91.032 232.941 90.5843 232.494 90.032 232.494C89.4797 232.494 89.032 232.941 89.032 233.494H91.032ZM89.032 234.48C89.032 235.032 89.4797 235.48 90.032 235.48C90.5843 235.48 91.032 235.032 91.032 234.48H89.032ZM91.032 239.41C91.032 238.857 90.5843 238.41 90.032 238.41C89.4797 238.41 89.032 238.857 89.032 239.41H91.032ZM90.032 80.1667H89.032V80.6598H90.032H91.032V80.1667H90.032ZM90.032 85.5899H89.032V86.5759H90.032H91.032V85.5899H90.032ZM90.032 91.506H89.032V92.4921H90.032H91.032V91.506H90.032ZM90.032 97.4222H89.032V98.4082H90.032H91.032V97.4222H90.032ZM90.032 103.338H89.032V104.324H90.032H91.032V103.338H90.032ZM90.032 109.254H89.032V110.241H90.032H91.032V109.254H90.032ZM90.032 115.171H89.032V116.157H90.032H91.032V115.171H90.032ZM90.032 121.087H89.032V122.073H90.032H91.032V121.087H90.032ZM90.032 127.003H89.032V127.989H90.032H91.032V127.003H90.032ZM90.032 132.919H89.032V133.905H90.032H91.032V132.919H90.032ZM90.032 138.835H89.032V139.821H90.032H91.032V138.835H90.032ZM90.032 144.751H89.032V145.737H90.032H91.032V144.751H90.032ZM90.032 150.668H89.032V151.654H90.032H91.032V150.668H90.032ZM90.032 156.584H89.032V157.57H90.032H91.032V156.584H90.032ZM90.032 162.5H89.032V163.486H90.032H91.032V162.5H90.032ZM90.032 168.416H89.032V169.402H90.032H91.032V168.416H90.032ZM90.032 174.332H89.032V175.318H90.032H91.032V174.332H90.032ZM90.032 180.248H89.032V181.234H90.032H91.032V180.248H90.032ZM90.032 186.164H89.032V187.15H90.032H91.032V186.164H90.032ZM90.032 192.081H89.032V193.067H90.032H91.032V192.081H90.032ZM90.032 197.997H89.032V198.983H90.032H91.032V197.997H90.032ZM90.032 203.913H89.032V204.899H90.032H91.032V203.913H90.032ZM90.032 209.829H89.032V210.815H90.032H91.032V209.829H90.032ZM90.032 215.745H89.032V216.731H90.032H91.032V215.745H90.032ZM90.032 221.661H89.032V222.647H90.032H91.032V221.661H90.032ZM90.032 227.577H89.032V228.563H90.032H91.032V227.577H90.032ZM90.032 233.494H89.032V234.48H90.032H91.032V233.494H90.032Z" fill="#F5F5FA"/>
</svg>
